<?xml version="1.0" encoding="UTF-8" standalone="no"?>
<!DOCTYPE svg PUBLIC "-//W3C//DTD SVG 1.1//EN" "http://www.w3.org/Graphics/SVG/1.1/DTD/svg11.dtd">
<!-- Generated by graphviz version 2.40.1 (20161225.0304)
 -->
<!-- Title: %0 Pages: 1 -->
<svg width="820pt" height="1400pt" viewBox="0.00 0.00 819.92 1399.60" xmlns="http://www.w3.org/2000/svg" xmlns:xlink="http://www.w3.org/1999/xlink">
<g id="graph0" class="graph" transform="scale(1 1) rotate(0) translate(4 1395.6)">
<title>%0</title>
<polygon fill="#ffffff" stroke="transparent" points="-4,4 -4,-1395.6 815.925,-1395.6 815.925,4 -4,4"/>
<g id="clust1" class="cluster">
<title>cluster_out_of_combat</title>
<polygon fill="none" stroke="#000000" points="476,-827.8 476,-1338.6 718,-1338.6 718,-827.8 476,-827.8"/>
<text text-anchor="middle" x="522.8808" y="-1322" font-family="Times,serif" font-size="14.00" fill="#000000">out of combat</text>
</g>
<g id="clust2" class="cluster">
<title>cluster_in_combat</title>
<polygon fill="none" stroke="#000000" points="8,-8 8,-795 727,-795 727,-8 8,-8"/>
<text text-anchor="middle" x="43.8005" y="-778.4" font-family="Times,serif" font-size="14.00" fill="#000000">in combat</text>
</g>
<!-- start -->
<g id="node1" class="node">
<title>start</title>
<text text-anchor="middle" x="629" y="-1369.4" font-family="Times,serif" font-size="14.00" fill="#000000">start</text>
</g>
<!-- h0 -->
<g id="node2" class="node">
<title>h0</title>
<polygon fill="none" stroke="#000000" points="656,-1305.8 602,-1305.8 602,-1269.8 656,-1269.8 656,-1305.8"/>
<text text-anchor="middle" x="629" y="-1283.6" font-family="Times,serif" font-size="14.00" fill="#000000">h0</text>
</g>
<!-- start&#45;&gt;h0 -->
<g id="edge1" class="edge">
<title>start-&gt;h0</title>
<path fill="none" stroke="#000000" d="M629,-1355.404C629,-1344.0286 629,-1329.1378 629,-1316.2277"/>
<polygon fill="#000000" stroke="#000000" points="632.5001,-1315.9697 629,-1305.9697 625.5001,-1315.9698 632.5001,-1315.9697"/>
</g>
<!-- h5 -->
<g id="node3" class="node">
<title>h5</title>
<polygon fill="none" stroke="#000000" points="656,-1219 602,-1219 602,-1183 656,-1183 656,-1219"/>
<text text-anchor="middle" x="629" y="-1196.8" font-family="Times,serif" font-size="14.00" fill="#000000">h5</text>
</g>
<!-- h0&#45;&gt;h5 -->
<g id="edge2" class="edge">
<title>h0-&gt;h5</title>
<path fill="none" stroke="#ff4500" d="M629,-1269.392C629,-1257.6903 629,-1242.3117 629,-1229.1016"/>
<polygon fill="#ff4500" stroke="#ff4500" points="632.5001,-1229.0838 629,-1219.0839 625.5001,-1229.0839 632.5001,-1229.0838"/>
<text text-anchor="middle" x="644.9376" y="-1240.2" font-family="Times,serif" font-size="14.00" fill="#ff4500">hydra</text>
</g>
<!-- h10 -->
<g id="node4" class="node">
<title>h10</title>
<polygon fill="none" stroke="#000000" points="656,-1132.2 602,-1132.2 602,-1096.2 656,-1096.2 656,-1132.2"/>
<text text-anchor="middle" x="629" y="-1110" font-family="Times,serif" font-size="14.00" fill="#000000">h10</text>
</g>
<!-- h5&#45;&gt;h10 -->
<g id="edge3" class="edge">
<title>h5-&gt;h10</title>
<path fill="none" stroke="#ff4500" d="M629,-1182.592C629,-1170.8903 629,-1155.5117 629,-1142.3016"/>
<polygon fill="#ff4500" stroke="#ff4500" points="632.5001,-1142.2838 629,-1132.2839 625.5001,-1142.2839 632.5001,-1142.2838"/>
<text text-anchor="middle" x="644.9376" y="-1153.4" font-family="Times,serif" font-size="14.00" fill="#ff4500">hydra</text>
</g>
<!-- h10_fi2 -->
<g id="node5" class="node">
<title>h10_fi2</title>
<polygon fill="none" stroke="#000000" points="689.5529,-1045.4 630.4471,-1045.4 630.4471,-1009.4 689.5529,-1009.4 689.5529,-1045.4"/>
<text text-anchor="middle" x="660" y="-1023.2" font-family="Times,serif" font-size="14.00" fill="#000000">h10_fi2</text>
</g>
<!-- h10&#45;&gt;h10_fi2 -->
<g id="edge4" class="edge">
<title>h10-&gt;h10_fi2</title>
<path fill="none" stroke="#9932cc" d="M632.7718,-1096.178C635.1203,-1086.0877 638.4779,-1073.3679 642.5946,-1062.4 643.5455,-1059.8665 644.6225,-1057.2732 645.7631,-1054.7"/>
<polygon fill="#9932cc" stroke="#9932cc" points="648.9496,-1056.1488 650.062,-1045.6125 642.6219,-1053.1554 648.9496,-1056.1488"/>
<text text-anchor="middle" x="672.7027" y="-1066.6" font-family="Times,serif" font-size="14.00" fill="#9932cc">electrocute</text>
</g>
<!-- h10_fi5 -->
<g id="node7" class="node">
<title>h10_fi5</title>
<polygon fill="none" stroke="#000000" points="610.5529,-871.8 551.4471,-871.8 551.4471,-835.8 610.5529,-835.8 610.5529,-871.8"/>
<text text-anchor="middle" x="581" y="-849.6" font-family="Times,serif" font-size="14.00" fill="#000000">h10_fi5</text>
</g>
<!-- h10&#45;&gt;h10_fi5 -->
<g id="edge7" class="edge">
<title>h10-&gt;h10_fi5</title>
<path fill="none" stroke="#ff4500" d="M665.877,-1106.1119C680.3313,-1100.9443 695.4709,-1092.5923 704,-1079.2 709.8205,-1070.0606 710.0759,-1048.2931 699,-1009.4 693.2513,-989.2133 678,-988.0893 678,-967.1 678,-967.1 678,-967.1 678,-897.2 678,-882.2563 639.1562,-868.8461 610.6303,-861.0128"/>
<polygon fill="#ff4500" stroke="#ff4500" points="664.5544,-1102.859 656.0693,-1109.2036 666.659,-1109.5352 664.5544,-1102.859"/>
<text text-anchor="middle" x="704.9376" y="-979.8" font-family="Times,serif" font-size="14.00" fill="#ff4500">hydra</text>
</g>
<!-- h10_fi4 -->
<g id="node6" class="node">
<title>h10_fi4</title>
<polygon fill="none" stroke="#000000" points="610.5529,-958.6 551.4471,-958.6 551.4471,-922.6 610.5529,-922.6 610.5529,-958.6"/>
<text text-anchor="middle" x="581" y="-936.4" font-family="Times,serif" font-size="14.00" fill="#000000">h10_fi4</text>
</g>
<!-- h10_fi2&#45;&gt;h10_fi4 -->
<g id="edge5" class="edge">
<title>h10_fi2-&gt;h10_fi4</title>
<path fill="none" stroke="#9932cc" d="M630.4191,-1014.4174C615.5435,-1007.3476 599.6206,-998.7694 594.5946,-992.4 589.3301,-985.7283 586.0919,-977.2171 584.1041,-969.0304"/>
<polygon fill="#9932cc" stroke="#9932cc" points="587.5028,-968.1676 582.1966,-958.9972 580.626,-969.475 587.5028,-968.1676"/>
<text text-anchor="middle" x="624.7027" y="-979.8" font-family="Times,serif" font-size="14.00" fill="#9932cc">electrocute</text>
</g>
<!-- h10_fi4&#45;&gt;h10_fi5 -->
<g id="edge6" class="edge">
<title>h10_fi4-&gt;h10_fi5</title>
<path fill="none" stroke="#9932cc" d="M581,-922.192C581,-910.4903 581,-895.1117 581,-881.9016"/>
<polygon fill="#9932cc" stroke="#9932cc" points="584.5001,-881.8838 581,-871.8839 577.5001,-881.8839 584.5001,-881.8838"/>
<text text-anchor="middle" x="611.7027" y="-893" font-family="Times,serif" font-size="14.00" fill="#9932cc">electrocute</text>
</g>
<!-- H5h5 -->
<g id="node9" class="node">
<title>H5h5</title>
<polygon fill="#fcfed3" stroke="#000000" points="493,-762.2 439,-762.2 439,-726.2 493,-726.2 493,-762.2"/>
<text text-anchor="middle" x="466" y="-740" font-family="Times,serif" font-size="14.00" fill="#000000">H5h5</text>
</g>
<!-- h10_fi5&#45;&gt;H5h5 -->
<g id="edge10" class="edge">
<title>h10_fi5-&gt;H5h5</title>
<path fill="none" stroke="#ff4500" d="M562.0101,-835.7018C543.033,-817.6158 513.6985,-789.6587 492.4475,-769.4056"/>
<polygon fill="#ff4500" stroke="#ff4500" points="494.6718,-766.6905 485.0181,-762.3251 489.8424,-771.7578 494.6718,-766.6905"/>
<text text-anchor="middle" x="558.9376" y="-807.2" font-family="Times,serif" font-size="14.00" fill="#ff4500">hydra</text>
</g>
<!-- H10_b_fi5_s10 -->
<g id="node17" class="node">
<title>H10_b_fi5_s10</title>
<polygon fill="#004529" stroke="#000000" points="466.6025,-52 363.3975,-52 363.3975,-16 466.6025,-16 466.6025,-52"/>
<text text-anchor="middle" x="415" y="-29.8" font-family="Times,serif" font-size="14.00" fill="#ffffff">H10_b_fi5_s10</text>
</g>
<!-- h10_fi5&#45;&gt;H10_b_fi5_s10 -->
<g id="edge39" class="edge">
<title>h10_fi5-&gt;H10_b_fi5_s10</title>
<path fill="none" stroke="#000000" d="M620.6919,-845.8888C669.7982,-833.5213 747,-804.4907 747,-744.2 747,-744.2 747,-744.2 747,-77.4 747,-49.4979 560.25,-39.0365 466.875,-35.5496"/>
<polygon fill="#000000" stroke="#000000" points="619.591,-842.5532 610.6775,-848.2802 621.217,-849.3617 619.591,-842.5532"/>
<text text-anchor="middle" x="779.4625" y="-411.4" font-family="Times,serif" font-size="14.00" fill="#000000">end combat</text>
</g>
<!-- h5_fi5 -->
<g id="node8" class="node">
<title>h5_fi5</title>
<polygon fill="none" stroke="#000000" points="561,-1219 507,-1219 507,-1183 561,-1183 561,-1219"/>
<text text-anchor="middle" x="534" y="-1196.8" font-family="Times,serif" font-size="14.00" fill="#000000">h5_fi5</text>
</g>
<!-- h5_fi5&#45;&gt;h10 -->
<g id="edge9" class="edge">
<title>h5_fi5-&gt;h10</title>
<path fill="none" stroke="#ff4500" d="M554.1471,-1182.592C567.9686,-1169.9635 586.4772,-1153.0524 601.6314,-1139.2062"/>
<polygon fill="#ff4500" stroke="#ff4500" points="604.1861,-1141.6131 609.2077,-1132.2839 599.4644,-1136.4453 604.1861,-1141.6131"/>
<text text-anchor="middle" x="604.9376" y="-1153.4" font-family="Times,serif" font-size="14.00" fill="#ff4500">hydra</text>
</g>
<!-- h5_fi5&#45;&gt;h10_fi5 -->
<g id="edge8" class="edge">
<title>h5_fi5-&gt;h10_fi5</title>
<path fill="none" stroke="#000000" d="M507.0088,-1174.5068C504.0039,-1169.3106 502,-1163.5972 502,-1157.6 502,-1157.6 502,-1157.6 502,-897.2 502,-873.8835 528.7621,-863.0066 551.1335,-857.9876"/>
<polygon fill="#000000" stroke="#000000" points="504.1945,-1176.5889 512.8337,-1182.722 509.9048,-1172.5401 504.1945,-1176.5889"/>
<text text-anchor="middle" x="557.209" y="-1023.2" font-family="Times,serif" font-size="14.00" fill="#000000">hydra timeout (30s)</text>
</g>
<!-- H5h5_b -->
<g id="node10" class="node">
<title>H5h5_b</title>
<polygon fill="#f7fcb9" stroke="#000000" points="457.6067,-675.4 396.3933,-675.4 396.3933,-639.4 457.6067,-639.4 457.6067,-675.4"/>
<text text-anchor="middle" x="427" y="-653.2" font-family="Times,serif" font-size="14.00" fill="#000000">H5h5_b</text>
</g>
<!-- H5h5&#45;&gt;H5h5_b -->
<g id="edge11" class="edge">
<title>H5h5-&gt;H5h5_b</title>
<path fill="none" stroke="#4169e1" d="M457.7291,-725.792C452.3673,-713.8586 445.2874,-698.1012 439.2748,-684.7194"/>
<polygon fill="#4169e1" stroke="#4169e1" points="442.4163,-683.171 435.1252,-675.4839 436.0311,-686.0399 442.4163,-683.171"/>
<text text-anchor="middle" x="471.5428" y="-696.6" font-family="Times,serif" font-size="14.00" fill="#4169e1">blizzard</text>
</g>
<!-- H5h5_b_fi2_s4 -->
<g id="node11" class="node">
<title>H5h5_b_fi2_s4</title>
<polygon fill="#d0ec9f" stroke="#000000" points="392.6025,-588.6 289.3975,-588.6 289.3975,-552.6 392.6025,-552.6 392.6025,-588.6"/>
<text text-anchor="middle" x="341" y="-566.4" font-family="Times,serif" font-size="14.00" fill="#000000">H5h5_b_fi2_s4</text>
</g>
<!-- H5h5_b&#45;&gt;H5h5_b_fi2_s4 -->
<g id="edge12" class="edge">
<title>H5h5_b-&gt;H5h5_b_fi2_s4</title>
<path fill="none" stroke="#9932cc" d="M408.7616,-638.992C396.3643,-626.4793 379.8014,-609.7624 366.1541,-595.9881"/>
<polygon fill="#9932cc" stroke="#9932cc" points="368.4418,-593.3242 358.9172,-588.6839 363.4692,-598.251 368.4418,-593.3242"/>
<text text-anchor="middle" x="421.7027" y="-609.8" font-family="Times,serif" font-size="14.00" fill="#9932cc">electrocute</text>
</g>
<!-- H5h5_b_fi4_s8 -->
<g id="node12" class="node">
<title>H5h5_b_fi4_s8</title>
<polygon fill="#98d486" stroke="#000000" points="348.6025,-501.8 245.3975,-501.8 245.3975,-465.8 348.6025,-465.8 348.6025,-501.8"/>
<text text-anchor="middle" x="297" y="-479.6" font-family="Times,serif" font-size="14.00" fill="#000000">H5h5_b_fi4_s8</text>
</g>
<!-- H5h5_b_fi2_s4&#45;&gt;H5h5_b_fi4_s8 -->
<g id="edge13" class="edge">
<title>H5h5_b_fi2_s4-&gt;H5h5_b_fi4_s8</title>
<path fill="none" stroke="#9932cc" d="M331.6687,-552.192C325.6196,-540.2586 317.6319,-524.5012 310.8485,-511.1194"/>
<polygon fill="#9932cc" stroke="#9932cc" points="313.8102,-509.2208 306.1669,-501.8839 307.5666,-512.3859 313.8102,-509.2208"/>
<text text-anchor="middle" x="352.7027" y="-523" font-family="Times,serif" font-size="14.00" fill="#9932cc">electrocute</text>
</g>
<!-- H5h5_b_fi5_s10 -->
<g id="node13" class="node">
<title>H5h5_b_fi5_s10</title>
<polygon fill="#78c679" stroke="#000000" points="321.1024,-399.2 210.8976,-399.2 210.8976,-363.2 321.1024,-363.2 321.1024,-399.2"/>
<text text-anchor="middle" x="266" y="-377" font-family="Times,serif" font-size="14.00" fill="#000000">H5h5_b_fi5_s10</text>
</g>
<!-- H5h5_b_fi4_s8&#45;&gt;H5h5_b_fi5_s10 -->
<g id="edge14" class="edge">
<title>H5h5_b_fi4_s8-&gt;H5h5_b_fi5_s10</title>
<path fill="none" stroke="#9932cc" d="M291.4578,-465.4572C286.7189,-449.7729 279.8265,-426.9612 274.4081,-409.028"/>
<polygon fill="#9932cc" stroke="#9932cc" points="277.737,-407.9443 271.4942,-399.384 271.0362,-409.969 277.737,-407.9443"/>
<text text-anchor="middle" x="316.7027" y="-436.2" font-family="Times,serif" font-size="14.00" fill="#9932cc">electrocute</text>
</g>
<!-- H10_b_s10 -->
<g id="node14" class="node">
<title>H10_b_s10</title>
<polygon fill="#004529" stroke="#000000" points="299.0524,-312.4 218.9476,-312.4 218.9476,-276.4 299.0524,-276.4 299.0524,-312.4"/>
<text text-anchor="middle" x="259" y="-290.2" font-family="Times,serif" font-size="14.00" fill="#ffffff">H10_b_s10</text>
</g>
<!-- H5h5_b_fi5_s10&#45;&gt;H10_b_s10 -->
<g id="edge15" class="edge">
<title>H5h5_b_fi5_s10-&gt;H10_b_s10</title>
<path fill="none" stroke="#ff4500" d="M264.5155,-362.792C263.5718,-351.0903 262.3316,-335.7117 261.2663,-322.5016"/>
<polygon fill="#ff4500" stroke="#ff4500" points="264.751,-322.1701 260.4584,-312.4839 257.7736,-322.7329 264.751,-322.1701"/>
<text text-anchor="middle" x="278.9376" y="-333.6" font-family="Times,serif" font-size="14.00" fill="#ff4500">hydra</text>
</g>
<!-- H10_b_s10&#45;&gt;H10_b_s10 -->
<g id="edge21" class="edge">
<title>H10_b_s10-&gt;H10_b_s10</title>
<path fill="none" stroke="#4169e1" d="M309.5037,-298.3167C314.2662,-297.5147 317.2756,-296.2091 317.2756,-294.4 317.2756,-291.5055 309.5714,-289.8999 299.3093,-289.5833"/>
<polygon fill="#4169e1" stroke="#4169e1" points="308.9627,-294.8508 299.3093,-299.2167 309.5783,-301.8237 308.9627,-294.8508"/>
<text text-anchor="middle" x="339.8184" y="-290.2" font-family="Times,serif" font-size="14.00" fill="#4169e1">blizzard</text>
</g>
<!-- H10_b_fi2_s10 -->
<g id="node15" class="node">
<title>H10_b_fi2_s10</title>
<polygon fill="#004529" stroke="#000000" points="265.6025,-225.6 162.3975,-225.6 162.3975,-189.6 265.6025,-189.6 265.6025,-225.6"/>
<text text-anchor="middle" x="214" y="-203.4" font-family="Times,serif" font-size="14.00" fill="#ffffff">H10_b_fi2_s10</text>
</g>
<!-- H10_b_s10&#45;&gt;H10_b_fi2_s10 -->
<g id="edge16" class="edge">
<title>H10_b_s10-&gt;H10_b_fi2_s10</title>
<path fill="none" stroke="#9932cc" d="M231.9265,-276.1365C226.6717,-271.3157 221.806,-265.6798 218.5946,-259.4 214.9361,-252.2459 213.2661,-243.8054 212.6441,-235.8375"/>
<polygon fill="#9932cc" stroke="#9932cc" points="216.141,-235.677 212.3511,-225.7833 209.144,-235.881 216.141,-235.677"/>
<text text-anchor="middle" x="248.7027" y="-246.8" font-family="Times,serif" font-size="14.00" fill="#9932cc">electrocute</text>
</g>
<!-- H10_b_s10&#45;&gt;H10_b_fi5_s10 -->
<g id="edge20" class="edge">
<title>H10_b_s10-&gt;H10_b_fi5_s10</title>
<path fill="none" stroke="#ff4500" d="M277.099,-267.3242C278.2636,-264.7232 279.2629,-262.0612 280,-259.4 284.8718,-241.8112 283.0697,-201.719 275,-189.6 266.1013,-176.236 254.5865,-183.8433 243.1248,-172.6 233.9314,-163.5818 229,-160.1782 229,-147.3 229,-147.3 229,-147.3 229,-77.4 229,-49.7122 308.1527,-39.6793 363.1886,-36.0499"/>
<polygon fill="#ff4500" stroke="#ff4500" points="273.8998,-265.8875 272.3304,-276.3655 280.0914,-269.1531 273.8998,-265.8875"/>
<text text-anchor="middle" x="258.9376" y="-160" font-family="Times,serif" font-size="14.00" fill="#ff4500">hydra</text>
</g>
<!-- H10_b_s10&#45;&gt;H10_b_fi5_s10 -->
<g id="edge22" class="edge">
<title>H10_b_s10-&gt;H10_b_fi5_s10</title>
<path fill="none" stroke="#4169e1" d="M282.4529,-267.6316C283.8979,-264.9753 285.1214,-262.2159 286,-259.4 300.9116,-211.6109 297,-197.3615 297,-147.3 297,-147.3 297,-147.3 297,-77.4 297,-62.2842 331.5384,-50.8211 363.2435,-43.4827"/>
<polygon fill="#4169e1" stroke="#4169e1" points="279.3971,-265.9101 276.8662,-276.1982 285.2605,-269.7339 279.3971,-265.9101"/>
<text text-anchor="middle" x="319.5428" y="-160" font-family="Times,serif" font-size="14.00" fill="#4169e1">blizzard</text>
</g>
<!-- H10_b_fi4_s10 -->
<g id="node16" class="node">
<title>H10_b_fi4_s10</title>
<polygon fill="#004529" stroke="#000000" points="191.6025,-138.8 88.3975,-138.8 88.3975,-102.8 191.6025,-102.8 191.6025,-138.8"/>
<text text-anchor="middle" x="140" y="-116.6" font-family="Times,serif" font-size="14.00" fill="#ffffff">H10_b_fi4_s10</text>
</g>
<!-- H10_b_fi2_s10&#45;&gt;H10_b_fi4_s10 -->
<g id="edge17" class="edge">
<title>H10_b_fi2_s10-&gt;H10_b_fi4_s10</title>
<path fill="none" stroke="#9932cc" d="M163.7659,-189.503C156.7132,-184.9797 150.2833,-179.4135 145.5946,-172.6 140.9075,-165.7889 138.8543,-157.2377 138.1516,-149.0575"/>
<polygon fill="#9932cc" stroke="#9932cc" points="141.6503,-148.9571 137.8872,-139.0531 134.6527,-149.1421 141.6503,-148.9571"/>
<text text-anchor="middle" x="175.7027" y="-160" font-family="Times,serif" font-size="14.00" fill="#9932cc">electrocute</text>
</g>
<!-- H10_b_fi4_s10&#45;&gt;H10_b_fi5_s10 -->
<g id="edge18" class="edge">
<title>H10_b_fi4_s10-&gt;H10_b_fi5_s10</title>
<path fill="none" stroke="#9932cc" d="M143.2508,-102.6656C146.2782,-91.2149 151.9924,-77.1019 162.5946,-69 191.6232,-46.8172 288.2579,-38.6892 353.1805,-35.714"/>
<polygon fill="#9932cc" stroke="#9932cc" points="353.4719,-39.2048 363.3127,-35.2794 353.1719,-32.2112 353.4719,-39.2048"/>
<text text-anchor="middle" x="192.7027" y="-73.2" font-family="Times,serif" font-size="14.00" fill="#9932cc">electrocute</text>
</g>
<!-- H10_b_fi5_s10&#45;&gt;H10_b_fi5_s10 -->
<g id="edge19" class="edge">
<title>H10_b_fi5_s10-&gt;H10_b_fi5_s10</title>
<path fill="none" stroke="#9932cc" d="M476.8611,-37.6705C481.6192,-36.858 484.5512,-35.6345 484.5512,-34 484.5512,-31.3848 477.0452,-29.8218 466.5632,-29.311"/>
<polygon fill="#9932cc" stroke="#9932cc" points="476.1701,-34.2217 466.5632,-38.689 476.8592,-41.1877 476.1701,-34.2217"/>
<text text-anchor="middle" x="515.2539" y="-29.8" font-family="Times,serif" font-size="14.00" fill="#9932cc">electrocute</text>
</g>
<!-- H5H4_b_fi5_s10 -->
<g id="node18" class="node">
<title>H5H4_b_fi5_s10</title>
<polygon fill="#12763d" stroke="#000000" points="578.7092,-399.2 465.2908,-399.2 465.2908,-363.2 578.7092,-363.2 578.7092,-399.2"/>
<text text-anchor="middle" x="522" y="-377" font-family="Times,serif" font-size="14.00" fill="#ffffff">H5H4_b_fi5_s10</text>
</g>
<!-- H5H4_b_fi5_s10&#45;&gt;H10_b_s10 -->
<g id="edge24" class="edge">
<title>H5H4_b_fi5_s10-&gt;H10_b_s10</title>
<path fill="none" stroke="#ff4500" d="M478.6596,-363.1284C452.6211,-352.6027 418.691,-339.4654 388,-329.4 362.2429,-320.9527 333.1327,-312.9271 309.0924,-306.6971"/>
<polygon fill="#ff4500" stroke="#ff4500" points="309.6803,-303.2347 299.1243,-304.1411 307.9416,-310.0153 309.6803,-303.2347"/>
<text text-anchor="middle" x="448.9376" y="-333.6" font-family="Times,serif" font-size="14.00" fill="#ff4500">hydra</text>
</g>
<!-- H5H4_b_fi5_s10&#45;&gt;H10_b_fi5_s10 -->
<g id="edge23" class="edge">
<title>H5H4_b_fi5_s10-&gt;H10_b_fi5_s10</title>
<path fill="none" stroke="#000000" d="M588.4597,-365.1364C610.2568,-357.8914 629,-348.5393 629,-337.8 629,-337.8 629,-337.8 629,-77.4 629,-60.9095 530.1373,-46.7861 466.8034,-39.4302"/>
<polygon fill="#000000" stroke="#000000" points="587.1312,-361.8847 578.6332,-368.212 589.2221,-368.5651 587.1312,-361.8847"/>
<text text-anchor="middle" x="664.1771" y="-203.4" font-family="Times,serif" font-size="14.00" fill="#000000">take damage</text>
</g>
<!-- H4H5_b_fi5_s10 -->
<g id="node19" class="node">
<title>H4H5_b_fi5_s10</title>
<polygon fill="#12763d" stroke="#000000" points="669.7092,-762.2 556.2908,-762.2 556.2908,-726.2 669.7092,-726.2 669.7092,-762.2"/>
<text text-anchor="middle" x="613" y="-740" font-family="Times,serif" font-size="14.00" fill="#ffffff">H4H5_b_fi5_s10</text>
</g>
<!-- H4H5_b_fi5_s10&#45;&gt;H10_b_fi5_s10 -->
<g id="edge25" class="edge">
<title>H4H5_b_fi5_s10-&gt;H10_b_fi5_s10</title>
<path fill="none" stroke="#000000" d="M643.5666,-717.8537C646.8349,-712.6877 649,-706.946 649,-700.8 649,-700.8 649,-700.8 649,-415.6 649,-318.2017 718,-304.9983 718,-207.6 718,-207.6 718,-207.6 718,-77.4 718,-52.3241 553.2837,-40.6323 466.7433,-36.22"/>
<polygon fill="#000000" stroke="#000000" points="640.6185,-715.9418 637.2123,-725.9741 646.1313,-720.2556 640.6185,-715.9418"/>
<text text-anchor="middle" x="691.1771" y="-377" font-family="Times,serif" font-size="14.00" fill="#000000">take damage</text>
</g>
<!-- H5H4_b_s10 -->
<g id="node20" class="node">
<title>H5H4_b_s10</title>
<polygon fill="#12763d" stroke="#000000" points="567.1584,-675.4 476.8416,-675.4 476.8416,-639.4 567.1584,-639.4 567.1584,-675.4"/>
<text text-anchor="middle" x="522" y="-653.2" font-family="Times,serif" font-size="14.00" fill="#ffffff">H5H4_b_s10</text>
</g>
<!-- H4H5_b_fi5_s10&#45;&gt;H5H4_b_s10 -->
<g id="edge26" class="edge">
<title>H4H5_b_fi5_s10-&gt;H5H4_b_s10</title>
<path fill="none" stroke="#ff4500" d="M593.7012,-725.792C580.4617,-713.1635 562.7324,-696.2524 548.2162,-682.4062"/>
<polygon fill="#ff4500" stroke="#ff4500" points="550.6108,-679.8534 540.9589,-675.4839 545.7793,-684.9186 550.6108,-679.8534"/>
<text text-anchor="middle" x="590.9376" y="-696.6" font-family="Times,serif" font-size="14.00" fill="#ff4500">hydra</text>
</g>
<!-- H5H4_b_s10&#45;&gt;H5H4_b_s10 -->
<g id="edge27" class="edge">
<title>H5H4_b_s10-&gt;H5H4_b_s10</title>
<path fill="none" stroke="#4169e1" d="M577.5529,-661.2083C582.3391,-660.3992 585.3289,-659.1297 585.3289,-657.4 585.3289,-654.6324 577.675,-653.0432 567.2555,-652.6324"/>
<polygon fill="#4169e1" stroke="#4169e1" points="576.8877,-657.755 567.2555,-662.1676 577.5371,-664.7248 576.8877,-657.755"/>
<text text-anchor="middle" x="607.8717" y="-653.2" font-family="Times,serif" font-size="14.00" fill="#4169e1">blizzard</text>
</g>
<!-- H5H4_b_fi2_s10 -->
<g id="node21" class="node">
<title>H5H4_b_fi2_s10</title>
<polygon fill="#12763d" stroke="#000000" points="578.7092,-588.6 465.2908,-588.6 465.2908,-552.6 578.7092,-552.6 578.7092,-588.6"/>
<text text-anchor="middle" x="522" y="-566.4" font-family="Times,serif" font-size="14.00" fill="#ffffff">H5H4_b_fi2_s10</text>
</g>
<!-- H5H4_b_s10&#45;&gt;H5H4_b_fi2_s10 -->
<g id="edge28" class="edge">
<title>H5H4_b_s10-&gt;H5H4_b_fi2_s10</title>
<path fill="none" stroke="#9932cc" d="M522,-638.992C522,-627.2903 522,-611.9117 522,-598.7016"/>
<polygon fill="#9932cc" stroke="#9932cc" points="525.5001,-598.6838 522,-588.6839 518.5001,-598.6839 525.5001,-598.6838"/>
<text text-anchor="middle" x="552.7027" y="-609.8" font-family="Times,serif" font-size="14.00" fill="#9932cc">electrocute</text>
</g>
<!-- H5H4_b_fi4_s10 -->
<g id="node22" class="node">
<title>H5H4_b_fi4_s10</title>
<polygon fill="#12763d" stroke="#000000" points="578.7092,-501.8 465.2908,-501.8 465.2908,-465.8 578.7092,-465.8 578.7092,-501.8"/>
<text text-anchor="middle" x="522" y="-479.6" font-family="Times,serif" font-size="14.00" fill="#ffffff">H5H4_b_fi4_s10</text>
</g>
<!-- H5H4_b_fi2_s10&#45;&gt;H5H4_b_fi4_s10 -->
<g id="edge29" class="edge">
<title>H5H4_b_fi2_s10-&gt;H5H4_b_fi4_s10</title>
<path fill="none" stroke="#9932cc" d="M522,-552.192C522,-540.4903 522,-525.1117 522,-511.9016"/>
<polygon fill="#9932cc" stroke="#9932cc" points="525.5001,-511.8838 522,-501.8839 518.5001,-511.8839 525.5001,-511.8838"/>
<text text-anchor="middle" x="552.7027" y="-523" font-family="Times,serif" font-size="14.00" fill="#9932cc">electrocute</text>
</g>
<!-- H5H4_b_fi4_s10&#45;&gt;H5H4_b_fi5_s10 -->
<g id="edge30" class="edge">
<title>H5H4_b_fi4_s10-&gt;H5H4_b_fi5_s10</title>
<path fill="none" stroke="#9932cc" d="M522,-465.4572C522,-449.9188 522,-427.385 522,-409.5297"/>
<polygon fill="#9932cc" stroke="#9932cc" points="525.5001,-409.384 522,-399.384 518.5001,-409.3841 525.5001,-409.384"/>
<text text-anchor="middle" x="552.7027" y="-436.2" font-family="Times,serif" font-size="14.00" fill="#9932cc">electrocute</text>
</g>
<!-- H5_b_fi5_s10 -->
<g id="node23" class="node">
<title>H5_b_fi5_s10</title>
<polygon fill="#d9f0a3" stroke="#000000" points="115.1025,-399.2 18.8975,-399.2 18.8975,-363.2 115.1025,-363.2 115.1025,-399.2"/>
<text text-anchor="middle" x="67" y="-377" font-family="Times,serif" font-size="14.00" fill="#000000">H5_b_fi5_s10</text>
</g>
<!-- H5_b_fi5_s10&#45;&gt;H10_b_s10 -->
<g id="edge32" class="edge">
<title>H5_b_fi5_s10-&gt;H10_b_s10</title>
<path fill="none" stroke="#ff4500" d="M107.2495,-363.0039C137.1742,-349.4754 178.159,-330.9469 209.9926,-316.5554"/>
<polygon fill="#ff4500" stroke="#ff4500" points="211.4625,-319.732 219.1328,-312.4233 208.5789,-313.3535 211.4625,-319.732"/>
<text text-anchor="middle" x="193.9376" y="-333.6" font-family="Times,serif" font-size="14.00" fill="#ff4500">hydra</text>
</g>
<!-- H5_b_fi5_s10&#45;&gt;H10_b_fi5_s10 -->
<g id="edge31" class="edge">
<title>H5_b_fi5_s10-&gt;H10_b_fi5_s10</title>
<path fill="none" stroke="#000000" d="M39.1653,-354.8192C36.0665,-349.6106 34,-343.8638 34,-337.8 34,-337.8 34,-337.8 34,-77.4 34,-44.6541 259.0477,-36.6069 363.2201,-34.636"/>
<polygon fill="#000000" stroke="#000000" points="36.4457,-357.0298 45.1723,-363.0379 42.0972,-352.8992 36.4457,-357.0298"/>
<text text-anchor="middle" x="89.209" y="-203.4" font-family="Times,serif" font-size="14.00" fill="#000000">hydra timeout (30s)</text>
</g>
<!-- H10_fi5_s10 -->
<g id="node24" class="node">
<title>H10_fi5_s10</title>
<polygon fill="#a2d88a" stroke="#000000" points="441.6025,-399.2 352.3975,-399.2 352.3975,-363.2 441.6025,-363.2 441.6025,-399.2"/>
<text text-anchor="middle" x="397" y="-377" font-family="Times,serif" font-size="14.00" fill="#000000">H10_fi5_s10</text>
</g>
<!-- H10_fi5_s10&#45;&gt;H10_b_s10 -->
<g id="edge34" class="edge">
<title>H10_fi5_s10-&gt;H10_b_s10</title>
<path fill="none" stroke="#4169e1" d="M368.0707,-363.0039C347.2782,-349.9257 319.0568,-332.1748 296.5302,-318.006"/>
<polygon fill="#4169e1" stroke="#4169e1" points="298.2195,-314.9338 287.8912,-312.5722 294.4925,-320.8591 298.2195,-314.9338"/>
<text text-anchor="middle" x="361.5428" y="-333.6" font-family="Times,serif" font-size="14.00" fill="#4169e1">blizzard</text>
</g>
<!-- H10_fi5_s10&#45;&gt;H10_b_fi5_s10 -->
<g id="edge33" class="edge">
<title>H10_fi5_s10-&gt;H10_b_fi5_s10</title>
<path fill="none" stroke="#000000" d="M436.7586,-357.1622C456.422,-341.9923 476,-320.3679 476,-294.4 476,-294.4 476,-294.4 476,-234.1 476,-213.3164 475.0202,-203.6105 490.3716,-189.6 531.7166,-151.8664 609,-203.2753 609,-147.3 609,-147.3 609,-147.3 609,-77.4 609,-62.7967 524.2033,-48.5328 466.7336,-40.5426"/>
<polygon fill="#000000" stroke="#000000" points="434.692,-354.3374 428.6771,-363.0594 438.8182,-359.992 434.692,-354.3374"/>
<text text-anchor="middle" x="548.3142" y="-203.4" font-family="Times,serif" font-size="14.00" fill="#000000">blizzard timeout (6s)</text>
</g>
<!-- H10_b_fi5 -->
<g id="node25" class="node">
<title>H10_b_fi5</title>
<polygon fill="#d9f0a3" stroke="#000000" points="457.1586,-312.4 380.8414,-312.4 380.8414,-276.4 457.1586,-276.4 457.1586,-312.4"/>
<text text-anchor="middle" x="419" y="-290.2" font-family="Times,serif" font-size="14.00" fill="#000000">H10_b_fi5</text>
</g>
<!-- H10_b_fi5&#45;&gt;H10_b_fi5_s10 -->
<g id="edge35" class="edge">
<title>H10_b_fi5-&gt;H10_b_fi5_s10</title>
<path fill="none" stroke="#000000" d="M376.4161,-270.7661C360.3278,-259.3993 343.7941,-244.1701 335,-225.6 328.1521,-211.1395 328.8165,-204.3568 335,-189.6 345.3606,-164.8748 378,-174.1081 378,-147.3 378,-147.3 378,-147.3 378,-77.4 378,-67.6968 383.4222,-59.0625 390.1152,-52.1007"/>
<polygon fill="#000000" stroke="#000000" points="374.4913,-273.6894 384.7452,-276.3553 378.3918,-267.8768 374.4913,-273.6894"/>
<text text-anchor="middle" x="433.5365" y="-160" font-family="Times,serif" font-size="14.00" fill="#000000">spectral timeout (6s)</text>
</g>
<!-- H10_b_fi5_s4 -->
<g id="node26" class="node">
<title>H10_b_fi5_s4</title>
<polygon fill="#62bb6e" stroke="#000000" points="440.1025,-225.6 343.8975,-225.6 343.8975,-189.6 440.1025,-189.6 440.1025,-225.6"/>
<text text-anchor="middle" x="392" y="-203.4" font-family="Times,serif" font-size="14.00" fill="#000000">H10_b_fi5_s4</text>
</g>
<!-- H10_b_fi5&#45;&gt;H10_b_fi5_s4 -->
<g id="edge36" class="edge">
<title>H10_b_fi5-&gt;H10_b_fi5_s4</title>
<path fill="none" stroke="#9932cc" d="M413.274,-275.992C409.598,-264.1745 404.7556,-248.6068 400.6194,-235.3098"/>
<polygon fill="#9932cc" stroke="#9932cc" points="403.9375,-234.193 397.6252,-225.6839 397.2534,-236.2722 403.9375,-234.193"/>
<text text-anchor="middle" x="437.7027" y="-246.8" font-family="Times,serif" font-size="14.00" fill="#9932cc">electrocute</text>
</g>
<!-- H10_b_fi5_s8 -->
<g id="node27" class="node">
<title>H10_b_fi5_s8</title>
<polygon fill="#086e3a" stroke="#000000" points="535.1025,-138.8 438.8975,-138.8 438.8975,-102.8 535.1025,-102.8 535.1025,-138.8"/>
<text text-anchor="middle" x="487" y="-116.6" font-family="Times,serif" font-size="14.00" fill="#ffffff">H10_b_fi5_s8</text>
</g>
<!-- H10_b_fi5_s4&#45;&gt;H10_b_fi5_s8 -->
<g id="edge37" class="edge">
<title>H10_b_fi5_s4-&gt;H10_b_fi5_s8</title>
<path fill="none" stroke="#9932cc" d="M440.1318,-192.9196C466.8643,-184.5373 495.1321,-175.1915 497,-172.6 501.9496,-165.7328 502.022,-157.0726 500.0936,-148.809"/>
<polygon fill="#9932cc" stroke="#9932cc" points="503.3518,-147.5094 496.9425,-139.0731 496.6919,-149.665 503.3518,-147.5094"/>
<text text-anchor="middle" x="531.7027" y="-160" font-family="Times,serif" font-size="14.00" fill="#9932cc">electrocute</text>
</g>
<!-- H10_b_fi5_s8&#45;&gt;H10_b_fi5_s10 -->
<g id="edge38" class="edge">
<title>H10_b_fi5_s8-&gt;H10_b_fi5_s10</title>
<path fill="none" stroke="#9932cc" d="M471.7307,-102.392C461.5437,-90.111 447.9973,-73.7801 436.6965,-60.1563"/>
<polygon fill="#9932cc" stroke="#9932cc" points="439.0787,-57.5461 430.0004,-52.0839 433.691,-62.0152 439.0787,-57.5461"/>
<text text-anchor="middle" x="486.7027" y="-73.2" font-family="Times,serif" font-size="14.00" fill="#9932cc">electrocute</text>
</g>
</g>
</svg>