<svg xmlns="http://www.w3.org/2000/svg" width="180" height="128">
	<defs>
		<rect id="outline" x="0" y="0" width="40" height="40" stroke="#c0c0c0" stroke-width="2" fill="none" />
	</defs>
	<g transform="translate(12, 12)">
		<use href="#outline" />
	  <path d="M 0 0 V 40 H 40 Z" fill="#000000" />
	</g>
	<g transform="translate(64, 12)">
		<use href="#outline" />
	  <path d="M 10 10 V 30 H 30 Z" fill="#c0c0c0" />
	</g>
	<g transform="translate(128, 12)">
	  <path d="M 0 0 V 40 H 40 Z" fill="#000000" />
	  <path d="M 10 10 V 30 H 30 Z" fill="#c0c0c0" />
	</g>
	<g transform="translate(12, 76)">
		<use href="#outline" />
		<path d="M 0 0 V 40 H 40 L 30 30 L 15 25 L 10 10 Z" fill="#000000" />
	</g>
	<g transform="translate(64, 76)">
		<use href="#outline" />
	  <path d="M 10 10 V 30 H 30 Z" fill="#c0c0c0" />
	</g>
	<g transform="translate(128, 76)">
		<path d="M 0 0 L 10 10 L 15 25 L 30 30 L 40 40 H 0 Z" fill="#000000" />
	  <path d="M 10 10 V 30 H 30 Z" fill="#c0c0c0" />
	</g>
</svg>
