<?xml version="1.0" encoding="UTF-8" standalone="no"?>
<!DOCTYPE svg PUBLIC "-//W3C//DTD SVG 1.1//EN" "http://www.w3.org/Graphics/SVG/1.1/DTD/svg11.dtd">
<!-- Generated by graphviz version 2.40.1 (20161225.0304)
 -->
<!-- Title: %0 Pages: 1 -->
<svg width="2292pt" height="695pt" viewBox="0.00 0.00 2291.74 694.60" xmlns="http://www.w3.org/2000/svg" xmlns:xlink="http://www.w3.org/1999/xlink">
<g id="graph0" class="graph" transform="scale(1 1) rotate(0) translate(4 690.6)">
<title>%0</title>
<polygon fill="#ffffff" stroke="transparent" points="-4,4 -4,-690.6 2287.7424,-690.6 2287.7424,4 -4,4"/>
<!-- helltide active? -->
<g id="node1" class="node">
<title>helltide active?</title>
<polygon fill="none" stroke="#000000" points="1103.2564,-686.6 1004.4494,-668.6 1103.2564,-650.6 1202.0633,-668.6 1103.2564,-686.6"/>
<text text-anchor="middle" x="1103.2564" y="-664.4" font-family="Times,serif" font-size="14.00" fill="#000000">helltide active?</text>
</g>
<!-- wait 5 minutes -->
<g id="node2" class="node">
<title>wait 5 minutes</title>
<polygon fill="none" stroke="#000000" points="1208.6907,-597.8 1109.822,-597.8 1109.822,-561.8 1208.6907,-561.8 1208.6907,-597.8"/>
<text text-anchor="middle" x="1159.2564" y="-575.6" font-family="Times,serif" font-size="14.00" fill="#000000">wait 5 minutes</text>
</g>
<!-- helltide active?&#45;&gt;wait 5 minutes -->
<g id="edge2" class="edge">
<title>helltide active?-&gt;wait 5 minutes</title>
<path fill="none" stroke="#000000" d="M1113.5276,-652.3127C1121.5814,-639.5417 1132.9595,-621.4993 1142.3511,-606.607"/>
<polygon fill="#000000" stroke="#000000" points="1145.5207,-608.1423 1147.8944,-597.8168 1139.5997,-604.4083 1145.5207,-608.1423"/>
<text text-anchor="middle" x="1144.2564" y="-620" font-family="Times,serif" font-size="14.00" fill="#000000">no</text>
</g>
<!-- helltide -->
<g id="node3" class="node">
<title>helltide</title>
<polygon fill="none" stroke="#000000" points="1102.248,-524.8 1044.2648,-524.8 1044.2648,-488.8 1102.248,-488.8 1102.248,-524.8"/>
<text text-anchor="middle" x="1073.2564" y="-502.6" font-family="Times,serif" font-size="14.00" fill="#000000">helltide</text>
</g>
<!-- helltide active?&#45;&gt;helltide -->
<g id="edge1" class="edge">
<title>helltide active?-&gt;helltide</title>
<path fill="none" stroke="#000000" d="M1097.3648,-651.6466C1092.6562,-637.4361 1086.2584,-616.5238 1082.5972,-597.8 1078.5399,-577.0505 1076.1764,-553.2731 1074.8423,-535.2279"/>
<polygon fill="#000000" stroke="#000000" points="1078.3223,-534.8128 1074.1546,-525.0721 1071.3382,-535.2857 1078.3223,-534.8128"/>
<text text-anchor="middle" x="1092.586" y="-575.6" font-family="Times,serif" font-size="14.00" fill="#000000">yes</text>
</g>
<!-- wait 5 minutes&#45;&gt;helltide -->
<g id="edge3" class="edge">
<title>wait 5 minutes-&gt;helltide</title>
<path fill="none" stroke="#000000" d="M1137.9979,-561.7551C1127.2478,-552.6299 1114.0374,-541.4165 1102.3593,-531.5036"/>
<polygon fill="#000000" stroke="#000000" points="1104.4571,-528.6934 1094.5683,-524.8904 1099.9271,-534.0301 1104.4571,-528.6934"/>
</g>
<!-- disappears after getting sidetracked -->
<g id="node6" class="node">
<title>disappears after getting sidetracked</title>
<polygon fill="none" stroke="#000000" points="1283.1128,-343.8 1069.3999,-343.8 1069.3999,-307.8 1283.1128,-307.8 1283.1128,-343.8"/>
<text text-anchor="middle" x="1176.2564" y="-321.6" font-family="Times,serif" font-size="14.00" fill="#000000">disappears after getting sidetracked</text>
</g>
<!-- wait 5 minutes&#45;&gt;disappears after getting sidetracked -->
<g id="edge8" class="edge">
<title>wait 5 minutes-&gt;disappears after getting sidetracked</title>
<path fill="none" stroke="#000000" d="M1161.1471,-551.5502C1164.6646,-498.9944 1172.1218,-387.5752 1175.0449,-343.9015"/>
<polygon fill="#000000" stroke="#000000" points="1157.6547,-551.3215 1160.479,-561.5329 1164.6391,-551.789 1157.6547,-551.3215"/>
</g>
<!-- woa there&#39;s a treasure goblin -->
<g id="node4" class="node">
<title>woa there's a treasure goblin</title>
<polygon fill="none" stroke="#000000" points="951.9594,-416.8 774.5533,-416.8 774.5533,-380.8 951.9594,-380.8 951.9594,-416.8"/>
<text text-anchor="middle" x="863.2564" y="-394.6" font-family="Times,serif" font-size="14.00" fill="#000000">woa there's a treasure goblin</text>
</g>
<!-- helltide&#45;&gt;woa there&#39;s a treasure goblin -->
<g id="edge6" class="edge">
<title>helltide-&gt;woa there's a treasure goblin</title>
<path fill="none" stroke="#000000" d="M1044.0568,-491.7831C1008.6427,-473.5701 948.5955,-442.6887 907.4914,-421.5495"/>
<polygon fill="#000000" stroke="#000000" points="909.0029,-418.3911 898.5092,-416.93 905.8014,-424.6161 909.0029,-418.3911"/>
</g>
<!-- abberent cinder -->
<g id="node7" class="node">
<title>abberent cinder</title>
<ellipse fill="none" stroke="#000000" cx="1073.2564" cy="-398.8" rx="70.6477" ry="18"/>
<text text-anchor="middle" x="1073.2564" y="-394.6" font-family="Times,serif" font-size="14.00" fill="#000000">abberent cinder</text>
</g>
<!-- helltide&#45;&gt;abberent cinder -->
<g id="edge4" class="edge">
<title>helltide-&gt;abberent cinder</title>
<path fill="none" stroke="#000000" d="M1073.2564,-488.4793C1073.2564,-471.621 1073.2564,-446.3651 1073.2564,-426.947"/>
<polygon fill="#000000" stroke="#000000" points="1076.7565,-426.8501 1073.2564,-416.8502 1069.7565,-426.8502 1076.7565,-426.8501"/>
</g>
<!-- omg that&#39;s three of them -->
<g id="node5" class="node">
<title>omg that's three of them</title>
<polygon fill="none" stroke="#000000" points="837.8852,-343.8 684.6275,-343.8 684.6275,-307.8 837.8852,-307.8 837.8852,-343.8"/>
<text text-anchor="middle" x="761.2564" y="-321.6" font-family="Times,serif" font-size="14.00" fill="#000000">omg that's three of them</text>
</g>
<!-- woa there&#39;s a treasure goblin&#45;&gt;omg that&#39;s three of them -->
<g id="edge7" class="edge">
<title>woa there's a treasure goblin-&gt;omg that's three of them</title>
<path fill="none" stroke="#000000" d="M838.0429,-380.7551C825.0475,-371.4545 809.0209,-359.9844 794.9767,-349.9332"/>
<polygon fill="#000000" stroke="#000000" points="796.7023,-346.8641 786.5333,-343.8904 792.6283,-352.5565 796.7023,-346.8641"/>
</g>
<!-- legendary item -->
<g id="node8" class="node">
<title>legendary item</title>
<ellipse fill="none" stroke="#000000" cx="960.2564" cy="-252.8" rx="68.8794" ry="18"/>
<text text-anchor="middle" x="960.2564" y="-248.6" font-family="Times,serif" font-size="14.00" fill="#000000">legendary item</text>
</g>
<!-- omg that&#39;s three of them&#45;&gt;legendary item -->
<g id="edge9" class="edge">
<title>omg that's three of them-&gt;legendary item</title>
<path fill="none" stroke="#000000" d="M810.4474,-307.7551C840.9813,-296.5542 880.0929,-282.2067 910.6957,-270.9805"/>
<polygon fill="#000000" stroke="#000000" points="912.1282,-274.1832 920.3111,-267.4533 909.7174,-267.6114 912.1282,-274.1832"/>
</g>
<!-- unique item -->
<g id="node9" class="node">
<title>unique item</title>
<ellipse fill="none" stroke="#000000" cx="808.2564" cy="-252.8" rx="56.8026" ry="18"/>
<text text-anchor="middle" x="808.2564" y="-248.6" font-family="Times,serif" font-size="14.00" fill="#000000">unique item</text>
</g>
<!-- omg that&#39;s three of them&#45;&gt;unique item -->
<g id="edge10" class="edge">
<title>omg that's three of them-&gt;unique item</title>
<path fill="none" stroke="#000000" d="M772.8744,-307.7551C778.3952,-299.1801 785.1033,-288.7611 791.1882,-279.3102"/>
<polygon fill="#000000" stroke="#000000" points="794.3014,-280.9401 796.772,-270.6374 788.4158,-277.1507 794.3014,-280.9401"/>
</g>
<!-- abberent cinder&#45;&gt;disappears after getting sidetracked -->
<g id="edge5" class="edge">
<title>abberent cinder-&gt;disappears after getting sidetracked</title>
<path fill="none" stroke="#000000" d="M1097.4053,-381.6847C1110.8257,-372.1732 1127.7369,-360.1876 1142.4533,-349.7575"/>
<polygon fill="#000000" stroke="#000000" points="1144.6867,-352.4646 1150.8215,-343.8266 1140.639,-346.7535 1144.6867,-352.4646"/>
</g>
<!-- equipment -->
<g id="node10" class="node">
<title>equipment</title>
<polygon fill="none" stroke="#000000" points="1367.8574,-182 1292.6553,-182 1292.6553,-146 1367.8574,-146 1367.8574,-182"/>
<text text-anchor="middle" x="1330.2564" y="-159.8" font-family="Times,serif" font-size="14.00" fill="#000000">equipment</text>
</g>
<!-- legendary item&#45;&gt;equipment -->
<g id="edge17" class="edge">
<title>legendary item-&gt;equipment</title>
<path fill="none" stroke="#000000" d="M1011.5857,-240.6638C1020.1519,-238.6778 1028.9509,-236.6619 1037.2564,-234.8 1143.2813,-211.0313 1174.3121,-213.6496 1282.7792,-181.9128"/>
<polygon fill="#000000" stroke="#000000" points="1283.8674,-185.241 1292.4643,-179.0488 1281.8823,-178.5283 1283.8674,-185.241"/>
</g>
<!-- at least four more dimensions of improving an item -->
<g id="node12" class="node">
<title>at least four more dimensions of improving an item</title>
<polygon fill="none" stroke="#000000" points="725.9733,-182 422.5394,-182 422.5394,-146 725.9733,-146 725.9733,-182"/>
<text text-anchor="middle" x="574.2564" y="-159.8" font-family="Times,serif" font-size="14.00" fill="#000000">at least four more dimensions of improving an item</text>
</g>
<!-- legendary item&#45;&gt;at least four more dimensions of improving an item -->
<g id="edge21" class="edge">
<title>legendary item-&gt;at least four more dimensions of improving an item</title>
<path fill="none" stroke="#ff0000" d="M898.6493,-238.6272C834.9258,-223.9675 734.8175,-200.9374 662.6591,-184.3372"/>
<polygon fill="#ff0000" stroke="#ff0000" points="898.0691,-242.0851 908.5992,-240.9162 899.6385,-235.2632 898.0691,-242.0851"/>
<polygon fill="#ff0000" stroke="#ff0000" points="663.1996,-180.8702 652.6695,-182.0391 661.6302,-187.692 663.1996,-180.8702"/>
</g>
<!-- salvage (l) -->
<g id="node13" class="node">
<title>salvage (l)</title>
<polygon fill="none" stroke="#000000" points="1160.4478,-182 1086.0649,-182 1086.0649,-146 1160.4478,-146 1160.4478,-182"/>
<text text-anchor="middle" x="1123.2564" y="-159.8" font-family="Times,serif" font-size="14.00" fill="#000000">salvage (l)</text>
</g>
<!-- legendary item&#45;&gt;salvage (l) -->
<g id="edge14" class="edge">
<title>legendary item-&gt;salvage (l)</title>
<path fill="none" stroke="#000000" d="M994.0757,-237.072C1006.7916,-230.9696 1021.3011,-223.7788 1034.2564,-216.8 1051.1806,-207.6832 1069.5053,-196.9635 1085.1032,-187.5734"/>
<polygon fill="#000000" stroke="#000000" points="1087.2006,-190.395 1093.9407,-182.2205 1083.574,-184.4076 1087.2006,-190.395"/>
</g>
<!-- imprint aspect -->
<g id="node16" class="node">
<title>imprint aspect</title>
<polygon fill="none" stroke="#000000" points="1171.9588,-36 1076.5539,-36 1076.5539,0 1171.9588,0 1171.9588,-36"/>
<text text-anchor="middle" x="1124.2564" y="-13.8" font-family="Times,serif" font-size="14.00" fill="#000000">imprint aspect</text>
</g>
<!-- legendary item&#45;&gt;imprint aspect -->
<g id="edge18" class="edge">
<title>legendary item-&gt;imprint aspect</title>
<path fill="none" stroke="#ff0000" d="M977.3277,-226.1001C985.2164,-213.103 994.3449,-197.0632 1001.2564,-182 1022.6518,-135.3702 1007.5596,-113.3412 1039.2564,-73 1049.1443,-60.4154 1062.7517,-49.825 1076.1816,-41.4022"/>
<polygon fill="#ff0000" stroke="#ff0000" points="974.1275,-224.6211 971.8521,-234.9687 980.0837,-228.2986 974.1275,-224.6211"/>
<polygon fill="#ff0000" stroke="#ff0000" points="1078.1429,-44.3078 1084.9406,-36.1812 1074.5587,-38.295 1078.1429,-44.3078"/>
</g>
<!-- unique item&#45;&gt;equipment -->
<g id="edge12" class="edge">
<title>unique item-&gt;equipment</title>
<path fill="none" stroke="#000000" d="M852.3186,-241.3319C862.1337,-238.9873 872.5177,-236.6686 882.2564,-234.8 990.7001,-213.9925 1018.7388,-214.1032 1128.2564,-200 1193.9503,-191.5402 1214.108,-197.8998 1282.5622,-181.7963"/>
<polygon fill="#000000" stroke="#000000" points="1283.6597,-185.1316 1292.5516,-179.371 1282.0082,-178.3292 1283.6597,-185.1316"/>
</g>
<!-- put in stash because what if I want it later -->
<g id="node11" class="node">
<title>put in stash because what if I want it later</title>
<polygon fill="none" stroke="#000000" points="992.6226,-182 743.8901,-182 743.8901,-146 992.6226,-146 992.6226,-182"/>
<text text-anchor="middle" x="868.2564" y="-159.8" font-family="Times,serif" font-size="14.00" fill="#000000">put in stash because what if I want it later</text>
</g>
<!-- unique item&#45;&gt;put in stash because what if I want it later -->
<g id="edge11" class="edge">
<title>unique item-&gt;put in stash because what if I want it later</title>
<path fill="none" stroke="#000000" d="M820.3983,-234.83C828.9621,-222.1555 840.5785,-204.9632 850.222,-190.6908"/>
<polygon fill="#000000" stroke="#000000" points="853.2281,-192.4935 855.9266,-182.2481 847.4279,-188.5745 853.2281,-192.4935"/>
</g>
<!-- unique item&#45;&gt;at least four more dimensions of improving an item -->
<g id="edge13" class="edge">
<title>unique item-&gt;at least four more dimensions of improving an item</title>
<path fill="none" stroke="#ff0000" d="M762.3167,-235.3665C724.7899,-221.1255 671.5631,-200.9266 631.3084,-185.6505"/>
<polygon fill="#ff0000" stroke="#ff0000" points="761.1026,-238.6492 771.6939,-238.925 763.5863,-232.1046 761.1026,-238.6492"/>
<polygon fill="#ff0000" stroke="#ff0000" points="632.4831,-182.3528 621.8918,-182.077 629.9994,-188.8974 632.4831,-182.3528"/>
</g>
<!-- legendary aspect -->
<g id="node14" class="node">
<title>legendary aspect</title>
<ellipse fill="none" stroke="#000000" cx="1124.2564" cy="-91" rx="75.8026" ry="18"/>
<text text-anchor="middle" x="1124.2564" y="-86.8" font-family="Times,serif" font-size="14.00" fill="#000000">legendary aspect</text>
</g>
<!-- salvage (l)&#45;&gt;legendary aspect -->
<g id="edge15" class="edge">
<title>salvage (l)-&gt;legendary aspect</title>
<path fill="none" stroke="#000000" d="M1123.5036,-145.9551C1123.6141,-137.8828 1123.7471,-128.1764 1123.8703,-119.1817"/>
<polygon fill="#000000" stroke="#000000" points="1127.3712,-119.1374 1124.0086,-109.0904 1120.3718,-119.0414 1127.3712,-119.1374"/>
</g>
<!-- about a half dozen different crafting materials -->
<g id="node15" class="node">
<title>about a half dozen different crafting materials</title>
<ellipse fill="none" stroke="#000000" cx="1456.2564" cy="-91" rx="188" ry="18"/>
<text text-anchor="middle" x="1456.2564" y="-86.8" font-family="Times,serif" font-size="14.00" fill="#000000">about a half dozen different crafting materials</text>
</g>
<!-- salvage (l)&#45;&gt;about a half dozen different crafting materials -->
<g id="edge16" class="edge">
<title>salvage (l)-&gt;about a half dozen different crafting materials</title>
<path fill="none" stroke="#000000" d="M1160.4648,-148.7794C1163.4177,-147.7744 1166.3727,-146.8328 1169.2564,-146 1225.5779,-129.7335 1289.5287,-116.9458 1342.7465,-107.8107"/>
<polygon fill="#000000" stroke="#000000" points="1343.623,-111.2121 1352.8973,-106.09 1342.453,-104.3106 1343.623,-111.2121"/>
</g>
<!-- legendary aspect&#45;&gt;imprint aspect -->
<g id="edge19" class="edge">
<title>legendary aspect-&gt;imprint aspect</title>
<path fill="none" stroke="#000000" d="M1124.2564,-72.9551C1124.2564,-64.8828 1124.2564,-55.1764 1124.2564,-46.1817"/>
<polygon fill="#000000" stroke="#000000" points="1127.7565,-46.0903 1124.2564,-36.0904 1120.7565,-46.0904 1127.7565,-46.0903"/>
</g>
<!-- about a half dozen different crafting materials&#45;&gt;imprint aspect -->
<g id="edge20" class="edge">
<title>about a half dozen different crafting materials-&gt;imprint aspect</title>
<path fill="none" stroke="#000000" d="M1380.9204,-74.4352C1320.5848,-61.1686 1237.198,-42.8335 1182.0488,-30.7074"/>
<polygon fill="#000000" stroke="#000000" points="1182.6101,-27.2472 1172.0917,-28.518 1181.1068,-34.0839 1182.6101,-27.2472"/>
</g>
<!-- never looked into what they need -->
<g id="node17" class="node">
<title>never looked into what they need</title>
<ellipse fill="none" stroke="#000000" cx="578.2564" cy="-252.8" rx="139.4786" ry="18"/>
<text text-anchor="middle" x="578.2564" y="-248.6" font-family="Times,serif" font-size="14.00" fill="#000000">never looked into what they need</text>
</g>
<!-- never looked into what they need&#45;&gt;at least four more dimensions of improving an item -->
<g id="edge22" class="edge">
<title>never looked into what they need-&gt;at least four more dimensions of improving an item</title>
<path fill="none" stroke="#000000" d="M577.4276,-234.4006C576.8823,-222.2949 576.1576,-206.2076 575.5387,-192.4674"/>
<polygon fill="#000000" stroke="#000000" points="579.017,-191.9044 575.0704,-182.072 572.0241,-192.2194 579.017,-191.9044"/>
</g>
<!-- I found some one time but generally don&#39;t have many -->
<g id="node18" class="node">
<title>I found some one time but generally don't have many</title>
<polygon fill="none" stroke="#000000" points="368.2905,-343.8 52.2222,-343.8 52.2222,-307.8 368.2905,-307.8 368.2905,-343.8"/>
<text text-anchor="middle" x="210.2564" y="-321.6" font-family="Times,serif" font-size="14.00" fill="#000000">I found some one time but generally don't have many</text>
</g>
<!-- about a half dozen other different crafting materials -->
<g id="node20" class="node">
<title>about a half dozen other different crafting materials</title>
<ellipse fill="none" stroke="#000000" cx="210.2564" cy="-252.8" rx="210.013" ry="18"/>
<text text-anchor="middle" x="210.2564" y="-248.6" font-family="Times,serif" font-size="14.00" fill="#000000">about a half dozen other different crafting materials</text>
</g>
<!-- I found some one time but generally don&#39;t have many&#45;&gt;about a half dozen other different crafting materials -->
<g id="edge23" class="edge">
<title>I found some one time but generally don't have many-&gt;about a half dozen other different crafting materials</title>
<path fill="none" stroke="#000000" d="M210.2564,-307.7551C210.2564,-299.6828 210.2564,-289.9764 210.2564,-280.9817"/>
<polygon fill="#000000" stroke="#000000" points="213.7565,-280.8903 210.2564,-270.8904 206.7565,-280.8904 213.7565,-280.8903"/>
</g>
<!-- nothing needs them yet -->
<g id="node19" class="node">
<title>nothing needs them yet</title>
<polygon fill="none" stroke="#000000" points="283.5126,-182 137.0002,-182 137.0002,-146 283.5126,-146 283.5126,-182"/>
<text text-anchor="middle" x="210.2564" y="-159.8" font-family="Times,serif" font-size="14.00" fill="#000000">nothing needs them yet</text>
</g>
<!-- about a half dozen other different crafting materials&#45;&gt;at least four more dimensions of improving an item -->
<g id="edge25" class="edge">
<title>about a half dozen other different crafting materials-&gt;at least four more dimensions of improving an item</title>
<path fill="none" stroke="#000000" stroke-dasharray="1,5" d="M280.0086,-235.7835C339.9692,-221.1558 426.5974,-200.0223 490.3384,-184.4723"/>
<polygon fill="#000000" stroke="#000000" points="491.4787,-187.7968 500.3643,-182.0264 489.8197,-180.9963 491.4787,-187.7968"/>
<text text-anchor="middle" x="450.1393" y="-204.2" font-family="Times,serif" font-size="14.00" fill="#000000">probably</text>
</g>
<!-- about a half dozen other different crafting materials&#45;&gt;nothing needs them yet -->
<g id="edge24" class="edge">
<title>about a half dozen other different crafting materials-&gt;nothing needs them yet</title>
<path fill="none" stroke="#000000" d="M210.2564,-234.4006C210.2564,-222.2949 210.2564,-206.2076 210.2564,-192.4674"/>
<polygon fill="#000000" stroke="#000000" points="213.7565,-192.072 210.2564,-182.072 206.7565,-192.0721 213.7565,-192.072"/>
</g>
<!-- glyph -->
<g id="node21" class="node">
<title>glyph</title>
<ellipse fill="none" stroke="#000000" cx="1327.2564" cy="-252.8" rx="33.0682" ry="18"/>
<text text-anchor="middle" x="1327.2564" y="-248.6" font-family="Times,serif" font-size="14.00" fill="#000000">glyph</text>
</g>
<!-- glyph&#45;&gt;equipment -->
<g id="edge26" class="edge">
<title>glyph-&gt;equipment</title>
<path fill="none" stroke="#000000" d="M1327.878,-234.4006C1328.287,-222.2949 1328.8304,-206.2076 1329.2946,-192.4674"/>
<polygon fill="#000000" stroke="#000000" points="1332.8061,-192.1845 1329.6458,-182.072 1325.8101,-191.9481 1332.8061,-192.1845"/>
</g>
<!-- level up glyph -->
<g id="node23" class="node">
<title>level up glyph</title>
<polygon fill="none" stroke="#000000" points="1274.3574,-182 1178.1553,-182 1178.1553,-146 1274.3574,-146 1274.3574,-182"/>
<text text-anchor="middle" x="1226.2564" y="-159.8" font-family="Times,serif" font-size="14.00" fill="#000000">level up glyph</text>
</g>
<!-- glyph&#45;&gt;level up glyph -->
<g id="edge29" class="edge">
<title>glyph-&gt;level up glyph</title>
<path fill="none" stroke="#ff0000" d="M1301.7661,-230.3888C1287.4078,-217.7648 1269.4411,-201.9684 1254.6358,-188.9514"/>
<polygon fill="#ff0000" stroke="#ff0000" points="1299.8424,-233.3578 1309.6635,-237.3322 1304.4644,-228.1007 1299.8424,-233.3578"/>
<polygon fill="#ff0000" stroke="#ff0000" points="1256.6,-186.018 1246.7789,-182.0436 1251.978,-191.2751 1256.6,-186.018"/>
</g>
<!-- don&#39;t remember how I got these -->
<g id="node22" class="node">
<title>don't remember how I got these</title>
<polygon fill="none" stroke="#000000" points="1050.9761,-343.8 855.5367,-343.8 855.5367,-307.8 1050.9761,-307.8 1050.9761,-343.8"/>
<text text-anchor="middle" x="953.2564" y="-321.6" font-family="Times,serif" font-size="14.00" fill="#000000">don't remember how I got these</text>
</g>
<!-- don&#39;t remember how I got these&#45;&gt;glyph -->
<g id="edge27" class="edge">
<title>don't remember how I got these-&gt;glyph</title>
<path fill="none" stroke="#000000" d="M1050.9295,-309.3538C1054.075,-308.829 1057.1903,-308.31 1060.2564,-307.8 1160.226,-291.1717 1187.9711,-299.1901 1285.2564,-270.8 1287.7219,-270.0805 1290.2355,-269.2551 1292.7456,-268.3621"/>
<polygon fill="#000000" stroke="#000000" points="1294.2382,-271.5375 1302.3007,-264.6638 1291.7115,-265.0094 1294.2382,-271.5375"/>
</g>
<!-- something I don&#39;t have yet -->
<g id="node24" class="node">
<title>something I don't have yet</title>
<ellipse fill="none" stroke="#000000" cx="1161.2564" cy="-252.8" rx="114.6141" ry="18"/>
<text text-anchor="middle" x="1161.2564" y="-248.6" font-family="Times,serif" font-size="14.00" fill="#000000">something I don't have yet</text>
</g>
<!-- something I don&#39;t have yet&#45;&gt;level up glyph -->
<g id="edge28" class="edge">
<title>something I don't have yet-&gt;level up glyph</title>
<path fill="none" stroke="#000000" d="M1174.4101,-234.83C1183.6876,-222.1555 1196.272,-204.9632 1206.7192,-190.6908"/>
<polygon fill="#000000" stroke="#000000" points="1209.8168,-192.3846 1212.8991,-182.2481 1204.1683,-188.25 1209.8168,-192.3846"/>
</g>
<!-- event -->
<g id="node25" class="node">
<title>event</title>
<polygon fill="none" stroke="#000000" points="1683.2564,-686.6 1629.2564,-686.6 1629.2564,-650.6 1683.2564,-650.6 1683.2564,-686.6"/>
<text text-anchor="middle" x="1656.2564" y="-664.4" font-family="Times,serif" font-size="14.00" fill="#000000">event</text>
</g>
<!-- murmuring obol -->
<g id="node26" class="node">
<title>murmuring obol</title>
<ellipse fill="none" stroke="#000000" cx="1656.2564" cy="-579.8" rx="74.1426" ry="18"/>
<text text-anchor="middle" x="1656.2564" y="-575.6" font-family="Times,serif" font-size="14.00" fill="#000000">murmuring obol</text>
</g>
<!-- event&#45;&gt;murmuring obol -->
<g id="edge30" class="edge">
<title>event-&gt;murmuring obol</title>
<path fill="none" stroke="#000000" d="M1656.2564,-650.2006C1656.2564,-638.0949 1656.2564,-622.0076 1656.2564,-608.2674"/>
<polygon fill="#000000" stroke="#000000" points="1659.7565,-607.872 1656.2564,-597.872 1652.7565,-607.8721 1659.7565,-607.872"/>
</g>
<!-- buy whispering key -->
<g id="node27" class="node">
<title>buy whispering key</title>
<polygon fill="none" stroke="#000000" points="1578.6793,-524.8 1451.8335,-524.8 1451.8335,-488.8 1578.6793,-488.8 1578.6793,-524.8"/>
<text text-anchor="middle" x="1515.2564" y="-502.6" font-family="Times,serif" font-size="14.00" fill="#000000">buy whispering key</text>
</g>
<!-- murmuring obol&#45;&gt;buy whispering key -->
<g id="edge31" class="edge">
<title>murmuring obol-&gt;buy whispering key</title>
<path fill="none" stroke="#000000" d="M1624.6132,-563.4174C1605.3752,-553.4573 1580.5234,-540.5908 1559.3735,-529.6408"/>
<polygon fill="#000000" stroke="#000000" points="1560.7471,-526.4107 1550.2575,-524.9211 1557.5287,-532.627 1560.7471,-526.4107"/>
</g>
<!-- gamble -->
<g id="node31" class="node">
<title>gamble</title>
<ellipse fill="none" stroke="#000000" cx="1857.2564" cy="-452.8" rx="39.4254" ry="18"/>
<text text-anchor="middle" x="1857.2564" y="-448.6" font-family="Times,serif" font-size="14.00" fill="#000000">gamble</text>
</g>
<!-- murmuring obol&#45;&gt;gamble -->
<g id="edge36" class="edge">
<title>murmuring obol-&gt;gamble</title>
<path fill="none" stroke="#000000" d="M1686.1087,-563.2457C1704.9878,-552.5981 1729.791,-538.2795 1751.2564,-524.8 1777.4189,-508.3709 1806.3884,-488.5796 1827.4212,-473.908"/>
<polygon fill="#000000" stroke="#000000" points="1829.4503,-476.76 1835.6347,-468.1575 1825.4355,-471.0257 1829.4503,-476.76"/>
</g>
<!-- whispering key -->
<g id="node29" class="node">
<title>whispering key</title>
<ellipse fill="none" stroke="#000000" cx="1270.2564" cy="-398.8" rx="70.1087" ry="18"/>
<text text-anchor="middle" x="1270.2564" y="-394.6" font-family="Times,serif" font-size="14.00" fill="#000000">whispering key</text>
</g>
<!-- buy whispering key&#45;&gt;whispering key -->
<g id="edge32" class="edge">
<title>buy whispering key-&gt;whispering key</title>
<path fill="none" stroke="#000000" d="M1474.2489,-488.7232C1430.2461,-469.3261 1360.569,-438.6113 1315.1287,-418.5804"/>
<polygon fill="#000000" stroke="#000000" points="1316.3802,-415.3072 1305.818,-414.4762 1313.5567,-421.7125 1316.3802,-415.3072"/>
</g>
<!-- open silent chest -->
<g id="node28" class="node">
<title>open silent chest</title>
<polygon fill="none" stroke="#000000" points="1411.0668,-343.8 1301.4459,-343.8 1301.4459,-307.8 1411.0668,-307.8 1411.0668,-343.8"/>
<text text-anchor="middle" x="1356.2564" y="-321.6" font-family="Times,serif" font-size="14.00" fill="#000000">open silent chest</text>
</g>
<!-- open silent chest&#45;&gt;legendary item -->
<g id="edge35" class="edge">
<title>open silent chest-&gt;legendary item</title>
<path fill="none" stroke="#000000" d="M1301.56,-309.9116C1298.4222,-309.1577 1295.3049,-308.447 1292.2564,-307.8 1180.2314,-284.0246 1149.7828,-292.0758 1037.2564,-270.8 1031.8606,-269.7798 1026.2711,-268.639 1020.6802,-267.4401"/>
<polygon fill="#000000" stroke="#000000" points="1021.1752,-263.9653 1010.6565,-265.233 1019.6699,-270.8016 1021.1752,-263.9653"/>
</g>
<!-- lower quality item -->
<g id="node30" class="node">
<title>lower quality item</title>
<ellipse fill="none" stroke="#000000" cx="1666.2564" cy="-252.8" rx="81.6789" ry="18"/>
<text text-anchor="middle" x="1666.2564" y="-248.6" font-family="Times,serif" font-size="14.00" fill="#000000">lower quality item</text>
</g>
<!-- open silent chest&#45;&gt;lower quality item -->
<g id="edge34" class="edge">
<title>open silent chest-&gt;lower quality item</title>
<path fill="none" stroke="#000000" d="M1411.1796,-309.9006C1413.9067,-309.1762 1416.6103,-308.472 1419.2564,-307.8 1478.7118,-292.7009 1546.7908,-277.7106 1596.3986,-267.2024"/>
<polygon fill="#000000" stroke="#000000" points="1597.3181,-270.5855 1606.3797,-265.0958 1595.8724,-263.7364 1597.3181,-270.5855"/>
</g>
<!-- whispering key&#45;&gt;open silent chest -->
<g id="edge33" class="edge">
<title>whispering key-&gt;open silent chest</title>
<path fill="none" stroke="#000000" d="M1290.6372,-381.5C1301.453,-372.3192 1314.9378,-360.8727 1326.8651,-350.7484"/>
<polygon fill="#000000" stroke="#000000" points="1329.463,-353.1342 1334.8218,-343.9945 1324.933,-347.7975 1329.463,-353.1342"/>
</g>
<!-- salvage (j) -->
<g id="node32" class="node">
<title>salvage (j)</title>
<polygon fill="none" stroke="#000000" points="1591.4478,-182 1517.0649,-182 1517.0649,-146 1591.4478,-146 1591.4478,-182"/>
<text text-anchor="middle" x="1554.2564" y="-159.8" font-family="Times,serif" font-size="14.00" fill="#000000">salvage (j)</text>
</g>
<!-- lower quality item&#45;&gt;salvage (j) -->
<g id="edge38" class="edge">
<title>lower quality item-&gt;salvage (j)</title>
<path fill="none" stroke="#000000" d="M1644.1288,-235.256C1627.2469,-221.871 1603.7864,-203.2702 1585.0685,-188.4296"/>
<polygon fill="#000000" stroke="#000000" points="1587.1174,-185.5875 1577.1069,-182.1172 1582.7684,-191.0726 1587.1174,-185.5875"/>
</g>
<!-- gamble&#45;&gt;lower quality item -->
<g id="edge37" class="edge">
<title>gamble-&gt;lower quality item</title>
<path fill="none" stroke="#000000" d="M1849.6437,-435.1241C1842.5633,-419.8324 1831.0476,-397.5995 1817.2564,-380.8 1782.6266,-338.6164 1732.8525,-299.5116 1700.0501,-275.8991"/>
<polygon fill="#000000" stroke="#000000" points="1701.8631,-272.8937 1691.6857,-269.949 1697.8055,-278.5977 1701.8631,-272.8937"/>
</g>
<!-- salvage (j)&#45;&gt;about a half dozen different crafting materials -->
<g id="edge39" class="edge">
<title>salvage (j)-&gt;about a half dozen different crafting materials</title>
<path fill="none" stroke="#000000" d="M1530.0317,-145.9551C1517.5459,-136.6545 1502.1478,-125.1844 1488.6544,-115.1332"/>
<polygon fill="#000000" stroke="#000000" points="1490.6525,-112.2573 1480.5421,-109.0904 1486.4708,-117.871 1490.6525,-112.2573"/>
</g>
<!-- foraging -->
<g id="node33" class="node">
<title>foraging</title>
<polygon fill="none" stroke="#000000" points="1742.1842,-524.8 1678.3285,-524.8 1678.3285,-488.8 1742.1842,-488.8 1742.1842,-524.8"/>
<text text-anchor="middle" x="1710.2564" y="-502.6" font-family="Times,serif" font-size="14.00" fill="#000000">foraging</text>
</g>
<!-- foraging&#45;&gt;about a half dozen different crafting materials -->
<g id="edge45" class="edge">
<title>foraging-&gt;about a half dozen different crafting materials</title>
<path fill="none" stroke="#000000" d="M1740.7081,-488.6244C1767.8308,-469.8715 1803.2564,-437.895 1803.2564,-398.8 1803.2564,-398.8 1803.2564,-398.8 1803.2564,-164 1803.2564,-140.9369 1684.356,-119.8608 1585.7555,-106.3482"/>
<polygon fill="#000000" stroke="#000000" points="1586.0534,-102.8566 1575.6741,-104.9829 1585.1139,-109.7933 1586.0534,-102.8566"/>
</g>
<!-- bundled herbs -->
<g id="node34" class="node">
<title>bundled herbs</title>
<ellipse fill="none" stroke="#000000" cx="1710.2564" cy="-398.8" rx="65.4551" ry="18"/>
<text text-anchor="middle" x="1710.2564" y="-394.6" font-family="Times,serif" font-size="14.00" fill="#000000">bundled herbs</text>
</g>
<!-- foraging&#45;&gt;bundled herbs -->
<g id="edge40" class="edge">
<title>foraging-&gt;bundled herbs</title>
<path fill="none" stroke="#000000" d="M1710.2564,-488.4793C1710.2564,-471.621 1710.2564,-446.3651 1710.2564,-426.947"/>
<polygon fill="#000000" stroke="#000000" points="1713.7565,-426.8501 1710.2564,-416.8502 1706.7565,-426.8502 1713.7565,-426.8501"/>
</g>
<!-- angelbreath -->
<g id="node35" class="node">
<title>angelbreath</title>
<ellipse fill="none" stroke="#000000" cx="1570.2564" cy="-398.8" rx="56.1589" ry="18"/>
<text text-anchor="middle" x="1570.2564" y="-394.6" font-family="Times,serif" font-size="14.00" fill="#000000">angelbreath</text>
</g>
<!-- foraging&#45;&gt;angelbreath -->
<g id="edge41" class="edge">
<title>foraging-&gt;angelbreath</title>
<path fill="none" stroke="#000000" d="M1686.8235,-488.7232C1662.9422,-470.3005 1625.8267,-441.6685 1599.912,-421.6772"/>
<polygon fill="#000000" stroke="#000000" points="1601.9783,-418.8508 1591.9227,-415.514 1597.7027,-424.3933 1601.9783,-418.8508"/>
</g>
<!-- upgrade potion -->
<g id="node36" class="node">
<title>upgrade potion</title>
<polygon fill="none" stroke="#000000" points="1620.6281,-343.8 1519.8847,-343.8 1519.8847,-307.8 1620.6281,-307.8 1620.6281,-343.8"/>
<text text-anchor="middle" x="1570.2564" y="-321.6" font-family="Times,serif" font-size="14.00" fill="#000000">upgrade potion</text>
</g>
<!-- bundled herbs&#45;&gt;upgrade potion -->
<g id="edge42" class="edge">
<title>bundled herbs-&gt;upgrade potion</title>
<path fill="none" stroke="#000000" d="M1679.5328,-382.7798C1660.2351,-372.7175 1635.0492,-359.5848 1613.721,-348.4637"/>
<polygon fill="#000000" stroke="#000000" points="1615.3301,-345.3555 1604.8449,-343.8354 1612.0936,-351.5624 1615.3301,-345.3555"/>
</g>
<!-- angelbreath&#45;&gt;upgrade potion -->
<g id="edge44" class="edge">
<title>angelbreath-&gt;upgrade potion</title>
<path fill="none" stroke="#000000" d="M1570.2564,-380.7551C1570.2564,-372.6828 1570.2564,-362.9764 1570.2564,-353.9817"/>
<polygon fill="#000000" stroke="#000000" points="1573.7565,-353.8903 1570.2564,-343.8904 1566.7565,-353.8904 1573.7565,-353.8903"/>
</g>
<!-- potion level -->
<g id="node37" class="node">
<title>potion level</title>
<ellipse fill="none" stroke="#000000" cx="1509.2564" cy="-252.8" rx="56.8026" ry="18"/>
<text text-anchor="middle" x="1509.2564" y="-248.6" font-family="Times,serif" font-size="14.00" fill="#000000">potion level</text>
</g>
<!-- upgrade potion&#45;&gt;potion level -->
<g id="edge43" class="edge">
<title>upgrade potion-&gt;potion level</title>
<path fill="none" stroke="#000000" d="M1555.1777,-307.7551C1547.7356,-298.849 1538.6313,-287.9535 1530.4974,-278.2196"/>
<polygon fill="#000000" stroke="#000000" points="1533.0491,-275.8148 1523.9511,-270.3855 1527.6775,-280.3034 1533.0491,-275.8148"/>
</g>
<!-- potion level&#45;&gt;equipment -->
<g id="edge46" class="edge">
<title>potion level-&gt;equipment</title>
<path fill="none" stroke="#000000" d="M1478.4852,-237.5347C1450.2821,-223.5435 1408.1487,-202.6416 1376.003,-186.6944"/>
<polygon fill="#000000" stroke="#000000" points="1377.3121,-183.4369 1366.7984,-182.1281 1374.2012,-189.7077 1377.3121,-183.4369"/>
</g>
<!-- craft gem -->
<g id="node38" class="node">
<title>craft gem</title>
<polygon fill="none" stroke="#000000" points="1498.003,-343.8 1428.5097,-343.8 1428.5097,-307.8 1498.003,-307.8 1498.003,-343.8"/>
<text text-anchor="middle" x="1463.2564" y="-321.6" font-family="Times,serif" font-size="14.00" fill="#000000">craft gem</text>
</g>
<!-- gem -->
<g id="node40" class="node">
<title>gem</title>
<ellipse fill="none" stroke="#000000" cx="1406.2564" cy="-252.8" rx="27.8286" ry="18"/>
<text text-anchor="middle" x="1406.2564" y="-248.6" font-family="Times,serif" font-size="14.00" fill="#000000">gem</text>
</g>
<!-- craft gem&#45;&gt;gem -->
<g id="edge48" class="edge">
<title>craft gem-&gt;gem</title>
<path fill="none" stroke="#000000" d="M1449.1665,-307.7551C1441.9549,-298.5191 1433.0727,-287.1438 1425.2639,-277.143"/>
<polygon fill="#000000" stroke="#000000" points="1427.9303,-274.8707 1419.0172,-269.1429 1422.413,-279.1788 1427.9303,-274.8707"/>
</g>
<!-- gem fragments -->
<g id="node39" class="node">
<title>gem fragments</title>
<ellipse fill="none" stroke="#000000" cx="1427.2564" cy="-398.8" rx="68.8794" ry="18"/>
<text text-anchor="middle" x="1427.2564" y="-394.6" font-family="Times,serif" font-size="14.00" fill="#000000">gem fragments</text>
</g>
<!-- gem fragments&#45;&gt;craft gem -->
<g id="edge47" class="edge">
<title>gem fragments-&gt;craft gem</title>
<path fill="none" stroke="#000000" d="M1436.1553,-380.7551C1440.2659,-372.4196 1445.2359,-362.3416 1449.7913,-353.1042"/>
<polygon fill="#000000" stroke="#000000" points="1453.0512,-354.4071 1454.3351,-343.8904 1446.7731,-351.311 1453.0512,-354.4071"/>
</g>
<!-- gem&#45;&gt;equipment -->
<g id="edge49" class="edge">
<title>gem-&gt;equipment</title>
<path fill="none" stroke="#000000" d="M1392.6691,-236.9243C1381.5735,-223.96 1365.6623,-205.3691 1352.6826,-190.2032"/>
<polygon fill="#000000" stroke="#000000" points="1354.9838,-187.5093 1345.8224,-182.1876 1349.6656,-192.0609 1354.9838,-187.5093"/>
</g>
<!-- haven&#39;t tried them yet -->
<g id="node41" class="node">
<title>haven't tried them yet</title>
<polygon fill="none" stroke="#000000" points="2064.9944,-524.8 1925.5184,-524.8 1925.5184,-488.8 2064.9944,-488.8 2064.9944,-524.8"/>
<text text-anchor="middle" x="1995.2564" y="-502.6" font-family="Times,serif" font-size="14.00" fill="#000000">haven't tried them yet</text>
</g>
<!-- sigil -->
<g id="node42" class="node">
<title>sigil</title>
<ellipse fill="none" stroke="#000000" cx="1873.2564" cy="-579.8" rx="27.8442" ry="18"/>
<text text-anchor="middle" x="1873.2564" y="-575.6" font-family="Times,serif" font-size="14.00" fill="#000000">sigil</text>
</g>
<!-- sigil&#45;&gt;haven&#39;t tried them yet -->
<g id="edge50" class="edge">
<title>sigil-&gt;haven't tried them yet</title>
<path fill="none" stroke="#000000" d="M1893.6764,-567.5814C1910.7703,-557.3531 1935.645,-542.4691 1956.5003,-529.9901"/>
<polygon fill="#000000" stroke="#000000" points="1958.3738,-532.9479 1965.1578,-524.8098 1954.7795,-526.9411 1958.3738,-532.9479"/>
</g>
<!-- summoning item -->
<g id="node43" class="node">
<title>summoning item</title>
<ellipse fill="none" stroke="#000000" cx="1995.2564" cy="-579.8" rx="76.4463" ry="18"/>
<text text-anchor="middle" x="1995.2564" y="-575.6" font-family="Times,serif" font-size="14.00" fill="#000000">summoning item</text>
</g>
<!-- summoning item&#45;&gt;haven&#39;t tried them yet -->
<g id="edge51" class="edge">
<title>summoning item-&gt;haven't tried them yet</title>
<path fill="none" stroke="#000000" d="M1995.2564,-561.7551C1995.2564,-553.6828 1995.2564,-543.9764 1995.2564,-534.9817"/>
<polygon fill="#000000" stroke="#000000" points="1998.7565,-534.8903 1995.2564,-524.8904 1991.7565,-534.8904 1998.7565,-534.8903"/>
</g>
<!-- some pvp thing -->
<g id="node44" class="node">
<title>some pvp thing</title>
<polygon fill="none" stroke="#000000" points="2182.5879,-686.6 2079.9248,-686.6 2079.9248,-650.6 2182.5879,-650.6 2182.5879,-686.6"/>
<text text-anchor="middle" x="2131.2564" y="-664.4" font-family="Times,serif" font-size="14.00" fill="#000000">some pvp thing</text>
</g>
<!-- red dust -->
<g id="node45" class="node">
<title>red dust</title>
<ellipse fill="none" stroke="#000000" cx="2131.2564" cy="-579.8" rx="41.7542" ry="18"/>
<text text-anchor="middle" x="2131.2564" y="-575.6" font-family="Times,serif" font-size="14.00" fill="#000000">red dust</text>
</g>
<!-- some pvp thing&#45;&gt;red dust -->
<g id="edge52" class="edge">
<title>some pvp thing-&gt;red dust</title>
<path fill="none" stroke="#000000" d="M2131.2564,-650.2006C2131.2564,-638.0949 2131.2564,-622.0076 2131.2564,-608.2674"/>
<polygon fill="#000000" stroke="#000000" points="2134.7565,-607.872 2131.2564,-597.872 2127.7565,-607.8721 2134.7565,-607.872"/>
</g>
<!-- red dust&#45;&gt;haven&#39;t tried them yet -->
<g id="edge53" class="edge">
<title>red dust-&gt;haven't tried them yet</title>
<path fill="none" stroke="#000000" d="M2105.0342,-565.7249C2086.0388,-555.5288 2059.9422,-541.5211 2037.9593,-529.7214"/>
<polygon fill="#000000" stroke="#000000" points="2039.6028,-526.6313 2029.1366,-524.9857 2036.2922,-532.799 2039.6028,-526.6313"/>
</g>
<!-- indeterminate -->
<g id="node46" class="node">
<title>indeterminate</title>
<polygon fill="none" stroke="#000000" points="2283.7284,-597.8 2190.7844,-597.8 2190.7844,-561.8 2283.7284,-561.8 2283.7284,-597.8"/>
<text text-anchor="middle" x="2237.2564" y="-575.6" font-family="Times,serif" font-size="14.00" fill="#000000">indeterminate</text>
</g>
<!-- gold -->
<g id="node47" class="node">
<title>gold</title>
<ellipse fill="none" stroke="#000000" cx="2237.2564" cy="-668.6" rx="28.4127" ry="18"/>
<text text-anchor="middle" x="2237.2564" y="-664.4" font-family="Times,serif" font-size="14.00" fill="#000000">gold</text>
</g>
<!-- gold&#45;&gt;indeterminate -->
<g id="edge54" class="edge">
<title>gold-&gt;indeterminate</title>
<path fill="none" stroke="#000000" d="M2237.2564,-650.2006C2237.2564,-638.0949 2237.2564,-622.0076 2237.2564,-608.2674"/>
<polygon fill="#000000" stroke="#000000" points="2240.7565,-607.872 2237.2564,-597.872 2233.7565,-607.8721 2240.7565,-607.872"/>
</g>
</g>
</svg>