<svg xmlns="http://www.w3.org/2000/svg" width="728" height="124">
<g transform="translate(0 101)">
<line x1="0" y1="0" x2="728" y2="0" stroke="#ff8386" />
<line x1="0" y1="-51.85546875" x2="728" y2="-51.85546875" stroke="#dfa11a" stroke-dasharray="4" />
<line x1="0" y1="-71.630859375" x2="728" y2="-71.630859375" stroke="#dfa11a" />
<line x1="0" y1="-90.52734375" x2="728" y2="-90.52734375" stroke="#77c566" stroke-dasharray="4" />
<line x1="0" y1="21.19140625" x2="728" y2="21.19140625" stroke="#77c566" stroke-dasharray="4" />
<line x1="0" y1="-92.1630859375" x2="728" y2="-92.1630859375" stroke="#77c566" />
<line x1="0" y1="22.8271484375" x2="728" y2="22.8271484375" stroke="#77c566" />
<line x1="0" y1="-100" x2="728" y2="-100" stroke="#74adff" />
<!-- <text x="0" y="0" font-family="sans-serif" font-size="100">Hxp</text> -->
<g transform="scale(100) translate(0 0) scale(0.00048828125) scale(1 -1)">
<path d="M 358 0 L 164 0 L 164 1466 L 358 1466 L 358 864 L 1120 864 L 1120 1466 L 1314 1466 L 1314 0 L 1120 0 L 1120 691 L 358 691 L 358 0 Z" transform="translate(0 0)" />
<path d="M 233 0 L 15 0 L 403 552 L 44 1062 L 269 1062 L 432 813 Q 478 742 506 694 L 506 694 Q 550 760 587 811 L 587 811 L 766 1062 L 981 1062 L 614 562 L 1009 0 L 788 0 L 570 330 L 512 419 L 233 0 Z" transform="translate(1479 0)" />
<path d="M 315 -407 L 135 -407 L 135 1062 L 299 1062 L 299 924 Q 357 1005 430 1045.5 Q 503 1086 607 1086 L 607 1086 Q 743 1086 847 1016 Q 951 946 1004 818.5 Q 1057 691 1057 539 L 1057 539 Q 1057 376 998.5 245.5 Q 940 115 828.5 45.5 Q 717 -24 594 -24 L 594 -24 Q 504 -24 432.5 14 Q 361 52 315 110 L 315 110 L 315 -407 Z M 298 525 L 298 525 Q 298 320 381 222 Q 464 124 582 124 L 582 124 Q 702 124 787.5 225.5 Q 873 327 873 540 L 873 540 Q 873 743 789.5 844 Q 706 945 590 945 L 590 945 Q 475 945 386.5 837.5 Q 298 730 298 525 Z" transform="translate(2503 0)" />
<!-- 3642 -->
</g>
<g transform="scale(100) translate(1.7783203125 0) scale(0.00048828125) scale(1 -1)">
<path d="M 1300 -335 L 1300 -335 Q 1080 -335 891 -256 Q 702 -177 560.5 -36 Q 419 105 339.5 293 Q 260 481 260 700 L 260 700 Q 260 919 339.5 1107 Q 419 1295 560.5 1436 Q 702 1577 891 1656 Q 1080 1735 1300 1735 L 1300 1735 Q 1520 1735 1709 1656 Q 1898 1577 2039.5 1436 Q 2181 1295 2260.5 1107 Q 2340 919 2340 700 L 2340 700 Q 2340 482 2260.5 293.5 Q 2181 105 2039.5 -36 Q 1898 -177 1709 -256 Q 1520 -335 1300 -335 Z M 1300 57 L 1300 57 Q 1436 57 1556 103 L 1556 103 Q 1426 174 1300 174 L 1300 174 Q 1174 174 1044 103 L 1044 103 Q 1164 57 1300 57 Z M 1300 2 L 1300 2 Q 1175 2 1053.5 42 Q 932 82 833.5 149 Q 735 216 676 298.5 Q 617 381 617 465 L 617 465 Q 617 506 635 523.5 Q 653 541 684 541 L 684 541 Q 707 541 735 536.5 Q 763 532 799 524 L 799 524 Q 895 502 1028.5 486 Q 1162 470 1300 470 L 1300 470 Q 1438 470 1571.5 486 Q 1705 502 1802 524 L 1802 524 Q 1838 532 1866 536.5 Q 1894 541 1916 541 L 1916 541 Q 1948 541 1966 523.5 Q 1984 506 1984 465 L 1984 465 Q 1984 381 1925 298.5 Q 1866 216 1767 149 Q 1668 82 1546.5 42 Q 1425 2 1300 2 Z M 1300 335 L 1300 335 Q 1394 335 1501 342.5 Q 1608 350 1715 366.5 Q 1822 383 1915 408 L 1915 408 L 1915 463 Q 1915 477 1905.5 480.5 Q 1896 484 1883 481 L 1883 481 Q 1803 462 1701 447 Q 1599 432 1494.5 423.5 Q 1390 415 1300 415 L 1300 415 Q 1211 415 1106 423.5 Q 1001 432 899.5 447 Q 798 462 717 481 L 717 481 Q 704 484 694.5 480.5 Q 685 477 685 463 L 685 463 L 685 408 Q 778 383 885 366.5 Q 992 350 1099.5 342.5 Q 1207 335 1300 335 Z M 968 693 L 968 693 Q 915 693 879 764 Q 843 835 843 940 L 843 940 Q 843 1045 879 1116 Q 915 1187 968 1187 L 968 1187 Q 1021 1187 1057.5 1116 Q 1094 1045 1094 940 L 1094 940 Q 1094 835 1057.5 764 Q 1021 693 968 693 Z M 1300 -260 L 1300 -260 Q 1503 -260 1677.5 -187 Q 1852 -114 1983 17 Q 2114 148 2187 322.5 Q 2260 497 2260 700 L 2260 700 Q 2260 903 2187 1077.5 Q 2114 1252 1983 1383 Q 1852 1514 1677.5 1587 Q 1503 1660 1300 1660 L 1300 1660 Q 1098 1660 923 1587 Q 748 1514 617.5 1383 Q 487 1252 413.5 1077.5 Q 340 903 340 700 L 340 700 Q 340 497 413 322.5 Q 486 148 617 17 Q 748 -114 922.5 -187 Q 1097 -260 1300 -260 Z M 1632 693 L 1632 693 Q 1579 693 1543 764 Q 1507 835 1507 940 L 1507 940 Q 1507 1045 1543.5 1116 Q 1580 1187 1632 1187 L 1632 1187 Q 1685 1187 1721.5 1116 Q 1758 1045 1758 940 L 1758 940 Q 1758 835 1721.5 764 Q 1685 693 1632 693 Z" transform="translate(0 0)" />
<path d="M 1120 -340 L 1120 -340 Q 1072 -340 1036.5 -325 Q 1001 -310 1001 -283 L 1001 -283 Q 1001 -260 1018 -227.5 Q 1035 -195 1082 -133 L 1082 -133 L 1082 139 Q 1082 183 1067 230 Q 1052 277 1037 332 Q 1022 387 1022 455 L 1022 455 Q 1022 518 1034 581.5 Q 1046 645 1046 690 L 1046 690 Q 1046 748 1014 748 L 1014 748 Q 986 748 959 703.5 Q 932 659 914.5 596.5 Q 897 534 897 479 L 897 479 Q 897 398 871 364 Q 845 330 798 330 L 798 330 Q 710 330 710 427 L 710 427 Q 710 565 756.5 690.5 Q 803 816 885 913.5 Q 967 1011 1073.5 1067.5 Q 1180 1124 1300 1124 L 1300 1124 Q 1420 1124 1526.5 1067.5 Q 1633 1011 1715 913.5 Q 1797 816 1843.5 690.5 Q 1890 565 1890 427 L 1890 427 Q 1890 330 1802 330 L 1802 330 Q 1755 330 1729 364 Q 1703 398 1703 479 L 1703 479 Q 1703 534 1685.5 596.5 Q 1668 659 1641 703.5 Q 1614 748 1586 748 L 1586 748 Q 1554 748 1554 690 L 1554 690 Q 1554 645 1566 581.5 Q 1578 518 1578 455 L 1578 455 Q 1578 387 1563.5 332 Q 1549 277 1534 230 Q 1519 183 1519 139 L 1519 139 L 1519 -133 Q 1566 -195 1583 -227.5 Q 1600 -260 1600 -283 L 1600 -283 Q 1600 -310 1564.5 -325 Q 1529 -340 1480 -340 L 1480 -340 Q 1422 -340 1382.5 -318 Q 1343 -296 1343 -240 L 1343 -240 L 1343 136 Q 1343 161 1332 176 Q 1321 191 1300 191 L 1300 191 Q 1279 191 1268.5 176 Q 1258 161 1258 136 L 1258 136 L 1258 -240 Q 1258 -296 1219 -318 Q 1180 -340 1120 -340 Z M 1300 1104 L 1300 1104 Q 1213 1104 1141 1147 Q 1069 1190 1025.5 1262.5 Q 982 1335 982 1424 L 982 1424 Q 982 1512 1025.5 1583.5 Q 1069 1655 1141 1697.5 Q 1213 1740 1300 1740 L 1300 1740 Q 1387 1740 1459.5 1697.5 Q 1532 1655 1575 1583.5 Q 1618 1512 1618 1424 L 1618 1424 Q 1618 1335 1575 1262.5 Q 1532 1190 1459.5 1147 Q 1387 1104 1300 1104 Z" transform="translate(2600 0)" />
<path d="M 1301 -340 L 1301 -340 Q 1514 -340 1702 -258.5 Q 1890 -177 2033.5 -33.5 Q 2177 110 2258.5 298.5 Q 2340 487 2340 700 L 2340 700 Q 2340 913 2258.5 1101.5 Q 2177 1290 2033.5 1433.5 Q 1890 1577 1702 1658.5 Q 1514 1740 1301 1740 L 1301 1740 Q 1087 1740 898.5 1658.5 Q 710 1577 566.5 1433.5 Q 423 1290 341.5 1101.5 Q 260 913 260 700 L 260 700 Q 260 487 341.5 298.5 Q 423 110 566.5 -33.5 Q 710 -177 898.5 -258.5 Q 1087 -340 1301 -340 Z M 1301 -260 L 1301 -260 Q 1104 -260 930 -184.5 Q 756 -109 623.5 23.5 Q 491 156 415.5 329.5 Q 340 503 340 700 L 340 700 Q 340 897 415.5 1070.5 Q 491 1244 623.5 1376.5 Q 756 1509 930 1584.5 Q 1104 1660 1301 1660 L 1301 1660 Q 1498 1660 1671.5 1584.5 Q 1845 1509 1977 1376.5 Q 2109 1244 2184.5 1070.5 Q 2260 897 2260 700 L 2260 700 Q 2260 503 2184.5 329.5 Q 2109 156 1977 23.5 Q 1845 -109 1671.5 -184.5 Q 1498 -260 1301 -260 Z M 549 72 L 569 8 L 2031 8 L 2051 72 L 549 72 Z M 608 1426 L 608 -31 L 672 -31 L 672 1426 L 608 1426 Z M 938 1635 L 938 -235 L 1002 -235 L 1002 1635 L 938 1635 Z M 365 402 L 365 338 L 2235 338 L 2235 402 L 365 402 Z M 315 732 L 315 668 L 2285 668 L 2285 732 L 315 732 Z M 1268 1685 L 1268 -285 L 1332 -285 L 1332 1685 L 1268 1685 Z M 1598 1635 L 1598 -235 L 1662 -235 L 1662 1635 L 1598 1635 Z M 365 1062 L 365 998 L 2235 998 L 2235 1062 L 365 1062 Z M 1928 1426 L 1928 -31 L 1992 -31 L 1992 1426 L 1928 1426 Z M 569 1392 L 549 1328 L 2051 1328 L 2031 1392 L 569 1392 Z" transform="translate(5400 0)" />
<path d="M 426 -340 L 426 -340 L 2175 -340 Q 2243 -340 2291.5 -291 Q 2340 -242 2340 -175 L 2340 -175 L 2340 1575 Q 2340 1643 2291.5 1691.5 Q 2243 1740 2175 1740 L 2175 1740 L 425 1740 Q 358 1740 309 1691.5 Q 260 1643 260 1575 L 260 1575 L 260 -176 Q 260 -243 309 -291.5 Q 358 -340 426 -340 Z M 598 1700 L 598 -297 L 662 -297 L 662 1700 L 598 1700 Z M 283 62 L 283 -2 L 2320 -2 L 2320 62 L 283 62 Z M 933 1700 L 933 -297 L 997 -297 L 997 1700 L 933 1700 Z M 283 397 L 283 333 L 2320 333 L 2320 397 L 283 397 Z M 2175 -260 L 426 -260 Q 391 -260 365.5 -235 Q 340 -210 340 -176 L 340 -176 L 340 1575 Q 340 1610 365.5 1635 Q 391 1660 425 1660 L 425 1660 L 2175 1660 Q 2210 1660 2235 1635 Q 2260 1610 2260 1575 L 2260 1575 L 2260 -175 Q 2260 -209 2235 -234.5 Q 2210 -260 2175 -260 L 2175 -260 Z M 283 732 L 283 668 L 2320 668 L 2320 732 L 283 732 Z M 1268 1700 L 1268 -297 L 1332 -297 L 1332 1700 L 1268 1700 Z M 1603 1700 L 1603 -297 L 1667 -297 L 1667 1700 L 1603 1700 Z M 283 1067 L 283 1003 L 2320 1003 L 2320 1067 L 283 1067 Z M 1938 1700 L 1938 -297 L 2002 -297 L 2002 1700 L 1938 1700 Z M 283 1402 L 283 1338 L 2320 1338 L 2320 1402 L 283 1402 Z" transform="translate(7800 0)" />
</g>
</g>
</svg>
