<svg xmlns="http://www.w3.org/2000/svg" width="562" height="559">
<g transform="translate(281 433)">
<line x1="-281" y1="0" x2="281" y2="0" stroke="#aeaeae" />
<text x="0" y="0" font-family="sans-serif" font-size="400" text-anchor="middle">🧍</text>

<line x1="-176.3671875" y1="-140" x2="-126.3671875" y2="-140" stroke="#f982aa" />
<line x1="126.3671875" y1="-140" x2="176.3671875" y2="-140" stroke="#f982aa" />
<line x1="-60" y1="-431.640625" x2="-60" y2="-365.0390625" stroke="#f982aa" />
<line x1="-60" y1="84.1796875" x2="-60" y2="100.390625" stroke="#f982aa" />
<line x1="-65" y1="-431.640625" x2="-55" y2="-431.640625" stroke="#f982aa" />
<line x1="-65" y1="100.390625" x2="-55" y2="100.390625" stroke="#f982aa" />
<rect x="-126.3671875" y="-365.0390625" width="252.734375" height="449.21875" fill="none" stroke="#f982aa" />

<line x1="-234.375" y1="-120" x2="-73.50543478" y2="-120" stroke="#f78f4c" />
<line x1="78.66847826" y1="-120" x2="234.375" y2="-120" stroke="#f78f4c" />
<line x1="-40" y1="-371.09375" x2="-40" y2="-365.2173913" stroke="#f78f4c" />
<line x1="-40" y1="100" x2="-40" y2="97.65625" stroke="#f78f4c" />
<line x1="-45" y1="-371.09375" x2="-35" y2="-371.09375" stroke="#f78f4c" />
<line x1="-45" y1="97.65625" x2="-35" y2="97.65625" stroke="#f78f4c" />
<rect x="-73.50543478" y="-365.2173913" width="152.173913" height="465.2173913" fill="none" stroke="#f78f4c" />

<line x1="-249.0234375" y1="-100" x2="-94.55295801" y2="-100" stroke="#c0b120" />
<line x1="94.79167461" y1="-100" x2="249.0234375" y2="-100" stroke="#c0b120" />
<line x1="-20" y1="-371.09375" x2="-20" y2="-355.7350874" stroke="#c0b120" />
<line x1="-20" y1="82.81252384" x2="-20" y2="97.65625" stroke="#c0b120" />
<line x1="-25" y1="-371.09375" x2="-15" y2="-371.09375" stroke="#c0b120" />
<line x1="-25" y1="97.65625" x2="-15" y2="97.65625" stroke="#c0b120" />
<rect x="-94.55295801" y="-355.7350874" width="189.3446326" height="438.5476112" fill="none" stroke="#c0b120" />

<line x1="-253.90625" y1="-80" x2="-115.234375" y2="-80" stroke="#51c982" />
<line x1="115.234375" y1="-80" x2="253.90625" y2="-80" stroke="#51c982" />
<line x1="0" y1="-371.09375" x2="0" y2="-339.84375" stroke="#51c982" />
<line x1="0" y1="66.40625" x2="0" y2="97.65625" stroke="#51c982" />
<line x1="-5" y1="-371.09375" x2="5" y2="-371.09375" stroke="#51c982" />
<line x1="-5" y1="97.65625" x2="5" y2="97.65625" stroke="#51c982" />
<rect x="-115.234375" y="-339.84375" width="230.46875" height="406.25" fill="none" stroke="#51c982" />

<line x1="-200" y1="-60" x2="-69.25222874" y2="-60" stroke="#00c7db" />
<line x1="69.25222874" y1="-60" x2="200" y2="-60" stroke="#00c7db" />
<line x1="20" y1="-367.96875" x2="20" y2="-342.1875" stroke="#00c7db" />
<line x1="20" y1="49.21875" x2="20" y2="67.96875" stroke="#00c7db" />
<line x1="15" y1="-350" x2="25" y2="-350" stroke="#00c7db" />
<line x1="15" y1="50" x2="25" y2="50" stroke="#00c7db" />
<rect x="-69.25222874" y="-342.1875" width="138.5044575" height="391.40625" fill="none" stroke="#00c7db" />

<line x1="-274.609375" y1="-40" x2="-64.63894844" y2="-40" stroke="#6dafff" />
<line x1="64.74921703" y1="-40" x2="274.609375" y2="-40" stroke="#6dafff" />
<line x1="40" y1="-431.640625" x2="40" y2="-339.0625" stroke="#6dafff" />
<line x1="40" y1="57.03125" x2="40" y2="100.390625" stroke="#6dafff" />
<line x1="35" y1="-431.640625" x2="45" y2="-431.640625" stroke="#6dafff" />
<line x1="35" y1="100.390625" x2="45" y2="100.390625" stroke="#6dafff" />
<rect x="-64.63894844" y="-339.0625" width="129.3881655" height="396.09375" fill="none" stroke="#6dafff" />

<line x1="-200" y1="-20" x2="-67.5" y2="-20" stroke="#c992f6" />
<line x1="67.5" y1="-20" x2="200" y2="-20" stroke="#c992f6" />
<line x1="60" y1="-400" x2="60" y2="-342.5" stroke="#c992f6" />
<line x1="60" y1="47.5" x2="60" y2="125" stroke="#c992f6" />
<line x1="55" y1="-400" x2="65" y2="-400" stroke="#c992f6" />
<line x1="55" y1="125" x2="65" y2="125" stroke="#c992f6" />
<rect x="-67.5" y="-342.5" width="135" height="390" fill="none" stroke="#c992f6" />
<path d="M -67.5 -332.5 h 135 M -67.5 47.5 v 10 h 135 v -10" fill="none" stroke="#c992f6" stroke-dasharray="2" />
</g>
</svg>
