<svg xmlns="http://www.w3.org/2000/svg" width="728" height="124">
<g transform="translate(0 101)">
<line x1="0" y1="0" x2="728" y2="0" stroke="#ff8386" />
<line x1="0" y1="-51.85546875" x2="728" y2="-51.85546875" stroke="#dfa11a" stroke-dasharray="4" />
<line x1="0" y1="-71.630859375" x2="728" y2="-71.630859375" stroke="#dfa11a" />
<line x1="0" y1="-90.52734375" x2="728" y2="-90.52734375" stroke="#77c566" stroke-dasharray="4" />
<line x1="0" y1="21.19140625" x2="728" y2="21.19140625" stroke="#77c566" stroke-dasharray="4" />
<line x1="0" y1="-92.1630859375" x2="728" y2="-92.1630859375" stroke="#77c566" />
<line x1="0" y1="22.8271484375" x2="728" y2="22.8271484375" stroke="#77c566" />
<line x1="0" y1="-100" x2="728" y2="-100" stroke="#74adff" />
<!-- <text x="0" y="0" font-family="sans-serif" font-size="100">Hxp</text> -->
<g transform="scale(100) translate(0 0) scale(0.00048828125) scale(1 -1)">
<path d="M 358 0 L 164 0 L 164 1466 L 358 1466 L 358 864 L 1120 864 L 1120 1466 L 1314 1466 L 1314 0 L 1120 0 L 1120 691 L 358 691 L 358 0 Z" transform="translate(0 0)" />
<path d="M 233 0 L 15 0 L 403 552 L 44 1062 L 269 1062 L 432 813 Q 478 742 506 694 L 506 694 Q 550 760 587 811 L 587 811 L 766 1062 L 981 1062 L 614 562 L 1009 0 L 788 0 L 570 330 L 512 419 L 233 0 Z" transform="translate(1479 0)" />
<path d="M 315 -407 L 135 -407 L 135 1062 L 299 1062 L 299 924 Q 357 1005 430 1045.5 Q 503 1086 607 1086 L 607 1086 Q 743 1086 847 1016 Q 951 946 1004 818.5 Q 1057 691 1057 539 L 1057 539 Q 1057 376 998.5 245.5 Q 940 115 828.5 45.5 Q 717 -24 594 -24 L 594 -24 Q 504 -24 432.5 14 Q 361 52 315 110 L 315 110 L 315 -407 Z M 298 525 L 298 525 Q 298 320 381 222 Q 464 124 582 124 L 582 124 Q 702 124 787.5 225.5 Q 873 327 873 540 L 873 540 Q 873 743 789.5 844 Q 706 945 590 945 L 590 945 Q 475 945 386.5 837.5 Q 298 730 298 525 Z" transform="translate(2503 0)" />
<!-- 3642 -->
</g>
<g transform="scale(100) translate(1.7783203125 0) scale(0.001953125)">
<g transform="translate(0 0)">
  <path d="M512,192 q0,-106 -75,-181 q-75,-75 -181,-75 q-106,0 -181,75 q-75,75 -75,181 q0,106 75,181 q75,75 181,75 q106,0 181,-75 q75,-75 75,-181 v0 Z" fill="#FFCC4D" transform="matrix(1,0,0,-1,0,0)"/>
  <path d="M128,270.5 q0,32.5 10.5,55 q10.5,22.5 25,22.5 q14.5,0 25,-22.5 q10.5,-22.5 10.5,-55 q0,-32.5 -10.5,-55.5 q-10.5,-23 -25,-23 q-14.5,0 -25,23 q-10.5,23 -10.5,55.5 Z M313,270 q0,21 4.5,39.5 q4.5,18.5 13,28.5 q8.5,10 17.5,10 q15,0 25.5,-22.5 q10.5,-22.5 10.5,-55 q0,-32.5 -10.5,-55.5 q-10.5,-23 -25,-23 q-14.5,0 -25,23 q-10.5,23 -10.5,55 Z M256,135 q55,0 128,14 q10,2 19,-3.5 q9,-5.5 9,-24.5 q0,-46 -45.5,-87 q-45.5,-41 -110.5,-41 q-65,0 -110.5,41 q-45.5,41 -45.5,87 q0,19 9,24.5 q9,5.5 19,3.5 q73,-14 128,-14 Z" fill="#664500" transform="matrix(1,0,0,-1,0,0)"/>
  <path d="M128,121 q43,-14 128,-14 q38,0 70,3.5 q32,3.5 45,6.5 l13,4 q-1,-2 -3.5,-6 q-2.5,-4 -13,-14 q-10.5,-10 -23.5,-17.5 q-13,-7.5 -36.5,-13.5 q-23.5,-6 -51.5,-6 q-28,0 -51.5,6 q-23.5,6 -37,14 q-13.5,8 -23,16.5 q-9.5,8.5 -12.5,14.5 l-4,6 Z" fill="#FFFFFF" transform="matrix(1,0,0,-1,0,0)"/>
</g>
<g transform="translate(512 0)">
  <path d="M186,127 q-4,-3 -10,2 q-11,10 -8,30 q8,53 9,59 q1,1 1,8 q0,7 0,16 q0,9 0.5,20.5 q0.5,11.5 1.5,20.5 q1,3 4.5,6.5 q3.5,3.5 8.5,6 q5,2.5 9,2.5 q2,0 3.5,-2.5 q1.5,-2.5 1,-5 q-0.5,-2.5 -1,-5.5 q-0.5,-3 -0.5,-3 q2,-17 -5,-66 q-2,-10 -7.5,-29 q-5.5,-19 -3.5,-30 q3,-18 -4,-19 q0,-2 0.5,-5 q0.5,-3 0.5,-4 q0,-1 0,-2 Z M326,127 q0,1 0,5 q1,4 1,6 q-7,1 -4,19 q2,11 -3.5,30 q-5.5,19 -7.5,29 q-7,49 -5,66 q0,0 -0.5,3 q-0.5,3 -1,5.5 q-0.5,2.5 1,5 q1.5,2.5 3.5,2.5 q6,0 13.5,-5 q7.5,-5 8.5,-10 q1,-11 2,-26.5 q1,-15.5 0.5,-26.5 q-0.5,-11 0.5,-12 q1,-6 9,-59 q3,-20 -8,-30 q-6,-5 -10,-2 Z" fill="#FFDC5D" transform="matrix(1,0,0,-1,0,0)"/>
  <path d="M307,68 q0,-1 -0.5,-8.5 q-0.5,-7.5 -0.5,-17.5 q0,-10 0,-23.5 q0,-13.5 0,-25.5 q0,-12 0.5,-24 q0.5,-12 1.5,-19 q1,-4 -9,-6.5 q-10,-2.5 -20,-0.5 q-10,2 -10,8 q1,20 -4,104 q0,3 -2,22.5 q-2,19.5 -3,29.5 q0,1 -2,1 q-2,0 -2,-1 q-1,-8 -2,-19 q-1,-11 -2,-20.5 q-1,-9.5 -1,-12.5 q0,-1 -1,-13 q-1,-12 -1.5,-21 q-0.5,-9 -1,-25 q-0.5,-16 -0.5,-24.5 q0,-8.5 0,-20.5 q0,-6 -10,-8 q-10,-2 -20,0.5 q-10,2.5 -9,6.5 q1,10 1,27.5 q0,17.5 -0.5,31 q-0.5,13.5 -1,33 q-0.5,19.5 -1.5,26.5 l-1,92 h102 q0,-49 0,-92 Z" fill="#4289C1" transform="matrix(1,0,0,-1,0,0)"/>
  <path d="M318,313 q12,-14 19,-39 l-25,-5 q-7,-24 -7,-44 l6,-76 h-110 q6,54 6,76 q0,9 -2,20.5 q-2,11.5 -3,17.5 l-2,6 l-25,5 q6,25 18,39 q5,6 20.5,11 q15.5,5 29.5,7 l13,3 q52,-9 62,-21 Z" fill="#FA743E" transform="matrix(1,0,0,-1,0,0)"/>
  <path d="M274,436 q33,-11 32,-42 q-2,-52 -44,-52 q-10,0 -14,0 q-4,0 -9.5,2.5 q-5.5,2.5 -9.5,7.5 q-12,4 -14,19 q-1,3 -2,7.5 q-1,4.5 -1.5,7.5 q-0.5,3 -1,8.5 q-0.5,5.5 0.5,10.5 q1,11 10.5,19 q9.5,8 19.5,8 q3,4 15,5.5 q12,1.5 18,-1.5 Z" fill="#FFAC33" transform="matrix(1,0,0,-1,0,0)"/>
  <path d="M242,350 h31 v-25 q0,-5 -4.5,-8.5 q-4.5,-3.5 -11.5,-3.5 q-4,0 -7.5,1.5 q-3.5,1.5 -5.5,4.5 q-2,3 -2,6 v25 Z" fill="#FFDC5D" transform="matrix(1,0,0,-1,0,0)"/>
  <path d="M242,334 v16 h31 v-15 q-16,-10 -31,-1 Z" fill="#F9CA55" transform="matrix(1,0,0,-1,0,0)"/>
  <path d="M290,393 q5,-6 5,-22 q0,-15 -11,-26.5 q-11,-11.5 -26.5,-11.5 q-15.5,0 -26.5,11 q-11,11 -11,27 q0,12 1,15 q3,9 9,13 q5,3 7.5,6.5 q2.5,3.5 3.5,4.5 l1,2 q2,-5 9,-9 q4,-3 14,-5 q10,-2 16,-8 q1,-2 1.5,-1 q0.5,1 -0.5,3 q-1,6 -6,9 q9,-1 14,-8 Z" fill="#FFDC5D" transform="matrix(1,0,0,-1,0,0)"/>
  <path d="M241,375 q-4,0 -4,4 v4 q0,4 4,4 q4,0 4,-4 v-4 q0,-4 -4,-4 Z M274,375 q-4,0 -4,4 v4 q0,4 4,4 q4,0 4,-4 v-4 q0,-4 -4,-4 Z" fill="#662113" transform="matrix(1,0,0,-1,0,0)"/>
  <path d="M264,343 h-13 q-3,0 -3,3 q0,3 3,3 h13 q3,0 3,-3 q0,-3 -3,-3 Z M262,360 h-9 q-2,0 -2,2.5 q0,2.5 2,2.5 h9 q2,0 2,-2.5 q0,-2.5 -2,-2.5 Z" fill="#C1694F" transform="matrix(1,0,0,-1,0,0)"/>
  <path d="M197,-63 q-5,2 -3.5,6 q1.5,4 4.5,7 q1,1 4.5,3 q3.5,2 5.5,4.5 q2,2.5 4,4.5 q2,5 11.5,5 q9.5,0 12.5,-4 q3,-6 6.5,-6 q3.5,0 4.5,-1 q0,-2 0.5,-5 q0.5,-3 0.5,-5 q0,-2 0,-4 q0,-2 0,-3 l-1,-2 h-50 Z M318,-63 h-50 q-2,12 1,19 q0,1 3.5,1 q3.5,0 7.5,6 q3,4 12,4 q9,0 12,-5 q1,-2 3.5,-4.5 q2.5,-2.5 5.5,-4.5 q3,-2 4,-3 q4,-3 5,-7 q1,-4 -4,-6 Z" fill="#292F33" transform="matrix(1,0,0,-1,0,0)"/>
</g>
<g transform="translate(1024 0)">
  <path d="M0,192 q0,106 75,181 q75,75 181,75 q106,0 181,-75 q75,-75 75,-181 q0,-106 -75,-181 q-75,-75 -181,-75 q-106,0 -181,75 q-75,75 -75,181 Z" fill="#31373D" transform="matrix(1,0,0,-1,0,0)"/>
</g>
<g transform="translate(1536 0)">
  <path d="M512,-7 q0,-24 -16.5,-40.5 q-16.5,-16.5 -40.5,-16.5 h-398 q-24,0 -40.5,16.5 q-16.5,16.5 -16.5,40.5 v398 q0,24 16.5,40.5 q16.5,16.5 40.5,16.5 h398 q24,0 40.5,-16.5 q16.5,-16.5 16.5,-40.5 v-398 Z" fill="#31373D" transform="matrix(1,0,0,-1,0,0)"/>
</g>
</g>
</g>
</svg>
