<svg xmlns="http://www.w3.org/2000/svg" width="562" height="559">
<g transform="translate(281 433)">
<line x1="-281" y1="0" x2="281" y2="0" stroke="#aeaeae" />
<text x="0" y="0" font-family="sans-serif" font-size="400" text-anchor="middle">😃</text>

<line x1="-274.609375" y1="-140" x2="-224.609375" y2="-140" stroke="#f982aa" />
<line x1="224.609375" y1="-140" x2="274.609375" y2="-140" stroke="#f982aa" />
<line x1="-60" y1="-431.640625" x2="-60" y2="-365.0390625" stroke="#f982aa" />
<line x1="-60" y1="84.1796875" x2="-60" y2="100.390625" stroke="#f982aa" />
<line x1="-65" y1="-431.640625" x2="-55" y2="-431.640625" stroke="#f982aa" />
<line x1="-65" y1="100.390625" x2="-55" y2="100.390625" stroke="#f982aa" />
<rect x="-224.609375" y="-365.0390625" width="449.21875" height="449.21875" fill="none" stroke="#f982aa" />

<line x1="-234.375" y1="-120" x2="-216.9836957" y2="-120" stroke="#f78f4c" />
<line x1="217.798913" y1="-120" x2="234.375" y2="-120" stroke="#f78f4c" />
<line x1="-40" y1="-371.09375" x2="-40" y2="-352.173913" stroke="#f78f4c" />
<line x1="-40" y1="82.60869565" x2="-40" y2="97.65625" stroke="#f78f4c" />
<line x1="-45" y1="-371.09375" x2="-35" y2="-371.09375" stroke="#f78f4c" />
<line x1="-45" y1="97.65625" x2="-35" y2="97.65625" stroke="#f78f4c" />
<rect x="-216.9836957" y="-352.173913" width="434.7826087" height="434.7826087" fill="none" stroke="#f78f4c" />

<line x1="-249.0234375" y1="-100" x2="-213.8671875" y2="-100" stroke="#c0b120" />
<line x1="211.1328125" y1="-100" x2="249.0234375" y2="-100" stroke="#c0b120" />
<line x1="-20" y1="-371.09375" x2="-20" y2="-345.3125" stroke="#c0b120" />
<line x1="-20" y1="64.0625" x2="-20" y2="97.65625" stroke="#c0b120" />
<line x1="-25" y1="-371.09375" x2="-15" y2="-371.09375" stroke="#c0b120" />
<line x1="-25" y1="97.65625" x2="-15" y2="97.65625" stroke="#c0b120" />
<rect x="-213.8671875" y="-345.3125" width="425" height="409.375" fill="none" stroke="#c0b120" />

<line x1="-253.90625" y1="-80" x2="-203.125" y2="-80" stroke="#51c982" />
<line x1="203.125" y1="-80" x2="253.90625" y2="-80" stroke="#51c982" />
<line x1="0" y1="-371.09375" x2="0" y2="-338.8671875" stroke="#51c982" />
<line x1="0" y1="65.4296875" x2="0" y2="97.65625" stroke="#51c982" />
<line x1="-5" y1="-371.09375" x2="5" y2="-371.09375" stroke="#51c982" />
<line x1="-5" y1="97.65625" x2="5" y2="97.65625" stroke="#51c982" />
<rect x="-203.125" y="-338.8671875" width="406.25" height="404.296875" fill="none" stroke="#51c982" />

<line x1="-200" y1="-60" x2="-200" y2="-60" stroke="#00c7db" />
<line x1="200" y1="-60" x2="200" y2="-60" stroke="#00c7db" />
<line x1="20" y1="-367.96875" x2="20" y2="-350" stroke="#00c7db" />
<line x1="20" y1="50" x2="20" y2="67.96875" stroke="#00c7db" />
<line x1="15" y1="-350" x2="25" y2="-350" stroke="#00c7db" />
<line x1="15" y1="50" x2="25" y2="50" stroke="#00c7db" />
<rect x="-200" y="-350" width="400" height="400" fill="none" stroke="#00c7db" />

<line x1="-274.609375" y1="-40" x2="-197.0956981" y2="-40" stroke="#6dafff" />
<line x1="197.0563471" y1="-40" x2="274.609375" y2="-40" stroke="#6dafff" />
<line x1="40" y1="-431.640625" x2="40" y2="-338.1699324" stroke="#6dafff" />
<line x1="40" y1="55.98211288" x2="40" y2="100.390625" stroke="#6dafff" />
<line x1="35" y1="-431.640625" x2="45" y2="-431.640625" stroke="#6dafff" />
<line x1="35" y1="100.390625" x2="45" y2="100.390625" stroke="#6dafff" />
<rect x="-197.0956981" y="-338.1699324" width="394.1520452" height="394.1520452" fill="none" stroke="#6dafff" />

<line x1="-200" y1="-20" x2="-182.5" y2="-20" stroke="#c992f6" />
<line x1="185" y1="-20" x2="200" y2="-20" stroke="#c992f6" />
<line x1="60" y1="-400" x2="60" y2="-332.5" stroke="#c992f6" />
<line x1="60" y1="45" x2="60" y2="125" stroke="#c992f6" />
<line x1="55" y1="-400" x2="65" y2="-400" stroke="#c992f6" />
<line x1="55" y1="125" x2="65" y2="125" stroke="#c992f6" />
<rect x="-182.5" y="-332.5" width="367.5" height="367.5" fill="none" stroke="#c992f6" />
<path d="M -182.5 -322.5 h 367.5 M -182.5 35 v 10 h 367.5 v -10" fill="none" stroke="#c992f6" stroke-dasharray="2" />
</g>
</svg>
