<svg xmlns="http://www.w3.org/2000/svg" width="728" height="124">
<g transform="translate(0 101)">
<line x1="0" y1="0" x2="728" y2="0" stroke="#ff8386" />
<line x1="0" y1="-51.85546875" x2="728" y2="-51.85546875" stroke="#dfa11a" stroke-dasharray="4" />
<line x1="0" y1="-71.630859375" x2="728" y2="-71.630859375" stroke="#dfa11a" />
<line x1="0" y1="-90.52734375" x2="728" y2="-90.52734375" stroke="#77c566" stroke-dasharray="4" />
<line x1="0" y1="21.19140625" x2="728" y2="21.19140625" stroke="#77c566" stroke-dasharray="4" />
<line x1="0" y1="-92.1630859375" x2="728" y2="-92.1630859375" stroke="#77c566" />
<line x1="0" y1="22.8271484375" x2="728" y2="22.8271484375" stroke="#77c566" />
<line x1="0" y1="-100" x2="728" y2="-100" stroke="#74adff" />
<!-- <text x="0" y="0" font-family="sans-serif" font-size="100">Hxp</text> -->
<g transform="scale(100) translate(0 0) scale(0.00048828125) scale(1 -1)">
<path d="M 358 0 L 164 0 L 164 1466 L 358 1466 L 358 864 L 1120 864 L 1120 1466 L 1314 1466 L 1314 0 L 1120 0 L 1120 691 L 358 691 L 358 0 Z" transform="translate(0 0)" />
<path d="M 233 0 L 15 0 L 403 552 L 44 1062 L 269 1062 L 432 813 Q 478 742 506 694 L 506 694 Q 550 760 587 811 L 587 811 L 766 1062 L 981 1062 L 614 562 L 1009 0 L 788 0 L 570 330 L 512 419 L 233 0 Z" transform="translate(1479 0)" />
<path d="M 315 -407 L 135 -407 L 135 1062 L 299 1062 L 299 924 Q 357 1005 430 1045.5 Q 503 1086 607 1086 L 607 1086 Q 743 1086 847 1016 Q 951 946 1004 818.5 Q 1057 691 1057 539 L 1057 539 Q 1057 376 998.5 245.5 Q 940 115 828.5 45.5 Q 717 -24 594 -24 L 594 -24 Q 504 -24 432.5 14 Q 361 52 315 110 L 315 110 L 315 -407 Z M 298 525 L 298 525 Q 298 320 381 222 Q 464 124 582 124 L 582 124 Q 702 124 787.5 225.5 Q 873 327 873 540 L 873 540 Q 873 743 789.5 844 Q 706 945 590 945 L 590 945 Q 475 945 386.5 837.5 Q 298 730 298 525 Z" transform="translate(2503 0)" />
<!-- 3642 -->
</g>
<g transform="scale(100) translate(1.7783203125 0) scale(0.00048828125)">
<g transform="translate(0 0)">
  <path d="M2556,719 q0,-159 -41,-306 q-41,-147 -116,-274.5 q-75,-127.5 -180,-232.5 q-105,-105 -232.5,-180 q-127.5,-75 -274.5,-116 q-147,-41 -306,-41 q-159,0 -306,41 q-147,41 -274.5,116 q-127.5,75 -232.5,180 q-105,105 -180,232.5 q-75,127.5 -116,274.5 q-41,147 -41,306 q0,159 41,306 q41,147 116,274.5 q75,127.5 180,232.5 q105,105 232.5,180 q127.5,75 274.5,116 q147,41 306,41 q159,0 306,-41 q147,-41 274.5,-116 q127.5,-75 232.5,-180 q105,-105 180,-232.5 q75,-127.5 116,-274.5 q41,-147 41,-306 Z" fill="#000000" transform="matrix(1,0,0,-1,0,0)"/>
  <path d="M2412,719 q0,-139 -36,-267.5 q-36,-128.5 -101.5,-240.5 q-65.5,-112 -157,-203.5 q-91.5,-91.5 -203.5,-157 q-112,-65.5 -240.5,-101.5 q-128.5,-36 -267.5,-36 q-139,0 -267.5,36 q-128.5,36 -240.5,101.5 q-112,65.5 -203.5,157 q-91.5,91.5 -157,203.5 q-65.5,112 -101.5,240.5 q-36,128.5 -36,267.5 q0,139 36,267.5 q36,128.5 101.5,240.5 q65.5,112 157,203.5 q91.5,91.5 203.5,157 q112,65.5 240.5,101.5 q128.5,36 267.5,36 q139,0 267.5,-36 q128.5,-36 240.5,-101.5 q112,-65.5 203.5,-157 q91.5,-91.5 157,-203.5 q65.5,-112 101.5,-240.5 q36,-128.5 36,-267.5 Z" fill="#FFC83D" transform="matrix(1,0,0,-1,0,0)"/>
  <path d="M1981,503 q0,-119 -45.5,-223.5 q-45.5,-104.5 -123.5,-182.5 q-78,-78 -182.5,-123.5 q-104.5,-45.5 -223.5,-45.5 q-119,0 -223.5,45.5 q-104.5,45.5 -182.5,123.5 q-78,78 -123.5,182.5 q-45.5,104.5 -45.5,223.5 h1150 Z M1801,1222 q22,0 42,-8.5 q20,-8.5 34.5,-23 q14.5,-14.5 23,-34.5 q8.5,-20 8.5,-42 v-287 q0,-23 -8.5,-42.5 q-8.5,-19.5 -23,-34 q-14.5,-14.5 -34.5,-23 q-20,-8.5 -42,-8.5 q-22,0 -41.5,8.5 q-19.5,8.5 -34.5,23.5 q-15,15 -23.5,34.5 q-8.5,19.5 -8.5,41.5 v287 q0,22 8.5,41.5 q8.5,19.5 23.5,34.5 q15,15 34.5,23.5 q19.5,8.5 41.5,8.5 Z M1011,1222 q22,0 42,-8.5 q20,-8.5 34,-23.5 q14,-15 22.5,-34.5 q8.5,-19.5 8.5,-41.5 v-287 q0,-22 -8.5,-41.5 q-8.5,-19.5 -22.5,-34.5 q-14,-15 -34,-23.5 q-20,-8.5 -42,-8.5 q-23,0 -42.5,8.5 q-19.5,8.5 -34,23 q-14.5,14.5 -23,34 q-8.5,19.5 -8.5,42.5 v287 q0,22 8.5,42 q8.5,20 23,34.5 q14.5,14.5 34,23 q19.5,8.5 42.5,8.5 Z" fill="#000000" transform="matrix(1,0,0,-1,0,0)"/>
  <path d="M951,288 q-32,66 -43,143 h996 q-10,-74 -44,-143 h-909 Z" fill="#FFFFFF" transform="matrix(1,0,0,-1,0,0)"/>
  <path d="M1619,48 q-50,-24 -104,-36 q-54,-12 -109,-12 q-55,0 -109,12 q-54,12 -104,36 q41,47 96,71.5 q55,24.5 117,24.5 q62,0 117,-24.5 q55,-24.5 96,-71.5 Z" fill="#F03A17" transform="matrix(1,0,0,-1,0,0)"/>
</g>
<g transform="translate(2812 0)">
  <path d="M1218,1265 q51,-26 89.5,-69.5 q38.5,-43.5 56.5,-98.5 l175,-526 q11,-35 11,-67 q0,-45 -17,-84.5 q-17,-39.5 -46,-68.5 q-29,-29 -68.5,-46 q-39.5,-17 -84.5,-17 q-38,0 -72,12 v-427 q34,-30 53,-72 q19,-42 19,-88 v-144 h-862 q0,25 -1,50 q-1,25 -1,50 q0,28 2.5,56 q2.5,28 10.5,53.5 q8,25.5 22.5,49.5 q14.5,24 38.5,45 v427 q-35,-12 -72,-12 q-45,0 -84,16.5 q-39,16.5 -68.5,46 q-29.5,29.5 -46.5,68.5 q-17,39 -17,84 q0,33 11,68 l175,526 q18,55 56.5,98.5 q38.5,43.5 89.5,69.5 q-22,40 -33,84 q-11,44 -11,89 v72 q0,74 28,139.5 q28,65.5 77,114 q49,48.5 114.5,77 q65.5,28.5 139.5,28.5 q74,0 139.5,-28.5 q65.5,-28.5 114,-77 q48.5,-48.5 77,-114 q28.5,-65.5 28.5,-139.5 v-16 q0,-32 -0.5,-60.5 q-0.5,-28.5 -5,-56 q-4.5,-27.5 -13.5,-55 q-9,-27.5 -25,-57.5 Z" fill="#000000" transform="matrix(1,0,0,-1,0,0)"/>
  <path d="M1032,1150 q31,0 61,-1.5 q30,-1.5 55.5,-11 q25.5,-9.5 46,-29.5 q20.5,-20 32.5,-56 l88,-261 l-65,-56 l-87,56 l-45,131 v-347 q-7,-1 -24.5,-4.5 q-17.5,-3.5 -40,-7.5 q-22.5,-4 -47,-8 q-24.5,-4 -46,-7.5 q-21.5,-3.5 -37.5,-6 q-16,-2.5 -20,-2.5 q-5,0 -20.5,2.5 q-15.5,2.5 -37,6 q-21.5,3.5 -46.5,7.5 q-25,4 -47.5,8 q-22.5,4 -40,7.5 q-17.5,3.5 -24.5,4.5 v347 l-45,-131 l-84,-44 l-67,44 l87,261 q15,45 52.5,71.5 q37.5,26.5 84.5,26.5 h80 l108,-54 l108,54 h21 Z" fill="#00B294" transform="matrix(1,0,0,-1,0,0)"/>
  <path d="M687,503 q7,1 24.5,4.5 q17.5,3.5 40,7.5 q22.5,4 47.5,8 q25,4 46.5,7.5 q21.5,3.5 37,6 q15.5,2.5 20.5,2.5 q4,0 20,-2.5 q16,-2.5 37.5,-6 q21.5,-3.5 46,-7.5 q24.5,-4 47,-8 q22.5,-4 40,-7.5 q17.5,-3.5 24.5,-4.5 v-647 l-72,-55 l-71,55 v432 q0,29 -21.5,50.5 q-21.5,21.5 -50.5,21.5 q-29,0 -50.5,-21.5 q-21.5,-21.5 -21.5,-50.5 v-432 l-77,-55 l-67,55 v647 v0 Z" fill="#3A96DD" transform="matrix(1,0,0,-1,0,0)"/>
  <path d="M1118,503 h-431 v72 h431 v-72 Z" fill="#008272" transform="matrix(1,0,0,-1,0,0)"/>
  <path d="M831,-144 v-143 h-216 q0,29 21.5,50.5 q21.5,21.5 50.5,21.5 v71 h144 Z M1118,-144 v-71 q29,0 50.5,-21.5 q21.5,-21.5 21.5,-50.5 h-215 v143 h143 Z" fill="#D48C00" transform="matrix(1,0,0,-1,0,0)"/>
  <path d="M903,1686 q43,0 79.5,-10 q36.5,-10 63,-31.5 q26.5,-21.5 41.5,-55 q15,-33.5 15,-79.5 v-72 q0,-9 6.5,-16.5 q6.5,-7.5 6.5,-19.5 q0,-4 -2,-11.5 q-2,-7.5 -4.5,-15 q-2.5,-7.5 -5,-15 q-2.5,-7.5 -4.5,-11.5 q-26,-58 -79,-92.5 q-53,-34.5 -117,-34.5 q-32,0 -61.5,9 q-29.5,9 -55.5,25.5 q-26,16.5 -46.5,40 q-20.5,23.5 -33.5,52.5 q-2,4 -4.5,11.5 q-2.5,7.5 -5,15 q-2.5,7.5 -4.5,15 q-2,7.5 -2,11.5 q0,12 5.5,19.5 q5.5,7.5 5.5,16.5 v72 q0,46 15.5,79.5 q15.5,33.5 42.5,55 q27,21.5 64,31.5 q37,10 80,10 Z M1315,791 l87,-265 q2,-5 3,-11 q1,-6 1,-12 q0,-29 -21.5,-50.5 q-21.5,-21.5 -50.5,-21.5 q-23,0 -41.5,14 q-18.5,14 -26.5,36 l-103,310 h152 Z M642,791 l-102,-310 q-8,-22 -26.5,-36 q-18.5,-14 -41.5,-14 q-30,0 -51,21.5 q-21,21.5 -21,51.5 q0,11 3,22 l88,265 h151 Z M1011,1150 q0,-22 -8.5,-41.5 q-8.5,-19.5 -23.5,-34.5 q-15,-15 -34.5,-23.5 q-19.5,-8.5 -41.5,-8.5 q-22,0 -41.5,8.5 q-19.5,8.5 -34.5,23.5 q-15,15 -23.5,34.5 q-8.5,19.5 -8.5,41.5 h216 Z" fill="#FFC83D" transform="matrix(1,0,0,-1,0,0)"/>
  <path d="M903,1725 q45,0 84,-17 q39,-17 68,-46 q29,-29 46,-68 q17,-39 17,-84 v-72 q0,-18 -3,-36 q-14,1 -23,11.5 q-9,10.5 -9,24.5 q0,29 -21.5,50.5 q-21.5,21.5 -50.5,21.5 h-108 q-28,0 -49,18.5 q-21,18.5 -23,46.5 v-101 q-33,0 -52.5,22.5 q-19.5,22.5 -19.5,53.5 v4 q-25,-23 -30,-49 q-5,-26 -6,-48.5 q-1,-22.5 -5,-38 q-4,-15.5 -28,-16.5 q-3,18 -3,36 v72 q0,45 17,84 q17,39 46.5,68 q29.5,29 68.5,46 q39,17 84,17 Z" fill="#8E562E" transform="matrix(1,0,0,-1,0,0)"/>
  <path d="M1011,1438 q14,0 25,-11 q11,-11 11,-25 q0,-14 -11,-25 q-11,-11 -25,-11 q-15,0 -25.5,10.5 q-10.5,10.5 -10.5,25.5 q0,15 10.5,25.5 q10.5,10.5 25.5,10.5 Z M795,1438 q15,0 25.5,-10.5 q10.5,-10.5 10.5,-25.5 q0,-15 -10.5,-25.5 q-10.5,-10.5 -25.5,-10.5 q-15,0 -25.5,10.5 q-10.5,10.5 -10.5,25.5 q0,15 10.5,25.5 q10.5,10.5 25.5,10.5 Z" fill="#000000" transform="matrix(1,0,0,-1,0,0)"/>
</g>
<g transform="translate(4618 0)">
  <path d="M2556,719 q0,-159 -41,-306 q-41,-147 -116,-274.5 q-75,-127.5 -180,-232.5 q-105,-105 -232.5,-180 q-127.5,-75 -274.5,-116 q-147,-41 -306,-41 q-159,0 -306,41 q-147,41 -274.5,116 q-127.5,75 -232.5,180 q-105,105 -180,232.5 q-75,127.5 -116,274.5 q-41,147 -41,306 q0,159 41,306 q41,147 116,274.5 q75,127.5 180,232.5 q105,105 232.5,180 q127.5,75 274.5,116 q147,41 306,41 q159,0 306,-41 q147,-41 274.5,-116 q127.5,-75 232.5,-180 q105,-105 180,-232.5 q75,-127.5 116,-274.5 q41,-147 41,-306 Z" fill="#000000" transform="matrix(1,0,0,-1,0,0)"/>
  <path d="M2412,719 q0,-139 -36,-267.5 q-36,-128.5 -101.5,-240.5 q-65.5,-112 -157,-203.5 q-91.5,-91.5 -203.5,-157 q-112,-65.5 -240.5,-101.5 q-128.5,-36 -267.5,-36 q-139,0 -267.5,36 q-128.5,36 -240.5,101.5 q-112,65.5 -203.5,157 q-91.5,91.5 -157,203.5 q-65.5,112 -101.5,240.5 q-36,128.5 -36,267.5 q0,139 36,267.5 q36,128.5 101.5,240.5 q65.5,112 157,203.5 q91.5,91.5 203.5,157 q112,65.5 240.5,101.5 q128.5,36 267.5,36 q139,0 267.5,-36 q128.5,-36 240.5,-101.5 q112,-65.5 203.5,-157 q91.5,-91.5 157,-203.5 q65.5,-112 101.5,-240.5 q36,-128.5 36,-267.5 Z" fill="#383838" transform="matrix(1,0,0,-1,0,0)"/>
</g>
<g transform="translate(7430 0)">
  <path d="M2556,-431 h-2300 v2300 h2300 v-2300 Z" fill="#000000" transform="matrix(1,0,0,-1,0,0)"/>
  <path d="M2412,-287 h-2012 v2012 h2012 v-2012 Z" fill="#383838" transform="matrix(1,0,0,-1,0,0)"/>
</g>
</g>
</g>
</svg>
