<svg version="1.1" viewBox="0.0 0.0 600.0 371.0" fill="none" stroke="none" stroke-linecap="square" stroke-miterlimit="10" width="600" height="371" xmlns:xlink="http://www.w3.org/1999/xlink" xmlns="http://www.w3.org/2000/svg"><path fill="#ffffff" d="M0 0L600.0 0L600.0 371.0L0 371.0L0 0Z" fill-rule="nonzero"/><path stroke="#cccccc" stroke-width="1.0" stroke-linecap="butt" d="M81.5 345.5L581.5 345.5" fill-rule="nonzero"/><path stroke="#333333" stroke-width="1.0" stroke-linecap="butt" d="M81.5 303.5L581.5 303.5" fill-rule="nonzero"/><path stroke="#cccccc" stroke-width="1.0" stroke-linecap="butt" d="M81.5 261.5L581.5 261.5" fill-rule="nonzero"/><path stroke="#cccccc" stroke-width="1.0" stroke-linecap="butt" d="M81.5 219.5L581.5 219.5" fill-rule="nonzero"/><path stroke="#cccccc" stroke-width="1.0" stroke-linecap="butt" d="M81.5 177.5L581.5 177.5" fill-rule="nonzero"/><path stroke="#cccccc" stroke-width="1.0" stroke-linecap="butt" d="M81.5 135.5L581.5 135.5" fill-rule="nonzero"/><path stroke="#cccccc" stroke-width="1.0" stroke-linecap="butt" d="M81.5 93.5L581.5 93.5" fill-rule="nonzero"/><path stroke="#cccccc" stroke-width="1.0" stroke-linecap="butt" d="M81.5 51.5L581.5 51.5" fill-rule="nonzero"/><clipPath id="id_0"><path d="M81.55 51.916668L581.45 51.916668L581.45 345.45L81.55 345.45L81.55 51.916668Z" clip-rule="nonzero"/></clipPath><path fill="#4285f4" clip-path="url(#id_0)" d="M92.8593 304.35535C92.8593 306.8406 90.84458 308.85535 88.3593 308.85535C85.87402 308.85535 83.8593 306.8406 83.8593 304.35535C83.8593 301.87006 85.87402 299.85535 88.3593 299.85535C90.84458 299.85535 92.8593 301.87006 92.8593 304.35535Z" fill-rule="nonzero"/><path fill="#4285f4" clip-path="url(#id_0)" d="M96.65838 303.51666C96.65838 306.00195 94.643654 308.01666 92.15838 308.01666C89.673096 308.01666 87.65838 306.00195 87.65838 303.51666C87.65838 301.03137 89.673096 299.01666 92.15838 299.01666C94.643654 299.01666 96.65838 301.03137 96.65838 303.51666Z" fill-rule="nonzero"/><path fill="#4285f4" clip-path="url(#id_0)" d="M100.45745 303.09732C100.45745 305.5826 98.442726 307.59732 95.95745 307.59732C93.47217 307.59732 91.45745 305.5826 91.45745 303.09732C91.45745 300.61206 93.47217 298.59732 95.95745 298.59732C98.442726 298.59732 100.45745 300.61206 100.45745 303.09732Z" fill-rule="nonzero"/><path fill="#4285f4" clip-path="url(#id_0)" d="M104.25652 301.83932C104.25652 304.32462 102.241806 306.33932 99.75652 306.33932C97.27124 306.33932 95.25652 304.32462 95.25652 301.83932C95.25652 299.35406 97.27124 297.33932 99.75652 297.33932C102.241806 297.33932 104.25652 299.35406 104.25652 301.83932Z" fill-rule="nonzero"/><path fill="#4285f4" clip-path="url(#id_0)" d="M108.055595 298.06534C108.055595 300.55063 106.04088 302.56534 103.555595 302.56534C101.07031 302.56534 99.055595 300.55063 99.055595 298.06534C99.055595 295.58005 101.07031 293.56534 103.555595 293.56534C106.04088 293.56534 108.055595 295.58005 108.055595 298.06534Z" fill-rule="nonzero"/><path fill="#4285f4" clip-path="url(#id_0)" d="M111.85467 293.45267C111.85467 295.93796 109.83995 297.95267 107.35467 297.95267C104.869385 297.95267 102.85467 295.93796 102.85467 293.45267C102.85467 290.96738 104.869385 288.95267 107.35467 288.95267C109.83995 288.95267 111.85467 290.96738 111.85467 293.45267Z" fill-rule="nonzero"/><path fill="#4285f4" clip-path="url(#id_0)" d="M115.65374 293.03333C115.65374 295.51862 113.63902 297.53333 111.15374 297.53333C108.66846 297.53333 106.65374 295.51862 106.65374 293.03333C106.65374 290.54807 108.66846 288.53333 111.15374 288.53333C113.63902 288.53333 115.65374 290.54807 115.65374 293.03333Z" fill-rule="nonzero"/><path fill="#4285f4" clip-path="url(#id_0)" d="M119.45281 292.614C119.45281 295.09927 117.438095 297.114 114.95281 297.114C112.46754 297.114 110.45281 295.09927 110.45281 292.614C110.45281 290.12872 112.46754 288.114 114.95281 288.114C117.438095 288.114 119.45281 290.12872 119.45281 292.614Z" fill-rule="nonzero"/><path fill="#4285f4" clip-path="url(#id_0)" d="M123.25189 292.19467C123.25189 294.67996 121.23717 296.69467 118.75189 296.69467C116.26661 296.69467 114.25189 294.67996 114.25189 292.19467C114.25189 289.70938 116.26661 287.69467 118.75189 287.69467C121.23717 287.69467 123.25189 289.70938 123.25189 292.19467Z" fill-rule="nonzero"/><path fill="#4285f4" clip-path="url(#id_0)" d="M127.050964 290.51733C127.050964 293.00262 125.03625 295.01733 122.550964 295.01733C120.06568 295.01733 118.050964 293.00262 118.050964 290.51733C118.050964 288.03204 120.06568 286.01733 122.550964 286.01733C125.03625 286.01733 127.050964 288.03204 127.050964 290.51733Z" fill-rule="nonzero"/><path fill="#4285f4" clip-path="url(#id_0)" d="M130.85004 290.098C130.85004 292.58328 128.83531 294.598 126.35004 294.598C123.86475 294.598 121.85004 292.58328 121.85004 290.098C121.85004 287.61273 123.86475 285.598 126.35004 285.598C128.83531 285.598 130.85004 287.61273 130.85004 290.098Z" fill-rule="nonzero"/><path fill="#4285f4" clip-path="url(#id_0)" d="M134.64911 289.67868C134.64911 292.16394 132.63438 294.17868 130.14911 294.17868C127.663826 294.17868 125.64911 292.16394 125.64911 289.67868C125.64911 287.1934 127.663826 285.17868 130.14911 285.17868C132.63438 285.17868 134.64911 287.1934 134.64911 289.67868Z" fill-rule="nonzero"/><path fill="#4285f4" clip-path="url(#id_0)" d="M138.44818 280.87268C138.44818 283.35794 136.43346 285.37268 133.94818 285.37268C131.4629 285.37268 129.44818 283.35794 129.44818 280.87268C129.44818 278.3874 131.4629 276.37268 133.94818 276.37268C136.43346 276.37268 138.44818 278.3874 138.44818 280.87268Z" fill-rule="nonzero"/><path fill="#4285f4" clip-path="url(#id_0)" d="M142.24725 280.45334C142.24725 282.93863 140.23254 284.95334 137.74725 284.95334C135.26198 284.95334 133.24725 282.93863 133.24725 280.45334C133.24725 277.96805 135.26198 275.95334 137.74725 275.95334C140.23254 275.95334 142.24725 277.96805 142.24725 280.45334Z" fill-rule="nonzero"/><path fill="#4285f4" clip-path="url(#id_0)" d="M146.04633 280.034C146.04633 282.5193 144.03162 284.534 141.54633 284.534C139.06105 284.534 137.04633 282.5193 137.04633 280.034C137.04633 277.5487 139.06105 275.534 141.54633 275.534C144.03162 275.534 146.04633 277.5487 146.04633 280.034Z" fill-rule="nonzero"/><path fill="#4285f4" clip-path="url(#id_0)" d="M149.8454 278.776C149.8454 281.2613 147.83069 283.276 145.3454 283.276C142.86012 283.276 140.8454 281.2613 140.8454 278.776C140.8454 276.2907 142.86012 274.276 145.3454 274.276C147.83069 274.276 149.8454 276.2907 149.8454 278.776Z" fill-rule="nonzero"/><path fill="#4285f4" clip-path="url(#id_0)" d="M153.64447 278.35666C153.64447 280.84195 151.62976 282.85666 149.14447 282.85666C146.6592 282.85666 144.64447 280.84195 144.64447 278.35666C144.64447 275.8714 146.6592 273.85666 149.14447 273.85666C151.62976 273.85666 153.64447 275.8714 153.64447 278.35666Z" fill-rule="nonzero"/><path fill="#4285f4" clip-path="url(#id_0)" d="M157.44354 276.26C157.44354 278.74527 155.42883 280.76 152.94354 280.76C150.45827 280.76 148.44354 278.74527 148.44354 276.26C148.44354 273.77472 150.45827 271.76 152.94354 271.76C155.42883 271.76 157.44354 273.77472 157.44354 276.26Z" fill-rule="nonzero"/><path fill="#4285f4" clip-path="url(#id_0)" d="M161.24263 275.42133C161.24263 277.90662 159.2279 279.92133 156.74263 279.92133C154.25734 279.92133 152.24263 277.90662 152.24263 275.42133C152.24263 272.93607 154.25734 270.92133 156.74263 270.92133C159.2279 270.92133 161.24263 272.93607 161.24263 275.42133Z" fill-rule="nonzero"/><path fill="#4285f4" clip-path="url(#id_0)" d="M165.0417 274.16333C165.0417 276.64862 163.02698 278.66333 160.5417 278.66333C158.05641 278.66333 156.0417 276.64862 156.0417 274.16333C156.0417 271.67804 158.05641 269.66333 160.5417 269.66333C163.02698 269.66333 165.0417 271.67804 165.0417 274.16333Z" fill-rule="nonzero"/><path fill="#4285f4" clip-path="url(#id_0)" d="M168.84077 273.744C168.84077 276.22928 166.82605 278.244 164.34077 278.244C161.85548 278.244 159.84077 276.22928 159.84077 273.744C159.84077 271.25873 161.85548 269.244 164.34077 269.244C166.82605 269.244 168.84077 271.25873 168.84077 273.744Z" fill-rule="nonzero"/><path fill="#4285f4" clip-path="url(#id_0)" d="M172.63985 273.32468C172.63985 275.80994 170.62512 277.82468 168.13985 277.82468C165.65456 277.82468 163.63985 275.80994 163.63985 273.32468C163.63985 270.8394 165.65456 268.82468 168.13985 268.82468C170.62512 268.82468 172.63985 270.8394 172.63985 273.32468Z" fill-rule="nonzero"/><path fill="#4285f4" clip-path="url(#id_0)" d="M176.43892 272.90533C176.43892 275.39062 174.4242 277.40533 171.93892 277.40533C169.45363 277.40533 167.43892 275.39062 167.43892 272.90533C167.43892 270.42004 169.45363 268.40533 171.93892 268.40533C174.4242 268.40533 176.43892 270.42004 176.43892 272.90533Z" fill-rule="nonzero"/><path fill="#4285f4" clip-path="url(#id_0)" d="M180.23799 272.486C180.23799 274.97128 178.22327 276.986 175.73799 276.986C173.25272 276.986 171.23799 274.97128 171.23799 272.486C171.23799 270.00073 173.25272 267.986 175.73799 267.986C178.22327 267.986 180.23799 270.00073 180.23799 272.486Z" fill-rule="nonzero"/><path fill="#4285f4" clip-path="url(#id_0)" d="M184.03706 272.06668C184.03706 274.55194 182.02234 276.56668 179.53706 276.56668C177.05179 276.56668 175.03706 274.55194 175.03706 272.06668C175.03706 269.5814 177.05179 267.56668 179.53706 267.56668C182.02234 267.56668 184.03706 269.5814 184.03706 272.06668Z" fill-rule="nonzero"/><path fill="#4285f4" clip-path="url(#id_0)" d="M187.83614 271.64734C187.83614 274.13263 185.82141 276.14734 183.33614 276.14734C180.85086 276.14734 178.83614 274.13263 178.83614 271.64734C178.83614 269.16205 180.85086 267.14734 183.33614 267.14734C185.82141 267.14734 187.83614 269.16205 187.83614 271.64734Z" fill-rule="nonzero"/><path fill="#4285f4" clip-path="url(#id_0)" d="M191.63521 271.228C191.63521 273.7133 189.6205 275.728 187.13521 275.728C184.64993 275.728 182.63521 273.7133 182.63521 271.228C182.63521 268.7427 184.64993 266.728 187.13521 266.728C189.6205 266.728 191.63521 268.7427 191.63521 271.228Z" fill-rule="nonzero"/><path fill="#4285f4" clip-path="url(#id_0)" d="M195.43428 270.80865C195.43428 273.29395 193.41957 275.30865 190.93428 275.30865C188.449 275.30865 186.43428 273.29395 186.43428 270.80865C186.43428 268.3234 188.449 266.30865 190.93428 266.30865C193.41957 266.30865 195.43428 268.3234 195.43428 270.80865Z" fill-rule="nonzero"/><path fill="#4285f4" clip-path="url(#id_0)" d="M199.23335 270.38934C199.23335 272.8746 197.21864 274.88934 194.73335 274.88934C192.24808 274.88934 190.23335 272.8746 190.23335 270.38934C190.23335 267.90405 192.24808 265.88934 194.73335 265.88934C197.21864 265.88934 199.23335 267.90405 199.23335 270.38934Z" fill-rule="nonzero"/><path fill="#4285f4" clip-path="url(#id_0)" d="M203.03242 269.13135C203.03242 271.6166 201.01772 273.63135 198.53242 273.63135C196.04715 273.63135 194.03242 271.6166 194.03242 269.13135C194.03242 266.64606 196.04715 264.63135 198.53242 264.63135C201.01772 264.63135 203.03242 266.64606 203.03242 269.13135Z" fill-rule="nonzero"/><path fill="#4285f4" clip-path="url(#id_0)" d="M206.8315 268.712C206.8315 271.1973 204.81679 273.212 202.3315 273.212C199.84622 273.212 197.8315 271.1973 197.8315 268.712C197.8315 266.2267 199.84622 264.212 202.3315 264.212C204.81679 264.212 206.8315 266.2267 206.8315 268.712Z" fill-rule="nonzero"/><path fill="#4285f4" clip-path="url(#id_0)" d="M210.63058 268.29266C210.63058 270.77795 208.61586 272.79266 206.13058 272.79266C203.6453 272.79266 201.63058 270.77795 201.63058 268.29266C201.63058 265.80737 203.6453 263.79266 206.13058 263.79266C208.61586 263.79266 210.63058 265.80737 210.63058 268.29266Z" fill-rule="nonzero"/><path fill="#4285f4" clip-path="url(#id_0)" d="M214.42966 267.03467C214.42966 269.51996 212.41493 271.53467 209.92966 271.53467C207.44437 271.53467 205.42966 269.51996 205.42966 267.03467C205.42966 264.54938 207.44437 262.53467 209.92966 262.53467C212.41493 262.53467 214.42966 264.54938 214.42966 267.03467Z" fill-rule="nonzero"/><path fill="#4285f4" clip-path="url(#id_0)" d="M218.22873 266.61533C218.22873 269.10062 216.214 271.11533 213.72873 271.11533C211.24344 271.11533 209.22873 269.10062 209.22873 266.61533C209.22873 264.13007 211.24344 262.11533 213.72873 262.11533C216.214 262.11533 218.22873 264.13007 218.22873 266.61533Z" fill-rule="nonzero"/><path fill="#4285f4" clip-path="url(#id_0)" d="M222.0278 266.196C222.0278 268.68127 220.01308 270.696 217.5278 270.696C215.04251 270.696 213.0278 268.68127 213.0278 266.196C213.0278 263.71072 215.04251 261.696 217.5278 261.696C220.01308 261.696 222.0278 263.71072 222.0278 266.196Z" fill-rule="nonzero"/><path fill="#4285f4" clip-path="url(#id_0)" d="M225.82687 265.35733C225.82687 267.84262 223.81215 269.85733 221.32687 269.85733C218.84158 269.85733 216.82687 267.84262 216.82687 265.35733C216.82687 262.87204 218.84158 260.85733 221.32687 260.85733C223.81215 260.85733 225.82687 262.87204 225.82687 265.35733Z" fill-rule="nonzero"/><path fill="#4285f4" clip-path="url(#id_0)" d="M229.62595 264.938C229.62595 267.42328 227.61122 269.438 225.12595 269.438C222.64066 269.438 220.62595 267.42328 220.62595 264.938C220.62595 262.45273 222.64066 260.438 225.12595 260.438C227.61122 260.438 229.62595 262.45273 229.62595 264.938Z" fill-rule="nonzero"/><path fill="#4285f4" clip-path="url(#id_0)" d="M233.42502 264.51868C233.42502 267.00394 231.4103 269.01868 228.92502 269.01868C226.43974 269.01868 224.42502 267.00394 224.42502 264.51868C224.42502 262.0334 226.43974 260.01868 228.92502 260.01868C231.4103 260.01868 233.42502 262.0334 233.42502 264.51868Z" fill-rule="nonzero"/><path fill="#4285f4" clip-path="url(#id_0)" d="M237.22409 264.09933C237.22409 266.58463 235.20937 268.59933 232.72409 268.59933C230.23882 268.59933 228.22409 266.58463 228.22409 264.09933C228.22409 261.61404 230.23882 259.59933 232.72409 259.59933C235.20937 259.59933 237.22409 261.61404 237.22409 264.09933Z" fill-rule="nonzero"/><path fill="#4285f4" clip-path="url(#id_0)" d="M241.02316 263.68C241.02316 266.16528 239.00845 268.18 236.52316 268.18C234.03789 268.18 232.02316 266.16528 232.02316 263.68C232.02316 261.19473 234.03789 259.18 236.52316 259.18C239.00845 259.18 241.02316 261.19473 241.02316 263.68Z" fill-rule="nonzero"/><path fill="#4285f4" clip-path="url(#id_0)" d="M244.82224 263.26068C244.82224 265.74594 242.80753 267.76068 240.32224 267.76068C237.83696 267.76068 235.82224 265.74594 235.82224 263.26068C235.82224 260.7754 237.83696 258.76068 240.32224 258.76068C242.80753 258.76068 244.82224 260.7754 244.82224 263.26068Z" fill-rule="nonzero"/><path fill="#4285f4" clip-path="url(#id_0)" d="M248.6213 262.84134C248.6213 265.32663 246.6066 267.34134 244.1213 267.34134C241.63603 267.34134 239.6213 265.32663 239.6213 262.84134C239.6213 260.35605 241.63603 258.34134 244.1213 258.34134C246.6066 258.34134 248.6213 260.35605 248.6213 262.84134Z" fill-rule="nonzero"/><path fill="#4285f4" clip-path="url(#id_0)" d="M252.42038 262.422C252.42038 264.9073 250.40567 266.922 247.92038 266.922C245.4351 266.922 243.42038 264.9073 243.42038 262.422C243.42038 259.9367 245.4351 257.922 247.92038 257.922C250.40567 257.922 252.42038 259.9367 252.42038 262.422Z" fill-rule="nonzero"/><path fill="#4285f4" clip-path="url(#id_0)" d="M256.21945 262.00266C256.21945 264.48795 254.20474 266.50266 251.71945 266.50266C249.23418 266.50266 247.21945 264.48795 247.21945 262.00266C247.21945 259.5174 249.23418 257.50266 251.71945 257.50266C254.20474 257.50266 256.21945 259.5174 256.21945 262.00266Z" fill-rule="nonzero"/><path fill="#4285f4" clip-path="url(#id_0)" d="M260.01852 219.65C260.01852 222.13528 258.0038 224.15 255.51852 224.15C253.03325 224.15 251.01852 222.13528 251.01852 219.65C251.01852 217.16472 253.03325 215.15 255.51852 215.15C258.0038 215.15 260.01852 217.16472 260.01852 219.65Z" fill-rule="nonzero"/><path fill="#4285f4" clip-path="url(#id_0)" d="M263.8176 218.81134C263.8176 221.29662 261.8029 223.31134 259.3176 223.31134C256.83234 223.31134 254.81761 221.29662 254.81761 218.81134C254.81761 216.32605 256.83234 214.31134 259.3176 214.31134C261.8029 214.31134 263.8176 216.32605 263.8176 218.81134Z" fill-rule="nonzero"/><path fill="#4285f4" clip-path="url(#id_0)" d="M267.61667 218.392C267.61667 220.87729 265.60196 222.892 263.11667 222.892C260.6314 222.892 258.61667 220.87729 258.61667 218.392C258.61667 215.90672 260.6314 213.892 263.11667 213.892C265.60196 213.892 267.61667 215.90672 267.61667 218.392Z" fill-rule="nonzero"/><path fill="#4285f4" clip-path="url(#id_0)" d="M271.41574 217.55333C271.41574 220.03862 269.40103 222.05333 266.91574 222.05333C264.43048 222.05333 262.41574 220.03862 262.41574 217.55333C262.41574 215.06805 264.43048 213.05333 266.91574 213.05333C269.40103 213.05333 271.41574 215.06805 271.41574 217.55333Z" fill-rule="nonzero"/><path fill="#4285f4" clip-path="url(#id_0)" d="M275.2148 216.29533C275.2148 218.78061 273.2001 220.79533 270.7148 220.79533C268.22955 220.79533 266.2148 218.78061 266.2148 216.29533C266.2148 213.81006 268.22955 211.79533 270.7148 211.79533C273.2001 211.79533 275.2148 213.81006 275.2148 216.29533Z" fill-rule="nonzero"/><path fill="#4285f4" clip-path="url(#id_0)" d="M279.0139 215.45667C279.0139 217.94196 276.99918 219.95667 274.5139 219.95667C272.02863 219.95667 270.0139 217.94196 270.0139 215.45667C270.0139 212.97139 272.02863 210.95667 274.5139 210.95667C276.99918 210.95667 279.0139 212.97139 279.0139 215.45667Z" fill-rule="nonzero"/><path fill="#4285f4" clip-path="url(#id_0)" d="M282.81296 215.03734C282.81296 217.52261 280.79825 219.53734 278.31296 219.53734C275.8277 219.53734 273.81296 217.52261 273.81296 215.03734C273.81296 212.55205 275.8277 210.53734 278.31296 210.53734C280.79825 210.53734 282.81296 212.55205 282.81296 215.03734Z" fill-rule="nonzero"/><path fill="#4285f4" clip-path="url(#id_0)" d="M286.61206 214.618C286.61206 217.10329 284.59732 219.118 282.11206 219.118C279.62677 219.118 277.61206 217.10329 277.61206 214.618C277.61206 212.13272 279.62677 210.118 282.11206 210.118C284.59732 210.118 286.61206 212.13272 286.61206 214.618Z" fill-rule="nonzero"/><path fill="#4285f4" clip-path="url(#id_0)" d="M290.41113 214.19867C290.41113 216.68394 288.3964 218.69867 285.91113 218.69867C283.42584 218.69867 281.41113 216.68394 281.41113 214.19867C281.41113 211.71338 283.42584 209.69867 285.91113 209.69867C288.3964 209.69867 290.41113 211.71338 290.41113 214.19867Z" fill-rule="nonzero"/><path fill="#4285f4" clip-path="url(#id_0)" d="M294.2102 213.77933C294.2102 216.26462 292.19547 218.27933 289.7102 218.27933C287.2249 218.27933 285.2102 216.26462 285.2102 213.77933C285.2102 211.29405 287.2249 209.27933 289.7102 209.27933C292.19547 209.27933 294.2102 211.29405 294.2102 213.77933Z" fill-rule="nonzero"/><path fill="#4285f4" clip-path="url(#id_0)" d="M298.00928 213.36C298.00928 215.84528 295.99454 217.86 293.50928 217.86C291.024 217.86 289.00928 215.84528 289.00928 213.36C289.00928 210.87473 291.024 208.86 293.50928 208.86C295.99454 208.86 298.00928 210.87473 298.00928 213.36Z" fill-rule="nonzero"/><path fill="#4285f4" clip-path="url(#id_0)" d="M301.80835 212.94067C301.80835 215.42595 299.7936 217.44067 297.30835 217.44067C294.82306 217.44067 292.80835 215.42595 292.80835 212.94067C292.80835 210.45538 294.82306 208.44067 297.30835 208.44067C299.7936 208.44067 301.80835 210.45538 301.80835 212.94067Z" fill-rule="nonzero"/><path fill="#4285f4" clip-path="url(#id_0)" d="M305.60742 212.52133C305.60742 215.00662 303.59268 217.02133 301.10742 217.02133C298.62213 217.02133 296.60742 215.00662 296.60742 212.52133C296.60742 210.03606 298.62213 208.02133 301.10742 208.02133C303.59268 208.02133 305.60742 210.03606 305.60742 212.52133Z" fill-rule="nonzero"/><path fill="#4285f4" clip-path="url(#id_0)" d="M309.4065 212.102C309.4065 214.58728 307.39175 216.602 304.9065 216.602C302.4212 216.602 300.4065 214.58728 300.4065 212.102C300.4065 209.61671 302.4212 207.602 304.9065 207.602C307.39175 207.602 309.4065 209.61671 309.4065 212.102Z" fill-rule="nonzero"/><path fill="#4285f4" clip-path="url(#id_0)" d="M313.20557 211.68266C313.20557 214.16795 311.19083 216.18266 308.70557 216.18266C306.22028 216.18266 304.20557 214.16795 304.20557 211.68266C304.20557 209.19739 306.22028 207.18266 308.70557 207.18266C311.19083 207.18266 313.20557 209.19739 313.20557 211.68266Z" fill-rule="nonzero"/><path fill="#4285f4" clip-path="url(#id_0)" d="M317.00464 211.26334C317.00464 213.74861 314.98993 215.76334 312.50464 215.76334C310.01935 215.76334 308.00464 213.74861 308.00464 211.26334C308.00464 208.77805 310.01935 206.76334 312.50464 206.76334C314.98993 206.76334 317.00464 208.77805 317.00464 211.26334Z" fill-rule="nonzero"/><path fill="#4285f4" clip-path="url(#id_0)" d="M320.8037 210.844C320.8037 213.32928 318.789 215.344 316.3037 215.344C313.81842 215.344 311.8037 213.32928 311.8037 210.844C311.8037 208.35872 313.81842 206.344 316.3037 206.344C318.789 206.344 320.8037 208.35872 320.8037 210.844Z" fill-rule="nonzero"/><path fill="#4285f4" clip-path="url(#id_0)" d="M324.60278 210.42467C324.60278 212.90994 322.58807 214.92467 320.10278 214.92467C317.6175 214.92467 315.60278 212.90994 315.60278 210.42467C315.60278 207.93939 317.6175 205.92467 320.10278 205.92467C322.58807 205.92467 324.60278 207.93939 324.60278 210.42467Z" fill-rule="nonzero"/><path fill="#4285f4" clip-path="url(#id_0)" d="M328.40186 209.586C328.40186 212.07127 326.38715 214.086 323.90186 214.086C321.41656 214.086 319.40186 212.07127 319.40186 209.586C319.40186 207.10072 321.41656 205.086 323.90186 205.086C326.38715 205.086 328.40186 207.10072 328.40186 209.586Z" fill-rule="nonzero"/><path fill="#4285f4" clip-path="url(#id_0)" d="M332.20093 208.328C332.20093 210.81328 330.18622 212.828 327.70093 212.828C325.21564 212.828 323.20093 210.81328 323.20093 208.328C323.20093 205.84271 325.21564 203.828 327.70093 203.828C330.18622 203.828 332.20093 205.84271 332.20093 208.328Z" fill-rule="nonzero"/><path fill="#4285f4" clip-path="url(#id_0)" d="M336.0 207.90866C336.0 210.39395 333.9853 212.40866 331.5 212.40866C329.0147 212.40866 327.0 210.39395 327.0 207.90866C327.0 205.42339 329.0147 203.40866 331.5 203.40866C333.9853 203.40866 336.0 205.42339 336.0 207.90866Z" fill-rule="nonzero"/><path fill="#4285f4" clip-path="url(#id_0)" d="M339.79907 207.48933C339.79907 209.97461 337.78436 211.98933 335.29907 211.98933C332.81378 211.98933 330.79907 209.97461 330.79907 207.48933C330.79907 205.00406 332.81378 202.98933 335.29907 202.98933C337.78436 202.98933 339.79907 205.00406 339.79907 207.48933Z" fill-rule="nonzero"/><path fill="#4285f4" clip-path="url(#id_0)" d="M343.59814 207.07C343.59814 209.55528 341.58344 211.57 339.09814 211.57C336.61285 211.57 334.59814 209.55528 334.59814 207.07C334.59814 204.58472 336.61285 202.57 339.09814 202.57C341.58344 202.57 343.59814 204.58472 343.59814 207.07Z" fill-rule="nonzero"/><path fill="#4285f4" clip-path="url(#id_0)" d="M347.39722 206.65067C347.39722 209.13594 345.3825 211.15067 342.89722 211.15067C340.41193 211.15067 338.39722 209.13594 338.39722 206.65067C338.39722 204.16539 340.41193 202.15067 342.89722 202.15067C345.3825 202.15067 347.39722 204.16539 347.39722 206.65067Z" fill-rule="nonzero"/><path fill="#4285f4" clip-path="url(#id_0)" d="M351.1963 206.23134C351.1963 208.71661 349.18158 210.73134 346.6963 210.73134C344.211 210.73134 342.1963 208.71661 342.1963 206.23134C342.1963 203.74605 344.211 201.73134 346.6963 201.73134C349.18158 201.73134 351.1963 203.74605 351.1963 206.23134Z" fill-rule="nonzero"/><path fill="#4285f4" clip-path="url(#id_0)" d="M354.99536 205.812C354.99536 208.29729 352.98065 210.312 350.49536 210.312C348.01007 210.312 345.99536 208.29729 345.99536 205.812C345.99536 203.32672 348.01007 201.312 350.49536 201.312C352.98065 201.312 354.99536 203.32672 354.99536 205.812Z" fill-rule="nonzero"/><path fill="#4285f4" clip-path="url(#id_0)" d="M358.79443 205.39267C358.79443 207.87794 356.77972 209.89267 354.29443 209.89267C351.80917 209.89267 349.79443 207.87794 349.79443 205.39267C349.79443 202.90738 351.80917 200.89267 354.29443 200.89267C356.77972 200.89267 358.79443 202.90738 358.79443 205.39267Z" fill-rule="nonzero"/><path fill="#4285f4" clip-path="url(#id_0)" d="M362.5935 204.97333C362.5935 207.45862 360.5788 209.47333 358.0935 209.47333C355.60825 209.47333 353.5935 207.45862 353.5935 204.97333C353.5935 202.48805 355.60825 200.47333 358.0935 200.47333C360.5788 200.47333 362.5935 202.48805 362.5935 204.97333Z" fill-rule="nonzero"/><path fill="#4285f4" clip-path="url(#id_0)" d="M366.39258 204.554C366.39258 207.03928 364.37787 209.054 361.89258 209.054C359.40732 209.054 357.39258 207.03928 357.39258 204.554C357.39258 202.06873 359.40732 200.054 361.89258 200.054C364.37787 200.054 366.39258 202.06873 366.39258 204.554Z" fill-rule="nonzero"/><path fill="#4285f4" clip-path="url(#id_0)" d="M370.19165 203.296C370.19165 205.78128 368.17694 207.796 365.69165 207.796C363.2064 207.796 361.19165 205.78128 361.19165 203.296C361.19165 200.81071 363.2064 198.796 365.69165 198.796C368.17694 198.796 370.19165 200.81071 370.19165 203.296Z" fill-rule="nonzero"/><path fill="#4285f4" clip-path="url(#id_0)" d="M373.99072 202.87666C373.99072 205.36195 371.976 207.37666 369.49072 207.37666C367.00546 207.37666 364.99072 205.36195 364.99072 202.87666C364.99072 200.39139 367.00546 198.37666 369.49072 198.37666C371.976 198.37666 373.99072 200.39139 373.99072 202.87666Z" fill-rule="nonzero"/><path fill="#4285f4" clip-path="url(#id_0)" d="M377.7898 202.45734C377.7898 204.94261 375.7751 206.95734 373.2898 206.95734C370.80453 206.95734 368.7898 204.94261 368.7898 202.45734C368.7898 199.97205 370.80453 197.95734 373.2898 197.95734C375.7751 197.95734 377.7898 199.97205 377.7898 202.45734Z" fill-rule="nonzero"/><path fill="#4285f4" clip-path="url(#id_0)" d="M381.58887 202.038C381.58887 204.52328 379.57416 206.538 377.08887 206.538C374.6036 206.538 372.58887 204.52328 372.58887 202.038C372.58887 199.55272 374.6036 197.538 377.08887 197.538C379.57416 197.538 381.58887 199.55272 381.58887 202.038Z" fill-rule="nonzero"/><path fill="#4285f4" clip-path="url(#id_0)" d="M385.38794 201.19934C385.38794 203.68462 383.37323 205.69934 380.88794 205.69934C378.40268 205.69934 376.38794 203.68462 376.38794 201.19934C376.38794 198.71405 378.40268 196.69934 380.88794 196.69934C383.37323 196.69934 385.38794 198.71405 385.38794 201.19934Z" fill-rule="nonzero"/><path fill="#4285f4" clip-path="url(#id_0)" d="M389.18704 200.78C389.18704 203.26527 387.1723 205.28 384.68704 205.28C382.20175 205.28 380.18704 203.26527 380.18704 200.78C380.18704 198.29472 382.20175 196.28 384.68704 196.28C387.1723 196.28 389.18704 198.29472 389.18704 200.78Z" fill-rule="nonzero"/><path fill="#4285f4" clip-path="url(#id_0)" d="M392.9861 200.36067C392.9861 202.84595 390.97137 204.86067 388.4861 204.86067C386.00082 204.86067 383.9861 202.84595 383.9861 200.36067C383.9861 197.87538 386.00082 195.86067 388.4861 195.86067C390.97137 195.86067 392.9861 197.87538 392.9861 200.36067Z" fill-rule="nonzero"/><path fill="#4285f4" clip-path="url(#id_0)" d="M396.7852 199.94133C396.7852 202.42662 394.77045 204.44133 392.2852 204.44133C389.7999 204.44133 387.7852 202.42662 387.7852 199.94133C387.7852 197.45605 389.7999 195.44133 392.2852 195.44133C394.77045 195.44133 396.7852 197.45605 396.7852 199.94133Z" fill-rule="nonzero"/><path fill="#4285f4" clip-path="url(#id_0)" d="M400.58426 199.522C400.58426 202.00728 398.56952 204.022 396.08426 204.022C393.59897 204.022 391.58426 202.00728 391.58426 199.522C391.58426 197.03671 393.59897 195.022 396.08426 195.022C398.56952 195.022 400.58426 197.03671 400.58426 199.522Z" fill-rule="nonzero"/><path fill="#4285f4" clip-path="url(#id_0)" d="M404.38333 199.10266C404.38333 201.58795 402.3686 203.60266 399.88333 203.60266C397.39804 203.60266 395.38333 201.58795 395.38333 199.10266C395.38333 196.61739 397.39804 194.60266 399.88333 194.60266C402.3686 194.60266 404.38333 196.61739 404.38333 199.10266Z" fill-rule="nonzero"/><path fill="#4285f4" clip-path="url(#id_0)" d="M408.1824 198.264C408.1824 200.74928 406.16766 202.764 403.6824 202.764C401.1971 202.764 399.1824 200.74928 399.1824 198.264C399.1824 195.77872 401.1971 193.764 403.6824 193.764C406.16766 193.764 408.1824 195.77872 408.1824 198.264Z" fill-rule="nonzero"/><path fill="#4285f4" clip-path="url(#id_0)" d="M411.98148 197.84467C411.98148 200.32994 409.96674 202.34467 407.48148 202.34467C404.9962 202.34467 402.98148 200.32994 402.98148 197.84467C402.98148 195.35939 404.9962 193.34467 407.48148 193.34467C409.96674 193.34467 411.98148 195.35939 411.98148 197.84467Z" fill-rule="nonzero"/><path fill="#4285f4" clip-path="url(#id_0)" d="M415.78055 197.42534C415.78055 199.91061 413.7658 201.92534 411.28055 201.92534C408.79526 201.92534 406.78055 199.91061 406.78055 197.42534C406.78055 194.94005 408.79526 192.92534 411.28055 192.92534C413.7658 192.92534 415.78055 194.94005 415.78055 197.42534Z" fill-rule="nonzero"/><path fill="#4285f4" clip-path="url(#id_0)" d="M419.57962 197.006C419.57962 199.49129 417.5649 201.506 415.07962 201.506C412.59433 201.506 410.57962 199.49129 410.57962 197.006C410.57962 194.52072 412.59433 192.506 415.07962 192.506C417.5649 192.506 419.57962 194.52072 419.57962 197.006Z" fill-rule="nonzero"/><path fill="#4285f4" clip-path="url(#id_0)" d="M423.3787 195.748C423.3787 198.23328 421.36398 200.248 418.8787 200.248C416.3934 200.248 414.3787 198.23328 414.3787 195.748C414.3787 193.26273 416.3934 191.248 418.8787 191.248C421.36398 191.248 423.3787 193.26273 423.3787 195.748Z" fill-rule="nonzero"/><path fill="#4285f4" clip-path="url(#id_0)" d="M427.17776 195.32866C427.17776 197.81395 425.16306 199.82866 422.67776 199.82866C420.19247 199.82866 418.17776 197.81395 418.17776 195.32866C418.17776 192.84338 420.19247 190.82866 422.67776 190.82866C425.16306 190.82866 427.17776 192.84338 427.17776 195.32866Z" fill-rule="nonzero"/><path fill="#4285f4" clip-path="url(#id_0)" d="M430.97684 194.90933C430.97684 197.3946 428.96213 199.40933 426.47684 199.40933C423.99155 199.40933 421.97684 197.3946 421.97684 194.90933C421.97684 192.42406 423.99155 190.40933 426.47684 190.40933C428.96213 190.40933 430.97684 192.42406 430.97684 194.90933Z" fill-rule="nonzero"/><path fill="#4285f4" clip-path="url(#id_0)" d="M434.7759 194.49C434.7759 196.97528 432.7612 198.99 430.2759 198.99C427.79062 198.99 425.7759 196.97528 425.7759 194.49C425.7759 192.00471 427.79062 189.99 430.2759 189.99C432.7612 189.99 434.7759 192.00471 434.7759 194.49Z" fill-rule="nonzero"/><path fill="#4285f4" clip-path="url(#id_0)" d="M438.57498 194.07066C438.57498 196.55595 436.56027 198.57066 434.07498 198.57066C431.5897 198.57066 429.57498 196.55595 429.57498 194.07066C429.57498 191.58539 431.5897 189.57066 434.07498 189.57066C436.56027 189.57066 438.57498 191.58539 438.57498 194.07066Z" fill-rule="nonzero"/><path fill="#4285f4" clip-path="url(#id_0)" d="M442.37405 193.65134C442.37405 196.13661 440.35934 198.15134 437.87405 198.15134C435.38876 198.15134 433.37405 196.13661 433.37405 193.65134C433.37405 191.16605 435.38876 189.15134 437.87405 189.15134C440.35934 189.15134 442.37405 191.16605 442.37405 193.65134Z" fill-rule="nonzero"/><path fill="#4285f4" clip-path="url(#id_0)" d="M446.17313 193.232C446.17313 195.71729 444.15842 197.732 441.67313 197.732C439.18784 197.732 437.17313 195.71729 437.17313 193.232C437.17313 190.74672 439.18784 188.732 441.67313 188.732C444.15842 188.732 446.17313 190.74672 446.17313 193.232Z" fill-rule="nonzero"/><path fill="#4285f4" clip-path="url(#id_0)" d="M449.9722 192.39333C449.9722 194.87862 447.9575 196.89333 445.4722 196.89333C442.9869 196.89333 440.9722 194.87862 440.9722 192.39333C440.9722 189.90805 442.9869 187.89333 445.4722 187.89333C447.9575 187.89333 449.9722 189.90805 449.9722 192.39333Z" fill-rule="nonzero"/><path fill="#4285f4" clip-path="url(#id_0)" d="M453.77127 191.974C453.77127 194.45927 451.75656 196.474 449.27127 196.474C446.78598 196.474 444.77127 194.45927 444.77127 191.974C444.77127 189.48872 446.78598 187.474 449.27127 187.474C451.75656 187.474 453.77127 189.48872 453.77127 191.974Z" fill-rule="nonzero"/><path fill="#4285f4" clip-path="url(#id_0)" d="M457.57034 191.13533C457.57034 193.62062 455.55563 195.63533 453.07034 195.63533C450.58508 195.63533 448.57034 193.62062 448.57034 191.13533C448.57034 188.65005 450.58508 186.63533 453.07034 186.63533C455.55563 186.63533 457.57034 188.65005 457.57034 191.13533Z" fill-rule="nonzero"/><path fill="#4285f4" clip-path="url(#id_0)" d="M461.36942 190.716C461.36942 193.20128 459.3547 195.216 456.86942 195.216C454.38416 195.216 452.36942 193.20128 452.36942 190.716C452.36942 188.23071 454.38416 186.216 456.86942 186.216C459.3547 186.216 461.36942 188.23071 461.36942 190.716Z" fill-rule="nonzero"/><path fill="#4285f4" clip-path="url(#id_0)" d="M465.1685 190.29666C465.1685 192.78195 463.15378 194.79666 460.6685 194.79666C458.18323 194.79666 456.1685 192.78195 456.1685 190.29666C456.1685 187.81139 458.18323 185.79666 460.6685 185.79666C463.15378 185.79666 465.1685 187.81139 465.1685 190.29666Z" fill-rule="nonzero"/><path fill="#4285f4" clip-path="url(#id_0)" d="M468.96756 189.87733C468.96756 192.36261 466.95285 194.37733 464.46756 194.37733C461.9823 194.37733 459.96756 192.36261 459.96756 189.87733C459.96756 187.39206 461.9823 185.37733 464.46756 185.37733C466.95285 185.37733 468.96756 187.39206 468.96756 189.87733Z" fill-rule="nonzero"/><path fill="#4285f4" clip-path="url(#id_0)" d="M472.76663 189.458C472.76663 191.94328 470.75192 193.958 468.26663 193.958C465.78137 193.958 463.76663 191.94328 463.76663 189.458C463.76663 186.97272 465.78137 184.958 468.26663 184.958C470.75192 184.958 472.76663 186.97272 472.76663 189.458Z" fill-rule="nonzero"/><path fill="#4285f4" clip-path="url(#id_0)" d="M476.5657 189.03867C476.5657 191.52394 474.551 193.53867 472.0657 193.53867C469.58044 193.53867 467.5657 191.52394 467.5657 189.03867C467.5657 186.55339 469.58044 184.53867 472.0657 184.53867C474.551 184.53867 476.5657 186.55339 476.5657 189.03867Z" fill-rule="nonzero"/><path fill="#4285f4" clip-path="url(#id_0)" d="M480.36478 188.61934C480.36478 191.10461 478.35007 193.11934 475.86478 193.11934C473.37952 193.11934 471.36478 191.10461 471.36478 188.61934C471.36478 186.13405 473.37952 184.11934 475.86478 184.11934C478.35007 184.11934 480.36478 186.13405 480.36478 188.61934Z" fill-rule="nonzero"/><path fill="#4285f4" clip-path="url(#id_0)" d="M484.16385 188.2C484.16385 190.68529 482.14914 192.7 479.66385 192.7C477.1786 192.7 475.16385 190.68529 475.16385 188.2C475.16385 185.71472 477.1786 183.7 479.66385 183.7C482.14914 183.7 484.16385 185.71472 484.16385 188.2Z" fill-rule="nonzero"/><path fill="#4285f4" clip-path="url(#id_0)" d="M487.96295 187.36133C487.96295 189.84662 485.9482 191.86133 483.46295 191.86133C480.97766 191.86133 478.96295 189.84662 478.96295 187.36133C478.96295 184.87605 480.97766 182.86133 483.46295 182.86133C485.9482 182.86133 487.96295 184.87605 487.96295 187.36133Z" fill-rule="nonzero"/><path fill="#4285f4" clip-path="url(#id_0)" d="M491.76202 186.942C491.76202 189.42728 489.74728 191.442 487.26202 191.442C484.77673 191.442 482.76202 189.42728 482.76202 186.942C482.76202 184.45673 484.77673 182.442 487.26202 182.442C489.74728 182.442 491.76202 184.45673 491.76202 186.942Z" fill-rule="nonzero"/><path fill="#4285f4" clip-path="url(#id_0)" d="M495.5611 186.52266C495.5611 189.00795 493.54636 191.02266 491.0611 191.02266C488.5758 191.02266 486.5611 189.00795 486.5611 186.52266C486.5611 184.03738 488.5758 182.02266 491.0611 182.02266C493.54636 182.02266 495.5611 184.03738 495.5611 186.52266Z" fill-rule="nonzero"/><path fill="#4285f4" clip-path="url(#id_0)" d="M499.36017 186.10333C499.36017 188.58861 497.34543 190.60333 494.86017 190.60333C492.37488 190.60333 490.36017 188.58861 490.36017 186.10333C490.36017 183.61806 492.37488 181.60333 494.86017 181.60333C497.34543 181.60333 499.36017 183.61806 499.36017 186.10333Z" fill-rule="nonzero"/><path fill="#4285f4" clip-path="url(#id_0)" d="M503.15924 185.684C503.15924 188.16928 501.1445 190.184 498.65924 190.184C496.17395 190.184 494.15924 188.16928 494.15924 185.684C494.15924 183.19872 496.17395 181.184 498.65924 181.184C501.1445 181.184 503.15924 183.19872 503.15924 185.684Z" fill-rule="nonzero"/><path fill="#4285f4" clip-path="url(#id_0)" d="M506.9583 185.26466C506.9583 187.74995 504.94357 189.76466 502.4583 189.76466C499.97302 189.76466 497.9583 187.74995 497.9583 185.26466C497.9583 182.77939 499.97302 180.76466 502.4583 180.76466C504.94357 180.76466 506.9583 182.77939 506.9583 185.26466Z" fill-rule="nonzero"/><path fill="#4285f4" clip-path="url(#id_0)" d="M510.7574 184.84534C510.7574 187.33061 508.74265 189.34534 506.2574 189.34534C503.7721 189.34534 501.7574 187.33061 501.7574 184.84534C501.7574 182.36005 503.7721 180.34534 506.2574 180.34534C508.74265 180.34534 510.7574 182.36005 510.7574 184.84534Z" fill-rule="nonzero"/><path fill="#4285f4" clip-path="url(#id_0)" d="M514.55646 184.426C514.55646 186.91129 512.54175 188.926 510.05646 188.926C507.57117 188.926 505.55646 186.91129 505.55646 184.426C505.55646 181.94072 507.57117 179.926 510.05646 179.926C512.54175 179.926 514.55646 181.94072 514.55646 184.426Z" fill-rule="nonzero"/><path fill="#4285f4" clip-path="url(#id_0)" d="M518.3555 184.00667C518.3555 186.49194 516.3408 188.50667 513.8555 188.50667C511.37024 188.50667 509.35553 186.49194 509.35553 184.00667C509.35553 181.5214 511.37024 179.50667 513.8555 179.50667C516.3408 179.50667 518.3555 181.5214 518.3555 184.00667Z" fill-rule="nonzero"/><path fill="#4285f4" clip-path="url(#id_0)" d="M522.1546 182.74867C522.1546 185.23395 520.1399 187.24867 517.6546 187.24867C515.1693 187.24867 513.1546 185.23395 513.1546 182.74867C513.1546 180.26338 515.1693 178.24867 517.6546 178.24867C520.1399 178.24867 522.1546 180.26338 522.1546 182.74867Z" fill-rule="nonzero"/><path fill="#4285f4" clip-path="url(#id_0)" d="M525.9537 182.32933C525.9537 184.81462 523.93896 186.82933 521.4537 186.82933C518.9684 186.82933 516.9537 184.81462 516.9537 182.32933C516.9537 179.84406 518.9684 177.82933 521.4537 177.82933C523.93896 177.82933 525.9537 179.84406 525.9537 182.32933Z" fill-rule="nonzero"/><path fill="#4285f4" clip-path="url(#id_0)" d="M529.75275 181.49066C529.75275 183.97595 527.73804 185.99066 525.25275 185.99066C522.76746 185.99066 520.75275 183.97595 520.75275 181.49066C520.75275 179.00539 522.76746 176.99066 525.25275 176.99066C527.73804 176.99066 529.75275 179.00539 529.75275 181.49066Z" fill-rule="nonzero"/><path fill="#4285f4" clip-path="url(#id_0)" d="M533.5518 180.652C533.5518 183.13728 531.5371 185.152 529.0518 185.152C526.5665 185.152 524.5518 183.13728 524.5518 180.652C524.5518 178.16672 526.5665 176.152 529.0518 176.152C531.5371 176.152 533.5518 178.16672 533.5518 180.652Z" fill-rule="nonzero"/><path fill="#4285f4" clip-path="url(#id_0)" d="M537.3509 180.23267C537.3509 182.71794 535.3362 184.73267 532.8509 184.73267C530.3656 184.73267 528.3509 182.71794 528.3509 180.23267C528.3509 177.74739 530.3656 175.73267 532.8509 175.73267C535.3362 175.73267 537.3509 177.74739 537.3509 180.23267Z" fill-rule="nonzero"/><path fill="#4285f4" clip-path="url(#id_0)" d="M541.14996 179.81334C541.14996 182.29861 539.13525 184.31334 536.64996 184.31334C534.1647 184.31334 532.14996 182.29861 532.14996 179.81334C532.14996 177.32805 534.1647 175.31334 536.64996 175.31334C539.13525 175.31334 541.14996 177.32805 541.14996 179.81334Z" fill-rule="nonzero"/><path fill="#4285f4" clip-path="url(#id_0)" d="M544.94904 179.394C544.94904 181.87929 542.9343 183.894 540.44904 183.894C537.96375 183.894 535.94904 181.87929 535.94904 179.394C535.94904 176.90872 537.96375 174.894 540.44904 174.894C542.9343 174.894 544.94904 176.90872 544.94904 179.394Z" fill-rule="nonzero"/><path fill="#4285f4" clip-path="url(#id_0)" d="M548.7481 178.97467C548.7481 181.45995 546.7334 183.47467 544.2481 183.47467C541.7628 183.47467 539.7481 181.45995 539.7481 178.97467C539.7481 176.48938 541.7628 174.47467 544.2481 174.47467C546.7334 174.47467 548.7481 176.48938 548.7481 178.97467Z" fill-rule="nonzero"/><path fill="#4285f4" clip-path="url(#id_0)" d="M552.5472 178.55533C552.5472 181.04062 550.5325 183.05533 548.0472 183.05533C545.5619 183.05533 543.5472 181.04062 543.5472 178.55533C543.5472 176.07005 545.5619 174.05533 548.0472 174.05533C550.5325 174.05533 552.5472 176.07005 552.5472 178.55533Z" fill-rule="nonzero"/><path fill="#4285f4" clip-path="url(#id_0)" d="M556.34625 177.71666C556.34625 180.20195 554.33154 182.21666 551.84625 182.21666C549.36096 182.21666 547.34625 180.20195 547.34625 177.71666C547.34625 175.23138 549.36096 173.21666 551.84625 173.21666C554.33154 173.21666 556.34625 175.23138 556.34625 177.71666Z" fill-rule="nonzero"/><path fill="#4285f4" clip-path="url(#id_0)" d="M560.1453 177.29733C560.1453 179.78261 558.1306 181.79733 555.6453 181.79733C553.16003 181.79733 551.1453 179.78261 551.1453 177.29733C551.1453 174.81206 553.16003 172.79733 555.6453 172.79733C558.1306 172.79733 560.1453 174.81206 560.1453 177.29733Z" fill-rule="nonzero"/><path fill="#4285f4" clip-path="url(#id_0)" d="M563.9444 176.878C563.9444 179.36328 561.9297 181.378 559.4444 181.378C556.9591 181.378 554.9444 179.36328 554.9444 176.878C554.9444 174.39272 556.9591 172.378 559.4444 172.378C561.9297 172.378 563.9444 174.39272 563.9444 176.878Z" fill-rule="nonzero"/><path fill="#4285f4" clip-path="url(#id_0)" d="M567.74347 176.45866C567.74347 178.94395 565.72876 180.95866 563.24347 180.95866C560.7582 180.95866 558.74347 178.94395 558.74347 176.45866C558.74347 173.97339 560.7582 171.95866 563.24347 171.95866C565.72876 171.95866 567.74347 173.97339 567.74347 176.45866Z" fill-rule="nonzero"/><path fill="#4285f4" clip-path="url(#id_0)" d="M571.54254 176.03934C571.54254 178.52461 569.52783 180.53934 567.04254 180.53934C564.55725 180.53934 562.54254 178.52461 562.54254 176.03934C562.54254 173.55405 564.55725 171.53934 567.04254 171.53934C569.52783 171.53934 571.54254 173.55405 571.54254 176.03934Z" fill-rule="nonzero"/><path fill="#4285f4" clip-path="url(#id_0)" d="M575.3416 118.59067C575.3416 121.07595 573.3269 123.09067 570.8416 123.09067C568.3563 123.09067 566.3416 121.07595 566.3416 118.59067C566.3416 116.105385 568.3563 114.09067 570.8416 114.09067C573.3269 114.09067 575.3416 116.105385 575.3416 118.59067Z" fill-rule="nonzero"/><path fill="#ea4335" clip-path="url(#id_0)" d="M579.1407 93.430664C579.1407 95.91595 577.126 97.930664 574.6407 97.930664C572.1554 97.930664 570.1407 95.91595 570.1407 93.430664C570.1407 90.94539 572.1554 88.930664 574.6407 88.930664C577.126 88.930664 579.1407 90.94539 579.1407 93.430664Z" fill-rule="nonzero"/><path fill="#000000" d="M20.956263 213.12083L20.956263 211.98021L25.925013 211.98021Q27.221888 211.98021 27.987513 212.27708Q28.737513 212.57396 29.221888 213.33958Q29.690638 214.10521 29.690638 215.33958Q29.690638 216.54271 29.284388 217.32396Q28.862513 218.08958 28.081263 218.41771Q27.284388 218.74583 25.925013 218.74583L20.956263 218.74583L20.956263 217.60521L25.909388 217.60521Q27.034388 217.60521 27.565638 217.40208Q28.096888 217.18333 28.393763 216.68333Q28.675013 216.16771 28.675013 215.43333Q28.675013 214.18333 28.112513 213.65208Q27.534388 213.12083 25.909388 213.12083L20.956263 213.12083ZM27.690638 210.30833L27.534388 209.27708Q28.159388 209.18333 28.487513 208.79271Q28.815638 208.38646 28.815638 207.65208Q28.815638 206.93333 28.534388 206.58958Q28.237513 206.23021 27.831263 206.23021Q27.471888 206.23021 27.268763 206.54271Q27.128138 206.76146 26.909388 207.62083Q26.612513 208.77708 26.409388 209.23021Q26.190638 209.66771 25.815638 209.90208Q25.440638 210.13646 24.971888 210.13646Q24.565638 210.13646 24.206263 209.94896Q23.846888 209.76146 23.612513 209.43333Q23.440638 209.18333 23.315638 208.76146Q23.190638 208.33958 23.190638 207.83958Q23.190638 207.12083 23.409388 206.57396Q23.612513 206.01146 23.971888 205.74583Q24.331263 205.48021 24.925013 205.38646L25.065638 206.41771Q24.596888 206.48021 24.331263 206.82396Q24.050013 207.15208 24.050013 207.77708Q24.050013 208.49583 24.300013 208.80833Q24.534388 209.12083 24.862513 209.12083Q25.065638 209.12083 25.221888 208.99583Q25.393763 208.85521 25.503138 208.58958Q25.565638 208.43333 25.768763 207.65208Q26.081263 206.52708 26.268763 206.08958Q26.456263 205.65208 26.815638 205.40208Q27.175013 205.15208 27.721888 205.15208Q28.253138 205.15208 28.721888 205.46458Q29.175013 205.76146 29.440638 206.33958Q29.690638 206.91771 29.690638 207.65208Q29.690638 208.87083 29.190638 209.51146Q28.675013 210.13646 27.690638 210.30833ZM27.550013 198.63646L27.675013 197.54271Q28.628138 197.79271 29.159388 198.49583Q29.690638 199.19896 29.690638 200.27708Q29.690638 201.63646 28.846888 202.44896Q28.003138 203.24583 26.487513 203.24583Q24.925013 203.24583 24.065638 202.43333Q23.190638 201.62083 23.190638 200.33958Q23.190638 199.08958 24.034388 198.30833Q24.878138 197.51146 26.425013 197.51146Q26.518763 197.51146 26.706263 197.51146L26.706263 202.15208Q27.737513 202.08958 28.284388 201.57396Q28.815638 201.05833 28.815638 200.27708Q28.815638 199.69896 28.518763 199.29271Q28.206263 198.87083 27.550013 198.63646ZM25.846888 202.08958L25.846888 198.62083Q25.050013 198.68333 24.659388 199.01146Q24.050013 199.52708 24.050013 200.32396Q24.050013 201.05833 24.534388 201.55833Q25.018763 202.04271 25.846888 202.08958ZM29.550013 195.90208L23.331263 195.90208L23.331263 194.94896L24.268763 194.94896Q23.612513 194.58958 23.409388 194.29271Q23.190638 193.98021 23.190638 193.60521Q23.190638 193.07396 23.518763 192.52708L24.503138 192.88646Q24.268763 193.27708 24.268763 193.65208Q24.268763 194.01146 24.487513 194.29271Q24.690638 194.55833 25.065638 194.66771Q25.628138 194.85521 26.284388 194.85521L29.550013 194.85521L29.550013 195.90208ZM29.550013 188.55833L20.956263 188.55833L20.956263 187.43333L29.550013 187.43333L29.550013 188.55833ZM29.550013 185.76146L20.956263 185.76146L20.956263 182.79271Q20.956263 181.79271 21.081263 181.26146Q21.253138 180.52708 21.690638 180.01146Q22.268763 179.32396 23.175013 178.99583Q24.065638 178.65208 25.206263 178.65208Q26.190638 178.65208 26.940638 178.88646Q27.690638 179.10521 28.190638 179.46458Q28.690638 179.82396 28.971888 180.26146Q29.253138 180.68333 29.409388 181.27708Q29.550013 181.87083 29.550013 182.65208L29.550013 185.76146ZM28.534388 184.62083L28.534388 182.79271Q28.534388 181.93333 28.378138 181.44896Q28.221888 180.96458 27.925013 180.68333Q27.534388 180.27708 26.846888 180.05833Q26.159388 179.82396 25.190638 179.82396Q23.846888 179.82396 23.128138 180.27708Q22.393763 180.71458 22.143763 181.33958Q21.971888 181.80833 21.971888 182.80833L21.971888 184.62083L28.534388 184.62083Z" fill-rule="nonzero"/><path fill="#000000" d="M50.925 346.8719L50.925 345.8094L54.175 345.8094L54.175 346.8719L50.925 346.8719ZM59.01875 349.45L57.971874 349.45L57.971874 342.73126Q57.58125 343.09064 56.95625 343.46564Q56.346874 343.825 55.8625 343.9969L55.8625 342.98126Q56.7375 342.5594 57.39375 341.98126Q58.065624 341.3875 58.346874 340.825L59.01875 340.825L59.01875 349.45ZM62.05 345.21564Q62.05 343.6844 62.3625 342.7625Q62.675 341.825 63.284374 341.325Q63.909374 340.825 64.84688 340.825Q65.53438 340.825 66.05 341.10626Q66.58125 341.3875 66.925 341.91876Q67.26875 342.4344 67.45625 343.1844Q67.64375 343.9344 67.64375 345.21564Q67.64375 346.73126 67.33125 347.65314Q67.03438 348.575 66.40938 349.09064Q65.8 349.59064 64.84688 349.59064Q63.6125 349.59064 62.89375 348.7Q62.05 347.6375 62.05 345.21564ZM63.128124 345.21564Q63.128124 347.325 63.628124 348.02814Q64.12813 348.73126 64.84688 348.73126Q65.58125 348.73126 66.06563 348.02814Q66.56563 347.325 66.56563 345.21564Q66.56563 343.09064 66.06563 342.40314Q65.58125 341.7 64.83125 341.7Q64.1125 341.7 63.675 342.3094Q63.128124 343.09064 63.128124 345.21564ZM69.05 345.21564Q69.05 343.6844 69.3625 342.7625Q69.675 341.825 70.28438 341.325Q70.90938 340.825 71.84688 340.825Q72.53438 340.825 73.05 341.10626Q73.58125 341.3875 73.925 341.91876Q74.26875 342.4344 74.45625 343.1844Q74.64375 343.9344 74.64375 345.21564Q74.64375 346.73126 74.33125 347.65314Q74.03438 348.575 73.40938 349.09064Q72.8 349.59064 71.84688 349.59064Q70.6125 349.59064 69.89375 348.7Q69.05 347.6375 69.05 345.21564ZM70.12813 345.21564Q70.12813 347.325 70.62813 348.02814Q71.12813 348.73126 71.84688 348.73126Q72.58125 348.73126 73.06563 348.02814Q73.56563 347.325 73.56563 345.21564Q73.56563 343.09064 73.06563 342.40314Q72.58125 341.7 71.83125 341.7Q71.1125 341.7 70.675 342.3094Q70.12813 343.09064 70.12813 345.21564Z" fill-rule="nonzero"/><path fill="#000000" d="M69.05 303.2823Q69.05 301.75104 69.3625 300.82916Q69.675 299.89166 70.28438 299.39166Q70.90938 298.89166 71.84688 298.89166Q72.53438 298.89166 73.05 299.1729Q73.58125 299.45416 73.925 299.9854Q74.26875 300.50104 74.45625 301.25104Q74.64375 302.00104 74.64375 303.2823Q74.64375 304.7979 74.33125 305.7198Q74.03438 306.64166 73.40938 307.1573Q72.8 307.6573 71.84688 307.6573Q70.6125 307.6573 69.89375 306.76666Q69.05 305.70416 69.05 303.2823ZM70.12813 303.2823Q70.12813 305.39166 70.62813 306.0948Q71.12813 306.7979 71.84688 306.7979Q72.58125 306.7979 73.06563 306.0948Q73.56563 305.39166 73.56563 303.2823Q73.56563 301.1573 73.06563 300.4698Q72.58125 299.76666 71.83125 299.76666Q71.1125 299.76666 70.675 300.37604Q70.12813 301.1573 70.12813 303.2823Z" fill-rule="nonzero"/><path fill="#000000" d="M59.01875 265.58334L57.971874 265.58334L57.971874 258.8646Q57.58125 259.22397 56.95625 259.59897Q56.346874 259.95834 55.8625 260.13022L55.8625 259.1146Q56.7375 258.69272 57.39375 258.1146Q58.065624 257.52084 58.346874 256.95834L59.01875 256.95834L59.01875 265.58334ZM62.05 261.34897Q62.05 259.81772 62.3625 258.89584Q62.675 257.95834 63.284374 257.45834Q63.909374 256.95834 64.84688 256.95834Q65.53438 256.95834 66.05 257.2396Q66.58125 257.52084 66.925 258.0521Q67.26875 258.56772 67.45625 259.31772Q67.64375 260.06772 67.64375 261.34897Q67.64375 262.8646 67.33125 263.78647Q67.03438 264.70834 66.40938 265.22397Q65.8 265.72397 64.84688 265.72397Q63.6125 265.72397 62.89375 264.83334Q62.05 263.77084 62.05 261.34897ZM63.128124 261.34897Q63.128124 263.45834 63.628124 264.16147Q64.12813 264.8646 64.84688 264.8646Q65.58125 264.8646 66.06563 264.16147Q66.56563 263.45834 66.56563 261.34897Q66.56563 259.22397 66.06563 258.53647Q65.58125 257.83334 64.83125 257.83334Q64.1125 257.83334 63.675 258.44272Q63.128124 259.22397 63.128124 261.34897ZM69.05 261.34897Q69.05 259.81772 69.3625 258.89584Q69.675 257.95834 70.28438 257.45834Q70.90938 256.95834 71.84688 256.95834Q72.53438 256.95834 73.05 257.2396Q73.58125 257.52084 73.925 258.0521Q74.26875 258.56772 74.45625 259.31772Q74.64375 260.06772 74.64375 261.34897Q74.64375 262.8646 74.33125 263.78647Q74.03438 264.70834 73.40938 265.22397Q72.8 265.72397 71.84688 265.72397Q70.6125 265.72397 69.89375 264.83334Q69.05 263.77084 69.05 261.34897ZM70.12813 261.34897Q70.12813 263.45834 70.62813 264.16147Q71.12813 264.8646 71.84688 264.8646Q72.58125 264.8646 73.06563 264.16147Q73.56563 263.45834 73.56563 261.34897Q73.56563 259.22397 73.06563 258.53647Q72.58125 257.83334 71.83125 257.83334Q71.1125 257.83334 70.675 258.44272Q70.12813 259.22397 70.12813 261.34897Z" fill-rule="nonzero"/><path fill="#000000" d="M60.596874 222.63437L60.596874 223.65L54.909374 223.65Q54.909374 223.275 55.034374 222.91562Q55.253124 222.3375 55.721874 221.775Q56.20625 221.2125 57.1125 220.47812Q58.51875 219.32187 59.003124 218.65Q59.503124 217.97812 59.503124 217.38437Q59.503124 216.75937 59.05 216.3375Q58.596874 215.9 57.878124 215.9Q57.1125 215.9 56.659374 216.35312Q56.20625 216.80624 56.190624 217.61874L55.1125 217.50937Q55.221874 216.29062 55.940624 215.66562Q56.675 215.025 57.909374 215.025Q59.14375 215.025 59.8625 215.7125Q60.58125 216.4 60.58125 217.41562Q60.58125 217.93124 60.3625 218.43124Q60.159374 218.91562 59.659374 219.47812Q59.175 220.025 58.05 220.97812Q57.096874 221.775 56.815624 222.07187Q56.55 222.35312 56.378124 222.63437L60.596874 222.63437ZM62.05 219.41562Q62.05 217.88437 62.3625 216.9625Q62.675 216.025 63.284374 215.525Q63.909374 215.025 64.84688 215.025Q65.53438 215.025 66.05 215.30624Q66.58125 215.5875 66.925 216.11874Q67.26875 216.63437 67.45625 217.38437Q67.64375 218.13437 67.64375 219.41562Q67.64375 220.93124 67.33125 221.85312Q67.03438 222.775 66.40938 223.29062Q65.8 223.79062 64.84688 223.79062Q63.6125 223.79062 62.89375 222.9Q62.05 221.8375 62.05 219.41562ZM63.128124 219.41562Q63.128124 221.525 63.628124 222.22812Q64.12813 222.93124 64.84688 222.93124Q65.58125 222.93124 66.06563 222.22812Q66.56563 221.525 66.56563 219.41562Q66.56563 217.29062 66.06563 216.60312Q65.58125 215.9 64.83125 215.9Q64.1125 215.9 63.675 216.50937Q63.128124 217.29062 63.128124 219.41562ZM69.05 219.41562Q69.05 217.88437 69.3625 216.9625Q69.675 216.025 70.28438 215.525Q70.90938 215.025 71.84688 215.025Q72.53438 215.025 73.05 215.30624Q73.58125 215.5875 73.925 216.11874Q74.26875 216.63437 74.45625 217.38437Q74.64375 218.13437 74.64375 219.41562Q74.64375 220.93124 74.33125 221.85312Q74.03438 222.775 73.40938 223.29062Q72.8 223.79062 71.84688 223.79062Q70.6125 223.79062 69.89375 222.9Q69.05 221.8375 69.05 219.41562ZM70.12813 219.41562Q70.12813 221.525 70.62813 222.22812Q71.12813 222.93124 71.84688 222.93124Q72.58125 222.93124 73.06563 222.22812Q73.56563 221.525 73.56563 219.41562Q73.56563 217.29062 73.06563 216.60312Q72.58125 215.9 71.83125 215.9Q71.1125 215.9 70.675 216.50937Q70.12813 217.29062 70.12813 219.41562Z" fill-rule="nonzero"/><path fill="#000000" d="M55.05 179.45103L56.1125 179.31041Q56.284374 180.20103 56.721874 180.60728Q57.159374 180.99791 57.784374 180.99791Q58.534374 180.99791 59.05 180.48228Q59.565624 179.96666 59.565624 179.20103Q59.565624 178.48228 59.08125 178.01353Q58.6125 177.52916 57.878124 177.52916Q57.58125 177.52916 57.128124 177.65416L57.253124 176.71666Q57.3625 176.73228 57.425 176.73228Q58.096874 176.73228 58.628124 176.38853Q59.175 176.02916 59.175 175.29478Q59.175 174.71666 58.784374 174.34166Q58.39375 173.95103 57.76875 173.95103Q57.159374 173.95103 56.7375 174.34166Q56.33125 174.73228 56.221874 175.49791L55.159374 175.31041Q55.346874 174.26353 56.034374 173.68541Q56.721874 173.09166 57.7375 173.09166Q58.440624 173.09166 59.034374 173.40416Q59.628124 173.70103 59.940624 174.21666Q60.253124 174.73228 60.253124 175.32603Q60.253124 175.87291 59.95625 176.34166Q59.659374 176.79478 59.08125 177.06041Q59.83125 177.23228 60.253124 177.79478Q60.675 178.34166 60.675 179.18541Q60.675 180.31041 59.846874 181.09166Q59.034374 181.87291 57.784374 181.87291Q56.659374 181.87291 55.909374 181.20103Q55.159374 180.51353 55.05 179.45103ZM62.05 177.48228Q62.05 175.95103 62.3625 175.02916Q62.675 174.09166 63.284374 173.59166Q63.909374 173.09166 64.84688 173.09166Q65.53438 173.09166 66.05 173.37291Q66.58125 173.65416 66.925 174.18541Q67.26875 174.70103 67.45625 175.45103Q67.64375 176.20103 67.64375 177.48228Q67.64375 178.99791 67.33125 179.91978Q67.03438 180.84166 66.40938 181.35728Q65.8 181.85728 64.84688 181.85728Q63.6125 181.85728 62.89375 180.96666Q62.05 179.90416 62.05 177.48228ZM63.128124 177.48228Q63.128124 179.59166 63.628124 180.29478Q64.12813 180.99791 64.84688 180.99791Q65.58125 180.99791 66.06563 180.29478Q66.56563 179.59166 66.56563 177.48228Q66.56563 175.35728 66.06563 174.66978Q65.58125 173.96666 64.83125 173.96666Q64.1125 173.96666 63.675 174.57603Q63.128124 175.35728 63.128124 177.48228ZM69.05 177.48228Q69.05 175.95103 69.3625 175.02916Q69.675 174.09166 70.28438 173.59166Q70.90938 173.09166 71.84688 173.09166Q72.53438 173.09166 73.05 173.37291Q73.58125 173.65416 73.925 174.18541Q74.26875 174.70103 74.45625 175.45103Q74.64375 176.20103 74.64375 177.48228Q74.64375 178.99791 74.33125 179.91978Q74.03438 180.84166 73.40938 181.35728Q72.8 181.85728 71.84688 181.85728Q70.6125 181.85728 69.89375 180.96666Q69.05 179.90416 69.05 177.48228ZM70.12813 177.48228Q70.12813 179.59166 70.62813 180.29478Q71.12813 180.99791 71.84688 180.99791Q72.58125 180.99791 73.06563 180.29478Q73.56563 179.59166 73.56563 177.48228Q73.56563 175.35728 73.06563 174.66978Q72.58125 173.96666 71.83125 173.96666Q71.1125 173.96666 70.675 174.57603Q70.12813 175.35728 70.12813 177.48228Z" fill-rule="nonzero"/><path fill="#000000" d="M58.425 139.78334L58.425 137.72084L54.70625 137.72084L54.70625 136.75209L58.628124 131.18959L59.4875 131.18959L59.4875 136.75209L60.64375 136.75209L60.64375 137.72084L59.4875 137.72084L59.4875 139.78334L58.425 139.78334ZM58.425 136.75209L58.425 132.89272L55.7375 136.75209L58.425 136.75209ZM62.05 135.54897Q62.05 134.01772 62.3625 133.09584Q62.675 132.15834 63.284374 131.65834Q63.909374 131.15834 64.84688 131.15834Q65.53438 131.15834 66.05 131.43959Q66.58125 131.72084 66.925 132.25209Q67.26875 132.76772 67.45625 133.51772Q67.64375 134.26772 67.64375 135.54897Q67.64375 137.06459 67.33125 137.98647Q67.03438 138.90834 66.40938 139.42397Q65.8 139.92397 64.84688 139.92397Q63.6125 139.92397 62.89375 139.03334Q62.05 137.97084 62.05 135.54897ZM63.128124 135.54897Q63.128124 137.65834 63.628124 138.36147Q64.12813 139.06459 64.84688 139.06459Q65.58125 139.06459 66.06563 138.36147Q66.56563 137.65834 66.56563 135.54897Q66.56563 133.42397 66.06563 132.73647Q65.58125 132.03334 64.83125 132.03334Q64.1125 132.03334 63.675 132.64272Q63.128124 133.42397 63.128124 135.54897ZM69.05 135.54897Q69.05 134.01772 69.3625 133.09584Q69.675 132.15834 70.28438 131.65834Q70.90938 131.15834 71.84688 131.15834Q72.53438 131.15834 73.05 131.43959Q73.58125 131.72084 73.925 132.25209Q74.26875 132.76772 74.45625 133.51772Q74.64375 134.26772 74.64375 135.54897Q74.64375 137.06459 74.33125 137.98647Q74.03438 138.90834 73.40938 139.42397Q72.8 139.92397 71.84688 139.92397Q70.6125 139.92397 69.89375 139.03334Q69.05 137.97084 69.05 135.54897ZM70.12813 135.54897Q70.12813 137.65834 70.62813 138.36147Q71.12813 139.06459 71.84688 139.06459Q72.58125 139.06459 73.06563 138.36147Q73.56563 137.65834 73.56563 135.54897Q73.56563 133.42397 73.06563 132.73647Q72.58125 132.03334 71.83125 132.03334Q71.1125 132.03334 70.675 132.64272Q70.12813 133.42397 70.12813 135.54897Z" fill-rule="nonzero"/><path fill="#000000" d="M55.05 95.6L56.159374 95.50625Q56.284374 96.31875 56.721874 96.725Q57.175 97.13125 57.815624 97.13125Q58.565624 97.13125 59.096874 96.55312Q59.628124 95.975 59.628124 95.0375Q59.628124 94.13125 59.1125 93.61562Q58.6125 93.08437 57.784374 93.08437Q57.284374 93.08437 56.8625 93.31875Q56.45625 93.55312 56.221874 93.9125L55.2375 93.7875L56.065624 89.38125L60.346874 89.38125L60.346874 90.38125L56.909374 90.38125L56.45625 92.69375Q57.221874 92.14687 58.065624 92.14687Q59.190624 92.14687 59.95625 92.92812Q60.7375 93.70937 60.7375 94.94375Q60.7375 96.1 60.065624 96.95937Q59.2375 97.99062 57.815624 97.99062Q56.64375 97.99062 55.89375 97.33437Q55.159374 96.67812 55.05 95.6ZM62.05 93.61562Q62.05 92.08437 62.3625 91.1625Q62.675 90.225 63.284374 89.725Q63.909374 89.225 64.84688 89.225Q65.53438 89.225 66.05 89.50625Q66.58125 89.7875 66.925 90.31875Q67.26875 90.83437 67.45625 91.58437Q67.64375 92.33437 67.64375 93.61562Q67.64375 95.13125 67.33125 96.05312Q67.03438 96.975 66.40938 97.49062Q65.8 97.99062 64.84688 97.99062Q63.6125 97.99062 62.89375 97.1Q62.05 96.0375 62.05 93.61562ZM63.128124 93.61562Q63.128124 95.725 63.628124 96.42812Q64.12813 97.13125 64.84688 97.13125Q65.58125 97.13125 66.06563 96.42812Q66.56563 95.725 66.56563 93.61562Q66.56563 91.49062 66.06563 90.80312Q65.58125 90.1 64.83125 90.1Q64.1125 90.1 63.675 90.70937Q63.128124 91.49062 63.128124 93.61562ZM69.05 93.61562Q69.05 92.08437 69.3625 91.1625Q69.675 90.225 70.28438 89.725Q70.90938 89.225 71.84688 89.225Q72.53438 89.225 73.05 89.50625Q73.58125 89.7875 73.925 90.31875Q74.26875 90.83437 74.45625 91.58437Q74.64375 92.33437 74.64375 93.61562Q74.64375 95.13125 74.33125 96.05312Q74.03438 96.975 73.40938 97.49062Q72.8 97.99062 71.84688 97.99062Q70.6125 97.99062 69.89375 97.1Q69.05 96.0375 69.05 93.61562ZM70.12813 93.61562Q70.12813 95.725 70.62813 96.42812Q71.12813 97.13125 71.84688 97.13125Q72.58125 97.13125 73.06563 96.42812Q73.56563 95.725 73.56563 93.61562Q73.56563 91.49062 73.06563 90.80312Q72.58125 90.1 71.83125 90.1Q71.1125 90.1 70.675 90.70937Q70.12813 91.49062 70.12813 93.61562Z" fill-rule="nonzero"/><path fill="#000000" d="M60.51875 49.432293L59.471874 49.510418Q59.33125 48.885418 59.08125 48.604168Q58.64375 48.151043 58.01875 48.151043Q57.51875 48.151043 57.128124 48.432293Q56.64375 48.807293 56.346874 49.510418Q56.065624 50.197918 56.05 51.479168Q56.425 50.901043 56.971874 50.619793Q57.534374 50.338543 58.14375 50.338543Q59.190624 50.338543 59.925 51.119793Q60.675 51.901043 60.675 53.119793Q60.675 53.932293 60.315624 54.635418Q59.971874 55.322918 59.3625 55.697918Q58.753124 56.057293 57.9875 56.057293Q56.659374 56.057293 55.83125 55.088543Q55.003124 54.119793 55.003124 51.901043Q55.003124 49.401043 55.925 48.276043Q56.721874 47.291668 58.08125 47.291668Q59.096874 47.291668 59.7375 47.869793Q60.39375 48.432293 60.51875 49.432293ZM56.221874 53.135418Q56.221874 53.682293 56.440624 54.182293Q56.675 54.666668 57.08125 54.932293Q57.503124 55.197918 57.971874 55.197918Q58.628124 55.197918 59.1125 54.666668Q59.596874 54.119793 59.596874 53.197918Q59.596874 52.307293 59.1125 51.791668Q58.64375 51.276043 57.925 51.276043Q57.20625 51.276043 56.70625 51.791668Q56.221874 52.307293 56.221874 53.135418ZM62.05 51.682293Q62.05 50.151043 62.3625 49.229168Q62.675 48.291668 63.284374 47.791668Q63.909374 47.291668 64.84688 47.291668Q65.53438 47.291668 66.05 47.572918Q66.58125 47.854168 66.925 48.385418Q67.26875 48.901043 67.45625 49.651043Q67.64375 50.401043 67.64375 51.682293Q67.64375 53.197918 67.33125 54.119793Q67.03438 55.041668 66.40938 55.557293Q65.8 56.057293 64.84688 56.057293Q63.6125 56.057293 62.89375 55.166668Q62.05 54.104168 62.05 51.682293ZM63.128124 51.682293Q63.128124 53.791668 63.628124 54.494793Q64.12813 55.197918 64.84688 55.197918Q65.58125 55.197918 66.06563 54.494793Q66.56563 53.791668 66.56563 51.682293Q66.56563 49.557293 66.06563 48.869793Q65.58125 48.166668 64.83125 48.166668Q64.1125 48.166668 63.675 48.776043Q63.128124 49.557293 63.128124 51.682293ZM69.05 51.682293Q69.05 50.151043 69.3625 49.229168Q69.675 48.291668 70.28438 47.791668Q70.90938 47.291668 71.84688 47.291668Q72.53438 47.291668 73.05 47.572918Q73.58125 47.854168 73.925 48.385418Q74.26875 48.901043 74.45625 49.651043Q74.64375 50.401043 74.64375 51.682293Q74.64375 53.197918 74.33125 54.119793Q74.03438 55.041668 73.40938 55.557293Q72.8 56.057293 71.84688 56.057293Q70.6125 56.057293 69.89375 55.166668Q69.05 54.104168 69.05 51.682293ZM70.12813 51.682293Q70.12813 53.791668 70.62813 54.494793Q71.12813 55.197918 71.84688 55.197918Q72.58125 55.197918 73.06563 54.494793Q73.56563 53.791668 73.56563 51.682293Q73.56563 49.557293 73.06563 48.869793Q72.58125 48.166668 71.83125 48.166668Q71.1125 48.166668 70.675 48.776043Q70.12813 49.557293 70.12813 51.682293Z" fill-rule="nonzero"/><path fill="#4285f4" d="M204.5 25.55C204.5 28.863708 201.8137 31.55 198.5 31.55C195.1863 31.55 192.5 28.863708 192.5 25.55C192.5 22.236292 195.1863 19.55 198.5 19.55C201.8137 19.55 204.5 22.236292 204.5 25.55Z" fill-rule="nonzero"/><path fill="#1a1a1a" d="M212.5 29.690624L214.98438 20.815624L215.82812 20.815624L213.34375 29.690624L212.5 29.690624ZM220.54688 27.55L221.64062 27.675Q221.39062 28.628124 220.6875 29.159374Q219.98438 29.690624 218.90625 29.690624Q217.54688 29.690624 216.73438 28.846874Q215.9375 28.003124 215.9375 26.4875Q215.9375 24.925 216.75 24.065624Q217.5625 23.190624 218.84375 23.190624Q220.09375 23.190624 220.875 24.034374Q221.67188 24.878124 221.67188 26.425Q221.67188 26.51875 221.67188 26.70625L217.03125 26.70625Q217.09375 27.7375 217.60938 28.284374Q218.125 28.815624 218.90625 28.815624Q219.48438 28.815624 219.89062 28.51875Q220.3125 28.20625 220.54688 27.55ZM217.09375 25.846874L220.5625 25.846874Q220.5 25.05 220.17188 24.659374Q219.65625 24.05 218.85938 24.05Q218.125 24.05 217.625 24.534374Q217.14062 25.01875 217.09375 25.846874ZM225.59375 28.6125L225.75 29.534374Q225.29688 29.628124 224.95312 29.628124Q224.375 29.628124 224.0625 29.45625Q223.75 29.26875 223.60938 28.971874Q223.48438 28.675 223.48438 27.721874L223.48438 24.14375L222.71875 24.14375L222.71875 23.33125L223.48438 23.33125L223.48438 21.784374L224.53125 21.159374L224.53125 23.33125L225.59375 23.33125L225.59375 24.14375L224.53125 24.14375L224.53125 27.784374Q224.53125 28.2375 224.57812 28.3625Q224.64062 28.4875 224.76562 28.565624Q224.89062 28.64375 225.125 28.64375Q225.3125 28.64375 225.59375 28.6125ZM230.35938 27.26875L231.39062 27.409374Q231.21875 28.471874 230.51562 29.08125Q229.8125 29.690624 228.79688 29.690624Q227.51562 29.690624 226.73438 28.8625Q225.96875 28.01875 225.96875 26.45625Q225.96875 25.45625 226.29688 24.70625Q226.64062 23.940624 227.3125 23.565624Q228.0 23.190624 228.8125 23.190624Q229.8125 23.190624 230.45312 23.70625Q231.10938 24.20625 231.29688 25.159374L230.26562 25.315624Q230.125 24.690624 229.75 24.378124Q229.375 24.05 228.84375 24.05Q228.04688 24.05 227.54688 24.628124Q227.04688 25.190624 227.04688 26.425Q227.04688 27.690624 227.53125 28.253124Q228.01562 28.815624 228.78125 28.815624Q229.40625 28.815624 229.8125 28.440624Q230.23438 28.065624 230.35938 27.26875ZM231.5 29.690624L233.98438 20.815624L234.82812 20.815624L232.34375 29.690624L231.5 29.690624ZM235.29688 31.940624L235.29688 23.33125L236.25 23.33125L236.25 24.128124Q236.59375 23.659374 237.01562 23.425Q237.45312 23.190624 238.0625 23.190624Q238.85938 23.190624 239.46875 23.596874Q240.07812 24.003124 240.375 24.753124Q240.6875 25.503124 240.6875 26.39375Q240.6875 27.346874 240.34375 28.1125Q240.01562 28.878124 239.35938 29.284374Q238.70312 29.690624 237.98438 29.690624Q237.45312 29.690624 237.03125 29.471874Q236.60938 29.2375 236.34375 28.909374L236.34375 31.940624L235.29688 31.940624ZM236.25 26.471874Q236.25 27.675 236.73438 28.253124Q237.21875 28.815624 237.90625 28.815624Q238.60938 28.815624 239.10938 28.221874Q239.60938 27.628124 239.60938 26.378124Q239.60938 25.190624 239.125 24.6125Q238.64062 24.01875 237.95312 24.01875Q237.28125 24.01875 236.76562 24.64375Q236.25 25.26875 236.25 26.471874ZM246.35938 28.784374Q245.76562 29.284374 245.21875 29.4875Q244.6875 29.690624 244.0625 29.690624Q243.03125 29.690624 242.48438 29.190624Q241.9375 28.690624 241.9375 27.909374Q241.9375 27.45625 242.14062 27.08125Q242.34375 26.690624 242.6875 26.471874Q243.03125 26.2375 243.45312 26.128124Q243.75 26.034374 244.39062 25.95625Q245.65625 25.815624 246.26562 25.596874Q246.26562 25.378124 246.26562 25.33125Q246.26562 24.675 245.96875 24.409374Q245.5625 24.065624 244.76562 24.065624Q244.03125 24.065624 243.67188 24.33125Q243.3125 24.58125 243.14062 25.2375L242.10938 25.096874Q242.25 24.440624 242.57812 24.034374Q242.90625 23.628124 243.51562 23.409374Q244.125 23.190624 244.92188 23.190624Q245.71875 23.190624 246.21875 23.378124Q246.71875 23.565624 246.95312 23.846874Q247.1875 24.128124 247.28125 24.565624Q247.32812 24.83125 247.32812 25.534374L247.32812 26.940624Q247.32812 28.409374 247.39062 28.8Q247.46875 29.190624 247.67188 29.55L246.5625 29.55Q246.40625 29.221874 246.35938 28.784374ZM246.26562 26.425Q245.6875 26.659374 244.54688 26.83125Q243.89062 26.925 243.625 27.05Q243.35938 27.159374 243.20312 27.378124Q243.0625 27.596874 243.0625 27.878124Q243.0625 28.3 243.375 28.58125Q243.70312 28.8625 244.3125 28.8625Q244.92188 28.8625 245.39062 28.596874Q245.875 28.33125 246.09375 27.8625Q246.26562 27.503124 246.26562 26.815624L246.26562 26.425ZM248.875 27.690624L249.90625 27.534374Q250.0 28.159374 250.39062 28.4875Q250.79688 28.815624 251.53125 28.815624Q252.25 28.815624 252.59375 28.534374Q252.95312 28.2375 252.95312 27.83125Q252.95312 27.471874 252.64062 27.26875Q252.42188 27.128124 251.5625 26.909374Q250.40625 26.6125 249.95312 26.409374Q249.51562 26.190624 249.28125 25.815624Q249.04688 25.440624 249.04688 24.971874Q249.04688 24.565624 249.23438 24.20625Q249.42188 23.846874 249.75 23.6125Q250.0 23.440624 250.42188 23.315624Q250.84375 23.190624 251.34375 23.190624Q252.0625 23.190624 252.60938 23.409374Q253.17188 23.6125 253.4375 23.971874Q253.70312 24.33125 253.79688 24.925L252.76562 25.065624Q252.70312 24.596874 252.35938 24.33125Q252.03125 24.05 251.40625 24.05Q250.6875 24.05 250.375 24.3Q250.0625 24.534374 250.0625 24.8625Q250.0625 25.065624 250.1875 25.221874Q250.32812 25.39375 250.59375 25.503124Q250.75 25.565624 251.53125 25.76875Q252.65625 26.08125 253.09375 26.26875Q253.53125 26.45625 253.78125 26.815624Q254.03125 27.175 254.03125 27.721874Q254.03125 28.253124 253.71875 28.721874Q253.42188 29.175 252.84375 29.440624Q252.26562 29.690624 251.53125 29.690624Q250.3125 29.690624 249.67188 29.190624Q249.04688 28.675 248.875 27.690624ZM255.875 27.690624L256.90625 27.534374Q257.0 28.159374 257.39062 28.4875Q257.79688 28.815624 258.53125 28.815624Q259.25 28.815624 259.59375 28.534374Q259.95312 28.2375 259.95312 27.83125Q259.95312 27.471874 259.64062 27.26875Q259.42188 27.128124 258.5625 26.909374Q257.40625 26.6125 256.95312 26.409374Q256.51562 26.190624 256.28125 25.815624Q256.04688 25.440624 256.04688 24.971874Q256.04688 24.565624 256.23438 24.20625Q256.42188 23.846874 256.75 23.6125Q257.0 23.440624 257.42188 23.315624Q257.84375 23.190624 258.34375 23.190624Q259.0625 23.190624 259.60938 23.409374Q260.17188 23.6125 260.4375 23.971874Q260.70312 24.33125 260.79688 24.925L259.76562 25.065624Q259.70312 24.596874 259.35938 24.33125Q259.03125 24.05 258.40625 24.05Q257.6875 24.05 257.375 24.3Q257.0625 24.534374 257.0625 24.8625Q257.0625 25.065624 257.1875 25.221874Q257.32812 25.39375 257.59375 25.503124Q257.75 25.565624 258.53125 25.76875Q259.65625 26.08125 260.09375 26.26875Q260.53125 26.45625 260.78125 26.815624Q261.03125 27.175 261.03125 27.721874Q261.03125 28.253124 260.71875 28.721874Q260.42188 29.175 259.84375 29.440624Q259.26562 29.690624 258.53125 29.690624Q257.3125 29.690624 256.67188 29.190624Q256.04688 28.675 255.875 27.690624ZM264.4375 29.55L262.53125 23.33125L263.625 23.33125L264.60938 26.925L264.98438 28.253124Q265.01562 28.159374 265.3125 26.971874L266.29688 23.33125L267.375 23.33125L268.3125 26.940624L268.625 28.128124L268.98438 26.925L270.04688 23.33125L271.07812 23.33125L269.125 29.55L268.03125 29.55L267.04688 25.815624L266.79688 24.76875L265.54688 29.55L264.4375 29.55ZM276.32812 29.55L276.32812 28.76875Q275.73438 29.690624 274.59375 29.690624Q273.84375 29.690624 273.21875 29.284374Q272.59375 28.8625 272.25 28.128124Q271.90625 27.39375 271.90625 26.440624Q271.90625 25.51875 272.21875 24.753124Q272.53125 23.9875 273.15625 23.596874Q273.78125 23.190624 274.54688 23.190624Q275.10938 23.190624 275.54688 23.425Q275.98438 23.659374 276.26562 24.034374L276.26562 20.95625L277.3125 20.95625L277.3125 29.55L276.32812 29.55ZM273.0 26.440624Q273.0 27.64375 273.5 28.2375Q274.0 28.815624 274.6875 28.815624Q275.375 28.815624 275.85938 28.253124Q276.34375 27.690624 276.34375 26.534374Q276.34375 25.253124 275.84375 24.659374Q275.35938 24.065624 274.64062 24.065624Q273.9375 24.065624 273.46875 24.64375Q273.0 25.20625 273.0 26.440624ZM286.54688 27.55L287.64062 27.675Q287.39062 28.628124 286.6875 29.159374Q285.98438 29.690624 284.90625 29.690624Q283.54688 29.690624 282.73438 28.846874Q281.9375 28.003124 281.9375 26.4875Q281.9375 24.925 282.75 24.065624Q283.5625 23.190624 284.84375 23.190624Q286.09375 23.190624 286.875 24.034374Q287.67188 24.878124 287.67188 26.425Q287.67188 26.51875 287.67188 26.70625L283.03125 26.70625Q283.09375 27.7375 283.60938 28.284374Q284.125 28.815624 284.90625 28.815624Q285.48438 28.815624 285.89062 28.51875Q286.3125 28.20625 286.54688 27.55ZM283.09375 25.846874L286.5625 25.846874Q286.5 25.05 286.17188 24.659374Q285.65625 24.05 284.85938 24.05Q284.125 24.05 283.625 24.534374Q283.14062 25.01875 283.09375 25.846874ZM289.29688 29.55L289.29688 23.33125L290.23438 23.33125L290.23438 24.20625Q290.92188 23.190624 292.21875 23.190624Q292.78125 23.190624 293.25 23.39375Q293.73438 23.596874 293.96875 23.925Q294.20312 24.253124 294.29688 24.690624Q294.34375 24.9875 294.34375 25.721874L294.34375 29.55L293.29688 29.55L293.29688 25.76875Q293.29688 25.1125 293.17188 24.8Q293.04688 24.4875 292.73438 24.3Q292.42188 24.096874 292.0 24.096874Q291.32812 24.096874 290.82812 24.534374Q290.34375 24.95625 290.34375 26.14375L290.34375 29.55L289.29688 29.55ZM298.59375 28.6125L298.75 29.534374Q298.29688 29.628124 297.95312 29.628124Q297.375 29.628124 297.0625 29.45625Q296.75 29.26875 296.60938 28.971874Q296.48438 28.675 296.48438 27.721874L296.48438 24.14375L295.71875 24.14375L295.71875 23.33125L296.48438 23.33125L296.48438 21.784374L297.53125 21.159374L297.53125 23.33125L298.59375 23.33125L298.59375 24.14375L297.53125 24.14375L297.53125 27.784374Q297.53125 28.2375 297.57812 28.3625Q297.64062 28.4875 297.76562 28.565624Q297.89062 28.64375 298.125 28.64375Q298.3125 28.64375 298.59375 28.6125ZM299.28125 29.55L299.28125 23.33125L300.23438 23.33125L300.23438 24.26875Q300.59375 23.6125 300.89062 23.409374Q301.20312 23.190624 301.57812 23.190624Q302.10938 23.190624 302.65625 23.51875L302.29688 24.503124Q301.90625 24.26875 301.53125 24.26875Q301.17188 24.26875 300.89062 24.4875Q300.625 24.690624 300.51562 25.065624Q300.32812 25.628124 300.32812 26.284374L300.32812 29.55L299.28125 29.55ZM303.29688 22.175L303.29688 20.95625L304.35938 20.95625L304.35938 22.175L303.29688 22.175ZM303.29688 29.55L303.29688 23.33125L304.35938 23.33125L304.35938 29.55L303.29688 29.55ZM310.54688 27.55L311.64062 27.675Q311.39062 28.628124 310.6875 29.159374Q309.98438 29.690624 308.90625 29.690624Q307.54688 29.690624 306.73438 28.846874Q305.9375 28.003124 305.9375 26.4875Q305.9375 24.925 306.75 24.065624Q307.5625 23.190624 308.84375 23.190624Q310.09375 23.190624 310.875 24.034374Q311.67188 24.878124 311.67188 26.425Q311.67188 26.51875 311.67188 26.70625L307.03125 26.70625Q307.09375 27.7375 307.60938 28.284374Q308.125 28.815624 308.90625 28.815624Q309.48438 28.815624 309.89062 28.51875Q310.3125 28.20625 310.54688 27.55ZM307.09375 25.846874L310.5625 25.846874Q310.5 25.05 310.17188 24.659374Q309.65625 24.05 308.85938 24.05Q308.125 24.05 307.625 24.534374Q307.14062 25.01875 307.09375 25.846874ZM312.875 27.690624L313.90625 27.534374Q314.0 28.159374 314.39062 28.4875Q314.79688 28.815624 315.53125 28.815624Q316.25 28.815624 316.59375 28.534374Q316.95312 28.2375 316.95312 27.83125Q316.95312 27.471874 316.64062 27.26875Q316.42188 27.128124 315.5625 26.909374Q314.40625 26.6125 313.95312 26.409374Q313.51562 26.190624 313.28125 25.815624Q313.04688 25.440624 313.04688 24.971874Q313.04688 24.565624 313.23438 24.20625Q313.42188 23.846874 313.75 23.6125Q314.0 23.440624 314.42188 23.315624Q314.84375 23.190624 315.34375 23.190624Q316.0625 23.190624 316.60938 23.409374Q317.17188 23.6125 317.4375 23.971874Q317.70312 24.33125 317.79688 24.925L316.76562 25.065624Q316.70312 24.596874 316.35938 24.33125Q316.03125 24.05 315.40625 24.05Q314.6875 24.05 314.375 24.3Q314.0625 24.534374 314.0625 24.8625Q314.0625 25.065624 314.1875 25.221874Q314.32812 25.39375 314.59375 25.503124Q314.75 25.565624 315.53125 25.76875Q316.65625 26.08125 317.09375 26.26875Q317.53125 26.45625 317.78125 26.815624Q318.03125 27.175 318.03125 27.721874Q318.03125 28.253124 317.71875 28.721874Q317.42188 29.175 316.84375 29.440624Q316.26562 29.690624 315.53125 29.690624Q314.3125 29.690624 313.67188 29.190624Q313.04688 28.675 312.875 27.690624Z" fill-rule="nonzero"/><path fill="#ea4335" d="M347.5 25.55C347.5 28.863708 344.81372 31.55 341.5 31.55C338.18628 31.55 335.5 28.863708 335.5 25.55C335.5 22.236292 338.18628 19.55 341.5 19.55C344.81372 19.55 347.5 22.236292 347.5 25.55Z" fill-rule="nonzero"/><path fill="#1a1a1a" d="M356.48438 29.55L356.48438 20.95625L362.28125 20.95625L362.28125 21.971874L357.625 21.971874L357.625 24.628124L361.65625 24.628124L361.65625 25.64375L357.625 25.64375L357.625 29.55L356.48438 29.55ZM363.29688 22.175L363.29688 20.95625L364.35938 20.95625L364.35938 22.175L363.29688 22.175ZM363.29688 29.55L363.29688 23.33125L364.35938 23.33125L364.35938 29.55L363.29688 29.55ZM366.28125 29.55L366.28125 23.33125L367.23438 23.33125L367.23438 24.26875Q367.59375 23.6125 367.89062 23.409374Q368.20312 23.190624 368.57812 23.190624Q369.10938 23.190624 369.65625 23.51875L369.29688 24.503124Q368.90625 24.26875 368.53125 24.26875Q368.17188 24.26875 367.89062 24.4875Q367.625 24.690624 367.51562 25.065624Q367.32812 25.628124 367.32812 26.284374L367.32812 29.55L366.28125 29.55ZM369.875 27.690624L370.90625 27.534374Q371.0 28.159374 371.39062 28.4875Q371.79688 28.815624 372.53125 28.815624Q373.25 28.815624 373.59375 28.534374Q373.95312 28.2375 373.95312 27.83125Q373.95312 27.471874 373.64062 27.26875Q373.42188 27.128124 372.5625 26.909374Q371.40625 26.6125 370.95312 26.409374Q370.51562 26.190624 370.28125 25.815624Q370.04688 25.440624 370.04688 24.971874Q370.04688 24.565624 370.23438 24.20625Q370.42188 23.846874 370.75 23.6125Q371.0 23.440624 371.42188 23.315624Q371.84375 23.190624 372.34375 23.190624Q373.0625 23.190624 373.60938 23.409374Q374.17188 23.6125 374.4375 23.971874Q374.70312 24.33125 374.79688 24.925L373.76562 25.065624Q373.70312 24.596874 373.35938 24.33125Q373.03125 24.05 372.40625 24.05Q371.6875 24.05 371.375 24.3Q371.0625 24.534374 371.0625 24.8625Q371.0625 25.065624 371.1875 25.221874Q371.32812 25.39375 371.59375 25.503124Q371.75 25.565624 372.53125 25.76875Q373.65625 26.08125 374.09375 26.26875Q374.53125 26.45625 374.78125 26.815624Q375.03125 27.175 375.03125 27.721874Q375.03125 28.253124 374.71875 28.721874Q374.42188 29.175 373.84375 29.440624Q373.26562 29.690624 372.53125 29.690624Q371.3125 29.690624 370.67188 29.190624Q370.04688 28.675 369.875 27.690624ZM379.59375 28.6125L379.75 29.534374Q379.29688 29.628124 378.95312 29.628124Q378.375 29.628124 378.0625 29.45625Q377.75 29.26875 377.60938 28.971874Q377.48438 28.675 377.48438 27.721874L377.48438 24.14375L376.71875 24.14375L376.71875 23.33125L377.48438 23.33125L377.48438 21.784374L378.53125 21.159374L378.53125 23.33125L379.59375 23.33125L379.59375 24.14375L378.53125 24.14375L378.53125 27.784374Q378.53125 28.2375 378.57812 28.3625Q378.64062 28.4875 378.76562 28.565624Q378.89062 28.64375 379.125 28.64375Q379.3125 28.64375 379.59375 28.6125ZM387.375 29.55L387.375 28.628124Q386.64062 29.690624 385.39062 29.690624Q384.84375 29.690624 384.35938 29.4875Q383.89062 29.26875 383.65625 28.95625Q383.42188 28.628124 383.32812 28.159374Q383.26562 27.8625 383.26562 27.175L383.26562 23.33125L384.32812 23.33125L384.32812 26.784374Q384.32812 27.596874 384.39062 27.89375Q384.48438 28.3 384.79688 28.55Q385.125 28.784374 385.60938 28.784374Q386.07812 28.784374 386.48438 28.55Q386.90625 28.3 387.07812 27.878124Q387.26562 27.45625 387.26562 26.659374L387.26562 23.33125L388.3125 23.33125L388.3125 29.55L387.375 29.55ZM389.875 27.690624L390.90625 27.534374Q391.0 28.159374 391.39062 28.4875Q391.79688 28.815624 392.53125 28.815624Q393.25 28.815624 393.59375 28.534374Q393.95312 28.2375 393.95312 27.83125Q393.95312 27.471874 393.64062 27.26875Q393.42188 27.128124 392.5625 26.909374Q391.40625 26.6125 390.95312 26.409374Q390.51562 26.190624 390.28125 25.815624Q390.04688 25.440624 390.04688 24.971874Q390.04688 24.565624 390.23438 24.20625Q390.42188 23.846874 390.75 23.6125Q391.0 23.440624 391.42188 23.315624Q391.84375 23.190624 392.34375 23.190624Q393.0625 23.190624 393.60938 23.409374Q394.17188 23.6125 394.4375 23.971874Q394.70312 24.33125 394.79688 24.925L393.76562 25.065624Q393.70312 24.596874 393.35938 24.33125Q393.03125 24.05 392.40625 24.05Q391.6875 24.05 391.375 24.3Q391.0625 24.534374 391.0625 24.8625Q391.0625 25.065624 391.1875 25.221874Q391.32812 25.39375 391.59375 25.503124Q391.75 25.565624 392.53125 25.76875Q393.65625 26.08125 394.09375 26.26875Q394.53125 26.45625 394.78125 26.815624Q395.03125 27.175 395.03125 27.721874Q395.03125 28.253124 394.71875 28.721874Q394.42188 29.175 393.84375 29.440624Q393.26562 29.690624 392.53125 29.690624Q391.3125 29.690624 390.67188 29.190624Q390.04688 28.675 389.875 27.690624ZM401.54688 27.55L402.64062 27.675Q402.39062 28.628124 401.6875 29.159374Q400.98438 29.690624 399.90625 29.690624Q398.54688 29.690624 397.73438 28.846874Q396.9375 28.003124 396.9375 26.4875Q396.9375 24.925 397.75 24.065624Q398.5625 23.190624 399.84375 23.190624Q401.09375 23.190624 401.875 24.034374Q402.67188 24.878124 402.67188 26.425Q402.67188 26.51875 402.67188 26.70625L398.03125 26.70625Q398.09375 27.7375 398.60938 28.284374Q399.125 28.815624 399.90625 28.815624Q400.48438 28.815624 400.89062 28.51875Q401.3125 28.20625 401.54688 27.55ZM398.09375 25.846874L401.5625 25.846874Q401.5 25.05 401.17188 24.659374Q400.65625 24.05 399.85938 24.05Q399.125 24.05 398.625 24.534374Q398.14062 25.01875 398.09375 25.846874ZM404.28125 29.55L404.28125 23.33125L405.23438 23.33125L405.23438 24.26875Q405.59375 23.6125 405.89062 23.409374Q406.20312 23.190624 406.57812 23.190624Q407.10938 23.190624 407.65625 23.51875L407.29688 24.503124Q406.90625 24.26875 406.53125 24.26875Q406.17188 24.26875 405.89062 24.4875Q405.625 24.690624 405.51562 25.065624Q405.32812 25.628124 405.32812 26.284374L405.32812 29.55L404.28125 29.55Z" fill-rule="nonzero"/></svg>