<?xml version="1.0" encoding="UTF-8" standalone="no"?>
<!DOCTYPE svg PUBLIC "-//W3C//DTD SVG 1.1//EN" "http://www.w3.org/Graphics/SVG/1.1/DTD/svg11.dtd">
<!-- Generated by graphviz version 2.40.1 (20161225.0304)
 -->
<!-- Title: %0 Pages: 1 -->
<svg width="1018pt" height="908pt" viewBox="0.00 0.00 1018.25 908.00" xmlns="http://www.w3.org/2000/svg" xmlns:xlink="http://www.w3.org/1999/xlink">
<g id="graph0" class="graph" transform="scale(1 1) rotate(0) translate(4 904)">
<title>%0</title>
<polygon fill="#ffffff" stroke="transparent" points="-4,4 -4,-904 1014.2522,-904 1014.2522,4 -4,4"/>
<!-- rift -->
<g id="node1" class="node">
<title>rift</title>
<polygon fill="none" stroke="#000000" points="131,-900 77,-900 77,-864 131,-864 131,-900"/>
<text text-anchor="middle" x="104" y="-877.8" font-family="Times,serif" font-size="14.00" fill="#000000">rift</text>
</g>
<!-- greater rift keystone -->
<g id="node2" class="node">
<title>greater rift keystone</title>
<ellipse fill="none" stroke="#000000" cx="429" cy="-810" rx="88.5812" ry="18"/>
<text text-anchor="middle" x="429" y="-805.8" font-family="Times,serif" font-size="14.00" fill="#000000">greater rift keystone</text>
</g>
<!-- rift&#45;&gt;greater rift keystone -->
<g id="edge1" class="edge">
<title>rift-&gt;greater rift keystone</title>
<path fill="none" stroke="#000000" d="M131.1503,-875.9852C180.8361,-864.9778 287.8277,-841.2751 359.1171,-825.4817"/>
<polygon fill="#000000" stroke="#000000" points="359.9235,-828.888 368.9298,-823.3079 358.4094,-822.0537 359.9235,-828.888"/>
</g>
<!-- gold -->
<g id="node3" class="node">
<title>gold</title>
<ellipse fill="none" stroke="#000000" cx="132" cy="-810" rx="28.4127" ry="18"/>
<text text-anchor="middle" x="132" y="-805.8" font-family="Times,serif" font-size="14.00" fill="#000000">gold</text>
</g>
<!-- rift&#45;&gt;gold -->
<g id="edge2" class="edge">
<title>rift-&gt;gold</title>
<path fill="none" stroke="#000000" d="M111.0656,-863.8314C114.1731,-855.8406 117.8904,-846.2819 121.3245,-837.4514"/>
<polygon fill="#000000" stroke="#000000" points="124.6712,-838.502 125.0337,-827.9134 118.1471,-835.9649 124.6712,-838.502"/>
</g>
<!-- legendary quality item -->
<g id="node4" class="node">
<title>legendary quality item</title>
<ellipse fill="none" stroke="#000000" cx="297" cy="-234" rx="97.8537" ry="18"/>
<text text-anchor="middle" x="297" y="-229.8" font-family="Times,serif" font-size="14.00" fill="#000000">legendary quality item</text>
</g>
<!-- rift&#45;&gt;legendary quality item -->
<g id="edge3" class="edge">
<title>rift-&gt;legendary quality item</title>
<path fill="none" stroke="#000000" d="M79.0894,-863.8707C48.3219,-839.171 0,-791.8129 0,-738 0,-738 0,-738 0,-378 0,-333.669 8.1777,-315.4344 43,-288 67.9074,-268.377 142.1342,-254.0146 203.9591,-245.0564"/>
<polygon fill="#000000" stroke="#000000" points="204.7488,-248.4796 214.1585,-243.6106 203.7662,-241.5488 204.7488,-248.4796"/>
</g>
<!-- death&#39;s breath -->
<g id="node5" class="node">
<title>death's breath</title>
<ellipse fill="none" stroke="#000000" cx="169" cy="-378" rx="65.428" ry="18"/>
<text text-anchor="middle" x="169" y="-373.8" font-family="Times,serif" font-size="14.00" fill="#000000">death's breath</text>
</g>
<!-- rift&#45;&gt;death&#39;s breath -->
<g id="edge4" class="edge">
<title>rift-&gt;death's breath</title>
<path fill="none" stroke="#000000" d="M98.0619,-863.5823C89.8428,-836.4106 76,-783.8428 76,-738 76,-738 76,-738 76,-666 76,-565.5504 127.8659,-454.5136 154.1317,-404.7231"/>
<polygon fill="#000000" stroke="#000000" points="157.2327,-406.3462 158.8703,-395.8786 151.0625,-403.0403 157.2327,-406.3462"/>
</g>
<!-- greater rift -->
<g id="node6" class="node">
<title>greater rift</title>
<polygon fill="none" stroke="#000000" points="535.9594,-756 460.0406,-756 460.0406,-720 535.9594,-720 535.9594,-756"/>
<text text-anchor="middle" x="498" y="-733.8" font-family="Times,serif" font-size="14.00" fill="#000000">greater rift</text>
</g>
<!-- greater rift keystone&#45;&gt;greater rift -->
<g id="edge5" class="edge">
<title>greater rift keystone-&gt;greater rift</title>
<path fill="none" stroke="#000000" d="M446.0562,-792.2022C454.3695,-783.5275 464.5166,-772.9391 473.6292,-763.4304"/>
<polygon fill="#000000" stroke="#000000" points="476.2686,-765.7347 480.6608,-756.0931 471.2147,-760.8913 476.2686,-765.7347"/>
</g>
<!-- empower -->
<g id="node10" class="node">
<title>empower</title>
<polygon fill="none" stroke="#000000" points="361.0871,-756 292.9129,-756 292.9129,-720 361.0871,-720 361.0871,-756"/>
<text text-anchor="middle" x="327" y="-733.8" font-family="Times,serif" font-size="14.00" fill="#000000">empower</text>
</g>
<!-- gold&#45;&gt;empower -->
<g id="edge9" class="edge">
<title>gold-&gt;empower</title>
<path fill="none" stroke="#000000" d="M156.6969,-800.8812C188.4413,-789.1601 244.1074,-768.6065 283.1323,-754.1973"/>
<polygon fill="#000000" stroke="#000000" points="284.5021,-757.4226 292.6707,-750.6754 282.0774,-750.8559 284.5021,-757.4226"/>
</g>
<!-- enchant (l) -->
<g id="node34" class="node">
<title>enchant (l)</title>
<polygon fill="none" stroke="#000000" points="128.2466,-324 51.7534,-324 51.7534,-288 128.2466,-288 128.2466,-324"/>
<text text-anchor="middle" x="90" y="-301.8" font-family="Times,serif" font-size="14.00" fill="#000000">enchant (l)</text>
</g>
<!-- gold&#45;&gt;enchant (l) -->
<g id="edge51" class="edge">
<title>gold-&gt;enchant (l)</title>
<path fill="none" stroke="#000000" d="M122.118,-792.782C97.9839,-749.0559 38,-629.5585 38,-522 38,-522 38,-522 38,-450 38,-407.2538 58.5213,-361.3861 73.7808,-333.1881"/>
<polygon fill="#000000" stroke="#000000" points="76.9051,-334.7715 78.7168,-324.3327 70.7908,-331.3634 76.9051,-334.7715"/>
</g>
<!-- extract legendary power -->
<g id="node16" class="node">
<title>extract legendary power</title>
<polygon fill="none" stroke="#000000" points="858.7626,-180 707.2374,-180 707.2374,-144 858.7626,-144 858.7626,-180"/>
<text text-anchor="middle" x="783" y="-157.8" font-family="Times,serif" font-size="14.00" fill="#000000">extract legendary power</text>
</g>
<!-- legendary quality item&#45;&gt;extract legendary power -->
<g id="edge17" class="edge">
<title>legendary quality item-&gt;extract legendary power</title>
<path fill="none" stroke="#000000" d="M369.8452,-221.9326C382.8721,-219.8774 396.3291,-217.8208 409,-216 534.9387,-197.903 567.4283,-200.4892 693,-180 694.2827,-179.7907 695.575,-179.5765 696.875,-179.3578"/>
<polygon fill="#000000" stroke="#000000" points="697.7084,-182.7655 706.9609,-177.6041 696.5091,-175.869 697.7084,-182.7655"/>
</g>
<!-- salvage (l) -->
<g id="node28" class="node">
<title>salvage (l)</title>
<polygon fill="none" stroke="#000000" points="335.1914,-180 260.8086,-180 260.8086,-144 335.1914,-144 335.1914,-180"/>
<text text-anchor="middle" x="298" y="-157.8" font-family="Times,serif" font-size="14.00" fill="#000000">salvage (l)</text>
</g>
<!-- legendary quality item&#45;&gt;salvage (l) -->
<g id="edge39" class="edge">
<title>legendary quality item-&gt;salvage (l)</title>
<path fill="none" stroke="#000000" d="M297.2523,-215.8314C297.3593,-208.131 297.4865,-198.9743 297.6053,-190.4166"/>
<polygon fill="#000000" stroke="#000000" points="301.1049,-190.4609 297.7443,-180.4133 294.1056,-190.3637 301.1049,-190.4609"/>
</g>
<!-- equipment -->
<g id="node35" class="node">
<title>equipment</title>
<polygon fill="none" stroke="#000000" points="950.6011,-36 875.3989,-36 875.3989,0 950.6011,0 950.6011,-36"/>
<text text-anchor="middle" x="913" y="-13.8" font-family="Times,serif" font-size="14.00" fill="#000000">equipment</text>
</g>
<!-- legendary quality item&#45;&gt;equipment -->
<g id="edge54" class="edge">
<title>legendary quality item-&gt;equipment</title>
<path fill="none" stroke="#000000" d="M340.9271,-217.9029C421.7046,-188.3887 599.3622,-123.8795 750,-72 788.8267,-58.6281 833.0636,-44.0117 865.6467,-33.3618"/>
<polygon fill="#000000" stroke="#000000" points="866.9452,-36.6198 875.3657,-30.1897 864.7732,-29.9652 866.9452,-36.6198"/>
</g>
<!-- death&#39;s breath&#45;&gt;extract legendary power -->
<g id="edge19" class="edge">
<title>death's breath-&gt;extract legendary power</title>
<path fill="none" stroke="#000000" d="M185.9351,-360.3846C206.5331,-339.9793 243.2524,-306.7686 281,-288 299.8331,-278.6359 559.7075,-215.5551 697.9186,-182.352"/>
<polygon fill="#000000" stroke="#000000" points="698.7482,-185.7524 707.6545,-180.0141 697.1137,-178.9458 698.7482,-185.7524"/>
</g>
<!-- upgrade rare item -->
<g id="node18" class="node">
<title>upgrade rare item</title>
<polygon fill="none" stroke="#000000" points="404.2269,-324 289.7731,-324 289.7731,-288 404.2269,-288 404.2269,-324"/>
<text text-anchor="middle" x="347" y="-301.8" font-family="Times,serif" font-size="14.00" fill="#000000">upgrade rare item</text>
</g>
<!-- death&#39;s breath&#45;&gt;upgrade rare item -->
<g id="edge22" class="edge">
<title>death's breath-&gt;upgrade rare item</title>
<path fill="none" stroke="#000000" d="M205.8817,-363.0816C231.041,-352.9047 264.7799,-339.2576 292.9594,-327.8591"/>
<polygon fill="#000000" stroke="#000000" points="294.3245,-331.0825 302.2823,-324.088 291.6996,-324.5933 294.3245,-331.0825"/>
</g>
<!-- convert set item -->
<g id="node20" class="node">
<title>convert set item</title>
<polygon fill="none" stroke="#000000" points="259.9174,-36 154.0826,-36 154.0826,0 259.9174,0 259.9174,-36"/>
<text text-anchor="middle" x="207" y="-13.8" font-family="Times,serif" font-size="14.00" fill="#000000">convert set item</text>
</g>
<!-- death&#39;s breath&#45;&gt;convert set item -->
<g id="edge25" class="edge">
<title>death's breath-&gt;convert set item</title>
<path fill="none" stroke="#000000" d="M169,-359.8146C169,-332.4983 169,-279.25 169,-234 169,-234 169,-234 169,-162 169,-120.3681 184.0328,-74.14 195.1881,-45.567"/>
<polygon fill="#000000" stroke="#000000" points="198.4578,-46.817 198.9412,-36.2332 191.9632,-44.2055 198.4578,-46.817"/>
</g>
<!-- death&#39;s breath&#45;&gt;enchant (l) -->
<g id="edge50" class="edge">
<title>death's breath-&gt;enchant (l)</title>
<path fill="none" stroke="#000000" d="M149.8763,-360.5708C140.1019,-351.6625 128.0353,-340.6651 117.3013,-330.8822"/>
<polygon fill="#000000" stroke="#000000" points="119.5212,-328.1698 109.7726,-324.0206 114.8059,-333.3435 119.5212,-328.1698"/>
</g>
<!-- blood shard -->
<g id="node7" class="node">
<title>blood shard</title>
<ellipse fill="none" stroke="#000000" cx="239" cy="-666" rx="56.225" ry="18"/>
<text text-anchor="middle" x="239" y="-661.8" font-family="Times,serif" font-size="14.00" fill="#000000">blood shard</text>
</g>
<!-- greater rift&#45;&gt;blood shard -->
<g id="edge6" class="edge">
<title>greater rift-&gt;blood shard</title>
<path fill="none" stroke="#000000" d="M460.0618,-727.4535C415.5385,-715.0764 341.4519,-694.4808 291.4491,-680.5805"/>
<polygon fill="#000000" stroke="#000000" points="292.3577,-677.2004 281.7856,-677.8941 290.4828,-683.9446 292.3577,-677.2004"/>
</g>
<!-- legendary gem -->
<g id="node8" class="node">
<title>legendary gem</title>
<ellipse fill="none" stroke="#000000" cx="835" cy="-522" rx="68.3015" ry="18"/>
<text text-anchor="middle" x="835" y="-517.8" font-family="Times,serif" font-size="14.00" fill="#000000">legendary gem</text>
</g>
<!-- greater rift&#45;&gt;legendary gem -->
<g id="edge7" class="edge">
<title>greater rift-&gt;legendary gem</title>
<path fill="none" stroke="#000000" d="M535.8804,-729.6213C616.5591,-710.9221 800.8693,-663.3701 836,-612 848.2802,-594.0432 846.9081,-569.0002 843.1009,-549.8888"/>
<polygon fill="#000000" stroke="#000000" points="846.469,-548.9189 840.8064,-539.9642 839.6489,-550.4957 846.469,-548.9189"/>
</g>
<!-- upgrade attempt -->
<g id="node9" class="node">
<title>upgrade attempt</title>
<ellipse fill="none" stroke="#000000" cx="568" cy="-666" rx="73.5358" ry="18"/>
<text text-anchor="middle" x="568" y="-661.8" font-family="Times,serif" font-size="14.00" fill="#000000">upgrade attempt</text>
</g>
<!-- greater rift&#45;&gt;upgrade attempt -->
<g id="edge8" class="edge">
<title>greater rift-&gt;upgrade attempt</title>
<path fill="none" stroke="#000000" d="M515.664,-719.8314C524.101,-711.1533 534.3361,-700.6257 543.5095,-691.1902"/>
<polygon fill="#000000" stroke="#000000" points="546.1229,-693.5232 550.5842,-683.9134 541.1039,-688.6436 546.1229,-693.5232"/>
</g>
<!-- gamble -->
<g id="node12" class="node">
<title>gamble</title>
<polygon fill="none" stroke="#000000" points="290.7108,-612 233.2892,-612 233.2892,-576 290.7108,-576 290.7108,-612"/>
<text text-anchor="middle" x="262" y="-589.8" font-family="Times,serif" font-size="14.00" fill="#000000">gamble</text>
</g>
<!-- blood shard&#45;&gt;gamble -->
<g id="edge13" class="edge">
<title>blood shard-&gt;gamble</title>
<path fill="none" stroke="#000000" d="M244.8039,-647.8314C247.2908,-640.0463 250.2531,-630.7729 253.0125,-622.1347"/>
<polygon fill="#000000" stroke="#000000" points="256.409,-623.0041 256.118,-612.4133 249.7409,-620.874 256.409,-623.0041"/>
</g>
<!-- augment ancient or primal ancient item -->
<g id="node26" class="node">
<title>augment ancient or primal ancient item</title>
<polygon fill="none" stroke="#000000" points="871.6547,-468 636.3453,-468 636.3453,-432 871.6547,-432 871.6547,-468"/>
<text text-anchor="middle" x="754" y="-445.8" font-family="Times,serif" font-size="14.00" fill="#000000">augment ancient or primal ancient item</text>
</g>
<!-- legendary gem&#45;&gt;augment ancient or primal ancient item -->
<g id="edge34" class="edge">
<title>legendary gem-&gt;augment ancient or primal ancient item</title>
<path fill="none" stroke="#000000" d="M815.3922,-504.5708C805.3703,-495.6625 792.9982,-484.6651 781.9924,-474.8822"/>
<polygon fill="#000000" stroke="#000000" points="784.0726,-472.0483 774.2732,-468.0206 779.422,-477.2802 784.0726,-472.0483"/>
</g>
<!-- legendary gem&#45;&gt;equipment -->
<g id="edge57" class="edge">
<title>legendary gem-&gt;equipment</title>
<path fill="none" stroke="#000000" d="M896.1428,-513.8214C927.0445,-506.6467 962.8088,-493.1966 986,-468 1014.0354,-437.5403 1010,-419.3978 1010,-378 1010,-378 1010,-378 1010,-162 1010,-120.6022 1009.281,-106.2312 986,-72 978.0101,-60.252 966.5983,-50.0831 955.1642,-41.8374"/>
<polygon fill="#000000" stroke="#000000" points="957.1141,-38.9307 946.8831,-36.1781 953.1645,-44.7101 957.1141,-38.9307"/>
</g>
<!-- upgrade legendary gem -->
<g id="node11" class="node">
<title>upgrade legendary gem</title>
<polygon fill="none" stroke="#000000" points="826.8905,-612 679.1095,-612 679.1095,-576 826.8905,-576 826.8905,-612"/>
<text text-anchor="middle" x="753" y="-589.8" font-family="Times,serif" font-size="14.00" fill="#000000">upgrade legendary gem</text>
</g>
<!-- upgrade attempt&#45;&gt;upgrade legendary gem -->
<g id="edge11" class="edge">
<title>upgrade attempt-&gt;upgrade legendary gem</title>
<path fill="none" stroke="#000000" d="M607.2337,-650.7307C633.3439,-640.5689 668.0435,-627.0642 697.0369,-615.7802"/>
<polygon fill="#000000" stroke="#000000" points="698.5804,-618.9353 706.63,-612.0467 696.0415,-612.412 698.5804,-618.9353"/>
</g>
<!-- empower&#45;&gt;upgrade attempt -->
<g id="edge10" class="edge">
<title>empower-&gt;upgrade attempt</title>
<path fill="none" stroke="#000000" d="M361.2735,-727.7606C400.3395,-716.0894 464.7971,-696.8324 511.3618,-682.921"/>
<polygon fill="#000000" stroke="#000000" points="512.4314,-686.2543 521.011,-680.0382 510.4276,-679.5473 512.4314,-686.2543"/>
</g>
<!-- upgrade legendary gem&#45;&gt;legendary gem -->
<g id="edge12" class="edge">
<title>upgrade legendary gem-&gt;legendary gem</title>
<path fill="none" stroke="#ff0000" d="M781.4882,-568.9859C789.9065,-561.5943 799.1031,-553.5192 807.4604,-546.1811"/>
<polygon fill="#ff0000" stroke="#ff0000" points="778.8972,-566.6033 773.6921,-575.8314 783.5158,-571.8634 778.8972,-566.6033"/>
<polygon fill="#ff0000" stroke="#ff0000" points="809.9581,-548.6458 815.1632,-539.4177 805.3394,-543.3857 809.9581,-548.6458"/>
</g>
<!-- gamble&#45;&gt;legendary quality item -->
<g id="edge15" class="edge">
<title>gamble-&gt;legendary quality item</title>
<path fill="none" stroke="#000000" d="M262,-575.8146C262,-548.4983 262,-495.25 262,-450 262,-450 262,-450 262,-378 262,-336.755 275.7253,-290.697 285.9858,-262.0283"/>
<polygon fill="#000000" stroke="#000000" points="289.3994,-262.8874 289.5774,-252.2941 282.8322,-260.4643 289.3994,-262.8874"/>
</g>
<!-- lower quality item -->
<g id="node13" class="node">
<title>lower quality item</title>
<ellipse fill="none" stroke="#000000" cx="372" cy="-522" rx="81.6789" ry="18"/>
<text text-anchor="middle" x="372" y="-517.8" font-family="Times,serif" font-size="14.00" fill="#000000">lower quality item</text>
</g>
<!-- gamble&#45;&gt;lower quality item -->
<g id="edge14" class="edge">
<title>gamble-&gt;lower quality item</title>
<path fill="none" stroke="#000000" d="M289.7576,-575.8314C304.1227,-566.4288 321.8047,-554.8551 337.0878,-544.8516"/>
<polygon fill="#000000" stroke="#000000" points="339.3156,-547.5766 345.7658,-539.1715 335.482,-541.7196 339.3156,-547.5766"/>
</g>
<!-- lower quality item&#45;&gt;upgrade rare item -->
<g id="edge21" class="edge">
<title>lower quality item-&gt;upgrade rare item</title>
<path fill="none" stroke="#000000" d="M350.5331,-504.6229C340.4121,-495.0263 329.3938,-482.1867 324,-468 306.9417,-423.1334 314.4014,-407.0305 324,-360 325.8161,-351.1016 329.1554,-341.8541 332.7371,-333.5789"/>
<polygon fill="#000000" stroke="#000000" points="335.9651,-334.937 336.9765,-324.3906 329.6089,-332.0044 335.9651,-334.937"/>
</g>
<!-- convert crafting materials -->
<g id="node24" class="node">
<title>convert crafting materials</title>
<polygon fill="none" stroke="#000000" points="525.8235,-468 366.1765,-468 366.1765,-432 525.8235,-432 525.8235,-468"/>
<text text-anchor="middle" x="446" y="-445.8" font-family="Times,serif" font-size="14.00" fill="#000000">convert crafting materials</text>
</g>
<!-- lower quality item&#45;&gt;convert crafting materials -->
<g id="edge29" class="edge">
<title>lower quality item-&gt;convert crafting materials</title>
<path fill="none" stroke="#000000" d="M390.2921,-504.2022C399.2962,-495.4416 410.306,-484.7293 420.1532,-475.1482"/>
<polygon fill="#000000" stroke="#000000" points="422.6778,-477.5752 427.4043,-468.0931 417.7963,-472.5581 422.6778,-477.5752"/>
</g>
<!-- salvage (j) -->
<g id="node27" class="node">
<title>salvage (j)</title>
<polygon fill="none" stroke="#000000" points="618.1914,-468 543.8086,-468 543.8086,-432 618.1914,-432 618.1914,-468"/>
<text text-anchor="middle" x="581" y="-445.8" font-family="Times,serif" font-size="14.00" fill="#000000">salvage (j)</text>
</g>
<!-- lower quality item&#45;&gt;salvage (j) -->
<g id="edge37" class="edge">
<title>lower quality item-&gt;salvage (j)</title>
<path fill="none" stroke="#000000" d="M418.9503,-507.1754C449.4699,-497.3727 490.3036,-483.948 534.237,-468.1993"/>
<polygon fill="#000000" stroke="#000000" points="535.4358,-471.4877 543.6563,-464.804 533.062,-464.9025 535.4358,-471.4877"/>
</g>
<!-- bounty -->
<g id="node14" class="node">
<title>bounty</title>
<polygon fill="none" stroke="#000000" points="944.3907,-468 889.6093,-468 889.6093,-432 944.3907,-432 944.3907,-468"/>
<text text-anchor="middle" x="917" y="-445.8" font-family="Times,serif" font-size="14.00" fill="#000000">bounty</text>
</g>
<!-- bounty material -->
<g id="node15" class="node">
<title>bounty material</title>
<ellipse fill="none" stroke="#000000" cx="868" cy="-378" rx="71.8298" ry="18"/>
<text text-anchor="middle" x="868" y="-373.8" font-family="Times,serif" font-size="14.00" fill="#000000">bounty material</text>
</g>
<!-- bounty&#45;&gt;bounty material -->
<g id="edge16" class="edge">
<title>bounty-&gt;bounty material</title>
<path fill="none" stroke="#000000" d="M904.6352,-431.8314C898.9632,-423.497 892.1302,-413.4567 885.9096,-404.3162"/>
<polygon fill="#000000" stroke="#000000" points="888.7109,-402.2114 880.1911,-395.9134 882.9239,-406.1498 888.7109,-402.2114"/>
</g>
<!-- bounty material&#45;&gt;extract legendary power -->
<g id="edge18" class="edge">
<title>bounty material-&gt;extract legendary power</title>
<path fill="none" stroke="#000000" d="M860.8991,-359.9555C846.0242,-322.1556 811.5106,-234.4506 793.844,-189.5564"/>
<polygon fill="#000000" stroke="#000000" points="797.0592,-188.1688 790.1404,-180.1451 790.5454,-190.7322 797.0592,-188.1688"/>
</g>
<!-- reforge legendary quality item -->
<g id="node25" class="node">
<title>reforge legendary quality item</title>
<polygon fill="none" stroke="#000000" points="485.8788,-36 300.1212,-36 300.1212,0 485.8788,0 485.8788,-36"/>
<text text-anchor="middle" x="393" y="-13.8" font-family="Times,serif" font-size="14.00" fill="#000000">reforge legendary quality item</text>
</g>
<!-- bounty material&#45;&gt;reforge legendary quality item -->
<g id="edge31" class="edge">
<title>bounty material-&gt;reforge legendary quality item</title>
<path fill="none" stroke="#000000" d="M874.6793,-359.8393C889.1098,-317.1325 918.0381,-209.0419 868,-144 861.9018,-136.0732 609.776,-72.1291 475.3963,-38.5038"/>
<polygon fill="#000000" stroke="#000000" points="476.0851,-35.0683 465.5347,-36.0377 474.3868,-41.8592 476.0851,-35.0683"/>
</g>
<!-- craft legendary quality item -->
<g id="node30" class="node">
<title>craft legendary quality item</title>
<polygon fill="none" stroke="#000000" points="820.6088,-324 649.3912,-324 649.3912,-288 820.6088,-288 820.6088,-324"/>
<text text-anchor="middle" x="735" y="-301.8" font-family="Times,serif" font-size="14.00" fill="#000000">craft legendary quality item</text>
</g>
<!-- bounty material&#45;&gt;craft legendary quality item -->
<g id="edge44" class="edge">
<title>bounty material-&gt;craft legendary quality item</title>
<path fill="none" stroke="#000000" d="M837.4871,-361.4817C819.7438,-351.8763 797.1091,-339.623 777.6266,-329.0761"/>
<polygon fill="#000000" stroke="#000000" points="779.0997,-325.8936 768.6394,-324.2108 775.7672,-332.0495 779.0997,-325.8936"/>
</g>
<!-- legendary power -->
<g id="node17" class="node">
<title>legendary power</title>
<ellipse fill="none" stroke="#000000" cx="835" cy="-90" rx="75.8064" ry="18"/>
<text text-anchor="middle" x="835" y="-85.8" font-family="Times,serif" font-size="14.00" fill="#000000">legendary power</text>
</g>
<!-- extract legendary power&#45;&gt;legendary power -->
<g id="edge20" class="edge">
<title>extract legendary power-&gt;legendary power</title>
<path fill="none" stroke="#000000" d="M796.1218,-143.8314C802.2031,-135.411 809.542,-125.2495 816.1978,-116.0338"/>
<polygon fill="#000000" stroke="#000000" points="819.045,-118.0695 822.0625,-107.9134 813.3702,-113.971 819.045,-118.0695"/>
</g>
<!-- legendary power&#45;&gt;equipment -->
<g id="edge56" class="edge">
<title>legendary power-&gt;equipment</title>
<path fill="none" stroke="#000000" d="M854.2809,-72.2022C863.7716,-63.4416 875.3766,-52.7293 885.7561,-43.1482"/>
<polygon fill="#000000" stroke="#000000" points="888.4251,-45.4478 893.3991,-36.0931 883.6771,-40.3041 888.4251,-45.4478"/>
</g>
<!-- upgrade rare item&#45;&gt;legendary quality item -->
<g id="edge24" class="edge">
<title>upgrade rare item-&gt;legendary quality item</title>
<path fill="none" stroke="#000000" d="M334.3829,-287.8314C328.5951,-279.497 321.6227,-269.4567 315.2751,-260.3162"/>
<polygon fill="#000000" stroke="#000000" points="318.0187,-258.1307 309.4399,-251.9134 312.2691,-262.1235 318.0187,-258.1307"/>
</g>
<!-- lower quality crafting material -->
<g id="node19" class="node">
<title>lower quality crafting material</title>
<ellipse fill="none" stroke="#000000" cx="495" cy="-378" rx="128.5059" ry="18"/>
<text text-anchor="middle" x="495" y="-373.8" font-family="Times,serif" font-size="14.00" fill="#000000">lower quality crafting material</text>
</g>
<!-- lower quality crafting material&#45;&gt;upgrade rare item -->
<g id="edge23" class="edge">
<title>lower quality crafting material-&gt;upgrade rare item</title>
<path fill="none" stroke="#000000" d="M459.1733,-360.5708C439.3507,-350.9274 414.4956,-338.8357 393.223,-328.4869"/>
<polygon fill="#000000" stroke="#000000" points="394.5658,-325.248 384.0423,-324.0206 391.5035,-331.5426 394.5658,-325.248"/>
</g>
<!-- craft lower quality item -->
<g id="node29" class="node">
<title>craft lower quality item</title>
<polygon fill="none" stroke="#000000" points="569.7864,-324 422.2136,-324 422.2136,-288 569.7864,-288 569.7864,-324"/>
<text text-anchor="middle" x="496" y="-301.8" font-family="Times,serif" font-size="14.00" fill="#000000">craft lower quality item</text>
</g>
<!-- lower quality crafting material&#45;&gt;craft lower quality item -->
<g id="edge41" class="edge">
<title>lower quality crafting material-&gt;craft lower quality item</title>
<path fill="none" stroke="#000000" d="M495.2523,-359.8314C495.3593,-352.131 495.4865,-342.9743 495.6053,-334.4166"/>
<polygon fill="#000000" stroke="#000000" points="499.1049,-334.4609 495.7443,-324.4133 492.1056,-334.3637 499.1049,-334.4609"/>
</g>
<!-- lower quality crafting material&#45;&gt;craft legendary quality item -->
<g id="edge43" class="edge">
<title>lower quality crafting material-&gt;craft legendary quality item</title>
<path fill="none" stroke="#000000" d="M549.4597,-361.6621C583.7378,-351.3787 628.3081,-338.0076 665.1733,-326.948"/>
<polygon fill="#000000" stroke="#000000" points="666.2863,-330.2683 674.8589,-324.0423 664.2749,-323.5635 666.2863,-330.2683"/>
</g>
<!-- convert set item&#45;&gt;legendary quality item -->
<g id="edge27" class="edge">
<title>convert set item-&gt;legendary quality item</title>
<path fill="none" stroke="#ff0000" d="M210.4986,-46.2029C215.621,-79.8808 227.3681,-137.0431 252,-180 257.7631,-190.0506 265.4406,-200.0733 272.8199,-208.7065"/>
<polygon fill="#ff0000" stroke="#ff0000" points="213.9403,-45.5455 209.0603,-36.1415 207.0107,-46.5362 213.9403,-45.5455"/>
<polygon fill="#ff0000" stroke="#ff0000" points="270.2038,-211.0316 279.4495,-216.2053 275.4481,-206.3951 270.2038,-211.0316"/>
</g>
<!-- forgotten soul -->
<g id="node21" class="node">
<title>forgotten soul</title>
<ellipse fill="none" stroke="#000000" cx="300" cy="-90" rx="64.889" ry="18"/>
<text text-anchor="middle" x="300" y="-85.8" font-family="Times,serif" font-size="14.00" fill="#000000">forgotten soul</text>
</g>
<!-- forgotten soul&#45;&gt;convert set item -->
<g id="edge26" class="edge">
<title>forgotten soul-&gt;convert set item</title>
<path fill="none" stroke="#000000" d="M277.9603,-72.937C266.2398,-63.8631 251.621,-52.5453 238.703,-42.5443"/>
<polygon fill="#000000" stroke="#000000" points="240.5571,-39.5534 230.5073,-36.1992 236.2719,-45.0885 240.5571,-39.5534"/>
</g>
<!-- forgotten soul&#45;&gt;reforge legendary quality item -->
<g id="edge32" class="edge">
<title>forgotten soul-&gt;reforge legendary quality item</title>
<path fill="none" stroke="#000000" d="M322.0397,-72.937C333.7602,-63.8631 348.379,-52.5453 361.297,-42.5443"/>
<polygon fill="#000000" stroke="#000000" points="363.7281,-45.0885 369.4927,-36.1992 359.4429,-39.5534 363.7281,-45.0885"/>
</g>
<!-- convert gems (fr) -->
<g id="node22" class="node">
<title>convert gems (fr)</title>
<polygon fill="none" stroke="#000000" points="661.6727,-612 548.3273,-612 548.3273,-576 661.6727,-576 661.6727,-612"/>
<text text-anchor="middle" x="605" y="-589.8" font-family="Times,serif" font-size="14.00" fill="#000000">convert gems (fr)</text>
</g>
<!-- flawless royal gem -->
<g id="node23" class="node">
<title>flawless royal gem</title>
<ellipse fill="none" stroke="#000000" cx="625" cy="-522" rx="83.945" ry="18"/>
<text text-anchor="middle" x="625" y="-517.8" font-family="Times,serif" font-size="14.00" fill="#000000">flawless royal gem</text>
</g>
<!-- convert gems (fr)&#45;&gt;flawless royal gem -->
<g id="edge28" class="edge">
<title>convert gems (fr)-&gt;flawless royal gem</title>
<path fill="none" stroke="#ff0000" d="M612.74,-566.136C614.1999,-560.8803 615.7276,-555.3805 617.1897,-550.1171"/>
<polygon fill="#ff0000" stroke="#ff0000" points="609.351,-565.2594 610.0468,-575.8314 616.0957,-567.133 609.351,-565.2594"/>
<polygon fill="#ff0000" stroke="#ff0000" points="620.581,-550.9852 619.8852,-540.4133 613.8364,-549.1117 620.581,-550.9852"/>
</g>
<!-- flawless royal gem&#45;&gt;augment ancient or primal ancient item -->
<g id="edge35" class="edge">
<title>flawless royal gem-&gt;augment ancient or primal ancient item</title>
<path fill="none" stroke="#000000" d="M655.2448,-505.1192C672.3961,-495.5464 694.0998,-483.4327 712.7899,-473.001"/>
<polygon fill="#000000" stroke="#000000" points="714.6635,-475.9635 721.6897,-468.0336 711.2519,-469.8512 714.6635,-475.9635"/>
</g>
<!-- flawless royal gem&#45;&gt;equipment -->
<g id="edge55" class="edge">
<title>flawless royal gem-&gt;equipment</title>
<path fill="none" stroke="#000000" d="M695.9989,-512.3775C789.6389,-499.3871 943.7449,-476.8488 953,-468 982.5491,-439.7483 972,-418.8816 972,-378 972,-378 972,-378 972,-162 972,-118.5511 948.7162,-72.8635 931.4026,-44.8967"/>
<polygon fill="#000000" stroke="#000000" points="934.132,-42.6675 925.8021,-36.1204 928.2311,-46.4331 934.132,-42.6675"/>
</g>
<!-- convert crafting materials&#45;&gt;lower quality crafting material -->
<g id="edge30" class="edge">
<title>convert crafting materials-&gt;lower quality crafting material</title>
<path fill="none" stroke="#ff0000" d="M464.0102,-423.536C468.1307,-417.4814 472.5151,-411.039 476.6497,-404.9637"/>
<polygon fill="#ff0000" stroke="#ff0000" points="461.0976,-421.595 458.3648,-431.8314 466.8846,-425.5334 461.0976,-421.595"/>
<polygon fill="#ff0000" stroke="#ff0000" points="479.736,-406.6496 482.4687,-396.4133 473.949,-402.7112 479.736,-406.6496"/>
</g>
<!-- reforge legendary quality item&#45;&gt;legendary quality item -->
<g id="edge33" class="edge">
<title>reforge legendary quality item-&gt;legendary quality item</title>
<path fill="none" stroke="#ff0000" d="M389.008,-46.4097C383.2522,-80.2895 370.2871,-137.6488 344,-180 337.7774,-190.0253 329.7062,-200.0414 322.0133,-208.6764"/>
<polygon fill="#ff0000" stroke="#ff0000" points="392.5042,-46.7115 390.6312,-36.2836 385.5925,-45.6035 392.5042,-46.7115"/>
<polygon fill="#ff0000" stroke="#ff0000" points="319.3081,-206.4475 315.1186,-216.1789 324.4623,-211.1841 319.3081,-206.4475"/>
</g>
<!-- augment ancient or primal ancient item&#45;&gt;legendary quality item -->
<g id="edge36" class="edge">
<title>augment ancient or primal ancient item-&gt;legendary quality item</title>
<path fill="none" stroke="#ff0000" d="M733.817,-423.7229C704.131,-387.0757 645.0194,-321.3713 579,-288 546.0324,-271.3356 456.7166,-255.8671 387.3483,-245.7953"/>
<polygon fill="#ff0000" stroke="#ff0000" points="731.4047,-426.3114 740.3777,-431.9449 736.8763,-421.9453 731.4047,-426.3114"/>
<polygon fill="#ff0000" stroke="#ff0000" points="387.6631,-242.3047 377.2674,-244.349 386.6689,-249.2338 387.6631,-242.3047"/>
</g>
<!-- salvage (j)&#45;&gt;lower quality crafting material -->
<g id="edge38" class="edge">
<title>salvage (j)-&gt;lower quality crafting material</title>
<path fill="none" stroke="#000000" d="M559.2986,-431.8314C548.6252,-422.8955 535.6096,-411.9987 524.0876,-402.3524"/>
<polygon fill="#000000" stroke="#000000" points="526.311,-399.6492 516.3966,-395.9134 521.8174,-405.0165 526.311,-399.6492"/>
</g>
<!-- salvage (l)&#45;&gt;forgotten soul -->
<g id="edge40" class="edge">
<title>salvage (l)-&gt;forgotten soul</title>
<path fill="none" stroke="#000000" d="M298.5047,-143.8314C298.7186,-136.131 298.9729,-126.9743 299.2106,-118.4166"/>
<polygon fill="#000000" stroke="#000000" points="302.7094,-118.5066 299.4885,-108.4133 295.7121,-118.3122 302.7094,-118.5066"/>
</g>
<!-- craft lower quality item&#45;&gt;lower quality item -->
<g id="edge42" class="edge">
<title>craft lower quality item-&gt;lower quality item</title>
<path fill="none" stroke="#000000" d="M429.3293,-324.0629C398.1678,-333.9867 365.9552,-346.9138 357,-360 329.4152,-400.3096 345.9425,-460.0825 359.573,-494.6299"/>
<polygon fill="#000000" stroke="#000000" points="356.4248,-496.1758 363.4796,-504.0802 362.8938,-493.5016 356.4248,-496.1758"/>
</g>
<!-- craft legendary quality item&#45;&gt;legendary quality item -->
<g id="edge45" class="edge">
<title>craft legendary quality item-&gt;legendary quality item</title>
<path fill="none" stroke="#000000" d="M649.3744,-290.4732C644.513,-289.6272 639.6956,-288.7976 635,-288 549.1837,-273.4228 450.9123,-257.8478 382.5355,-247.1895"/>
<polygon fill="#000000" stroke="#000000" points="382.6667,-243.6678 372.2472,-245.5877 381.5898,-250.5845 382.6667,-243.6678"/>
</g>
<!-- combine gems -->
<g id="node31" class="node">
<title>combine gems</title>
<polygon fill="none" stroke="#000000" points="530.7605,-612 433.2395,-612 433.2395,-576 530.7605,-576 530.7605,-612"/>
<text text-anchor="middle" x="482" y="-589.8" font-family="Times,serif" font-size="14.00" fill="#000000">combine gems</text>
</g>
<!-- combine gems&#45;&gt;flawless royal gem -->
<g id="edge47" class="edge">
<title>combine gems-&gt;flawless royal gem</title>
<path fill="none" stroke="#000000" d="M518.0849,-575.8314C537.7446,-565.9328 562.1833,-553.628 582.7312,-543.2822"/>
<polygon fill="#000000" stroke="#000000" points="584.5095,-546.3055 591.8672,-538.6822 581.3615,-540.0533 584.5095,-546.3055"/>
</g>
<!-- lower quality gem -->
<g id="node32" class="node">
<title>lower quality gem</title>
<ellipse fill="none" stroke="#000000" cx="395" cy="-666" rx="81.1014" ry="18"/>
<text text-anchor="middle" x="395" y="-661.8" font-family="Times,serif" font-size="14.00" fill="#000000">lower quality gem</text>
</g>
<!-- lower quality gem&#45;&gt;combine gems -->
<g id="edge46" class="edge">
<title>lower quality gem-&gt;combine gems</title>
<path fill="none" stroke="#000000" d="M416.0603,-648.5708C426.929,-639.576 440.3713,-628.4513 452.2779,-618.5976"/>
<polygon fill="#000000" stroke="#000000" points="454.7527,-621.0927 460.2251,-612.0206 450.2897,-615.6999 454.7527,-621.0927"/>
</g>
<!-- craft jewelry -->
<g id="node33" class="node">
<title>craft jewelry</title>
<polygon fill="none" stroke="#000000" points="415.6187,-612 328.3813,-612 328.3813,-576 415.6187,-576 415.6187,-612"/>
<text text-anchor="middle" x="372" y="-589.8" font-family="Times,serif" font-size="14.00" fill="#000000">craft jewelry</text>
</g>
<!-- lower quality gem&#45;&gt;craft jewelry -->
<g id="edge48" class="edge">
<title>lower quality gem-&gt;craft jewelry</title>
<path fill="none" stroke="#000000" d="M389.1961,-647.8314C386.7092,-640.0463 383.7469,-630.7729 380.9875,-622.1347"/>
<polygon fill="#000000" stroke="#000000" points="384.2591,-620.874 377.882,-612.4133 377.591,-623.0041 384.2591,-620.874"/>
</g>
<!-- lower quality gem&#45;&gt;enchant (l) -->
<g id="edge52" class="edge">
<title>lower quality gem-&gt;enchant (l)</title>
<path fill="none" stroke="#000000" d="M339.0242,-652.9071C296.3996,-642.1064 242.0699,-626.291 224,-612 136.2962,-542.6375 127.7169,-502.9239 95,-396 88.8664,-375.9543 87.7828,-352.2442 88.1436,-334.1934"/>
<polygon fill="#000000" stroke="#000000" points="91.6474,-334.1492 88.5091,-324.0299 84.6519,-333.8976 91.6474,-334.1492"/>
</g>
<!-- craft jewelry&#45;&gt;lower quality item -->
<g id="edge49" class="edge">
<title>craft jewelry-&gt;lower quality item</title>
<path fill="none" stroke="#000000" d="M372,-575.8314C372,-568.131 372,-558.9743 372,-550.4166"/>
<polygon fill="#000000" stroke="#000000" points="375.5001,-550.4132 372,-540.4133 368.5001,-550.4133 375.5001,-550.4132"/>
</g>
<!-- enchant (l)&#45;&gt;legendary quality item -->
<g id="edge53" class="edge">
<title>enchant (l)-&gt;legendary quality item</title>
<path fill="none" stroke="#ff0000" d="M138.185,-289.24C169.0576,-278.5017 209.2282,-264.5293 241.4439,-253.3239"/>
<polygon fill="#ff0000" stroke="#ff0000" points="136.7451,-286.0351 128.45,-292.6261 139.0448,-292.6466 136.7451,-286.0351"/>
<polygon fill="#ff0000" stroke="#ff0000" points="242.8722,-256.5328 251.1673,-249.9418 240.5725,-249.9213 242.8722,-256.5328"/>
</g>
</g>
</svg>