<?xml version="1.0" encoding="utf-8"?>
<svg xmlns="http://www.w3.org/2000/svg">
<g transform="scale(3.779528)">
<rect x="0.000000" y="0.000000" width="152.000000" height="152.000000" rx="5" fill="#e0e0e0" />
<rect x="4.000000" y="4.000000" width="46.000000" height="144.000000" rx="2" fill="#c0c0c0" />
<rect x="9.000000" y="9.000000" width="36.000000" height="58.639067" rx="1" fill="#ffffff" />
<rect x="9.000000" y="76.157604" width="36.000000" height="13.431183" rx="1" fill="#ffffff" />
<rect x="9.000000" y="98.107323" width="36.000000" height="7.293670" rx="1" fill="#ffffff" />
<rect x="9.000000" y="113.919528" width="36.000000" height="5.046173" rx="1" fill="#ffffff" />
<rect x="9.000000" y="127.484238" width="36.000000" height="3.864389" rx="1" fill="#ffffff" />
<rect x="9.000000" y="139.867163" width="36.000000" height="3.132837" rx="1" fill="#ffffff" />
<rect x="53.000000" y="4.000000" width="46.000000" height="144.000000" rx="2" fill="#c0c0c0" />
<rect x="58.000000" y="9.000000" width="36.000000" height="2.548438" rx="1" fill="#ffffff" />
<rect x="58.000000" y="19.967620" width="36.000000" height="2.123276" rx="1" fill="#ffffff" />
<rect x="58.000000" y="30.510078" width="36.000000" height="1.766488" rx="1" fill="#ffffff" />
<rect x="58.000000" y="40.695748" width="36.000000" height="1.515211" rx="1" fill="#ffffff" />
<rect x="58.000000" y="50.630141" width="36.000000" height="1.319627" rx="1" fill="#ffffff" />
<rect x="58.000000" y="60.368951" width="36.000000" height="1.160355" rx="1" fill="#ffffff" />
<rect x="58.000000" y="69.948488" width="36.000000" height="1.014308" rx="1" fill="#ffffff" />
<rect x="58.000000" y="79.381979" width="36.000000" height="0.901139" rx="1" fill="#ffffff" />
<rect x="58.000000" y="88.702300" width="36.000000" height="0.798842" rx="1" fill="#ffffff" />
<rect x="58.000000" y="97.920324" width="36.000000" height="0.701089" rx="1" fill="#ffffff" />
<rect x="58.000000" y="107.040596" width="36.000000" height="0.609673" rx="1" fill="#ffffff" />
<rect x="58.000000" y="116.069451" width="36.000000" height="0.523199" rx="1" fill="#ffffff" />
<rect x="58.000000" y="125.011832" width="36.000000" height="0.447392" rx="1" fill="#ffffff" />
<rect x="58.000000" y="133.878406" width="36.000000" height="0.378679" rx="1" fill="#ffffff" />
<rect x="58.000000" y="142.676267" width="36.000000" height="0.323733" rx="1" fill="#ffffff" />
<rect x="102.000000" y="4.000000" width="46.000000" height="144.000000" rx="2" fill="#c0c0c0" />
<rect x="107.000000" y="9.000000" width="36.000000" height="0.275962" rx="1" fill="#ffffff" />
<rect x="107.000000" y="18.814446" width="36.000000" height="0.229988" rx="1" fill="#ffffff" />
<rect x="107.000000" y="28.582917" width="36.000000" height="0.177029" rx="1" fill="#ffffff" />
<rect x="107.000000" y="38.298429" width="36.000000" height="0.125954" rx="1" fill="#ffffff" />
<rect x="107.000000" y="47.962866" width="36.000000" height="0.085095" rx="1" fill="#ffffff" />
<rect x="107.000000" y="57.586445" width="36.000000" height="0.060117" rx="1" fill="#ffffff" />
<rect x="107.000000" y="67.185046" width="36.000000" height="0.041972" rx="1" fill="#ffffff" />
<rect x="107.000000" y="76.765501" width="36.000000" height="0.029108" rx="1" fill="#ffffff" />
<rect x="107.000000" y="86.333092" width="36.000000" height="0.018105" rx="1" fill="#ffffff" />
<rect x="107.000000" y="95.889681" width="36.000000" height="0.007636" rx="1" fill="#ffffff" />
<rect x="107.000000" y="105.435800" width="36.000000" height="0.001433" rx="1" fill="#ffffff" />
<path d="M8.000000,5.000000 q-3,0 -3,3 q0,1 1,1 h42 q1,0 1,-1 q0,-3 -3,-3 z
M6.000000,67.639067 q-1,0 -1,1 q0,3 3,3 h38 q3,0 3,-3 q0,-1 -1,-1 z
M8.000000,72.157604 q-3,0 -3,3 q0,1 1,1 h42 q1,0 1,-1 q0,-3 -3,-3 z
M6.000000,89.588787 q-1,0 -1,1 q0,3 3,3 h38 q3,0 3,-3 q0,-1 -1,-1 z
M8.000000,94.107323 q-3,0 -3,3 q0,1 1,1 h42 q1,0 1,-1 q0,-3 -3,-3 z
M6.000000,105.400992 q-1,0 -1,1 q0,3 3,3 h38 q3,0 3,-3 q0,-1 -1,-1 z
M8.000000,109.919528 q-3,0 -3,3 q0,1 1,1 h42 q1,0 1,-1 q0,-3 -3,-3 z
M6.000000,118.965702 q-1,0 -1,1 q0,3 3,3 h38 q3,0 3,-3 q0,-1 -1,-1 z
M8.000000,123.484238 q-3,0 -3,3 q0,1 1,1 h42 q1,0 1,-1 q0,-3 -3,-3 z
M6.000000,131.348627 q-1,0 -1,1 q0,3 3,3 h38 q3,0 3,-3 q0,-1 -1,-1 z
M8.000000,135.867163 q-3,0 -3,3 q0,1 1,1 h42 q1,0 1,-1 q0,-3 -3,-3 z
M6.000000,143.000000 q-1,0 -1,1 q0,3 3,3 h38 q3,0 3,-3 q0,-1 -1,-1 z
M57.000000,5.000000 q-3,0 -3,3 q0,1 1,1 h42 q1,0 1,-1 q0,-3 -3,-3 z
M55.000000,11.548438 q-1,0 -1,1 q0,3 3,3 h38 q3,0 3,-3 q0,-1 -1,-1 z
M57.000000,15.967620 q-3,0 -3,3 q0,1 1,1 h42 q1,0 1,-1 q0,-3 -3,-3 z
M55.000000,22.090896 q-1,0 -1,1 q0,3 3,3 h38 q3,0 3,-3 q0,-1 -1,-1 z
M57.000000,26.510078 q-3,0 -3,3 q0,1 1,1 h42 q1,0 1,-1 q0,-3 -3,-3 z
M55.000000,32.276566 q-1,0 -1,1 q0,3 3,3 h38 q3,0 3,-3 q0,-1 -1,-1 z
M57.000000,36.695748 q-3,0 -3,3 q0,1 1,1 h42 q1,0 1,-1 q0,-3 -3,-3 z
M55.000000,42.210959 q-1,0 -1,1 q0,3 3,3 h38 q3,0 3,-3 q0,-1 -1,-1 z
M57.000000,46.630141 q-3,0 -3,3 q0,1 1,1 h42 q1,0 1,-1 q0,-3 -3,-3 z
M55.000000,51.949769 q-1,0 -1,1 q0,3 3,3 h38 q3,0 3,-3 q0,-1 -1,-1 z
M57.000000,56.368951 q-3,0 -3,3 q0,1 1,1 h42 q1,0 1,-1 q0,-3 -3,-3 z
M55.000000,61.529306 q-1,0 -1,1 q0,3 3,3 h38 q3,0 3,-3 q0,-1 -1,-1 z
M57.000000,65.948488 q-3,0 -3,3 q0,1 1,1 h42 q1,0 1,-1 q0,-3 -3,-3 z
M55.000000,70.962797 q-1,0 -1,1 q0,3 3,3 h38 q3,0 3,-3 q0,-1 -1,-1 z
M57.000000,75.381979 q-3,0 -3,3 q0,1 1,1 h42 q1,0 1,-1 q0,-3 -3,-3 z
M55.000000,80.283117 q-1,0 -1,1 q0,3 3,3 h38 q3,0 3,-3 q0,-1 -1,-1 z
M57.000000,84.702300 q-3,0 -3,3 q0,1 1,1 h42 q1,0 1,-1 q0,-3 -3,-3 z
M55.000000,89.501142 q-1,0 -1,1 q0,3 3,3 h38 q3,0 3,-3 q0,-1 -1,-1 z
M57.000000,93.920324 q-3,0 -3,3 q0,1 1,1 h42 q1,0 1,-1 q0,-3 -3,-3 z
M55.000000,98.621414 q-1,0 -1,1 q0,3 3,3 h38 q3,0 3,-3 q0,-1 -1,-1 z
M57.000000,103.040596 q-3,0 -3,3 q0,1 1,1 h42 q1,0 1,-1 q0,-3 -3,-3 z
M55.000000,107.650269 q-1,0 -1,1 q0,3 3,3 h38 q3,0 3,-3 q0,-1 -1,-1 z
M57.000000,112.069451 q-3,0 -3,3 q0,1 1,1 h42 q1,0 1,-1 q0,-3 -3,-3 z
M55.000000,116.592649 q-1,0 -1,1 q0,3 3,3 h38 q3,0 3,-3 q0,-1 -1,-1 z
M57.000000,121.011832 q-3,0 -3,3 q0,1 1,1 h42 q1,0 1,-1 q0,-3 -3,-3 z
M55.000000,125.459224 q-1,0 -1,1 q0,3 3,3 h38 q3,0 3,-3 q0,-1 -1,-1 z
M57.000000,129.878406 q-3,0 -3,3 q0,1 1,1 h42 q1,0 1,-1 q0,-3 -3,-3 z
M55.000000,134.257085 q-1,0 -1,1 q0,3 3,3 h38 q3,0 3,-3 q0,-1 -1,-1 z
M57.000000,138.676267 q-3,0 -3,3 q0,1 1,1 h42 q1,0 1,-1 q0,-3 -3,-3 z
M55.000000,143.000000 q-1,0 -1,1 q0,3 3,3 h38 q3,0 3,-3 q0,-1 -1,-1 z
M106.000000,5.000000 q-3,0 -3,3 q0,1 1,1 h42 q1,0 1,-1 q0,-3 -3,-3 z
M104.000000,9.275962 q-1,0 -1,1 q0,3 3,3 h38 q3,0 3,-3 q0,-1 -1,-1 z
M106.000000,14.814446 q-3,0 -3,3 q0,1 1,1 h42 q1,0 1,-1 q0,-3 -3,-3 z
M104.000000,19.044434 q-1,0 -1,1 q0,3 3,3 h38 q3,0 3,-3 q0,-1 -1,-1 z
M106.000000,24.582917 q-3,0 -3,3 q0,1 1,1 h42 q1,0 1,-1 q0,-3 -3,-3 z
M104.000000,28.759946 q-1,0 -1,1 q0,3 3,3 h38 q3,0 3,-3 q0,-1 -1,-1 z
M106.000000,34.298429 q-3,0 -3,3 q0,1 1,1 h42 q1,0 1,-1 q0,-3 -3,-3 z
M104.000000,38.424383 q-1,0 -1,1 q0,3 3,3 h38 q3,0 3,-3 q0,-1 -1,-1 z
M106.000000,43.962866 q-3,0 -3,3 q0,1 1,1 h42 q1,0 1,-1 q0,-3 -3,-3 z
M104.000000,48.047961 q-1,0 -1,1 q0,3 3,3 h38 q3,0 3,-3 q0,-1 -1,-1 z
M106.000000,53.586445 q-3,0 -3,3 q0,1 1,1 h42 q1,0 1,-1 q0,-3 -3,-3 z
M104.000000,57.646562 q-1,0 -1,1 q0,3 3,3 h38 q3,0 3,-3 q0,-1 -1,-1 z
M106.000000,63.185046 q-3,0 -3,3 q0,1 1,1 h42 q1,0 1,-1 q0,-3 -3,-3 z
M104.000000,67.227017 q-1,0 -1,1 q0,3 3,3 h38 q3,0 3,-3 q0,-1 -1,-1 z
M106.000000,72.765501 q-3,0 -3,3 q0,1 1,1 h42 q1,0 1,-1 q0,-3 -3,-3 z
M104.000000,76.794609 q-1,0 -1,1 q0,3 3,3 h38 q3,0 3,-3 q0,-1 -1,-1 z
M106.000000,82.333092 q-3,0 -3,3 q0,1 1,1 h42 q1,0 1,-1 q0,-3 -3,-3 z
M104.000000,86.351197 q-1,0 -1,1 q0,3 3,3 h38 q3,0 3,-3 q0,-1 -1,-1 z
M106.000000,91.889681 q-3,0 -3,3 q0,1 1,1 h42 q1,0 1,-1 q0,-3 -3,-3 z
M104.000000,95.897316 q-1,0 -1,1 q0,3 3,3 h38 q3,0 3,-3 q0,-1 -1,-1 z
M106.000000,101.435800 q-3,0 -3,3 q0,1 1,1 h42 q1,0 1,-1 q0,-3 -3,-3 z
M104.000000,105.437233 q-1,0 -1,1 q0,3 3,3 h38 q3,0 3,-3 q0,-1 -1,-1 z
M106.000000,110.975716 q-3,0 -3,3 q0,1 1,1 h42 q1,0 1,-1 q0,-3 -3,-3 z
M104.000000,114.971688 q-1,0 -1,1 q0,3 3,3 h38 q3,0 3,-3 q0,-1 -1,-1 z
M106.000000,120.510171 q-3,0 -3,3 q0,1 1,1 h42 q1,0 1,-1 q0,-3 -3,-3 z
M104.000000,124.478411 q-1,0 -1,1 q0,3 3,3 h38 q3,0 3,-3 q0,-1 -1,-1 z
M106.000000,130.016894 q-3,0 -3,3 q0,1 1,1 h42 q1,0 1,-1 q0,-3 -3,-3 z
M104.000000,133.915353 q-1,0 -1,1 q0,3 3,3 h38 q3,0 3,-3 q0,-1 -1,-1 z
M106.000000,139.453837 q-3,0 -3,3 q0,1 1,1 h42 q1,0 1,-1 q0,-3 -3,-3 z
M104.000000,143.000000 q-1,0 -1,1 q0,3 3,3 h38 q3,0 3,-3 q0,-1 -1,-1 z
" fill="#402010" />
</g>
</svg>
