<svg version="1.1" viewBox="0.0 0.0 473.0 323.0" fill="none" stroke="none" stroke-linecap="square" stroke-miterlimit="10" width="473" height="323" xmlns:xlink="http://www.w3.org/1999/xlink" xmlns="http://www.w3.org/2000/svg"><path fill="#ffffff" d="M0 0L473.0 0L473.0 323.0L0 323.0L0 0Z" fill-rule="nonzero"/><path fill="#fbbc04" d="M236.5 16.15C249.20232 16.15 261.84985 17.815079 274.11935 21.10268L236.5 161.5Z" fill-rule="nonzero"/><path fill="#000000" d="M236.31982 16.150112C236.37988 16.150038 236.43994 16.15 236.5 16.15L236.5 161.5Z" fill-rule="nonzero"/><path fill="#b7b7b7" d="M91.25869 167.12C89.73169 127.65668 104.32864 89.27091 131.69147 60.793526C159.05429 32.31614 196.827 16.199066 236.31982 16.150112L236.5 161.5Z" fill-rule="nonzero"/><path fill="#4285f4" d="M91.8641 175.89023C91.57391 172.97359 91.37202 170.04884 91.25869 167.12L236.5 161.5Z" fill-rule="nonzero"/><path fill="#34a853" d="M93.03892 184.85681C92.554405 181.88086 92.16261 178.89055 91.8641 175.89023L236.5 161.5Z" fill-rule="nonzero"/><path fill="#ea4335" d="M96.046875 198.91046C94.813095 194.27838 93.80922 189.5881 93.03892 184.85681L236.5 161.5Z" fill-rule="nonzero"/><path fill="#d9d9d9" d="M274.11935 21.10268C342.27954 39.366154 387.47556 103.94682 381.2906 174.23988C375.10562 244.53294 319.32666 300.229 249.02449 306.3094C178.7223 312.3898 114.20894 267.09778 96.046875 198.91046L236.5 161.5Z" fill-rule="nonzero"/><path fill="#1a1a1a" d="M19.24375 26.2125L19.4 27.134375Q18.946875 27.228125 18.603125 27.228125Q18.025 27.228125 17.7125 27.05625Q17.4 26.86875 17.259375 26.571875Q17.134375 26.275 17.134375 25.321875L17.134375 21.74375L16.36875 21.74375L16.36875 20.93125L17.134375 20.93125L17.134375 19.384375L18.18125 18.759375L18.18125 20.93125L19.24375 20.93125L19.24375 21.74375L18.18125 21.74375L18.18125 25.384375Q18.18125 25.8375 18.228125 25.9625Q18.290625 26.0875 18.415625 26.165625Q18.540625 26.24375 18.775 26.24375Q18.9625 26.24375 19.24375 26.2125ZM24.196875 25.15L25.290625 25.275Q25.040625 26.228125 24.3375 26.759375Q23.634375 27.290625 22.55625 27.290625Q21.196875 27.290625 20.384375 26.446875Q19.5875 25.603125 19.5875 24.0875Q19.5875 22.525 20.4 21.665625Q21.2125 20.790625 22.49375 20.790625Q23.74375 20.790625 24.525 21.634375Q25.321875 22.478125 25.321875 24.025Q25.321875 24.11875 25.321875 24.30625L20.68125 24.30625Q20.74375 25.3375 21.259375 25.884375Q21.775 26.415625 22.55625 26.415625Q23.134375 26.415625 23.540625 26.11875Q23.9625 25.80625 24.196875 25.15ZM20.74375 23.446875L24.2125 23.446875Q24.15 22.65 23.821875 22.259375Q23.30625 21.65 22.509375 21.65Q21.775 21.65 21.275 22.134375Q20.790625 22.61875 20.74375 23.446875ZM26.24375 27.15L28.509375 23.915625L26.415625 20.93125L27.728125 20.93125L28.68125 22.384375Q28.946875 22.80625 29.11875 23.0875Q29.36875 22.696875 29.5875 22.4L30.634375 20.93125L31.9 20.93125L29.74375 23.853125L32.05625 27.15L30.775 27.15L29.49375 25.2125L29.15 24.696875L27.509375 27.15L26.24375 27.15ZM35.24375 26.2125L35.4 27.134375Q34.946877 27.228125 34.603127 27.228125Q34.025 27.228125 33.7125 27.05625Q33.4 26.86875 33.259377 26.571875Q33.134377 26.275 33.134377 25.321875L33.134377 21.74375L32.36875 21.74375L32.36875 20.93125L33.134377 20.93125L33.134377 19.384375L34.18125 18.759375L34.18125 20.93125L35.24375 20.93125L35.24375 21.74375L34.18125 21.74375L34.18125 25.384375Q34.18125 25.8375 34.228127 25.9625Q34.290627 26.0875 34.415627 26.165625Q34.540627 26.24375 34.775 26.24375Q34.9625 26.24375 35.24375 26.2125ZM38.525 24.571875L38.525 23.509375L41.775 23.509375L41.775 24.571875L38.525 24.571875ZM45.65 24.9L46.759377 24.80625Q46.884377 25.61875 47.321877 26.025Q47.775 26.43125 48.415627 26.43125Q49.165627 26.43125 49.696877 25.853125Q50.228127 25.275 50.228127 24.3375Q50.228127 23.43125 49.7125 22.915625Q49.2125 22.384375 48.384377 22.384375Q47.884377 22.384375 47.4625 22.61875Q47.05625 22.853125 46.821877 23.2125L45.8375 23.0875L46.665627 18.68125L50.946877 18.68125L50.946877 19.68125L47.509377 19.68125L47.05625 21.99375Q47.821877 21.446875 48.665627 21.446875Q49.790627 21.446875 50.55625 22.228125Q51.3375 23.009375 51.3375 24.24375Q51.3375 25.4 50.665627 26.259375Q49.8375 27.290625 48.415627 27.290625Q47.24375 27.290625 46.49375 26.634375Q45.759377 25.978125 45.65 24.9Z" fill-rule="nonzero"/><path fill="#9e9e9e" d="M16.65 39.915627Q16.65 38.384377 16.9625 37.4625Q17.275 36.525 17.884375 36.025Q18.509375 35.525 19.446875 35.525Q20.134375 35.525 20.65 35.80625Q21.18125 36.0875 21.525 36.61875Q21.86875 37.134377 22.05625 37.884377Q22.24375 38.634377 22.24375 39.915627Q22.24375 41.43125 21.93125 42.353127Q21.634375 43.275 21.009375 43.790627Q20.4 44.290627 19.446875 44.290627Q18.2125 44.290627 17.49375 43.4Q16.65 42.3375 16.65 39.915627ZM17.728125 39.915627Q17.728125 42.025 18.228125 42.728127Q18.728125 43.43125 19.446875 43.43125Q20.18125 43.43125 20.665625 42.728127Q21.165625 42.025 21.165625 39.915627Q21.165625 37.790627 20.665625 37.103127Q20.18125 36.4 19.43125 36.4Q18.7125 36.4 18.275 37.009377Q17.728125 37.790627 17.728125 39.915627ZM24.24375 44.15L24.24375 42.946877L25.446875 42.946877L25.446875 44.15L24.24375 44.15ZM26.65 39.915627Q26.65 38.384377 26.9625 37.4625Q27.275 36.525 27.884375 36.025Q28.509375 35.525 29.446875 35.525Q30.134375 35.525 30.65 35.80625Q31.18125 36.0875 31.525 36.61875Q31.86875 37.134377 32.05625 37.884377Q32.24375 38.634377 32.24375 39.915627Q32.24375 41.43125 31.93125 42.353127Q31.634375 43.275 31.009375 43.790627Q30.4 44.290627 29.446875 44.290627Q28.2125 44.290627 27.49375 43.4Q26.65 42.3375 26.65 39.915627ZM27.728125 39.915627Q27.728125 42.025 28.228125 42.728127Q28.728125 43.43125 29.446875 43.43125Q30.18125 43.43125 30.665625 42.728127Q31.165625 42.025 31.165625 39.915627Q31.165625 37.790627 30.665625 37.103127Q30.18125 36.4 29.43125 36.4Q28.7125 36.4 28.275 37.009377Q27.728125 37.790627 27.728125 39.915627ZM33.853127 37.61875Q33.853127 36.696877 34.30625 36.05625Q34.775 35.415627 35.65 35.415627Q36.4625 35.415627 36.99375 35.99375Q37.525 36.571877 37.525 37.68125Q37.525 38.775 36.978127 39.36875Q36.446877 39.946877 35.665627 39.946877Q34.884377 39.946877 34.36875 39.36875Q33.853127 38.790627 33.853127 37.61875ZM35.68125 36.134377Q35.290627 36.134377 35.025 36.478127Q34.775 36.821877 34.775 37.728127Q34.775 38.55625 35.025 38.9Q35.290627 39.228127 35.68125 39.228127Q36.0875 39.228127 36.3375 38.884377Q36.603127 38.540627 36.603127 37.65Q36.603127 36.80625 36.3375 36.478127Q36.071877 36.134377 35.68125 36.134377ZM35.68125 44.4625L40.384377 35.415627L41.24375 35.415627L36.55625 44.4625L35.68125 44.4625ZM39.4 42.134377Q39.4 41.2125 39.853127 40.571877Q40.321877 39.93125 41.2125 39.93125Q42.025 39.93125 42.55625 40.509377Q43.0875 41.071877 43.0875 42.196877Q43.0875 43.290627 42.540627 43.884377Q42.009377 44.4625 41.2125 44.4625Q40.446877 44.4625 39.915627 43.884377Q39.4 43.30625 39.4 42.134377ZM41.24375 40.65Q40.8375 40.65 40.571877 40.99375Q40.321877 41.3375 40.321877 42.24375Q40.321877 43.05625 40.5875 43.4Q40.853127 43.74375 41.24375 43.74375Q41.634377 43.74375 41.9 43.4Q42.165627 43.05625 42.165627 42.15Q42.165627 41.321877 41.9 40.99375Q41.634377 40.65 41.24375 40.65Z" fill-rule="nonzero"/><path stroke="#757575" stroke-width="1.0" stroke-linecap="butt" d="M16.15 31.65L85.15 31.65L236.41441 23.417526" fill-rule="nonzero"/><path fill="#9e9e9e" d="M238.41441 23.417526C238.41441 22.312958 237.51898 21.417526 236.41441 21.417526C235.30984 21.417526 234.41441 22.312958 234.41441 23.417526C234.41441 24.522097 235.30984 25.417526 236.41441 25.417526C237.51898 25.417526 238.41441 24.522097 238.41441 23.417526" fill-rule="nonzero"/><path fill="#1a1a1a" d="M21.009375 60.563225Q20.415625 61.063225 19.86875 61.26635Q19.3375 61.469475 18.7125 61.469475Q17.68125 61.469475 17.134375 60.969475Q16.5875 60.469475 16.5875 59.688225Q16.5875 59.2351 16.790625 58.8601Q16.99375 58.469475 17.3375 58.250725Q17.68125 58.01635 18.103125 57.906975Q18.4 57.813225 19.040625 57.7351Q20.30625 57.594475 20.915625 57.375725Q20.915625 57.156975 20.915625 57.1101Q20.915625 56.45385 20.61875 56.188225Q20.2125 55.844475 19.415625 55.844475Q18.68125 55.844475 18.321875 56.1101Q17.9625 56.3601 17.790625 57.01635L16.759375 56.875725Q16.9 56.219475 17.228125 55.813225Q17.55625 55.406975 18.165625 55.188225Q18.775 54.969475 19.571875 54.969475Q20.36875 54.969475 20.86875 55.156975Q21.36875 55.344475 21.603125 55.625725Q21.8375 55.906975 21.93125 56.344475Q21.978125 56.6101 21.978125 57.313225L21.978125 58.719475Q21.978125 60.188225 22.040625 60.57885Q22.11875 60.969475 22.321875 61.32885L21.2125 61.32885Q21.05625 61.000725 21.009375 60.563225ZM20.915625 58.20385Q20.3375 58.438225 19.196875 58.6101Q18.540625 58.70385 18.275 58.82885Q18.009375 58.938225 17.853125 59.156975Q17.7125 59.375725 17.7125 59.656975Q17.7125 60.07885 18.025 60.3601Q18.353125 60.64135 18.9625 60.64135Q19.571875 60.64135 20.040625 60.375725Q20.525 60.1101 20.74375 59.64135Q20.915625 59.281975 20.915625 58.594475L20.915625 58.20385ZM26.525 58.750725L26.525 57.688225L29.775 57.688225L29.775 58.750725L26.525 58.750725ZM39.11875 54.844475L38.071877 54.9226Q37.93125 54.2976 37.68125 54.01635Q37.24375 53.563225 36.61875 53.563225Q36.11875 53.563225 35.728127 53.844475Q35.24375 54.219475 34.946877 54.9226Q34.665627 55.6101 34.65 56.89135Q35.025 56.313225 35.571877 56.031975Q36.134377 55.750725 36.74375 55.750725Q37.790627 55.750725 38.525 56.531975Q39.275 57.313225 39.275 58.531975Q39.275 59.344475 38.915627 60.0476Q38.571877 60.7351 37.9625 61.1101Q37.353127 61.469475 36.5875 61.469475Q35.259377 61.469475 34.43125 60.500725Q33.603127 59.531975 33.603127 57.313225Q33.603127 54.813225 34.525 53.688225Q35.321877 52.70385 36.68125 52.70385Q37.696877 52.70385 38.3375 53.281975Q38.99375 53.844475 39.11875 54.844475ZM34.821877 58.5476Q34.821877 59.094475 35.040627 59.594475Q35.275 60.07885 35.68125 60.344475Q36.103127 60.6101 36.571877 60.6101Q37.228127 60.6101 37.7125 60.07885Q38.196877 59.531975 38.196877 58.6101Q38.196877 57.719475 37.7125 57.20385Q37.24375 56.688225 36.525 56.688225Q35.80625 56.688225 35.30625 57.20385Q34.821877 57.719475 34.821877 58.5476ZM41.2125 61.32885L41.2125 60.125725L42.415627 60.125725L42.415627 61.32885Q42.415627 61.9851 42.18125 62.39135Q41.946877 62.813225 41.446877 63.031975L41.15 62.57885Q41.478127 62.438225 41.634377 62.14135Q41.790627 61.8601 41.821877 61.32885L41.2125 61.32885ZM47.025 61.32885L47.025 59.26635L43.30625 59.26635L43.30625 58.2976L47.228127 52.7351L48.0875 52.7351L48.0875 58.2976L49.24375 58.2976L49.24375 59.26635L48.0875 59.26635L48.0875 61.32885L47.025 61.32885ZM47.025 58.2976L47.025 54.438225L44.3375 58.2976L47.025 58.2976ZM52.275 56.6726Q51.61875 56.4226 51.290627 55.9851Q50.978127 55.531975 50.978127 54.9226Q50.978127 53.9851 51.65 53.344475Q52.3375 52.70385 53.446877 52.70385Q54.571877 52.70385 55.259377 53.3601Q55.946877 54.01635 55.946877 54.95385Q55.946877 55.5476 55.634377 55.9851Q55.321877 56.4226 54.68125 56.6726Q55.478127 56.9226 55.884377 57.500725Q56.290627 58.07885 56.290627 58.875725Q56.290627 59.969475 55.509377 60.719475Q54.74375 61.469475 53.4625 61.469475Q52.196877 61.469475 51.415627 60.719475Q50.634377 59.969475 50.634377 58.844475Q50.634377 58.000725 51.05625 57.438225Q51.49375 56.875725 52.275 56.6726ZM52.05625 54.875725Q52.05625 55.4851 52.446877 55.875725Q52.853127 56.26635 53.478127 56.26635Q54.0875 56.26635 54.478127 55.89135Q54.86875 55.500725 54.86875 54.938225Q54.86875 54.3601 54.4625 53.969475Q54.05625 53.563225 53.4625 53.563225Q52.853127 53.563225 52.446877 53.95385Q52.05625 54.344475 52.05625 54.875725ZM51.728127 58.844475Q51.728127 59.2976 51.93125 59.719475Q52.15 60.14135 52.571877 60.375725Q52.99375 60.6101 53.478127 60.6101Q54.228127 60.6101 54.7125 60.125725Q55.2125 59.64135 55.2125 58.89135Q55.2125 58.125725 54.7125 57.625725Q54.2125 57.125725 53.446877 57.125725Q52.696877 57.125725 52.2125 57.625725Q51.728127 58.1101 51.728127 58.844475ZM57.7125 53.8601L57.7125 52.844475L63.275 52.844475L63.275 53.6726Q62.4625 54.5476 61.65 56.000725Q60.853127 57.438225 60.415627 58.969475Q60.0875 60.0476 60.009377 61.32885L58.915627 61.32885Q58.93125 60.313225 59.30625 58.875725Q59.696877 57.438225 60.4 56.1101Q61.11875 54.781975 61.93125 53.8601L57.7125 53.8601Z" fill-rule="nonzero"/><path fill="#9e9e9e" d="M22.196875 77.313225L22.196875 78.32885L16.509375 78.32885Q16.509375 77.95385 16.634375 77.594475Q16.853125 77.01635 17.321875 76.45385Q17.80625 75.89135 18.7125 75.156975Q20.11875 74.000725 20.603125 73.32885Q21.103125 72.656975 21.103125 72.063225Q21.103125 71.438225 20.65 71.01635Q20.196875 70.57885 19.478125 70.57885Q18.7125 70.57885 18.259375 71.031975Q17.80625 71.4851 17.790625 72.2976L16.7125 72.188225Q16.821875 70.969475 17.540625 70.344475Q18.275 69.70385 19.509375 69.70385Q20.74375 69.70385 21.4625 70.39135Q22.18125 71.07885 22.18125 72.094475Q22.18125 72.6101 21.9625 73.1101Q21.759375 73.594475 21.259375 74.156975Q20.775 74.70385 19.65 75.656975Q18.696875 76.45385 18.415625 76.750725Q18.15 77.031975 17.978125 77.313225L22.196875 77.313225ZM23.65 76.07885L24.759375 75.9851Q24.884375 76.7976 25.321875 77.20385Q25.775 77.6101 26.415625 77.6101Q27.165625 77.6101 27.696875 77.031975Q28.228125 76.45385 28.228125 75.51635Q28.228125 74.6101 27.7125 74.094475Q27.2125 73.563225 26.384375 73.563225Q25.884375 73.563225 25.4625 73.7976Q25.05625 74.031975 24.821875 74.39135L23.8375 74.26635L24.665625 69.8601L28.946875 69.8601L28.946875 70.8601L25.509375 70.8601L25.05625 73.1726Q25.821875 72.625725 26.665625 72.625725Q27.790625 72.625725 28.55625 73.406975Q29.3375 74.188225 29.3375 75.4226Q29.3375 76.57885 28.665625 77.438225Q27.8375 78.469475 26.415625 78.469475Q25.24375 78.469475 24.49375 77.813225Q23.759375 77.156975 23.65 76.07885ZM31.24375 78.32885L31.24375 77.125725L32.446877 77.125725L32.446877 78.32885L31.24375 78.32885ZM39.11875 71.844475L38.071877 71.9226Q37.93125 71.2976 37.68125 71.01635Q37.24375 70.563225 36.61875 70.563225Q36.11875 70.563225 35.728127 70.844475Q35.24375 71.219475 34.946877 71.9226Q34.665627 72.6101 34.65 73.89135Q35.025 73.313225 35.571877 73.031975Q36.134377 72.750725 36.74375 72.750725Q37.790627 72.750725 38.525 73.531975Q39.275 74.313225 39.275 75.531975Q39.275 76.344475 38.915627 77.0476Q38.571877 77.7351 37.9625 78.1101Q37.353127 78.469475 36.5875 78.469475Q35.259377 78.469475 34.43125 77.500725Q33.603127 76.531975 33.603127 74.313225Q33.603127 71.813225 34.525 70.688225Q35.321877 69.70385 36.68125 69.70385Q37.696877 69.70385 38.3375 70.281975Q38.99375 70.844475 39.11875 71.844475ZM34.821877 75.5476Q34.821877 76.094475 35.040627 76.594475Q35.275 77.07885 35.68125 77.344475Q36.103127 77.6101 36.571877 77.6101Q37.228127 77.6101 37.7125 77.07885Q38.196877 76.531975 38.196877 75.6101Q38.196877 74.719475 37.7125 74.20385Q37.24375 73.688225 36.525 73.688225Q35.80625 73.688225 35.30625 74.20385Q34.821877 74.719475 34.821877 75.5476ZM40.853127 71.7976Q40.853127 70.875725 41.30625 70.2351Q41.775 69.594475 42.65 69.594475Q43.4625 69.594475 43.99375 70.1726Q44.525 70.750725 44.525 71.8601Q44.525 72.95385 43.978127 73.5476Q43.446877 74.125725 42.665627 74.125725Q41.884377 74.125725 41.36875 73.5476Q40.853127 72.969475 40.853127 71.7976ZM42.68125 70.313225Q42.290627 70.313225 42.025 70.656975Q41.775 71.000725 41.775 71.906975Q41.775 72.7351 42.025 73.07885Q42.290627 73.406975 42.68125 73.406975Q43.0875 73.406975 43.3375 73.063225Q43.603127 72.719475 43.603127 71.82885Q43.603127 70.9851 43.3375 70.656975Q43.071877 70.313225 42.68125 70.313225ZM42.68125 78.64135L47.384377 69.594475L48.24375 69.594475L43.55625 78.64135L42.68125 78.64135ZM46.4 76.313225Q46.4 75.39135 46.853127 74.750725Q47.321877 74.1101 48.2125 74.1101Q49.025 74.1101 49.55625 74.688225Q50.0875 75.250725 50.0875 76.375725Q50.0875 77.469475 49.540627 78.063225Q49.009377 78.64135 48.2125 78.64135Q47.446877 78.64135 46.915627 78.063225Q46.4 77.4851 46.4 76.313225ZM48.24375 74.82885Q47.8375 74.82885 47.571877 75.1726Q47.321877 75.51635 47.321877 76.4226Q47.321877 77.2351 47.5875 77.57885Q47.853127 77.9226 48.24375 77.9226Q48.634377 77.9226 48.9 77.57885Q49.165627 77.2351 49.165627 76.32885Q49.165627 75.500725 48.9 75.1726Q48.634377 74.82885 48.24375 74.82885Z" fill-rule="nonzero"/><path stroke="#757575" stroke-width="1.0" stroke-linecap="butt" d="M16.15 65.82885L85.15 65.82885L136.9319 65.82885" fill-rule="nonzero"/><path fill="#9e9e9e" d="M138.9319 65.82885C138.9319 64.72428 138.03647 63.82885 136.9319 63.82885C135.82733 63.82885 134.9319 64.72428 134.9319 65.82885C134.9319 66.93342 135.82733 67.82885 136.9319 67.82885C138.03647 67.82885 138.9319 66.93342 138.9319 65.82885" fill-rule="nonzero"/><path fill="#1a1a1a" d="M17.915625 145.2045L16.93125 145.2045L16.93125 136.61075L17.99375 136.61075L17.99375 139.67325Q18.665625 138.84512 19.696875 138.84512Q20.275 138.84512 20.775 139.0795Q21.290625 139.29825 21.61875 139.72012Q21.9625 140.142 22.15 140.73575Q22.3375 141.3295 22.3375 142.00137Q22.3375 143.59512 21.540625 144.47012Q20.74375 145.34512 19.65 145.34512Q18.540625 145.34512 17.915625 144.42325L17.915625 145.2045ZM17.9 142.04825Q17.9 143.15762 18.2125 143.65762Q18.7125 144.47012 19.55625 144.47012Q20.24375 144.47012 20.74375 143.87637Q21.259375 143.28262 21.259375 142.0795Q21.259375 140.86075 20.775 140.28262Q20.290625 139.7045 19.603125 139.7045Q18.915625 139.7045 18.4 140.31387Q17.9 140.90762 17.9 142.04825ZM26.525 142.62637L26.525 141.56387L29.775 141.56387L29.775 142.62637L26.525 142.62637ZM39.196877 144.18887L39.196877 145.2045L33.509377 145.2045Q33.509377 144.8295 33.634377 144.47012Q33.853127 143.892 34.321877 143.3295Q34.80625 142.767 35.7125 142.03262Q37.11875 140.87637 37.603127 140.2045Q38.103127 139.53262 38.103127 138.93887Q38.103127 138.31387 37.65 137.892Q37.196877 137.4545 36.478127 137.4545Q35.7125 137.4545 35.259377 137.90762Q34.80625 138.36075 34.790627 139.17325L33.7125 139.06387Q33.821877 137.84512 34.540627 137.22012Q35.275 136.5795 36.509377 136.5795Q37.74375 136.5795 38.4625 137.267Q39.18125 137.9545 39.18125 138.97012Q39.18125 139.48575 38.9625 139.98575Q38.759377 140.47012 38.259377 141.03262Q37.775 141.5795 36.65 142.53262Q35.696877 143.3295 35.415627 143.62637Q35.15 143.90762 34.978127 144.18887L39.196877 144.18887ZM44.025 145.2045L44.025 143.142L40.30625 143.142L40.30625 142.17325L44.228127 136.61075L45.0875 136.61075L45.0875 142.17325L46.24375 142.17325L46.24375 143.142L45.0875 143.142L45.0875 145.2045L44.025 145.2045ZM44.025 142.17325L44.025 138.31387L41.3375 142.17325L44.025 142.17325ZM51.025 145.2045L51.025 143.142L47.30625 143.142L47.30625 142.17325L51.228127 136.61075L52.0875 136.61075L52.0875 142.17325L53.24375 142.17325L53.24375 143.142L52.0875 143.142L52.0875 145.2045L51.025 145.2045ZM51.025 142.17325L51.025 138.31387L48.3375 142.17325L51.025 142.17325Z" fill-rule="nonzero"/><path fill="#9e9e9e" d="M20.61875 162.2045L19.571875 162.2045L19.571875 155.48575Q19.18125 155.84512 18.55625 156.22012Q17.946875 156.5795 17.4625 156.75137L17.4625 155.73575Q18.3375 155.31387 18.99375 154.73575Q19.665625 154.142 19.946875 153.5795L20.61875 153.5795L20.61875 162.2045ZM24.24375 162.2045L24.24375 161.00137L25.446875 161.00137L25.446875 162.2045L24.24375 162.2045ZM26.65 157.97012Q26.65 156.43887 26.9625 155.517Q27.275 154.5795 27.884375 154.0795Q28.509375 153.5795 29.446875 153.5795Q30.134375 153.5795 30.65 153.86075Q31.18125 154.142 31.525 154.67325Q31.86875 155.18887 32.05625 155.93887Q32.24375 156.68887 32.24375 157.97012Q32.24375 159.48575 31.93125 160.40762Q31.634375 161.3295 31.009375 161.84512Q30.4 162.34512 29.446875 162.34512Q28.2125 162.34512 27.49375 161.4545Q26.65 160.392 26.65 157.97012ZM27.728125 157.97012Q27.728125 160.0795 28.228125 160.78262Q28.728125 161.48575 29.446875 161.48575Q30.18125 161.48575 30.665625 160.78262Q31.165625 160.0795 31.165625 157.97012Q31.165625 155.84512 30.665625 155.15762Q30.18125 154.4545 29.43125 154.4545Q28.7125 154.4545 28.275 155.06387Q27.728125 155.84512 27.728125 157.97012ZM33.853127 155.67325Q33.853127 154.75137 34.30625 154.11075Q34.775 153.47012 35.65 153.47012Q36.4625 153.47012 36.99375 154.04825Q37.525 154.62637 37.525 155.73575Q37.525 156.8295 36.978127 157.42325Q36.446877 158.00137 35.665627 158.00137Q34.884377 158.00137 34.36875 157.42325Q33.853127 156.84512 33.853127 155.67325ZM35.68125 154.18887Q35.290627 154.18887 35.025 154.53262Q34.775 154.87637 34.775 155.78262Q34.775 156.61075 35.025 156.9545Q35.290627 157.28262 35.68125 157.28262Q36.0875 157.28262 36.3375 156.93887Q36.603127 156.59512 36.603127 155.7045Q36.603127 154.86075 36.3375 154.53262Q36.071877 154.18887 35.68125 154.18887ZM35.68125 162.517L40.384377 153.47012L41.24375 153.47012L36.55625 162.517L35.68125 162.517ZM39.4 160.18887Q39.4 159.267 39.853127 158.62637Q40.321877 157.98575 41.2125 157.98575Q42.025 157.98575 42.55625 158.56387Q43.0875 159.12637 43.0875 160.25137Q43.0875 161.34512 42.540627 161.93887Q42.009377 162.517 41.2125 162.517Q40.446877 162.517 39.915627 161.93887Q39.4 161.36075 39.4 160.18887ZM41.24375 158.7045Q40.8375 158.7045 40.571877 159.04825Q40.321877 159.392 40.321877 160.29825Q40.321877 161.11075 40.5875 161.4545Q40.853127 161.79825 41.24375 161.79825Q41.634377 161.79825 41.9 161.4545Q42.165627 161.11075 42.165627 160.2045Q42.165627 159.37637 41.9 159.04825Q41.634377 158.7045 41.24375 158.7045Z" fill-rule="nonzero"/><path stroke="#757575" stroke-width="1.0" stroke-linecap="butt" d="M16.15 149.7045L85.15 149.7045L98.74532 171.0092" fill-rule="nonzero"/><path fill="#9e9e9e" d="M100.74532 171.0092C100.74532 169.90463 99.84989 169.0092 98.74532 169.0092C97.64075 169.0092 96.74532 169.90463 96.74532 171.0092C96.74532 172.11377 97.64075 173.0092 98.74532 173.0092C99.84989 173.0092 100.74532 172.11377 100.74532 171.0092" fill-rule="nonzero"/><path fill="#1a1a1a" d="M16.74375 176.72012L17.775 176.87637Q17.8375 177.34512 18.134375 177.56387Q18.525 177.86075 19.196875 177.86075Q19.93125 177.86075 20.321875 177.56387Q20.728125 177.267 20.86875 176.75137Q20.9625 176.42325 20.946875 175.392Q20.259375 176.2045 19.228125 176.2045Q17.946875 176.2045 17.24375 175.28262Q16.540625 174.34512 16.540625 173.06387Q16.540625 172.17325 16.853125 171.42325Q17.18125 170.65762 17.790625 170.25137Q18.4 169.84512 19.228125 169.84512Q20.3375 169.84512 21.05625 170.73575L21.05625 169.98575L22.025 169.98575L22.025 175.36075Q22.025 176.81387 21.728125 177.42325Q21.43125 178.03262 20.790625 178.37637Q20.15 178.73575 19.2125 178.73575Q18.103125 178.73575 17.415625 178.23575Q16.728125 177.73575 16.74375 176.72012ZM17.61875 172.98575Q17.61875 174.2045 18.103125 174.767Q18.5875 175.3295 19.321875 175.3295Q20.05625 175.3295 20.540625 174.767Q21.040625 174.2045 21.040625 173.017Q21.040625 171.87637 20.525 171.29825Q20.025 170.72012 19.30625 170.72012Q18.603125 170.72012 18.103125 171.29825Q17.61875 171.86075 17.61875 172.98575ZM26.525 173.62637L26.525 172.56387L29.775 172.56387L29.775 173.62637L26.525 173.62637ZM39.196877 175.18887L39.196877 176.2045L33.509377 176.2045Q33.509377 175.8295 33.634377 175.47012Q33.853127 174.892 34.321877 174.3295Q34.80625 173.767 35.7125 173.03262Q37.11875 171.87637 37.603127 171.2045Q38.103127 170.53262 38.103127 169.93887Q38.103127 169.31387 37.65 168.892Q37.196877 168.4545 36.478127 168.4545Q35.7125 168.4545 35.259377 168.90762Q34.80625 169.36075 34.790627 170.17325L33.7125 170.06387Q33.821877 168.84512 34.540627 168.22012Q35.275 167.5795 36.509377 167.5795Q37.74375 167.5795 38.4625 168.267Q39.18125 168.9545 39.18125 169.97012Q39.18125 170.48575 38.9625 170.98575Q38.759377 171.47012 38.259377 172.03262Q37.775 172.5795 36.65 173.53262Q35.696877 174.3295 35.415627 174.62637Q35.15 174.90762 34.978127 175.18887L39.196877 175.18887ZM40.65 173.9545L41.759377 173.86075Q41.884377 174.67325 42.321877 175.0795Q42.775 175.48575 43.415627 175.48575Q44.165627 175.48575 44.696877 174.90762Q45.228127 174.3295 45.228127 173.392Q45.228127 172.48575 44.7125 171.97012Q44.2125 171.43887 43.384377 171.43887Q42.884377 171.43887 42.4625 171.67325Q42.05625 171.90762 41.821877 172.267L40.8375 172.142L41.665627 167.73575L45.946877 167.73575L45.946877 168.73575L42.509377 168.73575L42.05625 171.04825Q42.821877 170.50137 43.665627 170.50137Q44.790627 170.50137 45.55625 171.28262Q46.3375 172.06387 46.3375 173.29825Q46.3375 174.4545 45.665627 175.31387Q44.8375 176.34512 43.415627 176.34512Q42.24375 176.34512 41.49375 175.68887Q40.759377 175.03262 40.65 173.9545ZM51.61875 176.2045L50.571877 176.2045L50.571877 169.48575Q50.18125 169.84512 49.55625 170.22012Q48.946877 170.5795 48.4625 170.75137L48.4625 169.73575Q49.3375 169.31387 49.99375 168.73575Q50.665627 168.142 50.946877 167.5795L51.61875 167.5795L51.61875 176.2045Z" fill-rule="nonzero"/><path fill="#9e9e9e" d="M20.61875 193.2045L19.571875 193.2045L19.571875 186.48575Q19.18125 186.84512 18.55625 187.22012Q17.946875 187.5795 17.4625 187.75137L17.4625 186.73575Q18.3375 186.31387 18.99375 185.73575Q19.665625 185.142 19.946875 184.5795L20.61875 184.5795L20.61875 193.2045ZM24.24375 193.2045L24.24375 192.00137L25.446875 192.00137L25.446875 193.2045L24.24375 193.2045ZM26.65 188.97012Q26.65 187.43887 26.9625 186.517Q27.275 185.5795 27.884375 185.0795Q28.509375 184.5795 29.446875 184.5795Q30.134375 184.5795 30.65 184.86075Q31.18125 185.142 31.525 185.67325Q31.86875 186.18887 32.05625 186.93887Q32.24375 187.68887 32.24375 188.97012Q32.24375 190.48575 31.93125 191.40762Q31.634375 192.3295 31.009375 192.84512Q30.4 193.34512 29.446875 193.34512Q28.2125 193.34512 27.49375 192.4545Q26.65 191.392 26.65 188.97012ZM27.728125 188.97012Q27.728125 191.0795 28.228125 191.78262Q28.728125 192.48575 29.446875 192.48575Q30.18125 192.48575 30.665625 191.78262Q31.165625 191.0795 31.165625 188.97012Q31.165625 186.84512 30.665625 186.15762Q30.18125 185.4545 29.43125 185.4545Q28.7125 185.4545 28.275 186.06387Q27.728125 186.84512 27.728125 188.97012ZM33.853127 186.67325Q33.853127 185.75137 34.30625 185.11075Q34.775 184.47012 35.65 184.47012Q36.4625 184.47012 36.99375 185.04825Q37.525 185.62637 37.525 186.73575Q37.525 187.8295 36.978127 188.42325Q36.446877 189.00137 35.665627 189.00137Q34.884377 189.00137 34.36875 188.42325Q33.853127 187.84512 33.853127 186.67325ZM35.68125 185.18887Q35.290627 185.18887 35.025 185.53262Q34.775 185.87637 34.775 186.78262Q34.775 187.61075 35.025 187.9545Q35.290627 188.28262 35.68125 188.28262Q36.0875 188.28262 36.3375 187.93887Q36.603127 187.59512 36.603127 186.7045Q36.603127 185.86075 36.3375 185.53262Q36.071877 185.18887 35.68125 185.18887ZM35.68125 193.517L40.384377 184.47012L41.24375 184.47012L36.55625 193.517L35.68125 193.517ZM39.4 191.18887Q39.4 190.267 39.853127 189.62637Q40.321877 188.98575 41.2125 188.98575Q42.025 188.98575 42.55625 189.56387Q43.0875 190.12637 43.0875 191.25137Q43.0875 192.34512 42.540627 192.93887Q42.009377 193.517 41.2125 193.517Q40.446877 193.517 39.915627 192.93887Q39.4 192.36075 39.4 191.18887ZM41.24375 189.7045Q40.8375 189.7045 40.571877 190.04825Q40.321877 190.392 40.321877 191.29825Q40.321877 192.11075 40.5875 192.4545Q40.853127 192.79825 41.24375 192.79825Q41.634377 192.79825 41.9 192.4545Q42.165627 192.11075 42.165627 191.2045Q42.165627 190.37637 41.9 190.04825Q41.634377 189.7045 41.24375 189.7045Z" fill-rule="nonzero"/><path stroke="#757575" stroke-width="1.0" stroke-linecap="butt" d="M16.15 180.7045L85.15 180.7045L99.58767 179.43852" fill-rule="nonzero"/><path fill="#9e9e9e" d="M101.58767 179.43852C101.58767 178.33395 100.69224 177.43852 99.58767 177.43852C98.4831 177.43852 97.58767 178.33395 97.58767 179.43852C97.58767 180.5431 98.4831 181.43852 99.58767 181.43852C100.69224 181.43852 101.58767 180.5431 101.58767 179.43852" fill-rule="nonzero"/><path fill="#1a1a1a" d="M16.93125 207.2045L16.93125 200.98575L17.884375 200.98575L17.884375 201.92325Q18.24375 201.267 18.540625 201.06387Q18.853125 200.84512 19.228125 200.84512Q19.759375 200.84512 20.30625 201.17325L19.946875 202.15762Q19.55625 201.92325 19.18125 201.92325Q18.821875 201.92325 18.540625 202.142Q18.275 202.34512 18.165625 202.72012Q17.978125 203.28262 17.978125 203.93887L17.978125 207.2045L16.93125 207.2045ZM23.525 204.62637L23.525 203.56387L26.775 203.56387L26.775 204.62637L23.525 204.62637ZM30.65 204.93887L31.7125 204.79825Q31.884375 205.68887 32.321877 206.09512Q32.759377 206.48575 33.384377 206.48575Q34.134377 206.48575 34.65 205.97012Q35.165627 205.4545 35.165627 204.68887Q35.165627 203.97012 34.68125 203.50137Q34.2125 203.017 33.478127 203.017Q33.18125 203.017 32.728127 203.142L32.853127 202.2045Q32.9625 202.22012 33.025 202.22012Q33.696877 202.22012 34.228127 201.87637Q34.775 201.517 34.775 200.78262Q34.775 200.2045 34.384377 199.8295Q33.99375 199.43887 33.36875 199.43887Q32.759377 199.43887 32.3375 199.8295Q31.93125 200.22012 31.821875 200.98575L30.759375 200.79825Q30.946875 199.75137 31.634375 199.17325Q32.321877 198.5795 33.3375 198.5795Q34.040627 198.5795 34.634377 198.892Q35.228127 199.18887 35.540627 199.7045Q35.853127 200.22012 35.853127 200.81387Q35.853127 201.36075 35.55625 201.8295Q35.259377 202.28262 34.68125 202.54825Q35.43125 202.72012 35.853127 203.28262Q36.275 203.8295 36.275 204.67325Q36.275 205.79825 35.446877 206.5795Q34.634377 207.36075 33.384377 207.36075Q32.259377 207.36075 31.509375 206.68887Q30.759375 206.00137 30.65 204.93887ZM37.80625 205.22012L38.821877 205.12637Q38.946877 205.84512 39.30625 206.17325Q39.68125 206.48575 40.24375 206.48575Q40.728127 206.48575 41.0875 206.267Q41.4625 206.03262 41.696877 205.67325Q41.93125 205.29825 42.0875 204.67325Q42.24375 204.03262 42.24375 203.37637Q42.24375 203.29825 42.24375 203.15762Q41.93125 203.65762 41.384377 203.98575Q40.8375 204.29825 40.196877 204.29825Q39.11875 204.29825 38.384377 203.53262Q37.65 202.75137 37.65 201.48575Q37.65 200.17325 38.415627 199.37637Q39.196877 198.5795 40.353127 198.5795Q41.18125 198.5795 41.86875 199.03262Q42.571877 199.48575 42.93125 200.3295Q43.290627 201.15762 43.290627 202.73575Q43.290627 204.37637 42.93125 205.36075Q42.5875 206.3295 41.86875 206.84512Q41.165627 207.34512 40.228127 207.34512Q39.2125 207.34512 38.571877 206.79825Q37.93125 206.23575 37.80625 205.22012ZM42.11875 201.42325Q42.11875 200.517 41.634377 199.98575Q41.165627 199.4545 40.478127 199.4545Q39.775 199.4545 39.24375 200.03262Q38.728127 200.59512 38.728127 201.517Q38.728127 202.3295 39.228127 202.84512Q39.728127 203.36075 40.446877 203.36075Q41.18125 203.36075 41.65 202.84512Q42.11875 202.3295 42.11875 201.42325ZM44.80625 205.22012L45.821877 205.12637Q45.946877 205.84512 46.30625 206.17325Q46.68125 206.48575 47.24375 206.48575Q47.728127 206.48575 48.0875 206.267Q48.4625 206.03262 48.696877 205.67325Q48.93125 205.29825 49.0875 204.67325Q49.24375 204.03262 49.24375 203.37637Q49.24375 203.29825 49.24375 203.15762Q48.93125 203.65762 48.384377 203.98575Q47.8375 204.29825 47.196877 204.29825Q46.11875 204.29825 45.384377 203.53262Q44.65 202.75137 44.65 201.48575Q44.65 200.17325 45.415627 199.37637Q46.196877 198.5795 47.353127 198.5795Q48.18125 198.5795 48.86875 199.03262Q49.571877 199.48575 49.93125 200.3295Q50.290627 201.15762 50.290627 202.73575Q50.290627 204.37637 49.93125 205.36075Q49.5875 206.3295 48.86875 206.84512Q48.165627 207.34512 47.228127 207.34512Q46.2125 207.34512 45.571877 206.79825Q44.93125 206.23575 44.80625 205.22012ZM49.11875 201.42325Q49.11875 200.517 48.634377 199.98575Q48.165627 199.4545 47.478127 199.4545Q46.775 199.4545 46.24375 200.03262Q45.728127 200.59512 45.728127 201.517Q45.728127 202.3295 46.228127 202.84512Q46.728127 203.36075 47.446877 203.36075Q48.18125 203.36075 48.65 202.84512Q49.11875 202.3295 49.11875 201.42325Z" fill-rule="nonzero"/><path fill="#9e9e9e" d="M20.61875 224.2045L19.571875 224.2045L19.571875 217.48575Q19.18125 217.84512 18.55625 218.22012Q17.946875 218.5795 17.4625 218.75137L17.4625 217.73575Q18.3375 217.31387 18.99375 216.73575Q19.665625 216.142 19.946875 215.5795L20.61875 215.5795L20.61875 224.2045ZM24.24375 224.2045L24.24375 223.00137L25.446875 223.00137L25.446875 224.2045L24.24375 224.2045ZM32.11875 217.72012L31.071875 217.79825Q30.93125 217.17325 30.68125 216.892Q30.24375 216.43887 29.61875 216.43887Q29.11875 216.43887 28.728125 216.72012Q28.24375 217.09512 27.946875 217.79825Q27.665625 218.48575 27.65 219.767Q28.025 219.18887 28.571875 218.90762Q29.134375 218.62637 29.74375 218.62637Q30.790625 218.62637 31.525 219.40762Q32.275 220.18887 32.275 221.40762Q32.275 222.22012 31.915625 222.92325Q31.571875 223.61075 30.9625 223.98575Q30.353125 224.34512 29.5875 224.34512Q28.259375 224.34512 27.43125 223.37637Q26.603125 222.40762 26.603125 220.18887Q26.603125 217.68887 27.525 216.56387Q28.321875 215.5795 29.68125 215.5795Q30.696875 215.5795 31.3375 216.15762Q31.99375 216.72012 32.11875 217.72012ZM27.821875 221.42325Q27.821875 221.97012 28.040625 222.47012Q28.275 222.9545 28.68125 223.22012Q29.103125 223.48575 29.571875 223.48575Q30.228125 223.48575 30.7125 222.9545Q31.196875 222.40762 31.196875 221.48575Q31.196875 220.59512 30.7125 220.0795Q30.24375 219.56387 29.525 219.56387Q28.80625 219.56387 28.30625 220.0795Q27.821875 220.59512 27.821875 221.42325ZM33.853127 217.67325Q33.853127 216.75137 34.30625 216.11075Q34.775 215.47012 35.65 215.47012Q36.4625 215.47012 36.99375 216.04825Q37.525 216.62637 37.525 217.73575Q37.525 218.8295 36.978127 219.42325Q36.446877 220.00137 35.665627 220.00137Q34.884377 220.00137 34.36875 219.42325Q33.853127 218.84512 33.853127 217.67325ZM35.68125 216.18887Q35.290627 216.18887 35.025 216.53262Q34.775 216.87637 34.775 217.78262Q34.775 218.61075 35.025 218.9545Q35.290627 219.28262 35.68125 219.28262Q36.0875 219.28262 36.3375 218.93887Q36.603127 218.59512 36.603127 217.7045Q36.603127 216.86075 36.3375 216.53262Q36.071877 216.18887 35.68125 216.18887ZM35.68125 224.517L40.384377 215.47012L41.24375 215.47012L36.55625 224.517L35.68125 224.517ZM39.4 222.18887Q39.4 221.267 39.853127 220.62637Q40.321877 219.98575 41.2125 219.98575Q42.025 219.98575 42.55625 220.56387Q43.0875 221.12637 43.0875 222.25137Q43.0875 223.34512 42.540627 223.93887Q42.009377 224.517 41.2125 224.517Q40.446877 224.517 39.915627 223.93887Q39.4 223.36075 39.4 222.18887ZM41.24375 220.7045Q40.8375 220.7045 40.571877 221.04825Q40.321877 221.392 40.321877 222.29825Q40.321877 223.11075 40.5875 223.4545Q40.853127 223.79825 41.24375 223.79825Q41.634377 223.79825 41.9 223.4545Q42.165627 223.11075 42.165627 222.2045Q42.165627 221.37637 41.9 221.04825Q41.634377 220.7045 41.24375 220.7045Z" fill-rule="nonzero"/><path stroke="#757575" stroke-width="1.0" stroke-linecap="butt" d="M16.15 211.7045L85.15 211.7045L101.47564 190.3998" fill-rule="nonzero"/><path fill="#9e9e9e" d="M103.47564 190.3998C103.47564 189.29523 102.58021 188.3998 101.47564 188.3998C100.37107 188.3998 99.47564 189.29523 99.47564 190.3998C99.47564 191.50436 100.37107 192.3998 101.47564 192.3998C102.58021 192.3998 103.47564 191.50436 103.47564 190.3998" fill-rule="nonzero"/><path fill="#1a1a1a" d="M391.64688 27.15L391.64688 20.93125L392.58438 20.93125L392.58438 21.80625Q392.88126 21.3375 393.36563 21.071875Q393.85 20.790625 394.475 20.790625Q395.1625 20.790625 395.6 21.071875Q396.05313 21.353125 396.225 21.86875Q396.975 20.790625 398.14688 20.790625Q399.08438 20.790625 399.56876 21.30625Q400.06876 21.80625 400.06876 22.884375L400.06876 27.15L399.02188 27.15L399.02188 23.228125Q399.02188 22.603125 398.9125 22.321875Q398.81876 22.040625 398.55313 21.86875Q398.2875 21.696875 397.9125 21.696875Q397.25626 21.696875 396.81876 22.134375Q396.39688 22.571875 396.39688 23.540625L396.39688 27.15L395.33438 27.15L395.33438 23.103125Q395.33438 22.4 395.06876 22.05625Q394.81876 21.696875 394.24063 21.696875Q393.7875 21.696875 393.4125 21.93125Q393.0375 22.165625 392.86563 22.61875Q392.69376 23.071875 392.69376 23.915625L392.69376 27.15L391.64688 27.15ZM401.64688 19.775L401.64688 18.55625L402.70938 18.55625L402.70938 19.775L401.64688 19.775ZM401.64688 27.15L401.64688 20.93125L402.70938 20.93125L402.70938 27.15L401.64688 27.15ZM404.225 25.290625L405.25626 25.134375Q405.35 25.759375 405.74063 26.0875Q406.14688 26.415625 406.88126 26.415625Q407.6 26.415625 407.94376 26.134375Q408.30313 25.8375 408.30313 25.43125Q408.30313 25.071875 407.99063 24.86875Q407.77188 24.728125 406.9125 24.509375Q405.75626 24.2125 405.30313 24.009375Q404.86563 23.790625 404.63126 23.415625Q404.39688 23.040625 404.39688 22.571875Q404.39688 22.165625 404.58438 21.80625Q404.77188 21.446875 405.1 21.2125Q405.35 21.040625 405.77188 20.915625Q406.19376 20.790625 406.69376 20.790625Q407.4125 20.790625 407.95938 21.009375Q408.52188 21.2125 408.7875 21.571875Q409.05313 21.93125 409.14688 22.525L408.11563 22.665625Q408.05313 22.196875 407.70938 21.93125Q407.38126 21.65 406.75626 21.65Q406.0375 21.65 405.725 21.9Q405.4125 22.134375 405.4125 22.4625Q405.4125 22.665625 405.5375 22.821875Q405.67813 22.99375 405.94376 23.103125Q406.1 23.165625 406.88126 23.36875Q408.00626 23.68125 408.44376 23.86875Q408.88126 24.05625 409.13126 24.415625Q409.38126 24.775 409.38126 25.321875Q409.38126 25.853125 409.06876 26.321875Q408.77188 26.775 408.19376 27.040625Q407.61563 27.290625 406.88126 27.290625Q405.6625 27.290625 405.02188 26.790625Q404.39688 26.275 404.225 25.290625ZM414.70938 24.86875L415.74063 25.009375Q415.56876 26.071875 414.86563 26.68125Q414.1625 27.290625 413.14688 27.290625Q411.86563 27.290625 411.08438 26.4625Q410.31876 25.61875 410.31876 24.05625Q410.31876 23.05625 410.64688 22.30625Q410.99063 21.540625 411.6625 21.165625Q412.35 20.790625 413.1625 20.790625Q414.1625 20.790625 414.80313 21.30625Q415.45938 21.80625 415.64688 22.759375L414.61563 22.915625Q414.475 22.290625 414.1 21.978125Q413.725 21.65 413.19376 21.65Q412.39688 21.65 411.89688 22.228125Q411.39688 22.790625 411.39688 24.025Q411.39688 25.290625 411.88126 25.853125Q412.36563 26.415625 413.13126 26.415625Q413.75626 26.415625 414.1625 26.040625Q414.58438 25.665625 414.70938 24.86875ZM419.225 24.571875L419.225 23.509375L422.475 23.509375L422.475 24.571875L419.225 24.571875ZM430.31876 27.15L429.27188 27.15L429.27188 20.43125Q428.88126 20.790625 428.25626 21.165625Q427.64688 21.525 427.1625 21.696875L427.1625 20.68125Q428.0375 20.259375 428.69376 19.68125Q429.36563 19.0875 429.64688 18.525L430.31876 18.525L430.31876 27.15ZM433.9125 27.15L433.9125 25.946875L435.11563 25.946875L435.11563 27.15Q435.11563 27.80625 434.88126 28.2125Q434.64688 28.634375 434.14688 28.853125L433.85 28.4Q434.17813 28.259375 434.33438 27.9625Q434.49063 27.68125 434.52188 27.15L433.9125 27.15ZM436.35 22.915625Q436.35 21.384375 436.6625 20.4625Q436.975 19.525 437.58438 19.025Q438.20938 18.525 439.14688 18.525Q439.83438 18.525 440.35 18.80625Q440.88126 19.0875 441.225 19.61875Q441.56876 20.134375 441.75626 20.884375Q441.94376 21.634375 441.94376 22.915625Q441.94376 24.43125 441.63126 25.353125Q441.33438 26.275 440.70938 26.790625Q440.1 27.290625 439.14688 27.290625Q437.9125 27.290625 437.19376 26.4Q436.35 25.3375 436.35 22.915625ZM437.42813 22.915625Q437.42813 25.025 437.92813 25.728125Q438.42813 26.43125 439.14688 26.43125Q439.88126 26.43125 440.36563 25.728125Q440.86563 25.025 440.86563 22.915625Q440.86563 20.790625 440.36563 20.103125Q439.88126 19.4 439.13126 19.4Q438.4125 19.4 437.975 20.009375Q437.42813 20.790625 437.42813 22.915625ZM443.35 24.9L444.45938 24.80625Q444.58438 25.61875 445.02188 26.025Q445.475 26.43125 446.11563 26.43125Q446.86563 26.43125 447.39688 25.853125Q447.92813 25.275 447.92813 24.3375Q447.92813 23.43125 447.4125 22.915625Q446.9125 22.384375 446.08438 22.384375Q445.58438 22.384375 445.1625 22.61875Q444.75626 22.853125 444.52188 23.2125L443.5375 23.0875L444.36563 18.68125L448.64688 18.68125L448.64688 19.68125L445.20938 19.68125L444.75626 21.99375Q445.52188 21.446875 446.36563 21.446875Q447.49063 21.446875 448.25626 22.228125Q449.0375 23.009375 449.0375 24.24375Q449.0375 25.4 448.36563 26.259375Q447.5375 27.290625 446.11563 27.290625Q444.94376 27.290625 444.19376 26.634375Q443.45938 25.978125 443.35 24.9ZM455.81876 20.665625L454.77188 20.74375Q454.63126 20.11875 454.38126 19.8375Q453.94376 19.384375 453.31876 19.384375Q452.81876 19.384375 452.42813 19.665625Q451.94376 20.040625 451.64688 20.74375Q451.36563 21.43125 451.35 22.7125Q451.725 22.134375 452.27188 21.853125Q452.83438 21.571875 453.44376 21.571875Q454.49063 21.571875 455.225 22.353125Q455.975 23.134375 455.975 24.353125Q455.975 25.165625 455.61563 25.86875Q455.27188 26.55625 454.6625 26.93125Q454.05313 27.290625 453.2875 27.290625Q451.95938 27.290625 451.13126 26.321875Q450.30313 25.353125 450.30313 23.134375Q450.30313 20.634375 451.225 19.509375Q452.02188 18.525 453.38126 18.525Q454.39688 18.525 455.0375 19.103125Q455.69376 19.665625 455.81876 20.665625ZM451.52188 24.36875Q451.52188 24.915625 451.74063 25.415625Q451.975 25.9 452.38126 26.165625Q452.80313 26.43125 453.27188 26.43125Q453.92813 26.43125 454.4125 25.9Q454.89688 25.353125 454.89688 24.43125Q454.89688 23.540625 454.4125 23.025Q453.94376 22.509375 453.225 22.509375Q452.50626 22.509375 452.00626 23.025Q451.52188 23.540625 451.52188 24.36875Z" fill-rule="nonzero"/><path fill="#9e9e9e" d="M432.725 44.15L432.725 42.0875L429.00626 42.0875L429.00626 41.11875L432.92813 35.55625L433.7875 35.55625L433.7875 41.11875L434.94376 41.11875L434.94376 42.0875L433.7875 42.0875L433.7875 44.15L432.725 44.15ZM432.725 41.11875L432.725 37.259377L430.0375 41.11875L432.725 41.11875ZM436.94376 44.15L436.94376 42.946877L438.14688 42.946877L438.14688 44.15L436.94376 44.15ZM444.89688 43.134377L444.89688 44.15L439.20938 44.15Q439.20938 43.775 439.33438 43.415627Q439.55313 42.8375 440.02188 42.275Q440.50626 41.7125 441.4125 40.978127Q442.81876 39.821877 443.30313 39.15Q443.80313 38.478127 443.80313 37.884377Q443.80313 37.259377 443.35 36.8375Q442.89688 36.4 442.17813 36.4Q441.4125 36.4 440.95938 36.853127Q440.50626 37.30625 440.49063 38.11875L439.4125 38.009377Q439.52188 36.790627 440.24063 36.165627Q440.975 35.525 442.20938 35.525Q443.44376 35.525 444.1625 36.2125Q444.88126 36.9 444.88126 37.915627Q444.88126 38.43125 444.6625 38.93125Q444.45938 39.415627 443.95938 39.978127Q443.475 40.525 442.35 41.478127Q441.39688 42.275 441.11563 42.571877Q440.85 42.853127 440.67813 43.134377L444.89688 43.134377ZM446.55313 37.61875Q446.55313 36.696877 447.00626 36.05625Q447.475 35.415627 448.35 35.415627Q449.1625 35.415627 449.69376 35.99375Q450.225 36.571877 450.225 37.68125Q450.225 38.775 449.67813 39.36875Q449.14688 39.946877 448.36563 39.946877Q447.58438 39.946877 447.06876 39.36875Q446.55313 38.790627 446.55313 37.61875ZM448.38126 36.134377Q447.99063 36.134377 447.725 36.478127Q447.475 36.821877 447.475 37.728127Q447.475 38.55625 447.725 38.9Q447.99063 39.228127 448.38126 39.228127Q448.7875 39.228127 449.0375 38.884377Q449.30313 38.540627 449.30313 37.65Q449.30313 36.80625 449.0375 36.478127Q448.77188 36.134377 448.38126 36.134377ZM448.38126 44.4625L453.08438 35.415627L453.94376 35.415627L449.25626 44.4625L448.38126 44.4625ZM452.1 42.134377Q452.1 41.2125 452.55313 40.571877Q453.02188 39.93125 453.9125 39.93125Q454.725 39.93125 455.25626 40.509377Q455.7875 41.071877 455.7875 42.196877Q455.7875 43.290627 455.24063 43.884377Q454.70938 44.4625 453.9125 44.4625Q453.14688 44.4625 452.61563 43.884377Q452.1 43.30625 452.1 42.134377ZM453.94376 40.65Q453.5375 40.65 453.27188 40.99375Q453.02188 41.3375 453.02188 42.24375Q453.02188 43.05625 453.2875 43.4Q453.55313 43.74375 453.94376 43.74375Q454.33438 43.74375 454.6 43.4Q454.86563 43.05625 454.86563 42.15Q454.86563 41.321877 454.6 40.99375Q454.33438 40.65 453.94376 40.65Z" fill-rule="nonzero"/><path stroke="#757575" stroke-width="1.0" stroke-linecap="butt" d="M456.85 31.65L387.85 31.65L254.52338 24.598814" fill-rule="nonzero"/><path fill="#9e9e9e" d="M256.52338 24.598814C256.52338 23.494246 255.62794 22.598814 254.52338 22.598814C253.41881 22.598814 252.52338 23.494246 252.52338 24.598814C252.52338 25.703384 253.41881 26.598814 254.52338 26.598814C255.62794 26.598814 256.52338 25.703384 256.52338 24.598814" fill-rule="nonzero"/><path fill="#1a1a1a" d="M389.89688 254.71167L389.89688 249.30542L388.95938 249.30542L388.95938 248.49292L389.89688 248.49292L389.89688 247.82104Q389.89688 247.19604 390.00626 246.89917Q390.1625 246.4773 390.5375 246.2273Q390.92813 245.9773 391.61563 245.9773Q392.06876 245.9773 392.6 246.08667L392.44376 246.99292Q392.11563 246.94604 391.81876 246.94604Q391.33438 246.94604 391.13126 247.14917Q390.94376 247.3523 390.94376 247.9148L390.94376 248.49292L392.1625 248.49292L392.1625 249.30542L390.94376 249.30542L390.94376 254.71167L389.89688 254.71167ZM392.25626 251.6023Q392.25626 249.86792 393.20938 249.0398Q394.00626 248.3523 395.1625 248.3523Q396.44376 248.3523 397.25626 249.19604Q398.08438 250.02417 398.08438 251.50854Q398.08438 252.71167 397.725 253.39917Q397.36563 254.08667 396.6625 254.4773Q395.975 254.8523 395.1625 254.8523Q393.86563 254.8523 393.05313 254.02417Q392.25626 253.18042 392.25626 251.6023ZM393.33438 251.6023Q393.33438 252.7898 393.85 253.38354Q394.38126 253.9773 395.1625 253.9773Q395.95938 253.9773 396.475 253.38354Q396.99063 252.7898 396.99063 251.57104Q396.99063 250.4148 396.45938 249.82104Q395.94376 249.2273 395.1625 249.2273Q394.38126 249.2273 393.85 249.82104Q393.33438 250.39917 393.33438 251.6023ZM399.64688 254.71167L399.64688 248.49292L400.58438 248.49292L400.58438 249.36792Q401.27188 248.3523 402.56876 248.3523Q403.13126 248.3523 403.6 248.55542Q404.08438 248.75854 404.31876 249.08667Q404.55313 249.4148 404.64688 249.8523Q404.69376 250.14917 404.69376 250.88354L404.69376 254.71167L403.64688 254.71167L403.64688 250.93042Q403.64688 250.27417 403.52188 249.96167Q403.39688 249.64917 403.08438 249.46167Q402.77188 249.25854 402.35 249.25854Q401.67813 249.25854 401.17813 249.69604Q400.69376 250.11792 400.69376 251.30542L400.69376 254.71167L399.64688 254.71167ZM408.94376 253.77417L409.1 254.69604Q408.64688 254.7898 408.30313 254.7898Q407.725 254.7898 407.4125 254.61792Q407.1 254.43042 406.95938 254.13354Q406.83438 253.83667 406.83438 252.88354L406.83438 249.30542L406.06876 249.30542L406.06876 248.49292L406.83438 248.49292L406.83438 246.94604L407.88126 246.32104L407.88126 248.49292L408.94376 248.49292L408.94376 249.30542L407.88126 249.30542L407.88126 252.94604Q407.88126 253.39917 407.92813 253.52417Q407.99063 253.64917 408.11563 253.7273Q408.24063 253.80542 408.475 253.80542Q408.6625 253.80542 408.94376 253.77417ZM412.225 252.13354L412.225 251.07104L415.475 251.07104L415.475 252.13354L412.225 252.13354ZM423.31876 254.71167L422.27188 254.71167L422.27188 247.99292Q421.88126 248.3523 421.25626 248.7273Q420.64688 249.08667 420.1625 249.25854L420.1625 248.24292Q421.0375 247.82104 421.69376 247.24292Q422.36563 246.64917 422.64688 246.08667L423.31876 246.08667L423.31876 254.71167ZM431.81876 248.2273L430.77188 248.30542Q430.63126 247.68042 430.38126 247.39917Q429.94376 246.94604 429.31876 246.94604Q428.81876 246.94604 428.42813 247.2273Q427.94376 247.6023 427.64688 248.30542Q427.36563 248.99292 427.35 250.27417Q427.725 249.69604 428.27188 249.4148Q428.83438 249.13354 429.44376 249.13354Q430.49063 249.13354 431.225 249.9148Q431.975 250.69604 431.975 251.9148Q431.975 252.7273 431.61563 253.43042Q431.27188 254.11792 430.6625 254.49292Q430.05313 254.8523 429.2875 254.8523Q427.95938 254.8523 427.13126 253.88354Q426.30313 252.9148 426.30313 250.69604Q426.30313 248.19604 427.225 247.07104Q428.02188 246.08667 429.38126 246.08667Q430.39688 246.08667 431.0375 246.6648Q431.69376 247.2273 431.81876 248.2273ZM427.52188 251.93042Q427.52188 252.4773 427.74063 252.9773Q427.975 253.46167 428.38126 253.7273Q428.80313 253.99292 429.27188 253.99292Q429.92813 253.99292 430.4125 253.46167Q430.89688 252.9148 430.89688 251.99292Q430.89688 251.1023 430.4125 250.58667Q429.94376 250.07104 429.225 250.07104Q428.50626 250.07104 428.00626 250.58667Q427.52188 251.1023 427.52188 251.93042ZM433.9125 254.71167L433.9125 253.50854L435.11563 253.50854L435.11563 254.71167Q435.11563 255.36792 434.88126 255.77417Q434.64688 256.19604 434.14688 256.4148L433.85 255.96167Q434.17813 255.82104 434.33438 255.52417Q434.49063 255.24292 434.52188 254.71167L433.9125 254.71167ZM436.50626 252.7273L437.52188 252.63354Q437.64688 253.3523 438.00626 253.68042Q438.38126 253.99292 438.94376 253.99292Q439.42813 253.99292 439.7875 253.77417Q440.1625 253.5398 440.39688 253.18042Q440.63126 252.80542 440.7875 252.18042Q440.94376 251.5398 440.94376 250.88354Q440.94376 250.80542 440.94376 250.6648Q440.63126 251.1648 440.08438 251.49292Q439.5375 251.80542 438.89688 251.80542Q437.81876 251.80542 437.08438 251.0398Q436.35 250.25854 436.35 248.99292Q436.35 247.68042 437.11563 246.88354Q437.89688 246.08667 439.05313 246.08667Q439.88126 246.08667 440.56876 246.5398Q441.27188 246.99292 441.63126 247.83667Q441.99063 248.6648 441.99063 250.24292Q441.99063 251.88354 441.63126 252.86792Q441.2875 253.83667 440.56876 254.3523Q439.86563 254.8523 438.92813 254.8523Q437.9125 254.8523 437.27188 254.30542Q436.63126 253.74292 436.50626 252.7273ZM440.81876 248.93042Q440.81876 248.02417 440.33438 247.49292Q439.86563 246.96167 439.17813 246.96167Q438.475 246.96167 437.94376 247.5398Q437.42813 248.1023 437.42813 249.02417Q437.42813 249.83667 437.92813 250.3523Q438.42813 250.86792 439.14688 250.86792Q439.88126 250.86792 440.35 250.3523Q440.81876 249.83667 440.81876 248.93042ZM443.35 250.4773Q443.35 248.94604 443.6625 248.02417Q443.975 247.08667 444.58438 246.58667Q445.20938 246.08667 446.14688 246.08667Q446.83438 246.08667 447.35 246.36792Q447.88126 246.64917 448.225 247.18042Q448.56876 247.69604 448.75626 248.44604Q448.94376 249.19604 448.94376 250.4773Q448.94376 251.99292 448.63126 252.9148Q448.33438 253.83667 447.70938 254.3523Q447.1 254.8523 446.14688 254.8523Q444.9125 254.8523 444.19376 253.96167Q443.35 252.89917 443.35 250.4773ZM444.42813 250.4773Q444.42813 252.58667 444.92813 253.2898Q445.42813 253.99292 446.14688 253.99292Q446.88126 253.99292 447.36563 253.2898Q447.86563 252.58667 447.86563 250.4773Q447.86563 248.3523 447.36563 247.6648Q446.88126 246.96167 446.13126 246.96167Q445.4125 246.96167 444.975 247.57104Q444.42813 248.3523 444.42813 250.4773ZM455.89688 253.69604L455.89688 254.71167L450.20938 254.71167Q450.20938 254.33667 450.33438 253.9773Q450.55313 253.39917 451.02188 252.83667Q451.50626 252.27417 452.4125 251.5398Q453.81876 250.38354 454.30313 249.71167Q454.80313 249.0398 454.80313 248.44604Q454.80313 247.82104 454.35 247.39917Q453.89688 246.96167 453.17813 246.96167Q452.4125 246.96167 451.95938 247.4148Q451.50626 247.86792 451.49063 248.68042L450.4125 248.57104Q450.52188 247.3523 451.24063 246.7273Q451.975 246.08667 453.20938 246.08667Q454.44376 246.08667 455.1625 246.77417Q455.88126 247.46167 455.88126 248.4773Q455.88126 248.99292 455.6625 249.49292Q455.45938 249.9773 454.95938 250.5398Q454.475 251.08667 453.35 252.0398Q452.39688 252.83667 452.11563 253.13354Q451.85 253.4148 451.67813 253.69604L455.89688 253.69604Z" fill-rule="nonzero"/><path fill="#9e9e9e" d="M427.81876 265.2273L426.77188 265.30542Q426.63126 264.68042 426.38126 264.39917Q425.94376 263.94604 425.31876 263.94604Q424.81876 263.94604 424.42813 264.2273Q423.94376 264.6023 423.64688 265.30542Q423.36563 265.99292 423.35 267.27417Q423.725 266.69604 424.27188 266.4148Q424.83438 266.13354 425.44376 266.13354Q426.49063 266.13354 427.225 266.9148Q427.975 267.69604 427.975 268.9148Q427.975 269.7273 427.61563 270.43042Q427.27188 271.11792 426.6625 271.49292Q426.05313 271.8523 425.2875 271.8523Q423.95938 271.8523 423.13126 270.88354Q422.30313 269.9148 422.30313 267.69604Q422.30313 265.19604 423.225 264.07104Q424.02188 263.08667 425.38126 263.08667Q426.39688 263.08667 427.0375 263.6648Q427.69376 264.2273 427.81876 265.2273ZM423.52188 268.93042Q423.52188 269.4773 423.74063 269.9773Q423.975 270.46167 424.38126 270.7273Q424.80313 270.99292 425.27188 270.99292Q425.92813 270.99292 426.4125 270.46167Q426.89688 269.9148 426.89688 268.99292Q426.89688 268.1023 426.4125 267.58667Q425.94376 267.07104 425.225 267.07104Q424.50626 267.07104 424.00626 267.58667Q423.52188 268.1023 423.52188 268.93042ZM434.81876 265.2273L433.77188 265.30542Q433.63126 264.68042 433.38126 264.39917Q432.94376 263.94604 432.31876 263.94604Q431.81876 263.94604 431.42813 264.2273Q430.94376 264.6023 430.64688 265.30542Q430.36563 265.99292 430.35 267.27417Q430.725 266.69604 431.27188 266.4148Q431.83438 266.13354 432.44376 266.13354Q433.49063 266.13354 434.225 266.9148Q434.975 267.69604 434.975 268.9148Q434.975 269.7273 434.61563 270.43042Q434.27188 271.11792 433.6625 271.49292Q433.05313 271.8523 432.2875 271.8523Q430.95938 271.8523 430.13126 270.88354Q429.30313 269.9148 429.30313 267.69604Q429.30313 265.19604 430.225 264.07104Q431.02188 263.08667 432.38126 263.08667Q433.39688 263.08667 434.0375 263.6648Q434.69376 264.2273 434.81876 265.2273ZM430.52188 268.93042Q430.52188 269.4773 430.74063 269.9773Q430.975 270.46167 431.38126 270.7273Q431.80313 270.99292 432.27188 270.99292Q432.92813 270.99292 433.4125 270.46167Q433.89688 269.9148 433.89688 268.99292Q433.89688 268.1023 433.4125 267.58667Q432.94376 267.07104 432.225 267.07104Q431.50626 267.07104 431.00626 267.58667Q430.52188 268.1023 430.52188 268.93042ZM436.94376 271.71167L436.94376 270.50854L438.14688 270.50854L438.14688 271.71167L436.94376 271.71167ZM439.4125 264.24292L439.4125 263.2273L444.975 263.2273L444.975 264.05542Q444.1625 264.93042 443.35 266.38354Q442.55313 267.82104 442.11563 269.3523Q441.7875 270.43042 441.70938 271.71167L440.61563 271.71167Q440.63126 270.69604 441.00626 269.25854Q441.39688 267.82104 442.1 266.49292Q442.81876 265.1648 443.63126 264.24292L439.4125 264.24292ZM446.55313 265.18042Q446.55313 264.25854 447.00626 263.61792Q447.475 262.9773 448.35 262.9773Q449.1625 262.9773 449.69376 263.55542Q450.225 264.13354 450.225 265.24292Q450.225 266.33667 449.67813 266.93042Q449.14688 267.50854 448.36563 267.50854Q447.58438 267.50854 447.06876 266.93042Q446.55313 266.3523 446.55313 265.18042ZM448.38126 263.69604Q447.99063 263.69604 447.725 264.0398Q447.475 264.38354 447.475 265.2898Q447.475 266.11792 447.725 266.46167Q447.99063 266.7898 448.38126 266.7898Q448.7875 266.7898 449.0375 266.44604Q449.30313 266.1023 449.30313 265.21167Q449.30313 264.36792 449.0375 264.0398Q448.77188 263.69604 448.38126 263.69604ZM448.38126 272.02417L453.08438 262.9773L453.94376 262.9773L449.25626 272.02417L448.38126 272.02417ZM452.1 269.69604Q452.1 268.77417 452.55313 268.13354Q453.02188 267.49292 453.9125 267.49292Q454.725 267.49292 455.25626 268.07104Q455.7875 268.63354 455.7875 269.75854Q455.7875 270.8523 455.24063 271.44604Q454.70938 272.02417 453.9125 272.02417Q453.14688 272.02417 452.61563 271.44604Q452.1 270.86792 452.1 269.69604ZM453.94376 268.21167Q453.5375 268.21167 453.27188 268.55542Q453.02188 268.89917 453.02188 269.80542Q453.02188 270.61792 453.2875 270.96167Q453.55313 271.30542 453.94376 271.30542Q454.33438 271.30542 454.6 270.96167Q454.86563 270.61792 454.86563 269.71167Q454.86563 268.88354 454.6 268.55542Q454.33438 268.21167 453.94376 268.21167Z" fill-rule="nonzero"/><path stroke="#757575" stroke-width="1.0" stroke-linecap="butt" d="M456.85 259.21167L387.85 259.21167L334.06644 259.21167" fill-rule="nonzero"/><path fill="#9e9e9e" d="M336.06644 259.21167C336.06644 258.1071 335.171 257.21167 334.06644 257.21167C332.96185 257.21167 332.06644 258.1071 332.06644 259.21167C332.06644 260.31622 332.96185 261.21167 334.06644 261.21167C335.171 261.21167 336.06644 260.31622 336.06644 259.21167" fill-rule="nonzero"/></svg>