<svg version="1.1" viewBox="0.0 0.0 347.0 424.0" fill="none" stroke="none" stroke-linecap="square" stroke-miterlimit="10" width="347" height="424" xmlns:xlink="http://www.w3.org/1999/xlink" xmlns="http://www.w3.org/2000/svg"><path fill="#ffffff" d="M0 0L347.0 0L347.0 424.0L0 424.0L0 0Z" fill-rule="nonzero"/><path fill="#4285f4" d="M173.5 76.916664C182.74355 76.916664 191.96785 77.75939 201.05838 79.43437L173.5 229.0Z" fill-rule="nonzero"/><path fill="#ea4335" d="M201.05838 79.43437C210.7768 81.22505 220.29755 83.95868 229.48561 87.5965L173.5 229.0Z" fill-rule="nonzero"/><path fill="#b7b7b7" d="M125.5958 373.3417C54.766853 349.83496 11.458684 278.4091 23.364548 204.73714C35.270412 131.06519 98.872215 76.916664 173.5 76.916664L173.5 229.0Z" fill-rule="nonzero"/><path fill="#d9d9d9" d="M229.48561 87.5965C306.0238 117.9001 344.55746 203.60138 316.42975 280.96567C288.302 358.32996 203.72435 399.27106 125.5958 373.3417L173.5 229.0Z" fill-rule="nonzero"/><path fill="#000000" d="M183.95605 107.92975L183.95605 109.11725L177.33105 109.11725Q177.31543 108.67975 177.47168 108.25787Q177.7373 107.586 178.28418 106.92975Q178.84668 106.2735 179.89355 105.41412Q181.53418 104.07037 182.09668 103.28912Q182.6748 102.50787 182.6748 101.80475Q182.6748 101.07037 182.14355 100.57037Q181.62793 100.07037 180.7998 100.07037Q179.90918 100.07037 179.3623 100.60162Q178.83105 101.13287 178.83105 102.086L177.56543 101.94537Q177.69043 100.53912 178.53418 99.80475Q179.39355 99.05475 180.81543 99.05475Q182.26855 99.05475 183.09668 99.85162Q183.94043 100.6485 183.94043 101.836Q183.94043 102.44537 183.69043 103.0235Q183.45605 103.60162 182.87793 104.24225Q182.31543 104.88287 180.9873 106.00787Q179.87793 106.92975 179.56543 107.2735Q179.25293 107.60162 179.0498 107.92975L183.95605 107.92975ZM185.6748 106.80475L186.8623 106.69537Q187.00293 107.5235 187.4248 107.8985Q187.8623 108.2735 188.51855 108.2735Q189.08105 108.2735 189.50293 108.0235Q189.94043 107.75787 190.20605 107.32037Q190.4873 106.88287 190.6748 106.1485Q190.8623 105.41412 190.8623 104.6485Q190.8623 104.57037 190.84668 104.3985Q190.4873 104.99225 189.84668 105.36725Q189.20605 105.72662 188.45605 105.72662Q187.20605 105.72662 186.34668 104.82037Q185.4873 103.91412 185.4873 102.44537Q185.4873 100.91412 186.37793 99.99225Q187.28418 99.05475 188.64355 99.05475Q189.6123 99.05475 190.4248 99.586Q191.2373 100.10162 191.65918 101.086Q192.08105 102.05475 192.08105 103.8985Q192.08105 105.82037 191.65918 106.961Q191.25293 108.10162 190.4248 108.69537Q189.59668 109.28912 188.4873 109.28912Q187.31543 109.28912 186.56543 108.63287Q185.83105 107.97662 185.6748 106.80475ZM190.70605 102.38287Q190.70605 101.32037 190.14355 100.69537Q189.58105 100.07037 188.7998 100.07037Q187.97168 100.07037 187.3623 100.74225Q186.75293 101.41412 186.75293 102.47662Q186.75293 103.42975 187.33105 104.03912Q187.90918 104.63287 188.75293 104.63287Q189.6123 104.63287 190.15918 104.03912Q190.70605 103.42975 190.70605 102.38287Z" fill-rule="nonzero"/><path fill="#000000" d="M199.91084 113.58033L201.1296 113.408455Q201.34834 114.45533 201.84834 114.92408Q202.36397 115.377205 203.09834 115.377205Q203.97334 115.377205 204.5671 114.783455Q205.16084 114.17408 205.16084 113.283455Q205.16084 112.439705 204.59834 111.89283Q204.05147 111.345955 203.20772 111.345955Q202.84834 111.345955 202.33272 111.470955L202.47334 110.39283Q202.59834 110.408455 202.66084 110.408455Q203.45772 110.408455 204.08272 110.002205Q204.70772 109.595955 204.70772 108.73658Q204.70772 108.064705 204.2546 107.627205Q203.80147 107.17408 203.0671 107.17408Q202.34834 107.17408 201.86397 107.627205Q201.39522 108.064705 201.2546 108.970955L200.03584 108.752205Q200.2546 107.51783 201.05147 106.845955Q201.84834 106.158455 203.03584 106.158455Q203.86397 106.158455 204.55147 106.51783Q205.23897 106.86158 205.59834 107.470955Q205.97334 108.08033 205.97334 108.76783Q205.97334 109.408455 205.6296 109.939705Q205.28584 110.470955 204.59834 110.79908Q205.48897 111.002205 205.97334 111.64283Q206.47334 112.283455 206.47334 113.26783Q206.47334 114.58033 205.5046 115.48658Q204.55147 116.39283 203.09834 116.39283Q201.77022 116.39283 200.89522 115.61158Q200.03584 114.83033 199.91084 113.58033ZM212.53584 116.220955L211.30147 116.220955L211.30147 108.377205Q210.86397 108.79908 210.1296 109.23658Q209.41084 109.658455 208.84834 109.86158L208.84834 108.67408Q209.8796 108.189705 210.64522 107.502205Q211.42647 106.814705 211.73897 106.158455L212.53584 106.158455L212.53584 116.220955Z" fill-rule="nonzero"/><path fill="#000000" d="M276.9918 274.34247L276.9918 271.93622L272.63242 271.93622L272.63242 270.81122L277.21054 264.32684L278.21054 264.32684L278.21054 270.81122L279.56992 270.81122L279.56992 271.93622L278.21054 271.93622L278.21054 274.34247L276.9918 274.34247ZM276.9918 270.81122L276.9918 266.2956L273.85117 270.81122L276.9918 270.81122ZM281.22617 272.02997L282.41367 271.9206Q282.5543 272.74872 282.97617 273.12372Q283.41367 273.49872 284.06992 273.49872Q284.63242 273.49872 285.0543 273.24872Q285.4918 272.9831 285.75742 272.5456Q286.03867 272.1081 286.22617 271.37372Q286.41367 270.63934 286.41367 269.87372Q286.41367 269.7956 286.39804 269.62372Q286.03867 270.21747 285.39804 270.59247Q284.75742 270.95184 284.00742 270.95184Q282.75742 270.95184 281.89804 270.0456Q281.03867 269.13934 281.03867 267.6706Q281.03867 266.13934 281.9293 265.21747Q282.83554 264.27997 284.19492 264.27997Q285.16367 264.27997 285.97617 264.81122Q286.78867 265.32684 287.21054 266.31122Q287.63242 267.27997 287.63242 269.12372Q287.63242 271.0456 287.21054 272.18622Q286.8043 273.32684 285.97617 273.9206Q285.14804 274.51434 284.03867 274.51434Q282.8668 274.51434 282.1168 273.8581Q281.38242 273.20184 281.22617 272.02997ZM286.25742 267.6081Q286.25742 266.5456 285.69492 265.9206Q285.13242 265.2956 284.35117 265.2956Q283.52304 265.2956 282.91367 265.96747Q282.3043 266.63934 282.3043 267.70184Q282.3043 268.65497 282.88242 269.26434Q283.46054 269.8581 284.3043 269.8581Q285.16367 269.8581 285.71054 269.26434Q286.25742 268.65497 286.25742 267.6081ZM293.6793 274.34247L292.44492 274.34247L292.44492 266.49872Q292.00742 266.9206 291.27304 267.3581Q290.5543 267.77997 289.9918 267.9831L289.9918 266.7956Q291.02304 266.31122 291.78867 265.62372Q292.56992 264.93622 292.88242 264.27997L293.6793 264.27997L293.6793 274.34247Z" fill-rule="nonzero"/><path fill="#000000" d="M47.190247 214.79453L47.190247 212.38828L42.83087 212.38828L42.83087 211.26328L47.408997 204.7789L48.408997 204.7789L48.408997 211.26328L49.76837 211.26328L49.76837 212.38828L48.408997 212.38828L48.408997 214.79453L47.190247 214.79453ZM47.190247 211.26328L47.190247 206.74765L44.04962 211.26328L47.190247 211.26328ZM55.190247 214.79453L55.190247 212.38828L50.83087 212.38828L50.83087 211.26328L55.408997 204.7789L56.408997 204.7789L56.408997 211.26328L57.76837 211.26328L57.76837 212.38828L56.408997 212.38828L56.408997 214.79453L55.190247 214.79453ZM55.190247 211.26328L55.190247 206.74765L52.04962 211.26328L55.190247 211.26328ZM59.42462 212.48203L60.61212 212.37265Q60.752747 213.20078 61.17462 213.57578Q61.61212 213.95078 62.26837 213.95078Q62.83087 213.95078 63.252747 213.70078Q63.690247 213.43515 63.95587 212.99765Q64.23712 212.56015 64.42462 211.82578Q64.61212 211.0914 64.61212 210.32578Q64.61212 210.24765 64.5965 210.07578Q64.23712 210.66953 63.596497 211.04453Q62.95587 211.4039 62.20587 211.4039Q60.95587 211.4039 60.096497 210.49765Q59.23712 209.5914 59.23712 208.12265Q59.23712 206.5914 60.127747 205.66953Q61.033997 204.73203 62.39337 204.73203Q63.36212 204.73203 64.17462 205.26328Q64.98712 205.7789 65.409 206.76328Q65.83087 207.73203 65.83087 209.57578Q65.83087 211.49765 65.409 212.63828Q65.00275 213.7789 64.17462 214.37265Q63.346497 214.9664 62.23712 214.9664Q61.065247 214.9664 60.315247 214.31015Q59.58087 213.6539 59.42462 212.48203ZM64.45587 208.06015Q64.45587 206.99765 63.89337 206.37265Q63.33087 205.74765 62.54962 205.74765Q61.721497 205.74765 61.11212 206.41953Q60.502747 207.0914 60.502747 208.1539Q60.502747 209.10703 61.08087 209.7164Q61.658997 210.31015 62.502747 210.31015Q63.36212 210.31015 63.908997 209.7164Q64.45587 209.10703 64.45587 208.06015Z" fill-rule="nonzero"/><path fill="#4285f4" d="M48.5 399.65C48.5 402.9637 45.81371 405.65 42.5 405.65C39.18629 405.65 36.5 402.9637 36.5 399.65C36.5 396.3363 39.18629 393.65 42.5 393.65C45.81371 393.65 48.5 396.3363 48.5 399.65Z" fill-rule="nonzero"/><path fill="#1a1a1a" d="M57.296875 403.65L57.296875 397.43124L58.234375 397.43124L58.234375 398.30624Q58.53125 397.8375 59.015625 397.57187Q59.5 397.29062 60.125 397.29062Q60.8125 397.29062 61.25 397.57187Q61.703125 397.85312 61.875 398.36874Q62.625 397.29062 63.796875 397.29062Q64.734375 397.29062 65.21875 397.80624Q65.71875 398.30624 65.71875 399.38437L65.71875 403.65L64.671875 403.65L64.671875 399.72812Q64.671875 399.10312 64.5625 398.82187Q64.46875 398.54062 64.203125 398.36874Q63.9375 398.19687 63.5625 398.19687Q62.90625 398.19687 62.46875 398.63437Q62.046875 399.07187 62.046875 400.04062L62.046875 403.65L60.984375 403.65L60.984375 399.60312Q60.984375 398.9 60.71875 398.55624Q60.46875 398.19687 59.890625 398.19687Q59.4375 398.19687 59.0625 398.43124Q58.6875 398.66562 58.515625 399.11874Q58.34375 399.57187 58.34375 400.41562L58.34375 403.65L57.296875 403.65ZM71.359375 402.88437Q70.765625 403.38437 70.21875 403.5875Q69.6875 403.79062 69.0625 403.79062Q68.03125 403.79062 67.484375 403.29062Q66.9375 402.79062 66.9375 402.00937Q66.9375 401.55624 67.140625 401.18124Q67.34375 400.79062 67.6875 400.57187Q68.03125 400.3375 68.453125 400.22812Q68.75 400.13437 69.390625 400.05624Q70.65625 399.91562 71.265625 399.69687Q71.265625 399.47812 71.265625 399.43124Q71.265625 398.775 70.96875 398.50937Q70.5625 398.16562 69.765625 398.16562Q69.03125 398.16562 68.671875 398.43124Q68.3125 398.68124 68.140625 399.3375L67.109375 399.19687Q67.25 398.54062 67.578125 398.13437Q67.90625 397.72812 68.515625 397.50937Q69.125 397.29062 69.921875 397.29062Q70.71875 397.29062 71.21875 397.47812Q71.71875 397.66562 71.953125 397.94687Q72.1875 398.22812 72.28125 398.66562Q72.328125 398.93124 72.328125 399.63437L72.328125 401.04062Q72.328125 402.50937 72.390625 402.9Q72.46875 403.29062 72.671875 403.65L71.5625 403.65Q71.40625 403.32187 71.359375 402.88437ZM71.265625 400.525Q70.6875 400.75937 69.546875 400.93124Q68.890625 401.025 68.625 401.15Q68.359375 401.25937 68.203125 401.47812Q68.0625 401.69687 68.0625 401.97812Q68.0625 402.4 68.375 402.68124Q68.703125 402.9625 69.3125 402.9625Q69.921875 402.9625 70.390625 402.69687Q70.875 402.43124 71.09375 401.9625Q71.265625 401.60312 71.265625 400.91562L71.265625 400.525ZM74.296875 396.275L74.296875 395.05624L75.359375 395.05624L75.359375 396.275L74.296875 396.275ZM74.296875 403.65L74.296875 397.43124L75.359375 397.43124L75.359375 403.65L74.296875 403.65ZM77.296875 403.65L77.296875 397.43124L78.234375 397.43124L78.234375 398.30624Q78.921875 397.29062 80.21875 397.29062Q80.78125 397.29062 81.25 397.49374Q81.734375 397.69687 81.96875 398.025Q82.203125 398.35312 82.296875 398.79062Q82.34375 399.0875 82.34375 399.82187L82.34375 403.65L81.296875 403.65L81.296875 399.86874Q81.296875 399.2125 81.171875 398.9Q81.046875 398.5875 80.734375 398.4Q80.421875 398.19687 80.0 398.19687Q79.328125 398.19687 78.828125 398.63437Q78.34375 399.05624 78.34375 400.24374L78.34375 403.65L77.296875 403.65Z" fill-rule="nonzero"/><path fill="#ea4335" d="M111.5 399.65C111.5 402.9637 108.813705 405.65 105.5 405.65C102.186295 405.65 99.5 402.9637 99.5 399.65C99.5 396.3363 102.186295 393.65 105.5 393.65C108.813705 393.65 111.5 396.3363 111.5 399.65Z" fill-rule="nonzero"/><path fill="#1a1a1a" d="M120.296875 403.65L120.296875 397.43124L121.234375 397.43124L121.234375 398.30624Q121.53125 397.8375 122.015625 397.57187Q122.5 397.29062 123.125 397.29062Q123.8125 397.29062 124.25 397.57187Q124.703125 397.85312 124.875 398.36874Q125.625 397.29062 126.796875 397.29062Q127.734375 397.29062 128.21875 397.80624Q128.71875 398.30624 128.71875 399.38437L128.71875 403.65L127.671875 403.65L127.671875 399.72812Q127.671875 399.10312 127.5625 398.82187Q127.46875 398.54062 127.203125 398.36874Q126.9375 398.19687 126.5625 398.19687Q125.90625 398.19687 125.46875 398.63437Q125.046875 399.07187 125.046875 400.04062L125.046875 403.65L123.984375 403.65L123.984375 399.60312Q123.984375 398.9 123.71875 398.55624Q123.46875 398.19687 122.890625 398.19687Q122.4375 398.19687 122.0625 398.43124Q121.6875 398.66562 121.515625 399.11874Q121.34375 399.57187 121.34375 400.41562L121.34375 403.65L120.296875 403.65ZM134.35938 402.88437Q133.76562 403.38437 133.21875 403.5875Q132.6875 403.79062 132.0625 403.79062Q131.03125 403.79062 130.48438 403.29062Q129.9375 402.79062 129.9375 402.00937Q129.9375 401.55624 130.14062 401.18124Q130.34375 400.79062 130.6875 400.57187Q131.03125 400.3375 131.45312 400.22812Q131.75 400.13437 132.39062 400.05624Q133.65625 399.91562 134.26562 399.69687Q134.26562 399.47812 134.26562 399.43124Q134.26562 398.775 133.96875 398.50937Q133.5625 398.16562 132.76562 398.16562Q132.03125 398.16562 131.67188 398.43124Q131.3125 398.68124 131.14062 399.3375L130.10938 399.19687Q130.25 398.54062 130.57812 398.13437Q130.90625 397.72812 131.51562 397.50937Q132.125 397.29062 132.92188 397.29062Q133.71875 397.29062 134.21875 397.47812Q134.71875 397.66562 134.95312 397.94687Q135.1875 398.22812 135.28125 398.66562Q135.32812 398.93124 135.32812 399.63437L135.32812 401.04062Q135.32812 402.50937 135.39062 402.9Q135.46875 403.29062 135.67188 403.65L134.5625 403.65Q134.40625 403.32187 134.35938 402.88437ZM134.26562 400.525Q133.6875 400.75937 132.54688 400.93124Q131.89062 401.025 131.625 401.15Q131.35938 401.25937 131.20312 401.47812Q131.0625 401.69687 131.0625 401.97812Q131.0625 402.4 131.375 402.68124Q131.70312 402.9625 132.3125 402.9625Q132.92188 402.9625 133.39062 402.69687Q133.875 402.43124 134.09375 401.9625Q134.26562 401.60312 134.26562 400.91562L134.26562 400.525ZM136.875 401.79062L137.90625 401.63437Q138.0 402.25937 138.39062 402.5875Q138.79688 402.91562 139.53125 402.91562Q140.25 402.91562 140.59375 402.63437Q140.95312 402.3375 140.95312 401.93124Q140.95312 401.57187 140.64062 401.36874Q140.42188 401.22812 139.5625 401.00937Q138.40625 400.7125 137.95312 400.50937Q137.51562 400.29062 137.28125 399.91562Q137.04688 399.54062 137.04688 399.07187Q137.04688 398.66562 137.23438 398.30624Q137.42188 397.94687 137.75 397.7125Q138.0 397.54062 138.42188 397.41562Q138.84375 397.29062 139.34375 397.29062Q140.0625 397.29062 140.60938 397.50937Q141.17188 397.7125 141.4375 398.07187Q141.70312 398.43124 141.79688 399.025L140.76562 399.16562Q140.70312 398.69687 140.35938 398.43124Q140.03125 398.15 139.40625 398.15Q138.6875 398.15 138.375 398.4Q138.0625 398.63437 138.0625 398.9625Q138.0625 399.16562 138.1875 399.32187Q138.32812 399.49374 138.59375 399.60312Q138.75 399.66562 139.53125 399.86874Q140.65625 400.18124 141.09375 400.36874Q141.53125 400.55624 141.78125 400.91562Q142.03125 401.275 142.03125 401.82187Q142.03125 402.35312 141.71875 402.82187Q141.42188 403.275 140.84375 403.54062Q140.26562 403.79062 139.53125 403.79062Q138.3125 403.79062 137.67188 403.29062Q137.04688 402.775 136.875 401.79062ZM145.59375 402.7125L145.75 403.63437Q145.29688 403.72812 144.95312 403.72812Q144.375 403.72812 144.0625 403.55624Q143.75 403.36874 143.60938 403.07187Q143.48438 402.775 143.48438 401.82187L143.48438 398.24374L142.71875 398.24374L142.71875 397.43124L143.48438 397.43124L143.48438 395.88437L144.53125 395.25937L144.53125 397.43124L145.59375 397.43124L145.59375 398.24374L144.53125 398.24374L144.53125 401.88437Q144.53125 402.3375 144.57812 402.4625Q144.64062 402.5875 144.76562 402.66562Q144.89062 402.74374 145.125 402.74374Q145.3125 402.74374 145.59375 402.7125ZM150.54688 401.65L151.64062 401.775Q151.39062 402.72812 150.6875 403.25937Q149.98438 403.79062 148.90625 403.79062Q147.54688 403.79062 146.73438 402.94687Q145.9375 402.10312 145.9375 400.5875Q145.9375 399.025 146.75 398.16562Q147.5625 397.29062 148.84375 397.29062Q150.09375 397.29062 150.875 398.13437Q151.67188 398.97812 151.67188 400.525Q151.67188 400.61874 151.67188 400.80624L147.03125 400.80624Q147.09375 401.8375 147.60938 402.38437Q148.125 402.91562 148.90625 402.91562Q149.48438 402.91562 149.89062 402.61874Q150.3125 402.30624 150.54688 401.65ZM147.09375 399.94687L150.5625 399.94687Q150.5 399.15 150.17188 398.75937Q149.65625 398.15 148.85938 398.15Q148.125 398.15 147.625 398.63437Q147.14062 399.11874 147.09375 399.94687ZM153.28125 403.65L153.28125 397.43124L154.23438 397.43124L154.23438 398.36874Q154.59375 397.7125 154.89062 397.50937Q155.20312 397.29062 155.57812 397.29062Q156.10938 397.29062 156.65625 397.61874L156.29688 398.60312Q155.90625 398.36874 155.53125 398.36874Q155.17188 398.36874 154.89062 398.5875Q154.625 398.79062 154.51562 399.16562Q154.32812 399.72812 154.32812 400.38437L154.32812 403.65L153.28125 403.65Z" fill-rule="nonzero"/><path fill="#d9d9d9" d="M184.5 399.65C184.5 402.9637 181.8137 405.65 178.5 405.65C175.1863 405.65 172.5 402.9637 172.5 399.65C172.5 396.3363 175.1863 393.65 178.5 393.65C181.8137 393.65 184.5 396.3363 184.5 399.65Z" fill-rule="nonzero"/><path fill="#1a1a1a" d="M192.90625 400.54062Q192.90625 398.80624 193.85938 397.97812Q194.65625 397.29062 195.8125 397.29062Q197.09375 397.29062 197.90625 398.13437Q198.73438 398.9625 198.73438 400.44687Q198.73438 401.65 198.375 402.3375Q198.01562 403.025 197.3125 403.41562Q196.625 403.79062 195.8125 403.79062Q194.51562 403.79062 193.70312 402.9625Q192.90625 402.11874 192.90625 400.54062ZM193.98438 400.54062Q193.98438 401.72812 194.5 402.32187Q195.03125 402.91562 195.8125 402.91562Q196.60938 402.91562 197.125 402.32187Q197.64062 401.72812 197.64062 400.50937Q197.64062 399.35312 197.10938 398.75937Q196.59375 398.16562 195.8125 398.16562Q195.03125 398.16562 194.5 398.75937Q193.98438 399.3375 193.98438 400.54062ZM202.59375 402.7125L202.75 403.63437Q202.29688 403.72812 201.95312 403.72812Q201.375 403.72812 201.0625 403.55624Q200.75 403.36874 200.60938 403.07187Q200.48438 402.775 200.48438 401.82187L200.48438 398.24374L199.71875 398.24374L199.71875 397.43124L200.48438 397.43124L200.48438 395.88437L201.53125 395.25937L201.53125 397.43124L202.59375 397.43124L202.59375 398.24374L201.53125 398.24374L201.53125 401.88437Q201.53125 402.3375 201.57812 402.4625Q201.64062 402.5875 201.76562 402.66562Q201.89062 402.74374 202.125 402.74374Q202.3125 402.74374 202.59375 402.7125ZM203.29688 403.65L203.29688 395.05624L204.34375 395.05624L204.34375 398.13437Q205.07812 397.29062 206.20312 397.29062Q206.90625 397.29062 207.40625 397.57187Q207.92188 397.8375 208.14062 398.32187Q208.35938 398.79062 208.35938 399.7125L208.35938 403.65L207.3125 403.65L207.3125 399.7125Q207.3125 398.91562 206.96875 398.55624Q206.625 398.19687 206.0 398.19687Q205.53125 398.19687 205.10938 398.44687Q204.70312 398.68124 204.51562 399.10312Q204.34375 399.50937 204.34375 400.24374L204.34375 403.65L203.29688 403.65ZM214.54688 401.65L215.64062 401.775Q215.39062 402.72812 214.6875 403.25937Q213.98438 403.79062 212.90625 403.79062Q211.54688 403.79062 210.73438 402.94687Q209.9375 402.10312 209.9375 400.5875Q209.9375 399.025 210.75 398.16562Q211.5625 397.29062 212.84375 397.29062Q214.09375 397.29062 214.875 398.13437Q215.67188 398.97812 215.67188 400.525Q215.67188 400.61874 215.67188 400.80624L211.03125 400.80624Q211.09375 401.8375 211.60938 402.38437Q212.125 402.91562 212.90625 402.91562Q213.48438 402.91562 213.89062 402.61874Q214.3125 402.30624 214.54688 401.65ZM211.09375 399.94687L214.5625 399.94687Q214.5 399.15 214.17188 398.75937Q213.65625 398.15 212.85938 398.15Q212.125 398.15 211.625 398.63437Q211.14062 399.11874 211.09375 399.94687ZM217.28125 403.65L217.28125 397.43124L218.23438 397.43124L218.23438 398.36874Q218.59375 397.7125 218.89062 397.50937Q219.20312 397.29062 219.57812 397.29062Q220.10938 397.29062 220.65625 397.61874L220.29688 398.60312Q219.90625 398.36874 219.53125 398.36874Q219.17188 398.36874 218.89062 398.5875Q218.625 398.79062 218.51562 399.16562Q218.32812 399.72812 218.32812 400.38437L218.32812 403.65L217.28125 403.65ZM224.09375 404.16562L225.125 404.32187Q225.1875 404.79062 225.48438 405.00937Q225.875 405.30624 226.54688 405.30624Q227.28125 405.30624 227.67188 405.00937Q228.07812 404.7125 228.21875 404.19687Q228.3125 403.86874 228.29688 402.8375Q227.60938 403.65 226.57812 403.65Q225.29688 403.65 224.59375 402.72812Q223.89062 401.79062 223.89062 400.50937Q223.89062 399.61874 224.20312 398.86874Q224.53125 398.10312 225.14062 397.69687Q225.75 397.29062 226.57812 397.29062Q227.6875 397.29062 228.40625 398.18124L228.40625 397.43124L229.375 397.43124L229.375 402.80624Q229.375 404.25937 229.07812 404.86874Q228.78125 405.47812 228.14062 405.82187Q227.5 406.18124 226.5625 406.18124Q225.45312 406.18124 224.76562 405.68124Q224.07812 405.18124 224.09375 404.16562ZM224.96875 400.43124Q224.96875 401.65 225.45312 402.2125Q225.9375 402.775 226.67188 402.775Q227.40625 402.775 227.89062 402.2125Q228.39062 401.65 228.39062 400.4625Q228.39062 399.32187 227.875 398.74374Q227.375 398.16562 226.65625 398.16562Q225.95312 398.16562 225.45312 398.74374Q224.96875 399.30624 224.96875 400.43124ZM231.29688 396.275L231.29688 395.05624L232.35938 395.05624L232.35938 396.275L231.29688 396.275ZM231.29688 403.65L231.29688 397.43124L232.35938 397.43124L232.35938 403.65L231.29688 403.65ZM236.59375 402.7125L236.75 403.63437Q236.29688 403.72812 235.95312 403.72812Q235.375 403.72812 235.0625 403.55624Q234.75 403.36874 234.60938 403.07187Q234.48438 402.775 234.48438 401.82187L234.48438 398.24374L233.71875 398.24374L233.71875 397.43124L234.48438 397.43124L234.48438 395.88437L235.53125 395.25937L235.53125 397.43124L236.59375 397.43124L236.59375 398.24374L235.53125 398.24374L235.53125 401.88437Q235.53125 402.3375 235.57812 402.4625Q235.64062 402.5875 235.76562 402.66562Q235.89062 402.74374 236.125 402.74374Q236.3125 402.74374 236.59375 402.7125Z" fill-rule="nonzero"/><path fill="#b7b7b7" d="M264.5 399.65C264.5 402.9637 261.81372 405.65 258.5 405.65C255.1863 405.65 252.5 402.9637 252.5 399.65C252.5 396.3363 255.1863 393.65 258.5 393.65C261.81372 393.65 264.5 396.3363 264.5 399.65Z" fill-rule="nonzero"/><path fill="#1a1a1a" d="M273.29688 403.65L273.29688 397.43124L274.23438 397.43124L274.23438 398.30624Q274.92188 397.29062 276.21875 397.29062Q276.78125 397.29062 277.25 397.49374Q277.73438 397.69687 277.96875 398.025Q278.20312 398.35312 278.29688 398.79062Q278.34375 399.0875 278.34375 399.82187L278.34375 403.65L277.29688 403.65L277.29688 399.86874Q277.29688 399.2125 277.17188 398.9Q277.04688 398.5875 276.73438 398.4Q276.42188 398.19687 276.0 398.19687Q275.32812 398.19687 274.82812 398.63437Q274.34375 399.05624 274.34375 400.24374L274.34375 403.65L273.29688 403.65ZM279.90625 400.54062Q279.90625 398.80624 280.85938 397.97812Q281.65625 397.29062 282.8125 397.29062Q284.09375 397.29062 284.90625 398.13437Q285.73438 398.9625 285.73438 400.44687Q285.73438 401.65 285.375 402.3375Q285.01562 403.025 284.3125 403.41562Q283.625 403.79062 282.8125 403.79062Q281.51562 403.79062 280.70312 402.9625Q279.90625 402.11874 279.90625 400.54062ZM280.98438 400.54062Q280.98438 401.72812 281.5 402.32187Q282.03125 402.91562 282.8125 402.91562Q283.60938 402.91562 284.125 402.32187Q284.64062 401.72812 284.64062 400.50937Q284.64062 399.35312 284.10938 398.75937Q283.59375 398.16562 282.8125 398.16562Q282.03125 398.16562 281.5 398.75937Q280.98438 399.3375 280.98438 400.54062ZM287.29688 403.65L287.29688 397.43124L288.23438 397.43124L288.23438 398.30624Q288.92188 397.29062 290.21875 397.29062Q290.78125 397.29062 291.25 397.49374Q291.73438 397.69687 291.96875 398.025Q292.20312 398.35312 292.29688 398.79062Q292.34375 399.0875 292.34375 399.82187L292.34375 403.65L291.29688 403.65L291.29688 399.86874Q291.29688 399.2125 291.17188 398.9Q291.04688 398.5875 290.73438 398.4Q290.42188 398.19687 290.0 398.19687Q289.32812 398.19687 288.82812 398.63437Q288.34375 399.05624 288.34375 400.24374L288.34375 403.65L287.29688 403.65ZM293.875 401.07187L293.875 400.00937L297.125 400.00937L297.125 401.07187L293.875 401.07187ZM298.09375 404.16562L299.125 404.32187Q299.1875 404.79062 299.48438 405.00937Q299.875 405.30624 300.54688 405.30624Q301.28125 405.30624 301.67188 405.00937Q302.07812 404.7125 302.21875 404.19687Q302.3125 403.86874 302.29688 402.8375Q301.60938 403.65 300.57812 403.65Q299.29688 403.65 298.59375 402.72812Q297.89062 401.79062 297.89062 400.50937Q297.89062 399.61874 298.20312 398.86874Q298.53125 398.10312 299.14062 397.69687Q299.75 397.29062 300.57812 397.29062Q301.6875 397.29062 302.40625 398.18124L302.40625 397.43124L303.375 397.43124L303.375 402.80624Q303.375 404.25937 303.07812 404.86874Q302.78125 405.47812 302.14062 405.82187Q301.5 406.18124 300.5625 406.18124Q299.45312 406.18124 298.76562 405.68124Q298.07812 405.18124 298.09375 404.16562ZM298.96875 400.43124Q298.96875 401.65 299.45312 402.2125Q299.9375 402.775 300.67188 402.775Q301.40625 402.775 301.89062 402.2125Q302.39062 401.65 302.39062 400.4625Q302.39062 399.32187 301.875 398.74374Q301.375 398.16562 300.65625 398.16562Q299.95312 398.16562 299.45312 398.74374Q298.96875 399.30624 298.96875 400.43124ZM305.29688 396.275L305.29688 395.05624L306.35938 395.05624L306.35938 396.275L305.29688 396.275ZM305.29688 403.65L305.29688 397.43124L306.35938 397.43124L306.35938 403.65L305.29688 403.65ZM310.59375 402.7125L310.75 403.63437Q310.29688 403.72812 309.95312 403.72812Q309.375 403.72812 309.0625 403.55624Q308.75 403.36874 308.60938 403.07187Q308.48438 402.775 308.48438 401.82187L308.48438 398.24374L307.71875 398.24374L307.71875 397.43124L308.48438 397.43124L308.48438 395.88437L309.53125 395.25937L309.53125 397.43124L310.59375 397.43124L310.59375 398.24374L309.53125 398.24374L309.53125 401.88437Q309.53125 402.3375 309.57812 402.4625Q309.64062 402.5875 309.76562 402.66562Q309.89062 402.74374 310.125 402.74374Q310.3125 402.74374 310.59375 402.7125Z" fill-rule="nonzero"/><path fill="#757575" d="M18.896875 36.35L18.896875 22.037498L23.81875 22.037498Q25.490625 22.037498 26.38125 22.240623Q27.6 22.521873 28.475 23.256248Q29.6 24.224998 30.1625 25.709373Q30.725 27.193748 30.725 29.115623Q30.725 30.740623 30.35 32.00625Q29.975 33.25625 29.365625 34.084373Q28.771875 34.9125 28.06875 35.396873Q27.365625 35.865623 26.365625 36.115623Q25.365625 36.35 24.053125 36.35L18.896875 36.35ZM20.7875 34.6625L23.85 34.6625Q25.25625 34.6625 26.053125 34.396873Q26.865625 34.13125 27.35 33.646873Q28.021875 32.975 28.396875 31.849998Q28.771875 30.709373 28.771875 29.084373Q28.771875 26.834373 28.0375 25.631248Q27.303125 24.428123 26.240625 24.021873Q25.490625 23.724998 23.803125 23.724998L20.7875 23.724998L20.7875 34.6625ZM39.771873 33.00625L41.584373 33.240623Q41.1625 34.81875 39.990623 35.709373Q38.834373 36.584373 37.021873 36.584373Q34.75625 36.584373 33.4125 35.19375Q32.084373 33.7875 32.084373 31.256248Q32.084373 28.631248 33.428123 27.193748Q34.771873 25.740623 36.928123 25.740623Q39.00625 25.740623 40.31875 27.162498Q41.646873 28.568748 41.646873 31.146873Q41.646873 31.303123 41.63125 31.615623L33.896873 31.615623Q33.990623 33.31875 34.865623 34.225Q35.740623 35.13125 37.0375 35.13125Q38.00625 35.13125 38.678123 34.63125Q39.365623 34.115623 39.771873 33.00625ZM33.990623 30.162498L39.7875 30.162498Q39.678123 28.865623 39.13125 28.209373Q38.2875 27.193748 36.94375 27.193748Q35.740623 27.193748 34.9125 28.006248Q34.084373 28.803123 33.990623 30.162498ZM44.084373 36.35L44.084373 27.349998L42.5375 27.349998L42.5375 25.974998L44.084373 25.974998L44.084373 24.881248Q44.084373 23.834373 44.271873 23.318748Q44.521873 22.631248 45.1625 22.209373Q45.803123 21.787498 46.959373 21.787498Q47.709373 21.787498 48.6 21.959373L48.334373 23.490623Q47.7875 23.396873 47.303123 23.396873Q46.50625 23.396873 46.1625 23.740623Q45.834373 24.084373 45.834373 25.021873L45.834373 25.974998L47.865623 25.974998L47.865623 27.349998L45.834373 27.349998L45.834373 36.35L44.084373 36.35ZM56.44375 35.06875Q55.459373 35.896873 54.553123 36.240623Q53.646873 36.584373 52.615623 36.584373Q50.9125 36.584373 49.990623 35.75625Q49.06875 34.9125 49.06875 33.615623Q49.06875 32.85 49.4125 32.225Q49.771873 31.599998 50.334373 31.224998Q50.896873 30.834373 51.6 30.631248Q52.115623 30.506248 53.1625 30.365623Q55.2875 30.115623 56.2875 29.771873Q56.303123 29.412498 56.303123 29.303123Q56.303123 28.240623 55.803123 27.787498Q55.13125 27.193748 53.803123 27.193748Q52.553123 27.193748 51.959373 27.631248Q51.38125 28.068748 51.1 29.178123L49.38125 28.943748Q49.615623 27.834373 50.146873 27.162498Q50.678123 26.474998 51.69375 26.115623Q52.709373 25.740623 54.053123 25.740623Q55.38125 25.740623 56.209373 26.053123Q57.0375 26.365623 57.428123 26.849998Q57.81875 27.318748 57.975 28.037498Q58.06875 28.490623 58.06875 29.662498L58.06875 32.00625Q58.06875 34.459373 58.178123 35.115623Q58.2875 35.75625 58.63125 36.35L56.7875 36.35Q56.521873 35.803123 56.44375 35.06875ZM56.2875 31.146873Q55.334373 31.537498 53.4125 31.803123Q52.334373 31.959373 51.88125 32.1625Q51.44375 32.35 51.19375 32.725Q50.94375 33.1 50.94375 33.56875Q50.94375 34.271873 51.475 34.740623Q52.00625 35.209373 53.0375 35.209373Q54.053123 35.209373 54.834373 34.771873Q55.63125 34.31875 56.00625 33.553123Q56.2875 32.94375 56.2875 31.787498L56.2875 31.146873ZM67.45937 36.35L67.45937 34.81875Q66.25625 36.584373 64.17812 36.584373Q63.25625 36.584373 62.459373 36.240623Q61.6625 35.88125 61.271873 35.35Q60.896873 34.81875 60.740623 34.0375Q60.63125 33.521873 60.63125 32.396873L60.63125 25.974998L62.38125 25.974998L62.38125 31.724998Q62.38125 33.1 62.490623 33.584373Q62.6625 34.271873 63.19375 34.678123Q63.740623 35.06875 64.52187 35.06875Q65.31875 35.06875 66.00625 34.6625Q66.70937 34.25625 66.99062 33.56875Q67.2875 32.865623 67.2875 31.537498L67.2875 25.974998L69.0375 25.974998L69.0375 36.35L67.45937 36.35ZM71.63125 36.35L71.63125 22.037498L73.38125 22.037498L73.38125 36.35L71.63125 36.35ZM79.50625 34.771873L79.75625 36.334373Q79.02187 36.490623 78.42812 36.490623Q77.475 36.490623 76.94375 36.19375Q76.42812 35.88125 76.20937 35.396873Q75.99062 34.896873 75.99062 33.31875L75.99062 27.349998L74.70937 27.349998L74.70937 25.974998L75.99062 25.974998L75.99062 23.412498L77.74062 22.349998L77.74062 25.974998L79.50625 25.974998L79.50625 27.349998L77.74062 27.349998L77.74062 33.4125Q77.74062 34.1625 77.83437 34.38125Q77.92812 34.584373 78.13125 34.725Q78.35 34.85 78.74062 34.85Q79.02187 34.85 79.50625 34.771873ZM89.2875 36.35L87.6625 36.35L87.6625 22.037498L89.4125 22.037498L89.4125 27.146873Q90.5375 25.740623 92.25625 25.740623Q93.20937 25.740623 94.06875 26.131248Q94.92812 26.521873 95.475 27.224998Q96.02187 27.912498 96.33437 28.896873Q96.64687 29.881248 96.64687 31.006248Q96.64687 33.678123 95.33437 35.13125Q94.02187 36.584373 92.17812 36.584373Q90.33437 36.584373 89.2875 35.053123L89.2875 36.35ZM89.27187 31.084373Q89.27187 32.94375 89.77187 33.7875Q90.61562 35.13125 92.02187 35.13125Q93.17812 35.13125 94.00625 34.13125Q94.85 33.13125 94.85 31.146873Q94.85 29.115623 94.0375 28.162498Q93.24062 27.193748 92.1 27.193748Q90.94375 27.193748 90.1 28.193748Q89.27187 29.193748 89.27187 31.084373ZM98.64687 36.35L98.64687 25.974998L100.225 25.974998L100.225 27.553123Q100.83437 26.443748 101.35 26.099998Q101.86562 25.740623 102.475 25.740623Q103.36562 25.740623 104.2875 26.303123L103.67812 27.943748Q103.0375 27.553123 102.39687 27.553123Q101.81875 27.553123 101.35 27.912498Q100.89687 28.256248 100.69375 28.865623Q100.4125 29.803123 100.4125 30.912498L100.4125 36.35L98.64687 36.35ZM112.44375 35.06875Q111.45937 35.896873 110.55312 36.240623Q109.64687 36.584373 108.61562 36.584373Q106.9125 36.584373 105.99062 35.75625Q105.06875 34.9125 105.06875 33.615623Q105.06875 32.85 105.4125 32.225Q105.77187 31.599998 106.33437 31.224998Q106.89687 30.834373 107.6 30.631248Q108.11562 30.506248 109.1625 30.365623Q111.2875 30.115623 112.2875 29.771873Q112.30312 29.412498 112.30312 29.303123Q112.30312 28.240623 111.80312 27.787498Q111.13125 27.193748 109.80312 27.193748Q108.55312 27.193748 107.95937 27.631248Q107.38125 28.068748 107.1 29.178123L105.38125 28.943748Q105.61562 27.834373 106.14687 27.162498Q106.67812 26.474998 107.69375 26.115623Q108.70937 25.740623 110.05312 25.740623Q111.38125 25.740623 112.20937 26.053123Q113.0375 26.365623 113.42812 26.849998Q113.81875 27.318748 113.975 28.037498Q114.06875 28.490623 114.06875 29.662498L114.06875 32.00625Q114.06875 34.459373 114.17812 35.115623Q114.2875 35.75625 114.63125 36.35L112.7875 36.35Q112.52187 35.803123 112.44375 35.06875ZM112.2875 31.146873Q111.33437 31.537498 109.4125 31.803123Q108.33437 31.959373 107.88125 32.1625Q107.44375 32.35 107.19375 32.725Q106.94375 33.1 106.94375 33.56875Q106.94375 34.271873 107.475 34.740623Q108.00625 35.209373 109.0375 35.209373Q110.05312 35.209373 110.83437 34.771873Q111.63125 34.31875 112.00625 33.553123Q112.2875 32.94375 112.2875 31.787498L112.2875 31.146873ZM116.6625 36.35L116.6625 25.974998L118.25625 25.974998L118.25625 27.459373Q119.39687 25.740623 121.55312 25.740623Q122.49062 25.740623 123.27187 26.084373Q124.06875 26.412498 124.45937 26.959373Q124.85 27.506248 125.00625 28.256248Q125.1 28.756248 125.1 29.974998L125.1 36.35L123.33437 36.35L123.33437 30.037498Q123.33437 28.959373 123.13125 28.428123Q122.92812 27.896873 122.39687 27.584373Q121.88125 27.271873 121.17812 27.271873Q120.05312 27.271873 119.24062 27.990623Q118.42812 28.693748 118.42812 30.678123L118.42812 36.35L116.6625 36.35ZM134.44376 32.553123L136.1625 32.771873Q135.88126 34.56875 134.70938 35.584373Q133.55313 36.584373 131.85 36.584373Q129.725 36.584373 128.42813 35.19375Q127.13125 33.803123 127.13125 31.209373Q127.13125 29.521873 127.67812 28.271873Q128.24063 27.006248 129.38126 26.381248Q130.52188 25.740623 131.86563 25.740623Q133.55313 25.740623 134.61563 26.599998Q135.69376 27.459373 136.00626 29.021873L134.2875 29.287498Q134.05313 28.240623 133.42813 27.724998Q132.80313 27.193748 131.92813 27.193748Q130.6 27.193748 129.77188 28.146873Q128.94376 29.099998 128.94376 31.146873Q128.94376 33.240623 129.74063 34.19375Q130.5375 35.13125 131.83438 35.13125Q132.86563 35.13125 133.55313 34.50625Q134.25626 33.865623 134.44376 32.553123ZM137.6625 36.35L137.6625 22.037498L139.42813 22.037498L139.42813 27.162498Q140.6625 25.740623 142.5375 25.740623Q143.67813 25.740623 144.52188 26.193748Q145.38126 26.646873 145.74063 27.459373Q146.11563 28.256248 146.11563 29.771873L146.11563 36.35L144.36563 36.35L144.36563 29.771873Q144.36563 28.459373 143.7875 27.865623Q143.20938 27.256248 142.17813 27.256248Q141.39688 27.256248 140.69376 27.662498Q140.00626 28.068748 139.70938 28.771873Q139.42813 29.459373 139.42813 30.678123L139.42813 36.35L137.6625 36.35ZM154.6625 36.35L154.6625 25.974998L156.25626 25.974998L156.25626 27.459373Q157.39688 25.740623 159.55313 25.740623Q160.49063 25.740623 161.27188 26.084373Q162.06876 26.412498 162.45938 26.959373Q162.85 27.506248 163.00626 28.256248Q163.1 28.756248 163.1 29.974998L163.1 36.35L161.33438 36.35L161.33438 30.037498Q161.33438 28.959373 161.13126 28.428123Q160.92813 27.896873 160.39688 27.584373Q159.88126 27.271873 159.17813 27.271873Q158.05313 27.271873 157.24063 27.990623Q156.42813 28.693748 156.42813 30.678123L156.42813 36.35L154.6625 36.35ZM172.44376 35.06875Q171.45938 35.896873 170.55313 36.240623Q169.64688 36.584373 168.61563 36.584373Q166.9125 36.584373 165.99063 35.75625Q165.06876 34.9125 165.06876 33.615623Q165.06876 32.85 165.4125 32.225Q165.77188 31.599998 166.33438 31.224998Q166.89688 30.834373 167.6 30.631248Q168.11563 30.506248 169.1625 30.365623Q171.2875 30.115623 172.2875 29.771873Q172.30313 29.412498 172.30313 29.303123Q172.30313 28.240623 171.80313 27.787498Q171.13126 27.193748 169.80313 27.193748Q168.55313 27.193748 167.95938 27.631248Q167.38126 28.068748 167.1 29.178123L165.38126 28.943748Q165.61563 27.834373 166.14688 27.162498Q166.67813 26.474998 167.69376 26.115623Q168.70938 25.740623 170.05313 25.740623Q171.38126 25.740623 172.20938 26.053123Q173.0375 26.365623 173.42813 26.849998Q173.81876 27.318748 173.975 28.037498Q174.06876 28.490623 174.06876 29.662498L174.06876 32.00625Q174.06876 34.459373 174.17813 35.115623Q174.2875 35.75625 174.63126 36.35L172.7875 36.35Q172.52188 35.803123 172.44376 35.06875ZM172.2875 31.146873Q171.33438 31.537498 169.4125 31.803123Q168.33438 31.959373 167.88126 32.1625Q167.44376 32.35 167.19376 32.725Q166.94376 33.1 166.94376 33.56875Q166.94376 34.271873 167.475 34.740623Q168.00626 35.209373 169.0375 35.209373Q170.05313 35.209373 170.83438 34.771873Q171.63126 34.31875 172.00626 33.553123Q172.2875 32.94375 172.2875 31.787498L172.2875 31.146873ZM176.6625 36.35L176.6625 25.974998L178.24063 25.974998L178.24063 27.428123Q178.725 26.678123 179.5375 26.209373Q180.35 25.740623 181.38126 25.740623Q182.5375 25.740623 183.27188 26.224998Q184.00626 26.693748 184.31876 27.553123Q185.55313 25.740623 187.52188 25.740623Q189.06876 25.740623 189.89688 26.599998Q190.725 27.459373 190.725 29.224998L190.725 36.35L188.975 36.35L188.975 29.818748Q188.975 28.756248 188.80313 28.303123Q188.63126 27.834373 188.17813 27.553123Q187.74063 27.271873 187.13126 27.271873Q186.0375 27.271873 185.30313 28.006248Q184.58438 28.724998 184.58438 30.318748L184.58438 36.35L182.83438 36.35L182.83438 29.615623Q182.83438 28.443748 182.39688 27.865623Q181.975 27.271873 180.99063 27.271873Q180.25626 27.271873 179.61563 27.662498Q178.99063 28.053123 178.70938 28.803123Q178.42813 29.553123 178.42813 30.974998L178.42813 36.35L176.6625 36.35ZM200.77188 33.00625L202.58438 33.240623Q202.1625 34.81875 200.99063 35.709373Q199.83438 36.584373 198.02188 36.584373Q195.75626 36.584373 194.4125 35.19375Q193.08438 33.7875 193.08438 31.256248Q193.08438 28.631248 194.42813 27.193748Q195.77188 25.740623 197.92813 25.740623Q200.00626 25.740623 201.31876 27.162498Q202.64688 28.568748 202.64688 31.146873Q202.64688 31.303123 202.63126 31.615623L194.89688 31.615623Q194.99063 33.31875 195.86563 34.225Q196.74063 35.13125 198.0375 35.13125Q199.00626 35.13125 199.67813 34.63125Q200.36563 34.115623 200.77188 33.00625ZM194.99063 30.162498L200.7875 30.162498Q200.67813 28.865623 200.13126 28.209373Q199.2875 27.193748 197.94376 27.193748Q196.74063 27.193748 195.9125 28.006248Q195.08438 28.803123 194.99063 30.162498Z" fill-rule="nonzero"/><path fill="#757575" d="M18.646875 60.35L18.646875 49.975L20.225 49.975L20.225 51.553123Q20.834375 50.44375 21.35 50.1Q21.865625 49.740623 22.475 49.740623Q23.365625 49.740623 24.2875 50.303123L23.678125 51.94375Q23.0375 51.553123 22.396875 51.553123Q21.81875 51.553123 21.35 51.9125Q20.896875 52.25625 20.69375 52.865623Q20.4125 53.803123 20.4125 54.9125L20.4125 60.35L18.646875 60.35ZM32.771873 57.00625L34.584373 57.240623Q34.1625 58.81875 32.990623 59.709373Q31.834375 60.584373 30.021875 60.584373Q27.75625 60.584373 26.4125 59.19375Q25.084375 57.7875 25.084375 55.25625Q25.084375 52.63125 26.428125 51.19375Q27.771875 49.740623 29.928125 49.740623Q32.00625 49.740623 33.31875 51.1625Q34.646873 52.56875 34.646873 55.146873Q34.646873 55.303123 34.63125 55.615623L26.896875 55.615623Q26.990625 57.31875 27.865625 58.225Q28.740625 59.13125 30.0375 59.13125Q31.00625 59.13125 31.678125 58.63125Q32.365623 58.115623 32.771873 57.00625ZM26.990625 54.1625L32.7875 54.1625Q32.678123 52.865623 32.13125 52.209373Q31.2875 51.19375 29.94375 51.19375Q28.740625 51.19375 27.9125 52.00625Q27.084375 52.803123 26.990625 54.1625ZM36.6625 64.31875L36.6625 49.975L38.271873 49.975L38.271873 51.31875Q38.834373 50.5375 39.5375 50.146873Q40.25625 49.740623 41.271873 49.740623Q42.6 49.740623 43.615623 50.428123Q44.63125 51.115623 45.146873 52.365623Q45.678123 53.6 45.678123 55.084373Q45.678123 56.678123 45.1 57.959373Q44.5375 59.225 43.44375 59.9125Q42.35 60.584373 41.146873 60.584373Q40.271873 60.584373 39.56875 60.209373Q38.88125 59.834373 38.428123 59.271873L38.428123 64.31875L36.6625 64.31875ZM38.25625 55.225Q38.25625 57.225 39.06875 58.178123Q39.88125 59.13125 41.0375 59.13125Q42.209373 59.13125 43.0375 58.146873Q43.88125 57.1625 43.88125 55.06875Q43.88125 53.1 43.053123 52.115623Q42.240623 51.115623 41.115623 51.115623Q39.990623 51.115623 39.115623 52.178123Q38.25625 53.225 38.25625 55.225ZM47.646873 60.35L47.646873 49.975L49.225 49.975L49.225 51.553123Q49.834373 50.44375 50.35 50.1Q50.865623 49.740623 51.475 49.740623Q52.365623 49.740623 53.2875 50.303123L52.678123 51.94375Q52.0375 51.553123 51.396873 51.553123Q50.81875 51.553123 50.35 51.9125Q49.896873 52.25625 49.69375 52.865623Q49.4125 53.803123 49.4125 54.9125L49.4125 60.35L47.646873 60.35ZM61.771873 57.00625L63.584373 57.240623Q63.1625 58.81875 61.990623 59.709373Q60.834373 60.584373 59.021873 60.584373Q56.75625 60.584373 55.4125 59.19375Q54.084373 57.7875 54.084373 55.25625Q54.084373 52.63125 55.428123 51.19375Q56.771873 49.740623 58.928123 49.740623Q61.00625 49.740623 62.31875 51.1625Q63.646873 52.56875 63.646873 55.146873Q63.646873 55.303123 63.63125 55.615623L55.896873 55.615623Q55.990623 57.31875 56.865623 58.225Q57.740623 59.13125 59.0375 59.13125Q60.00625 59.13125 60.678123 58.63125Q61.365623 58.115623 61.771873 57.00625ZM55.990623 54.1625L61.7875 54.1625Q61.678123 52.865623 61.13125 52.209373Q60.2875 51.19375 58.94375 51.19375Q57.740623 51.19375 56.9125 52.00625Q56.084373 52.803123 55.990623 54.1625ZM64.95937 57.25625L66.70937 56.975Q66.85 58.021873 67.52187 58.584373Q68.19375 59.13125 69.39687 59.13125Q70.6 59.13125 71.17812 58.646873Q71.77187 58.146873 71.77187 57.490623Q71.77187 56.896873 71.25625 56.553123Q70.89687 56.31875 69.45937 55.959373Q67.52187 55.459373 66.77187 55.115623Q66.0375 54.75625 65.64687 54.13125Q65.25625 53.490623 65.25625 52.725Q65.25625 52.0375 65.56875 51.44375Q65.89687 50.85 66.44375 50.459373Q66.85 50.1625 67.55312 49.959373Q68.27187 49.740623 69.08437 49.740623Q70.30312 49.740623 71.225 50.1Q72.14687 50.44375 72.58437 51.053123Q73.02187 51.646873 73.19375 52.646873L71.475 52.88125Q71.35 52.084373 70.7875 51.646873Q70.225 51.19375 69.20937 51.19375Q67.99062 51.19375 67.475 51.6Q66.95937 51.990623 66.95937 52.521873Q66.95937 52.865623 67.17812 53.146873Q67.38125 53.428123 67.85 53.615623Q68.11562 53.709373 69.39687 54.053123Q71.27187 54.553123 72.00625 54.88125Q72.74062 55.19375 73.1625 55.803123Q73.58437 56.396873 73.58437 57.303123Q73.58437 58.178123 73.06875 58.959373Q72.55312 59.740623 71.58437 60.1625Q70.61562 60.584373 69.39687 60.584373Q67.38125 60.584373 66.31875 59.740623Q65.25625 58.896873 64.95937 57.25625ZM82.77187 57.00625L84.58437 57.240623Q84.1625 58.81875 82.99062 59.709373Q81.83437 60.584373 80.02187 60.584373Q77.75625 60.584373 76.4125 59.19375Q75.08437 57.7875 75.08437 55.25625Q75.08437 52.63125 76.42812 51.19375Q77.77187 49.740623 79.92812 49.740623Q82.00625 49.740623 83.31875 51.1625Q84.64687 52.56875 84.64687 55.146873Q84.64687 55.303123 84.63125 55.615623L76.89687 55.615623Q76.99062 57.31875 77.86562 58.225Q78.74062 59.13125 80.0375 59.13125Q81.00625 59.13125 81.67812 58.63125Q82.36562 58.115623 82.77187 57.00625ZM76.99062 54.1625L82.7875 54.1625Q82.67812 52.865623 82.13125 52.209373Q81.2875 51.19375 79.94375 51.19375Q78.74062 51.19375 77.9125 52.00625Q77.08437 52.803123 76.99062 54.1625ZM86.6625 60.35L86.6625 49.975L88.25625 49.975L88.25625 51.459373Q89.39687 49.740623 91.55312 49.740623Q92.49062 49.740623 93.27187 50.084373Q94.06875 50.4125 94.45937 50.959373Q94.85 51.50625 95.00625 52.25625Q95.1 52.75625 95.1 53.975L95.1 60.35L93.33437 60.35L93.33437 54.0375Q93.33437 52.959373 93.13125 52.428123Q92.92812 51.896873 92.39687 51.584373Q91.88125 51.271873 91.17812 51.271873Q90.05312 51.271873 89.24062 51.990623Q88.42812 52.69375 88.42812 54.678123L88.42812 60.35L86.6625 60.35ZM101.50625 58.771873L101.75625 60.334373Q101.02187 60.490623 100.42812 60.490623Q99.475 60.490623 98.94375 60.19375Q98.42812 59.88125 98.20937 59.396873Q97.99062 58.896873 97.99062 57.31875L97.99062 51.35L96.70937 51.35L96.70937 49.975L97.99062 49.975L97.99062 47.4125L99.74062 46.35L99.74062 49.975L101.50625 49.975L101.50625 51.35L99.74062 51.35L99.74062 57.4125Q99.74062 58.1625 99.83437 58.38125Q99.92812 58.584373 100.13125 58.725Q100.35 58.85 100.74062 58.85Q101.02187 58.85 101.50625 58.771873ZM110.44375 59.06875Q109.45937 59.896873 108.55312 60.240623Q107.64687 60.584373 106.61562 60.584373Q104.9125 60.584373 103.99062 59.75625Q103.06875 58.9125 103.06875 57.615623Q103.06875 56.85 103.4125 56.225Q103.77187 55.6 104.33437 55.225Q104.89687 54.834373 105.6 54.63125Q106.11562 54.50625 107.1625 54.365623Q109.2875 54.115623 110.2875 53.771873Q110.30312 53.4125 110.30312 53.303123Q110.30312 52.240623 109.80312 51.7875Q109.13125 51.19375 107.80312 51.19375Q106.55312 51.19375 105.95937 51.63125Q105.38125 52.06875 105.1 53.178123L103.38125 52.94375Q103.61562 51.834373 104.14687 51.1625Q104.67812 50.475 105.69375 50.115623Q106.70937 49.740623 108.05312 49.740623Q109.38125 49.740623 110.20937 50.053123Q111.0375 50.365623 111.42812 50.85Q111.81875 51.31875 111.975 52.0375Q112.06875 52.490623 112.06875 53.6625L112.06875 56.00625Q112.06875 58.459373 112.17812 59.115623Q112.2875 59.75625 112.63125 60.35L110.7875 60.35Q110.52187 59.803123 110.44375 59.06875ZM110.2875 55.146873Q109.33437 55.5375 107.4125 55.803123Q106.33437 55.959373 105.88125 56.1625Q105.44375 56.35 105.19375 56.725Q104.94375 57.1 104.94375 57.56875Q104.94375 58.271873 105.475 58.740623Q106.00625 59.209373 107.0375 59.209373Q108.05312 59.209373 108.83437 58.771873Q109.63125 58.31875 110.00625 57.553123Q110.2875 56.94375 110.2875 55.7875L110.2875 55.146873ZM118.50625 58.771873L118.75625 60.334373Q118.02187 60.490623 117.42812 60.490623Q116.475 60.490623 115.94375 60.19375Q115.42812 59.88125 115.20937 59.396873Q114.99062 58.896873 114.99062 57.31875L114.99062 51.35L113.70937 51.35L113.70937 49.975L114.99062 49.975L114.99062 47.4125L116.74062 46.35L116.74062 49.975L118.50625 49.975L118.50625 51.35L116.74062 51.35L116.74062 57.4125Q116.74062 58.1625 116.83437 58.38125Q116.92812 58.584373 117.13125 58.725Q117.35 58.85 117.74062 58.85Q118.02187 58.85 118.50625 58.771873ZM120.67812 48.053123L120.67812 46.0375L122.44375 46.0375L122.44375 48.053123L120.67812 48.053123ZM120.67812 60.35L120.67812 49.975L122.44375 49.975L122.44375 60.35L120.67812 60.35ZM124.02187 55.1625Q124.02187 52.2875 125.61562 50.896873Q126.95937 49.740623 128.88126 49.740623Q131.02188 49.740623 132.36563 51.146873Q133.725 52.553123 133.725 55.021873Q133.725 57.021873 133.13126 58.178123Q132.5375 59.31875 131.38126 59.959373Q130.24063 60.584373 128.88126 60.584373Q126.69375 60.584373 125.35 59.19375Q124.02187 57.7875 124.02187 55.1625ZM125.81875 55.1625Q125.81875 57.1625 126.67812 58.146873Q127.55312 59.13125 128.88126 59.13125Q130.19376 59.13125 131.05313 58.146873Q131.92813 57.146873 131.92813 55.1Q131.92813 53.178123 131.05313 52.19375Q130.17813 51.19375 128.88126 51.19375Q127.55312 51.19375 126.67812 52.19375Q125.81875 53.178123 125.81875 55.1625ZM135.6625 60.35L135.6625 49.975L137.25626 49.975L137.25626 51.459373Q138.39688 49.740623 140.55313 49.740623Q141.49063 49.740623 142.27188 50.084373Q143.06876 50.4125 143.45938 50.959373Q143.85 51.50625 144.00626 52.25625Q144.1 52.75625 144.1 53.975L144.1 60.35L142.33438 60.35L142.33438 54.0375Q142.33438 52.959373 142.13126 52.428123Q141.92813 51.896873 141.39688 51.584373Q140.88126 51.271873 140.17813 51.271873Q139.05313 51.271873 138.24063 51.990623Q137.42813 52.69375 137.42813 54.678123L137.42813 60.35L135.6625 60.35ZM152.67813 48.053123L152.67813 46.0375L154.44376 46.0375L154.44376 48.053123L152.67813 48.053123ZM152.67813 60.35L152.67813 49.975L154.44376 49.975L154.44376 60.35L152.67813 60.35ZM156.6625 60.35L156.6625 49.975L158.25626 49.975L158.25626 51.459373Q159.39688 49.740623 161.55313 49.740623Q162.49063 49.740623 163.27188 50.084373Q164.06876 50.4125 164.45938 50.959373Q164.85 51.50625 165.00626 52.25625Q165.1 52.75625 165.1 53.975L165.1 60.35L163.33438 60.35L163.33438 54.0375Q163.33438 52.959373 163.13126 52.428123Q162.92813 51.896873 162.39688 51.584373Q161.88126 51.271873 161.17813 51.271873Q160.05313 51.271873 159.24063 51.990623Q158.42813 52.69375 158.42813 54.678123L158.42813 60.35L156.6625 60.35ZM172.95938 57.25625L174.70938 56.975Q174.85 58.021873 175.52188 58.584373Q176.19376 59.13125 177.39688 59.13125Q178.6 59.13125 179.17813 58.646873Q179.77188 58.146873 179.77188 57.490623Q179.77188 56.896873 179.25626 56.553123Q178.89688 56.31875 177.45938 55.959373Q175.52188 55.459373 174.77188 55.115623Q174.0375 54.75625 173.64688 54.13125Q173.25626 53.490623 173.25626 52.725Q173.25626 52.0375 173.56876 51.44375Q173.89688 50.85 174.44376 50.459373Q174.85 50.1625 175.55313 49.959373Q176.27188 49.740623 177.08438 49.740623Q178.30313 49.740623 179.225 50.1Q180.14688 50.44375 180.58438 51.053123Q181.02188 51.646873 181.19376 52.646873L179.475 52.88125Q179.35 52.084373 178.7875 51.646873Q178.225 51.19375 177.20938 51.19375Q175.99063 51.19375 175.475 51.6Q174.95938 51.990623 174.95938 52.521873Q174.95938 52.865623 175.17813 53.146873Q175.38126 53.428123 175.85 53.615623Q176.11563 53.709373 177.39688 54.053123Q179.27188 54.553123 180.00626 54.88125Q180.74063 55.19375 181.1625 55.803123Q181.58438 56.396873 181.58438 57.303123Q181.58438 58.178123 181.06876 58.959373Q180.55313 59.740623 179.58438 60.1625Q178.61563 60.584373 177.39688 60.584373Q175.38126 60.584373 174.31876 59.740623Q173.25626 58.896873 172.95938 57.25625ZM183.6625 60.35L183.6625 46.0375L185.42813 46.0375L185.42813 51.1625Q186.6625 49.740623 188.5375 49.740623Q189.67813 49.740623 190.52188 50.19375Q191.38126 50.646873 191.74063 51.459373Q192.11563 52.25625 192.11563 53.771873L192.11563 60.35L190.36563 60.35L190.36563 53.771873Q190.36563 52.459373 189.7875 51.865623Q189.20938 51.25625 188.17813 51.25625Q187.39688 51.25625 186.69376 51.6625Q186.00626 52.06875 185.70938 52.771873Q185.42813 53.459373 185.42813 54.678123L185.42813 60.35L183.6625 60.35ZM201.77188 57.00625L203.58438 57.240623Q203.1625 58.81875 201.99063 59.709373Q200.83438 60.584373 199.02188 60.584373Q196.75626 60.584373 195.4125 59.19375Q194.08438 57.7875 194.08438 55.25625Q194.08438 52.63125 195.42813 51.19375Q196.77188 49.740623 198.92813 49.740623Q201.00626 49.740623 202.31876 51.1625Q203.64688 52.56875 203.64688 55.146873Q203.64688 55.303123 203.63126 55.615623L195.89688 55.615623Q195.99063 57.31875 196.86563 58.225Q197.74063 59.13125 199.0375 59.13125Q200.00626 59.13125 200.67813 58.63125Q201.36563 58.115623 201.77188 57.00625ZM195.99063 54.1625L201.7875 54.1625Q201.67813 52.865623 201.13126 52.209373Q200.2875 51.19375 198.94376 51.19375Q197.74063 51.19375 196.9125 52.00625Q196.08438 52.803123 195.99063 54.1625ZM205.63126 60.35L205.63126 46.0375L207.38126 46.0375L207.38126 60.35L205.63126 60.35ZM209.63126 60.35L209.63126 46.0375L211.38126 46.0375L211.38126 60.35L209.63126 60.35ZM219.6625 60.35L219.6625 46.0375L221.42813 46.0375L221.42813 51.1625Q222.6625 49.740623 224.5375 49.740623Q225.67813 49.740623 226.52188 50.19375Q227.38126 50.646873 227.74063 51.459373Q228.11563 52.25625 228.11563 53.771873L228.11563 60.35L226.36563 60.35L226.36563 53.771873Q226.36563 52.459373 225.7875 51.865623Q225.20938 51.25625 224.17813 51.25625Q223.39688 51.25625 222.69376 51.6625Q222.00626 52.06875 221.70938 52.771873Q221.42813 53.459373 221.42813 54.678123L221.42813 60.35L219.6625 60.35ZM230.67813 48.053123L230.67813 46.0375L232.44376 46.0375L232.44376 48.053123L230.67813 48.053123ZM230.67813 60.35L230.67813 49.975L232.44376 49.975L232.44376 60.35L230.67813 60.35ZM233.95938 57.25625L235.70938 56.975Q235.85 58.021873 236.52188 58.584373Q237.19376 59.13125 238.39688 59.13125Q239.6 59.13125 240.17813 58.646873Q240.77188 58.146873 240.77188 57.490623Q240.77188 56.896873 240.25626 56.553123Q239.89688 56.31875 238.45938 55.959373Q236.52188 55.459373 235.77188 55.115623Q235.0375 54.75625 234.64688 54.13125Q234.25626 53.490623 234.25626 52.725Q234.25626 52.0375 234.56876 51.44375Q234.89688 50.85 235.44376 50.459373Q235.85 50.1625 236.55313 49.959373Q237.27188 49.740623 238.08438 49.740623Q239.30313 49.740623 240.225 50.1Q241.14688 50.44375 241.58438 51.053123Q242.02188 51.646873 242.19376 52.646873L240.475 52.88125Q240.35 52.084373 239.7875 51.646873Q239.225 51.19375 238.20938 51.19375Q236.99063 51.19375 236.475 51.6Q235.95938 51.990623 235.95938 52.521873Q235.95938 52.865623 236.17813 53.146873Q236.38126 53.428123 236.85 53.615623Q237.11563 53.709373 238.39688 54.053123Q240.27188 54.553123 241.00626 54.88125Q241.74063 55.19375 242.1625 55.803123Q242.58438 56.396873 242.58438 57.303123Q242.58438 58.178123 242.06876 58.959373Q241.55313 59.740623 240.58438 60.1625Q239.61563 60.584373 238.39688 60.584373Q236.38126 60.584373 235.31876 59.740623Q234.25626 58.896873 233.95938 57.25625ZM248.50626 58.771873L248.75626 60.334373Q248.02188 60.490623 247.42813 60.490623Q246.475 60.490623 245.94376 60.19375Q245.42813 59.88125 245.20938 59.396873Q244.99063 58.896873 244.99063 57.31875L244.99063 51.35L243.70938 51.35L243.70938 49.975L244.99063 49.975L244.99063 47.4125L246.74063 46.35L246.74063 49.975L248.50626 49.975L248.50626 51.35L246.74063 51.35L246.74063 57.4125Q246.74063 58.1625 246.83438 58.38125Q246.92813 58.584373 247.13126 58.725Q247.35 58.85 247.74063 58.85Q248.02188 58.85 248.50626 58.771873ZM250.02188 55.1625Q250.02188 52.2875 251.61563 50.896873Q252.95938 49.740623 254.88126 49.740623Q257.02188 49.740623 258.36563 51.146873Q259.725 52.553123 259.725 55.021873Q259.725 57.021873 259.13126 58.178123Q258.5375 59.31875 257.38126 59.959373Q256.24063 60.584373 254.88126 60.584373Q252.69376 60.584373 251.35 59.19375Q250.02188 57.7875 250.02188 55.1625ZM251.81876 55.1625Q251.81876 57.1625 252.67813 58.146873Q253.55313 59.13125 254.88126 59.13125Q256.19376 59.13125 257.05313 58.146873Q257.92813 57.146873 257.92813 55.1Q257.92813 53.178123 257.05313 52.19375Q256.17813 51.19375 254.88126 51.19375Q253.55313 51.19375 252.67813 52.19375Q251.81876 53.178123 251.81876 55.1625ZM261.64688 60.35L261.64688 49.975L263.225 49.975L263.225 51.553123Q263.83438 50.44375 264.35 50.1Q264.86563 49.740623 265.475 49.740623Q266.36563 49.740623 267.2875 50.303123L266.67813 51.94375Q266.0375 51.553123 265.39688 51.553123Q264.81876 51.553123 264.35 51.9125Q263.89688 52.25625 263.69376 52.865623Q263.4125 53.803123 263.4125 54.9125L263.4125 60.35L261.64688 60.35ZM268.58438 64.35L268.39688 62.69375Q268.975 62.85 269.39688 62.85Q269.99063 62.85 270.33438 62.646873Q270.69376 62.459373 270.9125 62.115623Q271.08438 61.85 271.45938 60.803123Q271.50626 60.646873 271.61563 60.365623L267.67813 49.975L269.56876 49.975L271.725 55.990623Q272.14688 57.13125 272.475 58.38125Q272.7875 57.178123 273.19376 56.021873L275.4125 49.975L277.17813 49.975L273.225 60.521873Q272.6 62.240623 272.24063 62.88125Q271.77188 63.75625 271.1625 64.14687Q270.56876 64.55312 269.725 64.55312Q269.20938 64.55312 268.58438 64.35Z" fill-rule="nonzero"/></svg>